<svg width="20" height="20" viewBox="0 0 20 20" fill="none" xmlns="http://www.w3.org/2000/svg">
<g id="ArrowUpRight-d">
<path id="Vector" d="M5.44194 15.4419L15.4419 5.44194C15.5592 5.32473 15.625 5.16576 15.625 5C15.625 4.83424 15.5592 4.67527 15.4419 4.55806C15.3247 4.44085 15.1658 4.375 15 4.375C14.9892 4.375 14.9784 4.37528 14.9677 4.37584C14.8133 4.38384 14.6674 4.44876 14.5581 4.55806L14.5578 4.55829L4.55829 14.5578L4.55806 14.5581C4.44085 14.6753 4.375 14.8342 4.375 15C4.375 15.1658 4.44085 15.3247 4.55806 15.4419C4.67527 15.5592 4.83424 15.625 5 15.625C5.16576 15.625 5.32473 15.5592 5.44194 15.4419Z" fill="#906DCA"/>
<path id="Vector_2" d="M14.375 5.625V13.125C14.375 13.4702 14.6548 13.75 15 13.75C15.3452 13.75 15.625 13.4702 15.625 13.125V5C15.625 4.65482 15.3452 4.375 15 4.375H6.875C6.52982 4.375 6.25 4.65482 6.25 5C6.25 5.34518 6.52982 5.625 6.875 5.625H14.375Z" fill="#906DCA"/>
</g>
</svg>
