<svg width="20" height="21" viewBox="0 0 20 21" fill="none" xmlns="http://www.w3.org/2000/svg">
<g id="Folders">
<path id="Vector" d="M15.625 9.25V16.1944C15.625 16.3418 15.5665 16.4831 15.4623 16.5873C15.3581 16.6915 15.2168 16.75 15.0694 16.75H3.125C2.95924 16.75 2.80027 16.6842 2.68306 16.5669C2.56585 16.4497 2.5 16.2908 2.5 16.125V7.375C2.5 7.20924 2.56585 7.05027 2.68306 6.93306C2.80027 6.81585 2.95924 6.75 3.125 6.75H6.66667C6.8019 6.75 6.93348 6.79386 7.04167 6.875L9.20833 8.5C9.31652 8.58114 9.4481 8.625 9.58333 8.625H15C15.1658 8.625 15.3247 8.69085 15.4419 8.80806C15.5592 8.92527 15.625 9.08424 15.625 9.25Z" stroke="white" stroke-width="1.25" stroke-linecap="round" stroke-linejoin="round"/>
<path id="Vector_2" d="M5 6.75V4.875C5 4.70924 5.06585 4.55027 5.18306 4.43306C5.30027 4.31585 5.45924 4.25 5.625 4.25H9.16667C9.3019 4.25 9.43348 4.29386 9.54167 4.375L11.7083 6C11.8165 6.08114 11.9481 6.125 12.0833 6.125H17.5C17.6658 6.125 17.8247 6.19085 17.9419 6.30806C18.0592 6.42527 18.125 6.58424 18.125 6.75V13.6944C18.125 13.7674 18.1106 13.8396 18.0827 13.907C18.0548 13.9744 18.0139 14.0357 17.9623 14.0873C17.9107 14.1389 17.8494 14.1798 17.782 14.2077C17.7146 14.2356 17.6424 14.25 17.5694 14.25H15.625" stroke="white" stroke-width="1.25" stroke-linecap="round" stroke-linejoin="round"/>
</g>
</svg>
