<svg width="48" height="49" viewBox="0 0 48 49" fill="none" xmlns="http://www.w3.org/2000/svg">
<g id="Icon/Fill/MusicNotes">
<path id="Vector" d="M40.9188 5.31891C40.7412 5.17897 40.5342 5.08099 40.3135 5.03228C40.0927 4.98358 39.8637 4.98542 39.6438 5.03766L15.6438 11.0377C15.3166 11.1176 15.0259 11.3054 14.8184 11.5707C14.6109 11.836 14.4988 12.1634 14.5 12.5002V33.1439C13.2486 32.3078 11.7536 31.9138 10.2526 32.0248C8.75157 32.1357 7.33071 32.7451 6.21576 33.7561C5.10082 34.7671 4.35575 36.1218 4.09897 37.6048C3.84219 39.0878 4.08842 40.6141 4.79854 41.9411C5.50866 43.2682 6.64192 44.3198 8.01824 44.9289C9.39456 45.538 10.935 45.6697 12.3947 45.303C13.8544 44.9362 15.1497 44.0922 16.0747 42.9049C16.9997 41.7176 17.5014 40.2552 17.5 38.7502V21.1627L38.5 15.9127V27.1439C37.2486 26.3078 35.7536 25.9138 34.2526 26.0248C32.7516 26.1357 31.3307 26.7451 30.2158 27.7561C29.1008 28.7671 28.3558 30.1218 28.099 31.6048C27.8422 33.0878 28.0884 34.6141 28.7985 35.9411C29.5087 37.2682 30.6419 38.3198 32.0182 38.9289C33.3946 39.538 34.935 39.6697 36.3947 39.303C37.8544 38.9362 39.1497 38.0922 40.0747 36.9049C40.9997 35.7176 41.5014 34.2552 41.5 32.7502V6.50016C41.5022 6.27154 41.4508 6.04558 41.3498 5.84044C41.2489 5.63529 41.1012 5.45667 40.9188 5.31891Z" fill="white"/>
</g>
</svg>
