<svg width="48" height="49" viewBox="0 0 48 49" fill="white" xmlns="http://www.w3.org/2000/svg">
<g id="paint-board-and-brush 1" clip-path="url(#clip0_412_488)">
<g id="Group">
<path id="Vector" d="M47.0302 6.25895C46.9404 6.03172 46.7335 5.87182 46.4909 5.84215C46.249 5.8126 46.0093 5.91793 45.8674 6.11683C45.025 7.29787 43.9196 7.69155 42.6391 8.14745C41.6067 8.51525 40.539 8.89526 39.385 9.72373C37.7531 10.8953 37.0066 12.4924 37.3788 14.0061L37.3391 14.0571C36.6576 13.0685 35.9161 12.1542 35.1337 11.3377C31.4727 7.51777 26.3573 5.22124 21.0986 5.03713C20.8669 5.02901 20.6315 5.0249 20.3988 5.0249C14.5268 5.0249 8.90641 7.64988 4.97882 12.2266C1.0718 16.7796 -0.659928 22.7066 0.227881 28.4878C0.302106 28.9711 0.394998 29.4593 0.504224 29.9393C1.94827 36.2953 5.63651 41.1305 10.6234 43.2046C11.8526 43.7159 13.0926 43.975 14.3083 43.975C17.3287 43.975 19.9669 42.3595 21.5466 39.5428C22.1471 38.471 22.5345 37.3626 22.6978 36.2481C22.794 35.5903 22.7282 34.9331 22.6644 34.2961C22.5988 33.6406 22.5368 33.021 22.636 32.3972C22.8634 30.9672 23.8623 30.1134 25.308 30.1134C25.7192 30.1134 26.1395 30.1811 26.5591 30.3148C26.0678 31.2159 25.6215 32.0764 25.2316 32.874C24.4053 34.5643 23.8353 35.9641 23.5369 37.0341C23.353 37.694 22.8644 39.4478 24.0558 40.2747C24.4342 40.5372 24.9139 40.6299 25.4131 40.537C25.863 40.4535 27.2319 40.1991 31.122 35.7706C32.166 34.5823 33.291 33.207 34.467 31.6823C37.4857 30.6656 39.8349 28.1354 40.4564 25.2279C40.612 24.5011 40.6768 23.7233 40.6492 22.9154C41.7794 21.1687 42.7708 19.5389 43.7684 17.7868C43.7875 17.753 43.8064 17.717 43.8251 17.6801C45.273 17.2836 46.5201 16.1567 47.2521 14.581C48.3208 12.2813 48.242 9.32561 47.0302 6.25895ZM30.7105 17.1488C30.1868 17.9805 29.2867 18.477 28.3023 18.477C27.7678 18.477 27.245 18.3258 26.7906 18.0396C26.1481 17.6349 25.7013 17.0043 25.5332 16.264C25.3651 15.5236 25.4949 14.7619 25.8997 14.1193C26.4235 13.2876 27.3237 12.7911 28.3081 12.7911C28.8427 12.7911 29.3653 12.9423 29.8197 13.2286C30.4622 13.6331 30.9088 14.2637 31.0771 15.0041C31.2452 15.7446 31.1151 16.5062 30.7105 17.1488ZM34.4003 22.2993C35.8375 20.1818 37.3573 18.0769 38.8009 16.2046C39.0349 16.416 39.2966 16.6224 39.58 16.8191C40.0497 17.145 40.541 17.397 41.0427 17.5696C39.8239 19.6539 38.5134 21.7188 36.9267 24.0559C34.3196 27.8973 31.6089 31.4655 29.2937 34.1034C28.0005 35.5767 26.8688 36.7143 25.9968 37.4189C26.3333 36.3422 26.9766 34.8645 27.8718 33.1137C29.4727 29.9828 31.7912 26.1422 34.4003 22.2993ZM9.16764 22.2811C8.63306 22.2811 8.11027 22.1298 7.6557 21.8435C7.01323 21.4389 6.56666 20.8086 6.39843 20.068C6.2302 19.3275 6.36043 18.5658 6.76522 17.9232C7.28868 17.0917 8.18894 16.5951 9.17319 16.5951C9.70788 16.5951 10.2307 16.7463 10.6851 17.0327C12.0114 17.868 12.411 19.6266 11.5762 20.9527C11.0521 21.7845 10.1518 22.2811 9.16764 22.2811ZM6.18776 28.5407C6.71144 27.7089 7.61158 27.2123 8.59595 27.2123C9.13041 27.2123 9.6531 27.3637 10.1078 27.6499C10.7502 28.0545 11.1968 28.6849 11.365 29.4254C11.5334 30.1657 11.4032 30.9272 10.9983 31.57C10.4748 32.4015 9.57454 32.8982 8.59028 32.8982C8.05571 32.8982 7.5328 32.747 7.07812 32.4606C6.43565 32.056 5.98919 31.4256 5.82108 30.6851C5.65307 29.9449 5.78341 29.1832 6.18776 28.5407ZM15.2916 11.6575C15.8153 10.8258 16.7156 10.3292 17.6998 10.3292C18.2342 10.3292 18.757 10.4804 19.2114 10.7667C20.5378 11.6018 20.9374 13.3605 20.1025 14.6868C19.5786 15.5186 18.6783 16.0152 17.694 16.0152C17.1596 16.0152 16.6368 15.8639 16.1823 15.5776C15.54 15.1731 15.0935 14.5427 14.9253 13.8021C14.7568 13.0617 14.8871 12.3002 15.2916 11.6575Z" fill="white"/>
</g>
</g>
<defs>
<clipPath id="clip0_412_488">
<rect width="48" height="48" fill="white" transform="translate(0 0.5)"/>
</clipPath>
</defs>
</svg>
