<svg width="36" height="49" viewBox="0 0 36 49" fill="none" xmlns="http://www.w3.org/2000/svg">
<path d="M24.7505 47.0299C24.2203 47.3982 23.1141 47.3552 22.71 47.3738C22.3031 47.3982 22.3618 46.9855 22.5882 46.7118C22.8118 46.4396 23.2259 45.938 23.2259 45.938L23.0367 44.4235L21.5852 44.4879C21.5852 44.4879 22.8462 45.0855 22.8462 45.3076C22.8462 45.5254 21.4777 47.1059 19.8198 47.4526C18.1619 47.7965 16.6488 47.252 16.6488 47.252C16.6488 47.252 17.0744 48.0086 16.9798 48.3425C16.3407 48.6706 15.415 48.3955 15.0625 48.2981C14.7086 48.2006 14.6427 47.8567 14.6427 47.8567L13.8274 47.8897C13.8274 47.8897 13.6697 46.2361 13.386 45.8091C13.1009 45.3821 12.0763 45.4308 11.6192 45.8091C11.1621 46.1902 11.9416 46.3823 11.1521 46.8236C10.364 47.2664 6.30165 46.8508 4.92318 45.4552C3.54615 44.0581 0.504054 42.7512 0.628718 40.8283C0.688901 39.894 2.62621 38.8465 5.15388 36.5854C7.82772 34.1938 11.1062 30.5915 11.4301 30.0556C12.0606 29.0138 14.3174 19.0077 14.3174 19.0077C14.3174 19.0077 14.9823 14.077 14.7344 13.0482C14.6312 12.6198 13.8918 11.6884 13.3158 10.6008C12.5076 9.07329 11.8012 7.31223 11.6837 6.88951C11.5533 6.41952 11.6493 3.96349 11.6722 2.4274C11.6837 1.59917 11.5089 1.20798 11.6479 1.00737C11.7869 0.806763 12.0448 0.502983 12.618 0.498685C13.3387 0.490087 13.5178 0.854049 14.2271 1.16356C14.7301 1.3828 15.4566 1.39999 15.4451 1.55188C15.4322 1.73386 14.3805 1.57767 14.3805 1.57767C14.3805 1.57767 14.5796 1.69804 14.8892 1.78975C15.137 1.86139 15.5698 1.88862 15.5168 1.97889C15.3506 2.25115 14.5467 2.10929 14.5467 2.10929C14.5467 2.10929 14.647 2.23109 14.8763 2.33426C15.0554 2.41307 15.3892 2.46609 15.3018 2.53487C15.0167 2.75983 14.0036 2.48471 14.2257 2.53487C14.4464 2.58645 14.5223 2.82575 14.1655 2.80569C13.7041 2.78133 13.1166 2.4059 12.9432 2.28697C12.8687 2.73118 13.1439 3.70843 13.3015 4.72294C13.439 5.59845 13.4476 6.52412 13.5723 6.89095C13.6955 7.25061 14.2701 8.39551 14.9737 9.54328C15.299 10.0749 15.9696 10.4403 16.3178 10.8974C16.868 11.6196 17.0887 12.3203 17.4885 12.3518C17.8883 12.3833 18.8956 11.7743 18.8483 10.8745C18.6649 10.9977 18.3167 11.0937 18.0559 10.9089C17.8883 10.7914 17.818 10.446 17.6533 10.2941C17.2621 9.93304 16.9726 9.65648 17.275 8.86265C17.9026 7.21909 18.6076 8.05305 19.0489 7.59594C19.5906 7.0371 20.3801 6.67171 21.3789 6.8279C22.5137 7.00558 23.2947 8.30094 23.5311 9.41862C23.7088 10.2583 23.1657 10.5449 22.8447 11.2628C22.733 11.515 22.9565 12.0595 22.8333 12.2916C22.7702 12.4134 22.4937 12.2544 22.4321 12.3647C22.1254 12.9021 21.9262 13.3563 21.836 13.3892C21.5924 13.4767 20.906 13.18 20.906 13.18C20.906 13.18 21.1424 13.9653 22.0882 14.5241C23.0353 15.0858 23.6042 15.2191 24.4854 15.5358C25.3695 15.851 29.2528 18.1838 29.5121 18.4833C29.77 18.7842 29.3273 22.5069 29.1539 23.1045C28.9805 23.7048 28.4904 24.4184 28.2082 24.513C27.9244 24.6062 27.2667 24.5345 27.0876 24.6176C26.9085 24.7036 26.2823 25.0446 26.0315 24.824C25.7794 24.6047 26.8985 24.1448 26.8985 24.1448C26.8985 24.1448 26.3009 23.9757 26.0932 23.9728C25.8868 23.9671 25.3839 23.8653 25.1259 23.9484C24.8666 24.0316 24.6416 24.2236 24.3765 24.192C24.1071 24.1619 24.451 23.722 24.451 23.722C24.451 23.722 24.2017 23.7521 23.981 23.6088C23.7604 23.4655 24.8952 23.0858 25.8424 22.9784C26.8755 22.8594 27.8757 23.3237 28.0204 22.9153C28.1695 22.4811 28.0835 19.7471 27.6565 19.3215C27.4487 19.1123 26.1763 18.6724 25.1962 18.201C24.1673 17.7038 23.4079 17.3111 22.7516 17.5705C21.4749 18.0763 19.976 20.9608 20.2139 21.9065C20.36 22.4869 21.9148 24.4887 23.3678 26.3701C24.2863 27.5537 24.8823 28.7287 25.9384 29.3506C27.4559 30.2433 30.2157 31.8625 32.2619 33.7983C33.8926 35.3402 34.9859 37.3219 35.2108 37.577C35.7152 38.1487 34.8956 38.5628 34.8956 38.5628C34.8956 38.5628 35.4315 39.7593 35.1005 41.0847C34.7709 42.4102 33.7607 42.5993 33.7607 42.5993C33.7607 42.5993 34.2422 43.2155 34.139 43.5451C34.0917 43.697 32.431 44.1369 31.1514 44.7745C29.6597 45.5182 28.499 46.4596 28.0706 46.4811C27.2725 46.5212 26.3382 44.283 26.3382 44.283C26.3382 44.283 26.1863 45.011 25.8797 44.9852C25.5701 44.9608 25.4541 44.1111 25.1689 44.5596C24.8838 45.0095 25.2821 46.6617 24.7505 47.0299Z" fill="white"/>
</svg>
