<svg width="20" height="20" viewBox="0 0 100 101" fill="none" xmlns="http://www.w3.org/2000/svg">
<path fill-rule="evenodd" clip-rule="evenodd" d="M69.8103 41.3103C69.8103 57.3076 56.842 70.2759 40.8448 70.2759C24.8476 70.2759 11.8793 57.3076 11.8793 41.3103C11.8793 25.3131 24.8476 12.3448 40.8448 12.3448C56.842 12.3448 69.8103 25.3131 69.8103 41.3103ZM64.0904 70.4079C57.7194 75.5043 49.638 78.5518 40.8448 78.5518C20.277 78.5518 3.60345 61.8782 3.60345 41.3103C3.60345 20.7425 20.277 4.06894 40.8448 4.06894C61.4127 4.06894 78.0862 20.7425 78.0862 41.3103C78.0862 50.1035 75.0387 58.1849 69.9423 64.556L95.4949 90.1085C97.1109 91.7245 97.1109 94.3445 95.4949 95.9605C93.8789 97.5764 91.2589 97.5764 89.643 95.9605L64.0904 70.4079Z" fill="white"/>
</svg>
