<svg width="48" height="49" viewBox="0 0 48 49" fill="none" xmlns="http://www.w3.org/2000/svg">
<g id="Sirk san&#39;ati" clip-path="url(#clip0_606_2527)">
<g id="Black">
<path id="Vector" d="M23.2125 0.678123C23.0719 0.771873 22.8656 0.978123 22.7719 1.11875C22.6031 1.38125 22.5938 1.6625 22.5938 6.96875V12.5562L21.9656 13.1656C21.0563 14.0469 19.65 15.275 18.3844 16.2781C13.2375 20.3844 7.40625 23.7031 2.1375 25.5312C0.496875 26.1125 0.4125 26.15 0.1875 26.525C0.01875 26.7875 0 26.9937 0 28.5594C0 30.5562 0.1125 31.1 0.73125 32.0562C1.67813 33.5094 3.225 34.3438 5.01562 34.3438C7.17188 34.3438 8.86875 33.1719 9.68438 31.1281C9.84375 30.7156 9.89062 30.35 9.9375 28.8125C9.99375 26.8625 10.0688 26.5531 10.5188 26.2625C10.6406 26.1875 11.2969 25.8969 11.9906 25.6156C14.5031 24.6219 16.8 23.1031 18.6562 21.2187C20.55 19.2969 21.4781 17.6187 22.2281 14.75C22.7719 12.6594 22.8844 12.3781 23.2969 12.125C23.925 11.7312 24.8344 11.975 25.1531 12.6125C25.2281 12.7812 25.5094 13.7469 25.7719 14.75C26.5219 17.6094 27.45 19.2969 29.3438 21.2187C31.1813 23.0844 33.4969 24.6219 36.0094 25.6156C36.7031 25.8969 37.3594 26.1875 37.4813 26.2625C37.9313 26.5531 38.0063 26.8625 38.0625 28.8125C38.1094 30.35 38.1562 30.7156 38.3156 31.1281C38.625 31.9062 38.9438 32.3844 39.5156 32.9562C40.4719 33.9031 41.5688 34.3438 43.0125 34.3438C44.7938 34.3438 46.3125 33.5281 47.2688 32.0562C47.8875 31.1 48 30.5562 48 28.5594C48 27.2 47.9719 26.7781 47.8594 26.5625C47.6813 26.2062 47.2313 25.9812 44.9062 25.0531C42.5719 24.125 41.4938 23.6469 39.4688 22.625C34.7344 20.225 30.2625 17.1125 26.4656 13.5687L25.4063 12.575V10.7562V8.9375H26.6063C28.0688 8.9375 28.9313 8.75 30.0938 8.16875C30.7406 7.85 31.0594 7.60625 31.7813 6.875C32.5125 6.15312 32.7563 5.83437 33.075 5.1875C33.5813 4.175 33.8438 3.125 33.8438 2.15C33.8438 1.31562 33.7125 0.996872 33.225 0.678123C32.9719 0.509373 32.7 0.5 28.2188 0.5C23.7375 0.5 23.4656 0.509373 23.2125 0.678123Z" fill="white"/>
<path id="Vector_2" d="M22.0406 21.4155C20.8875 22.9812 18.5344 25.0812 16.5844 26.2905C15.75 26.8155 13.6875 27.8655 13.1062 28.0718L12.75 28.1937V29.2343C12.75 29.9187 12.8062 30.453 12.9 30.7905C13.3875 32.4499 14.6437 33.7062 16.3031 34.1937C16.9781 34.3905 18.3656 34.3905 19.0406 34.1937C20.7094 33.7062 21.9656 32.4405 22.4437 30.7812C22.575 30.3312 22.5937 29.628 22.575 25.4937L22.5469 20.7218L22.0406 21.4155Z" fill="white"/>
<path id="Vector_3" d="M25.4161 25.4937C25.4067 29.6093 25.4255 30.3499 25.5567 30.7905C26.0442 32.4499 27.3005 33.7062 28.9599 34.1937C29.6349 34.3905 31.0224 34.3905 31.6974 34.1937C33.3567 33.7062 34.613 32.4499 35.1005 30.7905C35.1942 30.453 35.2505 29.9187 35.2505 29.2437V28.203L34.8005 28.0249C34.0224 27.7155 32.2224 26.7968 31.4161 26.2905C29.2036 24.9218 27.2067 23.0937 25.6224 20.9749L25.4161 20.703V25.4937Z" fill="white"/>
<path id="Vector_4" d="M10.8938 34.3063C9.98438 35.4594 8.33438 36.4906 6.79688 36.875C5.70938 37.1563 3.94688 37.1281 2.98125 36.8188C2.82188 36.7719 2.8125 37.0719 2.8125 42.1906C2.8125 47.3375 2.82188 47.6188 2.99063 47.8813C3.08438 48.0219 3.29063 48.2281 3.43125 48.3219C3.69375 48.4906 3.99375 48.5 10.3219 48.5H16.9406L17.0063 47.3C17.0906 45.7813 17.25 45.0969 17.7656 44.0469C18.9469 41.6188 21.3 40.1469 24 40.1469C26.6344 40.1469 28.9688 41.5625 30.1875 43.925C30.6938 44.8906 30.9094 45.7906 30.9938 47.2719L31.0594 48.5H37.6313C44.025 48.5 44.2125 48.4906 44.5125 48.3125C44.6813 48.2094 44.8969 47.9938 45 47.825C45.1781 47.525 45.1875 47.3375 45.1875 42.1438C45.1875 37.0719 45.1781 36.7719 45.0281 36.8188C44.0531 37.1281 42.2906 37.1563 41.2031 36.875C39.6656 36.4906 38.0156 35.4594 37.1063 34.3063C36.8906 34.025 36.6844 33.7906 36.6562 33.7906C36.6281 33.7906 36.4219 34.025 36.2063 34.3063C35.2969 35.4594 33.6563 36.4906 32.1094 36.875C31.0875 37.1375 29.5688 37.1375 28.5469 36.875C27 36.4906 25.3594 35.4594 24.45 34.3063C24.2344 34.025 24.0281 33.7906 24 33.7906C23.9719 33.7906 23.7656 34.025 23.55 34.3063C22.6406 35.4594 21 36.4906 19.4531 36.875C18.4313 37.1375 16.9125 37.1375 15.8906 36.875C14.3438 36.4906 12.7031 35.4594 11.7938 34.3063C11.5781 34.025 11.3719 33.7906 11.3438 33.7906C11.3156 33.7906 11.1094 34.025 10.8938 34.3063Z" fill="white"/>
<path id="Vector_5" d="M22.6023 43.0531C21.4773 43.475 20.6617 44.2156 20.1273 45.3031C19.8461 45.8938 19.8273 45.9875 19.7992 47.2156L19.7617 48.5H23.9992H28.2367L28.1992 47.2063C28.1711 45.9688 28.1523 45.8938 27.8523 45.2656C27.4305 44.4031 26.6898 43.6625 25.8273 43.25C25.218 42.95 25.0867 42.9219 24.1398 42.9031C23.2961 42.875 23.0148 42.9031 22.6023 43.0531Z" fill="white"/>
</g>
</g>
<defs>
<clipPath id="clip0_606_2527">
<rect width="48" height="48" fill="white" transform="translate(0 0.5)"/>
</clipPath>
</defs>
</svg>
