<svg width="48" height="49" viewBox="0 0 48 49" fill="none" xmlns="http://www.w3.org/2000/svg">
<g id="image 17 (traced)" clip-path="url(#clip0_606_2538)">
<g id="Black">
<path id="Vector" d="M20.578 0.725361C20.3249 0.847237 19.9499 1.10973 19.7624 1.30661C19.0593 2.04723 19.0312 2.16911 18.0843 8.62849C17.6062 11.891 17.2405 14.5816 17.278 14.6191C17.3624 14.7129 19.0312 14.0472 20.203 13.4566C20.7655 13.166 21.8249 12.5379 22.5468 12.0504C23.2687 11.5629 24.0749 11.066 24.328 10.9535C27.1218 9.70661 30.4124 11.3472 31.4999 14.5254C31.6968 15.0879 33.3843 25.6722 33.5718 27.491C33.7593 29.3285 33.5718 33.0035 33.2155 34.4191C33.1687 34.6254 33.2155 34.616 34.0874 34.1754C37.6405 32.3847 39.0093 31.4472 40.8843 29.4972C42.9937 27.2941 44.5687 24.6504 45.5624 21.6129C46.1812 19.7097 46.303 19.1004 47.2124 12.9222C48.1124 6.80036 48.1499 6.29411 47.6999 5.41286C47.2124 4.47536 46.303 3.91286 45.3562 3.98786C45.0843 4.00661 44.2874 4.20349 43.5937 4.41911C42.2905 4.82224 41.1655 5.07536 39.703 5.29099C38.4468 5.48786 34.9218 5.45974 33.5812 5.24411C30.1312 4.70974 26.8312 3.43474 24.0468 1.56911C23.3812 1.11911 22.6968 0.697235 22.528 0.631611C22.0405 0.425362 21.1218 0.46286 20.578 0.725361Z" fill="white"/>
<path id="Vector_2" d="M25.481 13.3721C25.2935 13.4471 24.8529 13.7189 24.4966 13.9814C21.6466 16.0908 17.8591 17.6189 14.1091 18.1814C12.5623 18.4158 9.38414 18.4158 7.87477 18.1908C6.61852 17.9939 5.19352 17.6658 3.92789 17.2814C2.42789 16.8127 1.56539 16.9346 0.815395 17.7033C0.271645 18.2564 0.0560197 18.8096 0.0185197 19.6721C-0.00960527 20.2721 0.159145 21.5564 0.88102 26.1408C1.37789 29.2814 1.90289 32.3471 2.06227 32.9471C3.04664 36.8002 5.07164 40.3252 7.83727 42.9689C9.46852 44.5346 10.5279 45.2189 13.9216 46.9439C16.8654 48.4346 17.2029 48.5377 18.7029 48.4814C19.856 48.4252 20.6435 48.1908 21.4685 47.6377C22.0685 47.2346 25.9216 43.4189 26.6529 42.5002C28.9498 39.6314 30.4123 35.9939 30.8341 32.0752C30.9654 30.9314 30.9654 28.5596 30.8435 27.4533C30.6185 25.4846 29.0248 15.6127 28.8466 15.1346C28.631 14.5346 27.9748 13.7939 27.4216 13.5127C26.9435 13.2689 25.9591 13.1939 25.481 13.3721ZM24.6091 23.8252C25.3404 24.0971 26.381 24.8002 26.6341 25.2221C26.9435 25.7189 26.8498 26.3846 26.4091 26.8252C26.1279 27.1064 25.9966 27.1627 25.5748 27.2002C25.1529 27.2283 25.031 27.2002 24.7498 26.9939C23.8216 26.3096 22.9779 26.1221 22.2373 26.4221C21.8248 26.6002 21.5341 26.8533 21.1685 27.3783C20.0341 29.0283 17.8779 27.5471 18.9466 25.8596C19.5654 24.8939 20.7373 24.0127 21.8341 23.6939C22.481 23.5064 23.9154 23.5814 24.6091 23.8252ZM10.5091 25.7564C11.6904 26.0096 12.9935 26.8439 13.2654 27.5283C13.4623 28.0252 13.3873 28.4377 13.0216 28.8596C12.7029 29.2252 12.2154 29.4127 11.8216 29.3283C11.6716 29.3002 11.2685 29.0846 10.931 28.8596C9.67477 28.0346 8.60602 28.2408 7.72477 29.4689C7.54665 29.7127 7.24664 29.9939 7.05914 30.0783C6.41227 30.3877 5.6154 30.0877 5.29665 29.4127C5.0529 28.8971 5.15602 28.4564 5.67165 27.7346C6.39352 26.7221 7.44352 26.0096 8.56852 25.7658C9.31852 25.5971 9.75914 25.5971 10.5091 25.7564ZM22.406 34.5127C22.6873 34.7471 22.7529 35.6471 22.556 36.5939C21.7873 40.2596 17.7279 42.0971 14.5779 40.2033C13.481 39.5377 12.6841 38.5533 12.2154 37.2783C11.8029 36.1252 11.9998 35.7971 12.956 36.0596C14.2123 36.4158 15.0935 36.5283 16.3123 36.4721C18.2716 36.3877 19.9591 35.8346 21.4685 34.7752C21.806 34.5408 22.106 34.3439 22.1341 34.3439C22.1716 34.3439 22.2935 34.4189 22.406 34.5127Z" fill="white"/>
</g>
</g>
<defs>
<clipPath id="clip0_606_2538">
<rect width="48" height="48" fill="white" transform="translate(0 0.5)"/>
</clipPath>
</defs>
</svg>
