<svg width="17" height="14" viewBox="0 0 17 14" fill="none" xmlns="http://www.w3.org/2000/svg">
<g id="Black">
<path id="Vector" d="M7.99716 3.2098C-0.325017 6.42031 0.315859 6.15047 0.315859 6.46631C0.315859 6.69322 0.395585 6.81587 0.601033 6.9048C0.686891 6.9416 1.53321 7.2605 2.47766 7.61313L4.19791 8.25401L4.89704 10.5078C5.28341 11.7497 5.62378 12.8076 5.65444 12.8597C5.75256 13.0222 5.99481 13.0989 6.17879 13.0284C6.21865 13.013 6.72461 12.6113 7.30722 12.1391C7.88984 11.6638 8.41112 11.2529 8.46938 11.2284C8.60124 11.1732 8.75149 11.1732 8.88948 11.2315C8.94774 11.256 9.791 11.8539 10.7661 12.5592C11.7382 13.2676 12.5906 13.8808 12.655 13.9268C12.8635 14.0679 13.1702 14.0158 13.2989 13.8164C13.3541 13.7306 16.0158 0.934542 16.0158 0.753625C16.0158 0.502181 15.8379 0.327397 15.5803 0.333529C15.4822 0.333529 13.5657 1.06026 7.99716 3.2098ZM12.5753 3.18834C12.5967 3.2098 12.6121 3.2466 12.6121 3.27726C12.6121 3.30486 11.2721 4.57128 9.63461 6.09527C7.75492 7.84311 6.62342 8.91328 6.56822 9.00221C6.4333 9.21379 6.39651 9.37324 6.27998 10.2349C6.19106 10.8819 6.16346 11.026 6.11133 11.0751C6.06227 11.1241 6.03467 11.1303 5.96721 11.1058C5.88442 11.0782 5.86909 11.0322 5.47659 9.66761C5.23128 8.81516 5.07183 8.20188 5.06876 8.11602C5.06876 7.94124 5.19141 7.68366 5.32327 7.59167C5.44899 7.49968 12.4986 3.15461 12.5231 3.15154C12.5323 3.15154 12.5538 3.16687 12.5753 3.18834Z" fill="white"/>
</g>
</svg>
