<svg width="151" height="36" viewBox="0 0 151 36" fill="none" xmlns="http://www.w3.org/2000/svg">
<g id="Group 469279">
<path id="Vector" d="M50.7293 24.3081C49.1678 24.3081 47.7105 23.9611 46.392 23.2672C45.1081 22.5732 44.0671 21.6016 43.2691 20.3178C42.5057 19.0339 42.124 17.6113 42.124 16.0499C42.124 14.4884 42.5057 13.0658 43.2691 11.8166C44.0324 10.5675 45.0734 9.59592 46.392 8.86725C47.7105 8.17328 49.1331 7.82629 50.7293 7.82629C52.3254 7.82629 53.7481 8.17328 55.0319 8.86725C56.3505 9.56122 57.3914 10.5328 58.1201 11.8166C58.8834 13.0658 59.2651 14.4884 59.2651 16.0499C59.2651 17.6113 58.8834 19.0339 58.1201 20.3178C57.3567 21.5669 56.3158 22.5385 55.0319 23.2672C53.7481 23.9611 52.2907 24.3081 50.7293 24.3081ZM50.7293 20.7342C52.0478 20.7342 53.1235 20.3178 53.9215 19.4503C54.7196 18.5829 55.136 17.4725 55.136 16.0499C55.136 14.6272 54.7196 13.4822 53.9215 12.6494C53.1235 11.7819 52.0825 11.3656 50.7293 11.3656C49.376 11.3656 48.3004 11.7819 47.5023 12.6147C46.7042 13.4475 46.3226 14.5925 46.3226 16.0152C46.3226 17.4378 46.7042 18.5829 47.5023 19.4156C48.3004 20.3178 49.376 20.7342 50.7293 20.7342Z" fill="white"/>
<path id="Vector_2" d="M65.58 13.1699C65.9617 12.58 66.5169 12.0942 67.2108 11.7125C67.9048 11.3308 68.7376 11.1573 69.6744 11.1573C70.7848 11.1573 71.7563 11.4349 72.6585 11.9554C73.5607 12.4759 74.2546 13.2393 74.7404 14.2455C75.2609 15.2518 75.5385 16.3968 75.5385 17.7154C75.5385 19.0339 75.2609 20.179 74.7404 21.1852C74.2199 22.1915 73.526 22.9549 72.6585 23.5101C71.7563 24.0305 70.7848 24.3081 69.6744 24.3081C68.7723 24.3081 67.9395 24.1346 67.2108 23.7529C66.5169 23.3713 65.9617 22.9202 65.58 22.3303V27.9168H61.5203V11.3308H65.58V13.1699ZM71.3747 17.7154C71.3747 16.7438 71.0971 15.9805 70.5072 15.4253C69.952 14.8701 69.258 14.5925 68.4253 14.5925C67.5925 14.5925 66.9332 14.8701 66.3434 15.4253C65.7882 15.9805 65.5106 16.7785 65.5106 17.7501C65.5106 18.7216 65.7882 19.485 66.3434 20.0749C66.8985 20.6301 67.5925 20.9077 68.4253 20.9077C69.258 20.9077 69.9173 20.6301 70.5072 20.0749C71.0971 19.485 71.3747 18.7216 71.3747 17.7154Z" fill="white"/>
<path id="Vector_3" d="M90.1467 17.5422C90.1467 17.9239 90.112 18.3056 90.0773 18.6873H80.8822C80.9516 19.4853 81.1945 20.1099 81.6802 20.5263C82.166 20.9427 82.7212 21.1509 83.4152 21.1509C84.4214 21.1509 85.1501 20.7345 85.5318 19.9017H89.8691C89.6609 20.7345 89.2445 21.4978 88.6547 22.1571C88.0995 22.8164 87.3708 23.3716 86.5034 23.7532C85.6359 24.1349 84.6643 24.3431 83.5887 24.3431C82.3048 24.3431 81.1251 24.0655 80.1188 23.5451C79.1126 23.0246 78.3145 22.2612 77.7593 21.2549C77.2041 20.2487 76.8918 19.1036 76.8918 17.7851C76.8918 16.4665 77.1694 15.2868 77.7246 14.3152C78.2798 13.309 79.0779 12.5456 80.0841 12.0251C81.0904 11.5046 82.2701 11.2271 83.5887 11.2271C84.9072 11.2271 86.0176 11.4699 87.0238 11.9904C88.0301 12.5109 88.7935 13.2396 89.3486 14.2111C89.8691 15.148 90.1467 16.2583 90.1467 17.5422ZM85.9829 16.5012C85.9829 15.842 85.74 15.2868 85.2542 14.9051C84.7684 14.5234 84.1786 14.3152 83.4846 14.3152C82.7906 14.3152 82.2354 14.5234 81.7497 14.9051C81.2986 15.2868 81.021 15.842 80.8822 16.5359H85.9829V16.5012Z" fill="white"/>
<path id="Vector_4" d="M100.383 11.2271C101.944 11.2271 103.159 11.7128 104.096 12.6844C105.032 13.656 105.484 14.9745 105.484 16.6747V24.1349H101.459V17.1952C101.459 16.3277 101.216 15.6685 100.765 15.2174C100.313 14.7316 99.6889 14.5234 98.9255 14.5234C98.1622 14.5234 97.5376 14.7663 97.0865 15.2174C96.6354 15.7032 96.3925 16.3624 96.3925 17.1952V24.1349H92.2981V11.3311H96.3578V13.0314C96.7742 12.4762 97.3294 12.0251 98.0234 11.7128C98.7173 11.4005 99.5154 11.2271 100.383 11.2271Z" fill="white"/>
<path id="Vector_5" d="M114.332 24.3081C113.117 24.3081 112.007 24.0999 111.035 23.7183C110.064 23.3366 109.3 22.7814 108.711 22.018C108.155 21.2547 107.843 20.3525 107.808 19.3115H112.146C112.215 19.9014 112.423 20.3525 112.805 20.6995C113.152 21.0118 113.638 21.1506 114.228 21.1506C114.817 21.1506 115.303 21.0118 115.65 20.7689C115.997 20.4913 116.171 20.1096 116.171 19.6585C116.171 19.2768 116.032 18.9298 115.754 18.687C115.477 18.4441 115.13 18.2012 114.748 18.0624C114.366 17.8889 113.777 17.7154 113.048 17.4725C111.972 17.1602 111.105 16.8479 110.411 16.5009C109.717 16.1887 109.127 15.7029 108.641 15.0783C108.155 14.4537 107.912 13.621 107.912 12.6147C107.912 11.1227 108.468 9.94291 109.613 9.11014C110.723 8.24268 112.215 7.82629 114.019 7.82629C115.824 7.82629 117.35 8.24268 118.461 9.11014C119.571 9.94291 120.196 11.1227 120.265 12.6494H115.858C115.824 12.1289 115.616 11.7125 115.269 11.4349C114.922 11.1227 114.436 10.9839 113.881 10.9839C113.395 10.9839 112.978 11.1227 112.701 11.3656C112.389 11.6084 112.25 11.9554 112.25 12.4412C112.25 12.9617 112.493 13.3781 113.013 13.6557C113.534 13.9332 114.297 14.2455 115.373 14.5925C116.448 14.9395 117.316 15.2865 117.975 15.5988C118.669 15.9111 119.259 16.3968 119.745 16.9867C120.23 17.6113 120.473 18.3747 120.473 19.3462C120.473 20.2484 120.23 21.0812 119.745 21.8445C119.259 22.6079 118.565 23.1978 117.663 23.6489C116.691 24.0999 115.616 24.3081 114.332 24.3081Z" fill="white"/>
<path id="Vector_6" d="M135.428 17.5422C135.428 17.9239 135.394 18.3056 135.359 18.6873H126.164C126.233 19.4853 126.476 20.1099 126.962 20.5263C127.448 20.9427 128.003 21.1509 128.697 21.1509C129.703 21.1509 130.432 20.7345 130.814 19.9017H135.151C134.943 20.7345 134.526 21.4978 133.936 22.1571C133.381 22.8164 132.653 23.3716 131.785 23.7532C130.918 24.1349 129.946 24.3431 128.87 24.3431C127.587 24.3431 126.407 24.0655 125.401 23.5451C124.394 23.0246 123.596 22.2612 123.041 21.2549C122.486 20.2487 122.174 19.1036 122.174 17.7851C122.174 16.4665 122.451 15.2868 123.006 14.3152C123.562 13.309 124.36 12.5456 125.366 12.0251C126.372 11.5046 127.552 11.2271 128.87 11.2271C130.189 11.2271 131.299 11.4699 132.306 11.9904C133.312 12.5109 134.075 13.2396 134.63 14.2111C135.151 15.148 135.428 16.2583 135.428 17.5422ZM131.265 16.5012C131.265 15.842 131.022 15.2868 130.536 14.9051C130.05 14.5234 129.46 14.3152 128.766 14.3152C128.072 14.3152 127.517 14.5234 127.031 14.9051C126.58 15.2868 126.303 15.842 126.164 16.5359H131.265V16.5012Z" fill="white"/>
<path id="Vector_7" d="M136.782 17.7154C136.782 16.3968 137.025 15.2518 137.545 14.2455C138.066 13.2393 138.76 12.4759 139.662 11.9554C140.564 11.4349 141.535 11.1573 142.646 11.1573C143.583 11.1573 144.381 11.3308 145.109 11.7125C145.838 12.0942 146.359 12.5453 146.74 13.1699V11.3655H150.8V24.1693H146.74V22.365C146.359 22.9549 145.803 23.4407 145.075 23.8223C144.381 24.204 143.548 24.3775 142.611 24.3775C141.535 24.3775 140.564 24.0999 139.662 23.5794C138.76 23.0243 138.066 22.2609 137.545 21.2546C137.025 20.2137 136.782 19.0339 136.782 17.7154ZM146.706 17.7501C146.706 16.7785 146.428 16.0152 145.838 15.4253C145.283 14.8701 144.589 14.5925 143.791 14.5925C142.993 14.5925 142.299 14.8701 141.709 15.4253C141.154 15.9805 140.876 16.7438 140.876 17.7154C140.876 18.6869 141.154 19.485 141.709 20.0402C142.264 20.5954 142.958 20.873 143.791 20.873C144.624 20.873 145.283 20.5954 145.838 20.0402C146.428 19.5197 146.706 18.7216 146.706 17.7501Z" fill="white"/>
<path id="Vector_8" d="M34.6984 17.8891C34.6984 27.4659 26.9259 35.2384 17.3491 35.2384C7.77224 35.2384 -0.000244141 27.4659 -0.000244141 17.8891C-0.000244141 8.31228 7.77224 0.539795 17.3491 0.539795C26.9259 0.539795 34.6984 8.31228 34.6984 17.8891Z" fill="#2081E2"/>
<path id="Vector_9" d="M8.57017 18.4788L8.63957 18.3747L13.1504 11.3309C13.2198 11.2268 13.3586 11.2268 13.428 11.3656C14.1913 13.0658 14.8159 15.1478 14.5383 16.4663C14.3995 17.0215 14.0525 17.7502 13.6362 18.4094C13.6015 18.5135 13.5321 18.6176 13.4627 18.687C13.428 18.7217 13.3933 18.7564 13.3239 18.7564H8.67427C8.57017 18.7217 8.50077 18.5829 8.57017 18.4788Z" fill="white"/>
<path id="Vector_10" d="M28.6607 19.7977V20.9081C28.6607 20.9775 28.626 21.0122 28.5567 21.0469C28.2097 21.1857 26.9952 21.7409 26.5094 22.4348C25.2256 24.2045 24.254 26.7375 22.1027 26.7375H13.0464C9.8541 26.7375 7.25171 24.1351 7.25171 20.9081V20.804C7.25171 20.7346 7.32111 20.6652 7.3905 20.6652H12.4912C12.5953 20.6652 12.6647 20.7693 12.6647 20.8387C12.63 21.151 12.6994 21.498 12.8382 21.8103C13.1505 22.4348 13.775 22.7818 14.4343 22.7818H16.9326V20.8387H14.469C14.3302 20.8387 14.2608 20.6999 14.3302 20.5958C14.3649 20.5611 14.3996 20.5264 14.4343 20.457C14.6772 20.11 14.9895 19.6242 15.3365 19.0344C15.5794 18.6527 15.7876 18.2016 15.9611 17.7852C15.9958 17.7158 16.0305 17.6464 16.0652 17.5423C16.0999 17.4035 16.1692 17.2647 16.2039 17.1606C16.2386 17.0566 16.2733 16.9525 16.308 16.8484C16.3774 16.5014 16.4121 16.1197 16.4121 15.7033C16.4121 15.5645 16.4121 15.391 16.3774 15.2175C16.3774 15.044 16.3427 14.8705 16.3427 14.697C16.3427 14.5583 16.308 14.3848 16.2733 14.246C16.2386 14.0031 16.2039 13.7949 16.1346 13.552L16.0999 13.4826C16.0652 13.3438 16.0305 13.1703 15.9611 13.0315C15.8223 12.5457 15.6488 12.06 15.4753 11.6436C15.4059 11.4701 15.3365 11.2966 15.2671 11.1231C15.163 10.8802 15.0589 10.6373 14.9548 10.4291C14.9201 10.325 14.8507 10.2556 14.816 10.1515C14.7813 10.0474 14.7119 9.94334 14.6772 9.83924L14.5731 9.63105L14.2608 9.07587C14.2261 9.00647 14.2955 8.90238 14.3649 8.93708L16.2733 9.45756L16.5162 9.52695L16.7938 9.59635L16.8979 9.63105V8.486C16.8979 7.93082 17.349 7.47974 17.8695 7.47974C18.1471 7.47974 18.39 7.58383 18.5635 7.75732C18.7369 7.93082 18.841 8.17371 18.841 8.4513V10.1168L19.0492 10.1862C19.0492 10.1862 19.0839 10.1862 19.0839 10.2209C19.1186 10.2556 19.188 10.325 19.2921 10.3944C19.3615 10.4638 19.4309 10.5332 19.535 10.6026C19.7085 10.7414 19.9514 10.9496 20.1943 11.1578C20.2637 11.2272 20.3331 11.2619 20.3678 11.3313C20.6801 11.6089 21.0271 11.9559 21.374 12.3375C21.4781 12.4416 21.5475 12.5457 21.6516 12.6498C21.7557 12.7539 21.8251 12.8927 21.9292 12.9968C22.0333 13.1356 22.1721 13.3091 22.2762 13.4479C22.3109 13.5173 22.3803 13.5867 22.415 13.6908C22.5538 13.899 22.6579 14.1072 22.7967 14.3154C22.8314 14.4195 22.9008 14.5236 22.9355 14.6276C23.0743 14.9052 23.1784 15.1828 23.2131 15.4951C23.2478 15.5645 23.2478 15.6339 23.2478 15.6686C23.2825 15.738 23.2825 15.8421 23.2825 15.9462C23.3172 16.2585 23.2825 16.5361 23.2478 16.8484C23.2131 16.9872 23.1784 17.0912 23.1437 17.23C23.109 17.3341 23.0743 17.4729 23.0049 17.6117C22.9008 17.8546 22.762 18.0975 22.6232 18.3404C22.5885 18.4098 22.5191 18.5139 22.4497 18.618C22.3803 18.7221 22.3109 18.7915 22.2762 18.8956C22.2068 18.9997 22.1027 19.1038 22.0333 19.2079C21.9639 19.312 21.8945 19.4161 21.7904 19.5202C21.6863 19.6589 21.5475 19.7977 21.4434 19.9365C21.374 20.0059 21.3046 20.11 21.2005 20.1794C21.1311 20.2488 21.0618 20.3529 20.9577 20.4223C20.8536 20.5264 20.7495 20.6305 20.6454 20.6999L20.4372 20.8734C20.4025 20.9081 20.3678 20.9081 20.3331 20.9081H18.8063V22.8512H20.7148C21.1312 22.8512 21.5475 22.7124 21.8598 22.4348C21.9639 22.3307 22.4497 21.9144 23.0396 21.2898C23.0627 21.2666 23.0858 21.2551 23.109 21.2551L28.3832 19.7283C28.5913 19.6242 28.6607 19.6936 28.6607 19.7977Z" fill="white"/>
</g>
</svg>
