<svg width="92" height="34" viewBox="0 0 92 34" fill="none" xmlns="http://www.w3.org/2000/svg">
<g id="Paypal">
<path id="Vector" d="M53.845 7.60358H45.8765C45.3314 7.60358 44.8676 7.98635 44.7823 8.50729L41.5595 28.2652C41.5031 28.6157 41.7508 28.9438 42.1133 28.999C42.1473 29.004 42.1818 29.0068 42.217 29.0068H46.0211C46.5668 29.0068 47.0307 28.6229 47.1154 28.102L47.9849 22.7728C48.069 22.2524 48.5328 21.8685 49.0779 21.8679H51.6006C56.8499 21.8679 59.879 19.412 60.6702 14.5447C61.0269 12.4152 60.6852 10.7421 59.6543 9.57035C58.5215 8.28387 56.5128 7.60303 53.8461 7.60303L53.845 7.60358ZM54.764 14.8199C54.3284 17.5845 52.1434 17.5845 50.031 17.5845H48.8284L49.672 12.4213C49.7233 12.1093 50.001 11.8792 50.3278 11.8792H50.8786C52.3174 11.8792 53.675 11.8792 54.3762 12.6726C54.7945 13.1456 54.9225 13.8488 54.7629 14.8199H54.764ZM77.6644 14.7307H73.8487C73.522 14.7307 73.2437 14.9609 73.193 15.2729L73.0242 16.3047L72.7574 15.9309C71.9311 14.7714 70.0889 14.3842 68.2502 14.3842C64.0335 14.3842 60.4316 17.4725 59.7304 21.8044C59.3656 23.9651 59.8842 26.0316 61.1519 27.4724C62.3147 28.7973 63.9788 29.3495 65.9581 29.3495C69.356 29.3495 71.2396 27.2373 71.2396 27.2373L71.0697 28.2624C71.0115 28.6129 71.2586 28.9422 71.6205 28.9979C71.6551 29.0035 71.6897 29.0057 71.7242 29.0057H75.1613C75.707 29.0057 76.1709 28.6218 76.2556 28.1009L78.3178 15.4723C78.376 15.1235 78.13 14.7948 77.7693 14.7391C77.7347 14.7335 77.6995 14.7307 77.6644 14.7307ZM72.3454 21.912C71.9772 24.0197 70.2468 25.4349 68.0399 25.4349C66.9319 25.4349 66.0462 25.0911 65.4775 24.4398C64.9134 23.7929 64.6991 22.8725 64.8788 21.8473C65.2228 19.7574 66.982 18.296 69.1549 18.296C70.2388 18.296 71.1192 18.6442 71.6995 19.3011C72.2809 19.9647 72.5113 20.8907 72.3448 21.9114L72.3454 21.912ZM97.9874 14.7307H94.1527C93.7857 14.7313 93.4422 14.9074 93.236 15.2004L87.9475 22.7332L85.7054 15.4946C85.5643 15.0411 85.1327 14.7307 84.6429 14.7307H80.8745C80.5074 14.7296 80.2095 15.0166 80.2084 15.3715C80.2084 15.4428 80.2205 15.513 80.2441 15.5804L84.4677 27.5654L80.4971 32.9855C80.2844 33.2746 80.3547 33.6758 80.6538 33.8808C80.7661 33.9583 80.901 33.9995 81.0387 33.9995H84.8688C85.2318 33.9995 85.5718 33.8284 85.7786 33.5398L98.5325 15.7386C98.7417 15.4473 98.6667 15.0472 98.3654 14.845C98.2542 14.7703 98.1222 14.7302 97.9868 14.7302L97.9874 14.7307Z" fill="white"/>
<path id="Vector_2" d="M8.46704 32.8462L9.07667 29.1032L7.71911 29.0726H1.2373L5.74155 1.45592C5.76921 1.28153 5.92479 1.15282 6.10745 1.15394H17.037C20.6654 1.15394 23.1691 1.88381 24.4765 3.32518C25.0896 4.00101 25.4797 4.70749 25.6687 5.48473C25.8669 6.3004 25.8704 7.27487 25.6768 8.46385L25.6629 8.55077V9.3124L26.276 9.64837C26.7439 9.87736 27.1645 10.1877 27.5172 10.5632C28.0415 11.141 28.3804 11.8759 28.5238 12.7467C28.6719 13.6426 28.6229 14.7085 28.3804 15.9147C28.1009 17.3026 27.6486 18.5116 27.0384 19.5006C26.4996 20.387 25.7753 21.1542 24.9121 21.7537C24.1014 22.3103 23.1374 22.7327 22.0484 23.0034C20.9927 23.2692 19.789 23.4035 18.4689 23.4035H17.6184C17.01 23.4035 16.4193 23.6152 15.9555 23.9952C15.4922 24.3791 15.1851 24.9089 15.0889 25.4911L15.0249 25.8282L13.9485 32.425L13.8996 32.6673C13.8869 32.7442 13.8644 32.7821 13.8321 32.8083C13.8005 32.8334 13.7613 32.8473 13.7204 32.8479H8.46877L8.46704 32.8462Z" fill="#253B80"/>
<path id="Vector_3" d="M26.8558 8.63818C26.823 8.83987 26.7861 9.04602 26.744 9.25774C25.3029 16.4133 20.3717 18.8849 14.0737 18.8849H10.8671C10.0967 18.8849 9.44788 19.4259 9.32803 20.1602L7.6864 30.228L7.2214 33.0818C7.15052 33.5147 7.45592 33.9209 7.90363 33.9894C7.9457 33.9961 7.98834 33.9989 8.03155 33.9989H13.7188C14.3924 33.9989 14.9645 33.5259 15.0706 32.8835L15.1265 32.6043L16.1971 26.0338L16.2656 25.6733C16.3705 25.0287 16.9438 24.5556 17.6174 24.5556H18.4679C23.9782 24.5556 28.2917 22.3927 29.5525 16.1331C30.0792 13.5183 29.8066 11.3348 28.4127 9.7993C27.9708 9.32405 27.4436 8.93125 26.8558 8.63874V8.63818Z" fill="#179BD7"/>
<path id="Vector_4" d="M25.3484 8.0565C24.888 7.9278 24.4201 7.82751 23.9465 7.75563C23.0113 7.6169 22.0657 7.55004 21.1196 7.55617H12.553C11.8794 7.55617 11.3061 8.03031 11.2024 8.67383L9.37983 19.8343L9.32739 20.1596C9.44494 19.4253 10.0984 18.8837 10.8665 18.8843H14.0731C20.3711 18.8843 25.3017 16.4111 26.7434 9.25717C26.7866 9.04545 26.8229 8.83931 26.8552 8.63762C26.4749 8.44484 26.0785 8.28326 25.6699 8.15456C25.5627 8.12002 25.4556 8.0877 25.3472 8.0565H25.3484Z" fill="#222D65"/>
<path id="Vector_5" d="M11.2023 8.67383C11.3049 8.02976 11.8788 7.55506 12.553 7.55729H21.1195C22.1342 7.55729 23.0815 7.62136 23.9464 7.75675C24.5313 7.8459 25.1086 7.9785 25.6722 8.15456C26.0974 8.29107 26.4927 8.45208 26.8574 8.63762C27.2861 5.99335 26.854 4.19317 25.3754 2.56293C23.7442 0.768321 20.802 0 17.0376 0H6.10805C5.3388 0 4.68307 0.541 4.56437 1.27645L0.0117216 29.1778C-0.0695243 29.6731 0.280236 30.1383 0.792489 30.2169C0.840891 30.2241 0.889293 30.228 0.938271 30.228H7.68571L9.37978 19.8348L11.2023 8.67439V8.67383Z" fill="#253B80"/>
</g>
</svg>
