<svg width="102" height="36" viewBox="0 0 102 36" fill="none" xmlns="http://www.w3.org/2000/svg">
<g id="Skrill">
<path id="Vector" d="M81.2134 3.83813L89.6614 2.32491V34.7562H81.2134V3.83813ZM93.5474 3.83813V34.7562H102V2.32491L93.5474 3.83813ZM69.1792 34.7562H77.6318V11.0371H69.1792V34.7562ZM13.3289 14.3904C12.2589 14.3187 9.78762 14.162 9.78762 11.9325C9.78762 9.24633 13.3468 9.24633 14.6854 9.24633C17.0359 9.24633 20.0757 9.94026 22.2471 10.5894C22.2471 10.5894 23.4603 11.0147 24.49 11.4535L24.584 11.4803V4.12466L24.4542 4.08437C21.8934 3.18897 18.9117 2.32491 13.3871 2.32491C3.85562 2.32491 0.47998 7.87637 0.47998 12.6309C0.47998 15.3708 1.65295 21.8222 12.5633 22.5653C13.4901 22.6235 15.9435 22.7623 15.9435 25.0635C15.9435 26.9617 13.9333 28.0855 10.5532 28.0855C6.85072 28.0855 3.25571 27.1408 1.07094 26.2454V33.8249C4.33914 34.68 8.01921 35.1098 12.3395 35.1098C21.6561 35.1098 25.8286 29.8583 25.8286 24.6561C25.8286 18.7554 21.1592 14.9231 13.3289 14.3949V14.3904ZM64.4202 10.6879C56.6079 10.9386 52.6457 14.4441 52.6457 21.4103V34.7562H61.1699V23.8726C61.1699 19.7001 61.7161 17.9138 66.6676 17.7436V10.8133C65.8349 10.6342 64.4247 10.6924 64.4247 10.6924L64.4202 10.6879ZM41.4936 11.0103C41.3056 11.4848 39.9535 15.3037 36.6808 19.2658V2.32491L27.9597 4.04855V34.7562H36.6808V25.265C39.2059 29.0525 40.4549 34.7562 40.4549 34.7562H50.8997C49.8655 30.4627 45.3483 22.5385 45.3483 22.5385C49.4044 17.3944 51.1863 11.9146 51.4683 11.0058H41.4936V11.0103ZM73.41 8.76281C75.7112 8.76281 77.5781 6.90039 77.5781 4.59922C77.5781 2.29805 75.7112 0.431152 73.41 0.431152C71.1088 0.431152 69.2464 2.29805 69.2464 4.59922C69.2464 6.90039 71.1133 8.76281 73.41 8.76281Z" fill="white"/>
</g>
</svg>
