<svg width="162" height="40" viewBox="0 0 162 40" fill="none" xmlns="http://www.w3.org/2000/svg">
<g id="Group 469269">
<path id="Vector" d="M25.1235 24.1768C25.1235 24.8359 24.5859 25.3735 23.9326 25.3735H15.5789C14.9199 25.3735 14.388 24.8359 14.388 24.1768V15.8232C14.388 15.1641 14.9257 14.6323 15.5789 14.6323H23.9326C24.5859 14.6323 25.1235 15.1699 25.1235 15.8232V24.1768ZM32.2805 30.4435C32.2805 31.5882 31.344 32.5247 30.1935 32.5247H9.30646C8.16181 32.5247 7.21949 31.5882 7.21949 30.4435V9.56224C7.21949 8.41759 8.15602 7.47527 9.30646 7.47527H30.1935C31.344 7.47527 32.2805 8.41181 32.2805 9.56224V30.4493V30.4435ZM32.876 0.3125H6.62404C3.01664 0.3125 0.0625 3.26664 0.0625 6.87404V33.126C0.0625 36.7334 3.01664 39.6875 6.62404 39.6875H32.876C36.4834 39.6875 39.4375 36.7334 39.4375 33.126V6.87404C39.4375 3.26086 36.4834 0.3125 32.876 0.3125Z" fill="white"/>
<path id="Vector_2" d="M57.6652 32.929C55.3296 32.929 53.0866 32.0272 51.5026 30.4489C50.092 29.0383 49.3115 27.2115 49.3115 25.298H51.676C51.676 26.5814 52.2078 27.8185 53.1733 28.7782C54.3122 29.9113 55.954 30.5646 57.6652 30.5646H57.6825C60.9835 30.5646 63.666 28.2579 63.666 25.4194C63.666 23.2919 62.4866 21.6039 56.7633 20.2742C54.4336 19.7366 52.8611 19.0139 51.8147 18.0022C50.699 16.9212 50.1556 15.4875 50.1556 13.6086C50.1556 9.90872 53.4739 6.89099 57.5554 6.89099C59.5094 6.89099 61.3535 7.5616 62.7468 8.78719C64.1863 10.0475 64.9783 11.7529 64.9783 13.5797H62.6138C62.6138 11.1921 60.3476 9.25546 57.5554 9.25546C54.7631 9.25546 52.52 11.2499 52.52 13.6086C52.52 15.765 53.26 17.031 57.301 17.9676C61.6137 18.9619 66.0247 20.6269 66.0362 25.4078C66.0362 27.4428 65.1517 29.3447 63.5503 30.7611C61.9837 32.1486 59.9025 32.9117 57.6883 32.9117H57.6652V32.929Z" fill="white"/>
<path id="Vector_3" d="M78.4886 16.1759C74.2453 16.1759 71.1755 19.3439 71.1755 23.5584C71.1755 27.7728 74.3089 30.8078 78.4886 30.8078C82.6683 30.8078 85.6398 27.5068 85.6398 23.5237C85.6398 19.5405 82.5412 16.1759 78.4886 16.1759ZM85.5126 39.6587V29.3048H85.4433C83.9113 31.6519 81.2693 32.8601 78.4886 32.8601C73.1353 32.8601 68.8862 28.8423 68.8862 23.4543C68.8862 18.0663 73.2336 14.1121 78.4886 14.1121C81.2693 14.1121 83.9113 15.3203 85.4433 17.7021H85.5126V14.5688H87.802V39.6529H85.5126V39.6587Z" fill="white"/>
<path id="Vector_4" d="M120.598 16.1756C116.355 16.1756 113.285 19.3437 113.285 23.5581C113.285 27.7725 116.418 30.8076 120.598 30.8076C124.778 30.8076 127.749 27.5066 127.749 23.5234C127.749 19.5402 124.651 16.1756 120.598 16.1756ZM127.622 32.4378V29.3045H127.553C125.986 31.6516 123.373 32.8598 120.598 32.8598C115.245 32.8598 110.996 28.842 110.996 23.4598C110.996 18.0776 115.337 14.1176 120.598 14.1176C123.408 14.1176 126.021 15.2969 127.553 17.7134H127.622V14.58H129.906V32.4436H127.622V32.4378Z" fill="white"/>
<path id="Vector_5" d="M136.756 21.9856V32.4378H134.467V14.5743H136.756V17.1526H136.82C137.802 14.8691 139.531 14.2794 141.849 14.1176V16.534C138.716 16.7942 136.756 18.7829 136.756 21.9856Z" fill="white"/>
<path id="Vector_6" d="M152.082 16.1705C148.521 16.1705 145.682 18.7835 145.121 22.2753H159.065C158.476 18.7777 155.672 16.1705 152.076 16.1705M161.378 24.3334H145.116C145.277 27.8598 148.55 30.7966 152.041 30.7966C154.782 30.7966 157.464 29.2299 158.441 26.5822H160.852C159.551 30.3052 156.025 32.8489 152.07 32.8489C146.914 32.8489 142.763 28.6403 142.763 23.5067C142.763 18.3731 146.908 14.1008 152.036 14.1008C157.163 14.1008 161.412 18.5118 161.412 23.6743C161.412 23.8998 161.372 24.0963 161.372 24.3276" fill="white"/>
<path id="Vector_7" d="M105.538 32.4611V29.6688H105.475C104.423 31.8714 102.093 32.8889 99.7343 32.8889C97.3756 32.8889 95.04 32.068 93.5659 30.2007C92.2882 28.5936 91.9934 26.4256 91.9934 24.4254V14.5166H94.2885V24.3907C94.2885 28.0964 95.6355 30.8251 99.7343 30.8251C101.243 30.8251 102.422 30.4262 103.538 29.3798C105.116 27.8709 105.406 26.0961 105.406 24.0034V14.5224H107.706V32.4727H105.538V32.4611Z" fill="white"/>
</g>
</svg>
