<svg width="96" height="34" viewBox="0 0 96 34" fill="none" xmlns="http://www.w3.org/2000/svg">
<g id="westrnunion">
<path id="Vector" fill-rule="evenodd" clip-rule="evenodd" d="M96.0001 33.564H94.6528V0.827881H96.0001V33.564Z" fill="white"/>
<path id="Vector_2" fill-rule="evenodd" clip-rule="evenodd" d="M79.7003 33.4638H78.353V0.727661H79.7003V33.4638Z" fill="white"/>
<path id="Vector_3" fill-rule="evenodd" clip-rule="evenodd" d="M-14.8621 10.6853C-14.8811 10.8677 -14.8811 11.0501 -14.8811 11.2142C-14.8811 13.9954 -12.2625 15.6185 -7.31953 15.6185C-2.37652 15.6185 0.204098 13.9498 0.204098 10.8677C0.204098 8.21416 -1.35186 7.42083 -5.22278 6.17157C-7.29107 5.49679 -8.49598 5.53326 -8.49598 4.52109C-8.49598 3.97396 -8.13546 3.57274 -7.2626 3.57274C-6.23795 3.57274 -5.7446 4.22017 -5.79204 5.17763H-0.194381V4.56668C-0.194381 1.99521 -2.61371 0.435913 -7.09183 0.435913C-12.0064 0.435913 -14.6155 2.26877 -14.6155 5.13204C-14.6155 7.18374 -13.2967 8.36917 -10.5738 9.11691C-8.58137 9.66403 -7.44287 10.12 -6.5795 10.4847C-6.1241 10.6762 -5.9723 11.1139 -6.03871 11.5242C-6.1241 12.0896 -6.48462 12.4361 -7.37645 12.4361C-8.47701 12.4361 -8.7901 11.7978 -8.7901 10.8039V10.6853H-14.8526H-14.8621Z" fill="white"/>
<path id="Vector_4" fill-rule="evenodd" clip-rule="evenodd" d="M16.2668 0.791504H1.8457V4.68518H5.85893V15.3723H12.282V4.68518H16.2668V0.791504Z" fill="white"/>
<path id="Vector_5" fill-rule="evenodd" clip-rule="evenodd" d="M19.0273 15.3723H32.2055V11.5789H25.5643V9.85548H31.7691V6.1077H25.5643V4.53929H31.9873V0.791504H19.0273V15.3723Z" fill="white"/>
<path id="Vector_6" fill-rule="evenodd" clip-rule="evenodd" d="M36.219 15.3723H42.5282V10.1838C42.7369 10.1656 42.9456 10.1656 43.1069 10.1656C44.6249 10.1656 44.8431 10.6944 45.0898 12.2811L45.2511 13.3571C45.346 14.0045 45.5262 14.6793 45.7445 15.3814H52.1485C51.8734 14.3054 51.6552 13.4392 51.5698 12.7826L51.3611 11.2233C51.0765 9.1169 50.2416 8.32358 48.5433 7.99531C50.27 7.58496 51.5698 6.3357 51.5698 4.58492C51.5698 1.66693 49.6533 0.800659 45.0424 0.800659H36.2095V15.3814L36.219 15.3723ZM42.5282 6.60015V4.05603C42.8128 4.03779 43.0405 4.03779 43.2492 4.03779C44.6724 4.03779 45.2985 4.36607 45.2985 5.27794C45.2985 6.1898 44.5016 6.61838 42.9931 6.61838C42.8507 6.61838 42.6895 6.61838 42.5282 6.60015Z" fill="white"/>
<path id="Vector_7" fill-rule="evenodd" clip-rule="evenodd" d="M60.2794 7.05604L63.6664 15.3723H71.0003V0.791504H66.0478V8.21412L63.249 0.791504H55.3174V15.3723H60.2794V7.05604Z" fill="white"/>
<path id="Vector_8" fill-rule="evenodd" clip-rule="evenodd" d="M10.0806 24.4454L13.4677 32.7616H20.8016V18.1899H15.8396V25.6126L13.0408 18.1899H5.11865V32.7616H10.0806V24.4454Z" fill="white"/>
<path id="Vector_9" fill-rule="evenodd" clip-rule="evenodd" d="M60.431 24.4454L63.8181 32.7616H71.1519V18.1899H66.1994V25.6126L63.4006 18.1899H55.4785V32.7616H60.431V24.4454Z" fill="white"/>
<path id="Vector_10" fill-rule="evenodd" clip-rule="evenodd" d="M-14.511 18.1899V26.9712C-14.511 28.6491 -14.3972 29.9713 -13.0499 31.2297C-11.6553 32.5245 -9.63442 33.0169 -6.75021 33.0169C-1.44667 33.0169 1.03907 31.1111 1.03907 26.9712V18.1899H-5.26066V27.1992C-5.26066 28.3938 -5.82043 29.0412 -6.75021 29.0412C-7.72743 29.0412 -8.23975 28.4302 -8.23975 27.1992V18.1899H-14.5205H-14.511Z" fill="white"/>
<path id="Vector_11" fill-rule="evenodd" clip-rule="evenodd" d="M31.3897 18.1899H24.9287V32.7616H31.3897V18.1899Z" fill="white"/>
<path id="Vector_12" fill-rule="evenodd" clip-rule="evenodd" d="M43.2207 32.9895C48.9701 32.9895 52.0441 30.3178 52.0441 25.3663C52.0441 20.4149 48.9417 17.7249 43.4294 17.7249C37.9171 17.7249 34.7483 20.4969 34.7483 25.3846C34.7483 30.2722 37.8507 32.9804 43.2207 32.9804V32.9895ZM43.4104 21.117C44.9 21.117 45.251 22.3845 45.251 25.1383C45.251 28.2205 44.8715 29.6247 43.382 29.6247C41.8924 29.6247 41.5414 28.2478 41.5414 25.4393C41.5414 22.4939 41.8734 21.117 43.4104 21.117Z" fill="white"/>
</g>
</svg>
