<svg width="64" height="64" viewBox="0 0 64 64" fill="none" xmlns="http://www.w3.org/2000/svg">
<g clip-path="url(#clip0_412_417)">
<path fill-rule="evenodd" clip-rule="evenodd" d="M27.0973 48.664C27.2197 48.7825 27.2952 48.9466 27.2891 49.1438C27.2776 49.5622 26.9122 49.8104 26.5237 49.8104C26.243 49.8104 25.9775 49.7957 25.8186 49.5616C25.7656 49.5542 25.6998 49.5524 25.6639 49.5512C25.5111 49.5456 25.3972 49.4725 25.2791 49.3847C25.2547 49.3662 25.189 49.3146 25.1603 49.3048C24.9113 49.2421 24.8041 48.9712 24.8443 48.7402C24.7256 48.7162 24.608 48.6707 24.5131 48.6271C24.3919 48.5718 24.2646 48.4968 24.166 48.3985L24.1075 48.3998L24.0966 48.3193C24.0357 48.2376 23.9955 48.1423 23.9906 48.0324C23.9857 47.9267 23.9918 47.8143 24.0143 47.7092C23.5571 47.4075 23.4523 46.8011 23.898 46.3575L23.9084 46.3434C23.9169 46.2807 23.9303 46.231 23.9516 46.2021C24.0217 46.1062 23.5187 45.8199 23.1229 45.6147C22.9524 45.5944 22.8123 45.5201 22.7137 45.4107L22.6966 45.4027C22.6394 45.3997 22.5803 45.3874 22.5182 45.3653C22.4269 45.3315 22.3465 45.2848 22.2795 45.2264C22.0402 45.2651 21.7918 45.192 21.6189 44.9862C21.6097 44.9751 21.6012 44.9641 21.5927 44.953C21.3698 44.9659 21.1524 44.8762 21.0069 44.6526C20.9582 44.6581 20.9089 44.6587 20.8583 44.6544C20.6568 44.6354 20.4857 44.5303 20.3773 44.3724C20.1727 44.3822 19.9681 44.3067 19.814 44.1285C19.8037 44.1162 19.7933 44.1039 19.7842 44.0916C19.4809 44.1322 19.2264 43.978 19.0955 43.7451C18.8154 43.7629 18.5444 43.6339 18.4038 43.358C18.4019 43.3543 18.4007 43.3513 18.3989 43.3482C18.1182 43.3378 17.8563 43.1885 17.7248 42.9132C17.5044 42.9175 17.2833 42.8462 17.1159 42.6945C17.0532 42.6373 17.002 42.5716 16.963 42.4997C16.6805 42.4702 16.4863 42.3142 16.3901 42.109C16.0679 42.1022 15.7957 41.9038 15.7227 41.6027C15.4298 41.5677 15.1747 41.395 15.1101 41.0878C14.7935 41.0694 14.5073 40.9017 14.4105 40.5447C14.4044 40.5214 14.3989 40.498 14.3946 40.4747C13.9946 40.4599 13.7443 40.1712 13.7102 39.8424C13.6438 39.8289 13.5793 39.8062 13.5184 39.7736C13.3016 39.6569 13.1305 39.4781 13.0666 39.2698C12.9886 39.2569 12.9125 39.2317 12.84 39.193C12.6032 39.0652 12.4759 38.8195 12.4942 38.5602C12.1002 38.4803 11.8786 38.1903 11.867 37.8795C11.867 37.8795 11.8658 37.8795 11.8652 37.8795C11.4822 37.7621 11.2337 37.4266 11.2903 37.0543C10.9134 36.9351 10.5548 36.6574 10.6084 36.2083C10.6084 36.2046 10.6096 36.2009 10.6096 36.1972C10.57 36.1825 10.5322 36.1653 10.4975 36.1456C10.285 36.0264 10.0981 35.8624 10.0341 35.6154C9.99334 35.4575 10.0134 35.3033 10.0786 35.1681C9.80336 35.0839 9.51047 34.8585 9.36433 34.6391C9.24742 34.4634 9.20236 34.2588 9.24254 34.0702C8.96488 33.9602 8.71339 33.7403 8.58978 33.4834C8.48139 33.2592 8.47896 33.0067 8.59344 32.8015C8.47835 32.7572 8.37361 32.6964 8.29324 32.6116C8.01252 32.3161 7.91388 31.8768 8.16658 31.5303C8.19155 31.4959 8.21834 31.4645 8.24696 31.4363C8.11787 31.4062 7.98634 31.3718 7.87308 31.3294C7.48033 31.1825 7.17769 30.7186 7.25016 30.2935C7.28974 30.0612 7.42613 29.8831 7.6149 29.7768C7.37255 29.6865 7.11985 29.5673 6.98284 29.4081C6.67046 29.0481 6.62419 28.5259 6.98588 28.1843C7.03338 28.14 7.08331 28.1019 7.13629 28.0706C7.03338 28.0196 6.93595 27.9655 6.84888 27.9072C6.48657 27.6645 6.30755 27.345 6.27954 26.9082C6.26066 26.6077 6.36357 26.3534 6.54929 26.1985C6.5298 26.1819 6.51093 26.1647 6.49266 26.1475C6.16262 25.8434 6.01587 25.5258 5.93793 25.0883C5.85512 24.6214 6.07738 24.2681 6.43968 24.1821C6.03049 23.8116 5.69376 23.3692 5.7443 22.9164C5.77535 22.6369 5.87826 22.3678 6.12122 22.2074C6.18333 22.1662 6.24909 22.1361 6.31668 22.1165C6.011 21.7699 5.7924 21.3921 5.79666 21.0136C5.80032 20.6917 5.86486 20.3501 6.12913 20.1381C6.22108 20.0644 6.32094 20.0189 6.42507 19.9974C6.34043 19.8936 6.26431 19.7904 6.2022 19.6902C6.03049 19.4119 5.87887 19.0777 5.88069 18.744C5.88252 18.3705 6.0859 18.0461 6.44334 17.9293C6.57791 17.8857 6.71674 17.8771 6.85314 17.8956C6.84827 17.8882 6.84279 17.8808 6.83792 17.8734C6.61383 17.5454 6.40802 17.154 6.35565 16.754C6.30937 16.402 6.38793 16.0401 6.65524 15.7931C6.90673 15.5608 7.25503 15.5006 7.57715 15.6002C7.6971 15.637 7.80854 15.6942 7.9084 15.7661C7.76957 15.5234 7.63926 15.2782 7.52722 15.0362C7.35367 14.6601 7.20753 14.2208 7.20631 13.8018C7.2051 13.4203 7.3354 13.0301 7.6831 12.8342C8.03932 12.6339 8.44242 12.7408 8.74627 12.9841C8.92469 13.1266 9.07326 13.3128 9.19688 13.5143C8.8845 11.9918 8.75054 10.105 9.54579 8.79695C9.71385 8.52047 9.93732 8.21388 10.2351 8.07134C10.6004 7.89624 10.9822 8.00437 11.2331 8.31587C11.311 8.41295 11.378 8.53214 11.4353 8.66485C11.9425 4.93792 15.3738 1.391 18.7594 -0.000610352C15.8347 3.09595 13.4946 8.31772 13.4289 12.5356C13.4112 13.6685 13.5129 14.8678 13.6304 15.9946C13.6871 16.539 13.7528 17.0833 13.8314 17.6252C14.0183 17.6688 14.1742 17.8108 14.2314 18.008C14.8781 20.2456 16.1611 22.283 17.6633 24.0352C18.2607 24.732 18.9 25.3918 19.5698 26.0179C19.9888 26.4093 20.4175 26.7779 20.8516 27.1508C21.2432 27.4869 21.6706 27.8967 21.93 28.3495C22.0999 28.6469 22.1766 28.9209 22.1961 29.2613C22.2132 29.5525 22.3325 29.9642 22.4305 30.2357C22.5803 30.6523 22.8136 31.1125 23.146 31.4117C23.5089 31.7379 24.0972 31.7687 24.5368 31.6009C24.7792 31.5051 25.0465 31.5911 25.1896 31.8098L27.2526 30.4287C27.3299 30.1933 27.4639 30.0035 27.6557 29.8769C27.6399 29.7264 27.6782 29.5685 27.7763 29.4303C27.8177 29.3154 27.7903 28.8073 27.8158 28.6666C27.8414 28.5265 28.2567 27.2412 28.2664 27.2258C28.3097 27.1072 28.2951 26.6022 28.3042 26.4553C28.3748 25.3421 28.4881 26.2593 28.2792 25.1356C28.169 24.5421 28.2311 20.5964 28.5813 20.3077C28.5691 19.4432 28.8547 18.7397 29.3905 18.223C29.3576 18.2089 29.3254 18.1911 29.2943 18.1696C29.2675 18.1518 29.2432 18.1321 29.2206 18.1124C29.0647 18.1499 28.8997 18.129 28.7542 18.0307C28.7085 18 28.6702 17.9662 28.6373 17.93C28.471 17.9595 28.2999 17.9232 28.1477 17.7844C28.1033 17.7438 28.0679 17.7008 28.0393 17.6559C27.8646 17.6658 27.6922 17.6062 27.5577 17.4409C27.515 17.3881 27.4834 17.334 27.4614 17.2787C27.3068 17.2326 27.174 17.1288 27.0973 16.9475C27.0821 16.9119 27.0711 16.8769 27.0632 16.8425C26.9232 16.7552 26.8203 16.6164 26.7971 16.4173C26.7655 16.1458 26.9031 15.9491 27.101 15.8306C26.9329 15.5738 26.8136 15.2813 26.7545 14.9587C26.7186 14.7609 26.7837 14.5735 26.9347 14.442C27.0857 14.3105 27.2788 14.2725 27.4675 14.3376C28.2792 14.6159 29.7047 14.8948 30.5414 14.638C31.9224 14.2141 33.5841 14.2743 34.3386 15.5498C34.517 15.3243 34.7916 15.1793 35.1004 15.1793C35.6374 15.1793 36.0734 15.6192 36.0734 16.1617C36.0734 16.2717 36.0558 16.378 36.0223 16.4769C36.5295 16.6029 36.9448 16.9758 37.2304 17.4397C37.3509 17.6351 37.3412 17.8722 37.206 18.0571C37.0708 18.2421 36.8492 18.3213 36.63 18.263C36.3036 18.18 35.8481 18.1991 35.5278 18.2894C35.4188 18.3201 35.311 18.3176 35.2106 18.2845C34.9085 18.8276 34.067 19.0574 33.3929 19.2435C33.0605 19.3351 32.742 19.5065 32.605 19.8426C32.5618 19.9489 32.5307 20.1 32.535 20.2247C32.7731 20.3022 32.9064 20.5332 32.9539 20.7851C32.9813 20.9288 32.9904 21.0818 32.9904 21.2274C32.9904 22.1712 33.03 21.7429 33.1609 22.4341C33.2742 23.0307 33.4264 23.6568 33.5208 24.1624C33.5537 24.34 33.5647 24.5298 33.5647 24.7105C33.5647 26.0498 34.2777 25.0189 34.3745 26.4492C34.6181 27.6252 35.5089 26.8996 35.9054 28.5664C36.0083 29.0002 35.9029 29.0745 35.9334 29.1949C36.0253 29.3313 36.0576 29.4874 36.0375 29.6348C36.6172 29.6901 36.9095 30.1135 36.9576 30.6818C36.9643 30.7641 36.9624 30.9583 36.9673 31.126L37.8174 31.2765L38.1876 31.7551C38.3374 31.5776 38.5797 31.5143 38.8008 31.6015C38.9396 31.6562 39.1515 31.6894 39.3001 31.6968C39.6289 31.7134 39.9407 31.6378 40.1909 31.4123C40.5234 31.1131 40.7566 30.6523 40.9064 30.2363C41.0045 29.9642 41.1238 29.5531 41.1409 29.2619C41.1603 28.9215 41.2371 28.6475 41.4069 28.3501C41.6664 27.8973 42.0938 27.4875 42.4853 27.1515C42.9195 26.7785 43.3482 26.4093 43.7671 26.0185C44.4369 25.3931 45.0763 24.7326 45.6737 24.0358C47.1759 22.2842 48.4589 20.2462 49.1061 18.0086C49.1634 17.8114 49.3187 17.6695 49.5062 17.6258C49.5848 17.0839 49.6505 16.5396 49.7071 15.9952C49.8247 14.8684 49.9264 13.6691 49.9087 12.5362C49.8728 10.2242 48.8181 6.4481 48.1678 5.13821L48.1562 5.11609L48.1343 5.07984C48.0168 4.88876 47.8913 4.67495 47.7781 4.45377C46.8263 2.9104 44.918 0.384002 44.5563 4.04584e-06C46.6565 0.863232 49.1865 3.16968 50.6169 5.02086C51.3299 5.94307 51.7123 7.27324 51.9023 8.66546C51.9595 8.53275 52.0259 8.41295 52.1045 8.31649C52.3553 8.00499 52.7371 7.89624 53.1031 8.07196C53.4009 8.2145 53.6243 8.52108 53.7924 8.79756C54.5876 10.1056 54.4531 11.9924 54.1407 13.5149C54.2643 13.3134 54.4135 13.1272 54.5913 12.9847C54.8951 12.7414 55.2983 12.6345 55.6545 12.8348C56.0022 13.0308 56.1325 13.4209 56.1313 13.8024C56.13 14.2208 55.9839 14.6608 55.8104 15.0368C55.6983 15.2788 55.568 15.524 55.4292 15.7667C55.5296 15.6948 55.6405 15.6376 55.7604 15.6008C56.0832 15.5006 56.4315 15.5608 56.6823 15.7937C56.9496 16.0407 57.0282 16.4026 56.9819 16.7546C56.9296 17.1546 56.7237 17.546 56.4997 17.8741C56.4948 17.8814 56.4899 17.8888 56.4844 17.8962C56.6208 17.8777 56.7597 17.8863 56.8942 17.93C57.2517 18.0467 57.455 18.3711 57.4569 18.7447C57.4587 19.0783 57.3071 19.4125 57.1354 19.6908C57.0733 19.7916 56.9978 19.8942 56.9125 19.998C57.0166 20.0195 57.1165 20.0656 57.2084 20.1387C57.4727 20.3507 57.5379 20.6923 57.5409 21.0142C57.5452 21.3927 57.3266 21.7699 57.0209 22.1171C57.0885 22.1367 57.1542 22.1668 57.2164 22.208C57.4587 22.3684 57.5616 22.6381 57.5933 22.917C57.6438 23.3692 57.3071 23.8116 56.8985 24.1821C57.2608 24.2681 57.4831 24.622 57.4002 25.0883C57.3223 25.5258 57.1762 25.8434 56.8455 26.1475C56.8273 26.1647 56.8084 26.1813 56.7883 26.1985C56.974 26.3534 57.0769 26.6077 57.058 26.9082C57.0306 27.345 56.8516 27.6645 56.4893 27.9072C56.4022 27.9655 56.3048 28.0196 56.2019 28.0706C56.2543 28.1019 56.3048 28.1394 56.3523 28.1843C56.714 28.5252 56.6677 29.0481 56.3553 29.4081C56.2177 29.5667 55.965 29.6865 55.7233 29.7768C55.912 29.8831 56.0484 30.0612 56.088 30.2935C56.1599 30.718 55.8579 31.1825 55.4651 31.3294C55.3518 31.3718 55.2203 31.4062 55.0906 31.4363C55.1192 31.4645 55.146 31.4959 55.171 31.5303C55.4237 31.8774 55.3251 32.3167 55.0443 32.6116C54.964 32.6964 54.8592 32.7572 54.7441 32.8015C54.8586 33.0067 54.8556 33.2586 54.7478 33.4834C54.6242 33.7396 54.3727 33.9602 54.095 34.0702C54.1352 34.2588 54.0908 34.4634 53.9732 34.6391C53.8271 34.8578 53.5342 35.0839 53.259 35.1681C53.3241 35.3033 53.3442 35.4575 53.3034 35.6154C53.2395 35.8624 53.0526 36.0264 52.84 36.1456C52.8047 36.1653 52.7676 36.1825 52.728 36.1972C52.728 36.2009 52.7292 36.2046 52.7292 36.2083C52.7828 36.6574 52.4241 36.9351 52.0472 37.0543C52.1045 37.4266 51.856 37.7621 51.4724 37.8795H51.4712C51.4596 38.1903 51.2386 38.4803 50.844 38.5602C50.8623 38.8195 50.735 39.0652 50.4981 39.193C50.4257 39.2317 50.3496 39.2569 50.2716 39.2698C50.2077 39.4781 50.0366 39.6569 49.8198 39.7736C49.7589 39.8062 49.6944 39.8289 49.628 39.8424C49.5939 40.1712 49.3436 40.4593 48.9436 40.4747C48.9393 40.498 48.9344 40.5214 48.9277 40.5447C48.8309 40.9017 48.5447 41.0694 48.2281 41.0878C48.1635 41.395 47.9084 41.5677 47.6155 41.6027C47.5424 41.9038 47.2702 42.1022 46.9475 42.109C46.8513 42.3142 46.6571 42.4702 46.3745 42.4997C46.3362 42.5716 46.2844 42.6373 46.2223 42.6945C46.0548 42.8469 45.8338 42.9175 45.6134 42.9132C45.4825 43.1891 45.2206 43.3378 44.9393 43.3482C44.9375 43.3513 44.9356 43.355 44.9344 43.358C44.7938 43.6339 44.5222 43.7629 44.2427 43.7451C44.1118 43.978 43.8579 44.1322 43.5546 44.0916C43.5449 44.1039 43.5351 44.1162 43.5248 44.1285C43.3701 44.3067 43.1661 44.3822 42.9615 44.3724C42.8531 44.5297 42.6814 44.6354 42.4805 44.6544C42.4299 44.6593 42.3806 44.6587 42.3319 44.6526C42.1864 44.8762 41.9684 44.9653 41.7455 44.953C41.737 44.9641 41.7285 44.9751 41.7193 44.9862C41.5464 45.192 41.2973 45.2651 41.0586 45.2264C40.9911 45.2842 40.9107 45.3315 40.82 45.3653C40.7883 45.3769 40.7572 45.3855 40.7274 45.3917C40.7274 45.3917 40.6622 45.4224 40.5605 45.4722C40.4911 45.5293 40.4083 45.5717 40.3127 45.5969C39.9127 45.8027 39.3768 46.1038 39.4487 46.2027C39.4998 46.2543 39.5217 46.3041 39.5613 46.3581C40.007 46.8017 39.9029 47.4081 39.445 47.7098C39.4681 47.8155 39.4736 47.9273 39.4688 48.033C39.4621 48.1817 39.3914 48.3027 39.2922 48.4004C39.1935 48.4975 39.0669 48.5718 38.9463 48.6271C38.8513 48.6707 38.7344 48.7162 38.6151 48.7402C38.6552 48.9712 38.5481 49.2421 38.299 49.3048C38.2704 49.3146 38.2046 49.3668 38.1803 49.3847C38.0621 49.4725 37.9483 49.5456 37.7954 49.5512C37.7589 49.5524 37.6931 49.5548 37.6408 49.5616C37.4818 49.7951 37.2164 49.8104 36.9356 49.8104C36.5465 49.8104 36.1824 49.5622 36.1702 49.1438C36.166 48.9835 36.2147 48.8452 36.2987 48.7359L36.3724 47.4511L37.1896 45.992L35.3238 47.2453L29.9739 47.1519L25.9191 45.4728L27.0267 47.4511L27.0967 48.664H27.0973Z" fill="#432100"/>
<path fill-rule="evenodd" clip-rule="evenodd" d="M31.9711 27.764C32.1185 28.0012 31.378 28.0909 31.4633 27.2393C31.4773 27.0993 31.414 26.1033 31.4426 26.1058C32.1928 26.1629 31.6941 27.3198 31.9711 27.764ZM32.644 27.6946C32.3517 27.2602 32.809 26.0873 32.057 26.0548C32.0278 26.0536 32.127 27.047 32.1179 27.1871C32.0631 28.0405 32.8005 27.9262 32.644 27.6946ZM33.2907 27.6344C33.4465 27.866 32.7097 27.9803 32.7646 27.1269C32.7737 26.9862 32.6744 25.9933 32.7037 25.9946C33.4557 26.0271 32.9984 27.1994 33.2907 27.6344ZM33.9294 27.4722C33.6371 27.0378 34.0944 25.8649 33.3424 25.8324C33.3132 25.8311 33.4124 26.824 33.4033 26.9647C33.3491 27.8181 34.0859 27.7038 33.9294 27.4722ZM31.9687 30.0041C32.1313 30.2407 31.3153 30.331 31.4091 29.48C31.4243 29.34 31.3543 28.344 31.3866 28.3459C32.2135 28.403 31.6642 29.5599 31.9687 30.0041ZM32.7104 29.9347C32.3882 29.5003 32.8918 28.3274 32.0631 28.2949C32.0308 28.2936 32.1398 29.2871 32.1301 29.4272C32.0698 30.2806 32.8821 30.1663 32.7104 29.9347ZM33.4228 29.8745C33.5945 30.1061 32.7822 30.2204 32.8425 29.367C32.8522 29.2263 32.7432 28.2334 32.7755 28.2347C33.6043 28.2672 33.1001 29.4395 33.4228 29.8745ZM36.5173 31.6599C36.6775 31.8756 35.9224 31.9819 35.9778 31.1881C35.987 31.0578 35.8859 30.1344 35.9157 30.1356C36.686 30.1657 36.2177 31.2557 36.5173 31.6599ZM35.7446 31.6335C35.445 31.2292 35.9133 30.1393 35.143 30.1092C35.1132 30.108 35.2142 31.0314 35.2051 31.1623C35.1491 31.9555 35.9041 31.8492 35.7446 31.6341V31.6335ZM35.4529 29.4536C35.5948 29.6447 34.9256 29.7387 34.9755 29.0358C34.9835 28.9203 34.8939 28.1026 34.9207 28.1032C35.6027 28.1296 35.1881 29.0954 35.4535 29.453L35.4529 29.4536ZM35.1594 31.926C35.3318 32.1576 34.5195 32.2725 34.5797 31.4185C34.5895 31.2778 34.4805 30.2849 34.5128 30.2861C35.3415 30.3187 34.8379 31.491 35.1594 31.926ZM34.8428 29.6478C34.5207 29.2134 35.0243 28.0405 34.1961 28.008C34.1639 28.0067 34.2728 28.9996 34.2631 29.1403C34.2028 29.9937 35.0151 29.8794 34.8434 29.6472L34.8428 29.6478ZM34.1273 29.7123C33.8052 29.2773 34.3088 28.105 33.48 28.0725C33.4478 28.0712 33.5568 29.0647 33.547 29.2048C33.4867 30.0582 34.299 29.9439 34.1273 29.7123ZM32.9375 32.1048C33.1208 32.3364 32.2555 32.4507 32.3194 31.5973C32.3298 31.4566 32.2141 30.4637 32.2482 30.4649C33.1311 30.4975 32.5947 31.6698 32.9375 32.1048ZM33.6877 31.9426C33.3442 31.5082 33.8813 30.3353 32.9984 30.3027C32.9643 30.3015 33.08 31.295 33.0696 31.4351C33.0057 32.2885 33.871 32.1742 33.6877 31.9426ZM29.0593 32.0728C28.876 32.3044 29.7413 32.4187 29.6773 31.5653C29.667 31.4246 29.7833 30.4317 29.7486 30.433C28.8656 30.4655 29.4027 31.6378 29.0593 32.0728ZM28.2999 32.0126C28.6434 31.5782 28.1063 30.4053 28.9892 30.3728C29.0233 30.3715 28.907 31.365 28.918 31.5051C28.9819 32.3585 28.1167 32.2442 28.2999 32.012V32.0126ZM27.5498 31.8504C27.3665 32.082 28.2317 32.1969 28.1678 31.3429C28.1575 31.2022 28.2732 30.2093 28.2391 30.2106C27.3561 30.2431 27.8932 31.4154 27.5498 31.8504ZM30.3551 29.9955C30.1925 30.2321 31.0084 30.3224 30.9146 29.4708C30.8994 29.3308 30.9695 28.3348 30.9372 28.3373C30.1103 28.3944 30.6601 29.5513 30.3551 29.9955ZM29.6134 29.9261C29.9355 29.4917 29.4319 28.3188 30.2607 28.2863C30.2929 28.285 30.1839 29.2785 30.1937 29.4186C30.254 30.272 29.4417 30.1577 29.6134 29.9261ZM28.9009 29.8659C28.7292 30.0975 29.5409 30.2118 29.4813 29.3584C29.4715 29.2177 29.5805 28.2248 29.5482 28.2261C28.7195 28.2586 29.2237 29.4309 28.9009 29.8659ZM28.197 29.7037C28.5192 29.2693 28.0156 28.0964 28.8443 28.0639C28.8766 28.0626 28.7676 29.0555 28.7773 29.1962C28.8376 30.0496 28.0253 29.9353 28.197 29.7031V29.7037ZM30.5755 27.7628C30.4342 28 31.1418 28.0897 31.0608 27.2381C31.0474 27.098 31.1083 26.1021 31.0803 26.1045C30.3636 26.1617 30.8398 27.3186 30.5755 27.7628ZM29.9331 27.6934C30.2126 27.259 29.776 26.0861 30.4939 26.0536C30.5219 26.0523 30.4275 27.0458 30.436 27.1859C30.4884 28.0393 29.7839 27.925 29.9331 27.6934ZM29.3156 27.6332C29.1664 27.8648 29.8704 27.9791 29.8186 27.1257C29.8101 26.985 29.9045 25.9921 29.8764 25.9933C29.1585 26.0259 29.5951 27.1982 29.3156 27.6332ZM28.7055 27.471C28.985 27.0366 28.5484 25.8637 29.2663 25.8311C29.2943 25.8299 29.1999 26.8228 29.2085 26.9635C29.2608 27.8169 28.5563 27.7026 28.7055 27.471ZM31.2788 24.2675C31.2142 24.2675 31.1613 24.5501 31.1613 24.8991C31.1613 25.2481 31.2136 25.5307 31.2788 25.5307C31.3439 25.5307 31.3963 25.2481 31.3963 24.8991C31.3963 24.5501 31.3439 24.2675 31.2788 24.2675ZM30.8726 24.2534C30.9372 24.2534 30.9902 24.536 30.9902 24.885C30.9902 25.2339 30.9378 25.5166 30.8726 25.5166C30.8075 25.5166 30.7551 25.2339 30.7551 24.885C30.7551 24.536 30.8075 24.2534 30.8726 24.2534ZM31.6782 24.2343C31.6137 24.2343 31.5613 24.5169 31.5613 24.8659C31.5613 25.2149 31.6137 25.4975 31.6782 25.4975C31.7428 25.4975 31.7958 25.2149 31.7958 24.8659C31.7958 24.5169 31.7434 24.2343 31.6782 24.2343ZM30.4726 24.2202C30.5371 24.2202 30.5895 24.5028 30.5895 24.8518C30.5895 25.2008 30.5371 25.4834 30.4726 25.4834C30.408 25.4834 30.3557 25.2008 30.3557 24.8518C30.3557 24.5028 30.408 24.2202 30.4726 24.2202ZM32.0777 24.1471C32.0131 24.1471 31.9602 24.4297 31.9602 24.7787C31.9602 25.1277 32.0125 25.4103 32.0777 25.4103C32.1428 25.4103 32.1946 25.1277 32.1946 24.7787C32.1946 24.4297 32.1422 24.1471 32.0777 24.1471ZM30.0731 24.1329C30.1377 24.1329 30.19 24.4156 30.19 24.7645C30.19 25.1135 30.1377 25.3962 30.0731 25.3962C30.0086 25.3962 29.9562 25.1135 29.9562 24.7645C29.9562 24.4156 30.0086 24.1329 30.0731 24.1329ZM32.4777 24.0838C32.4132 24.0838 32.3602 24.3664 32.3602 24.7154C32.3602 25.0644 32.4126 25.347 32.4777 25.347C32.5429 25.347 32.5947 25.0644 32.5947 24.7154C32.5947 24.3664 32.5423 24.0838 32.4777 24.0838ZM29.6737 24.0697C29.7382 24.0697 29.7912 24.3523 29.7912 24.7013C29.7912 25.0502 29.7388 25.3329 29.6737 25.3329C29.6085 25.3329 29.5568 25.0502 29.5568 24.7013C29.5568 24.3523 29.6091 24.0697 29.6737 24.0697ZM32.8772 24.0334C32.8127 24.0334 32.7603 24.316 32.7603 24.665C32.7603 25.014 32.8127 25.2966 32.8772 25.2966C32.9417 25.2966 32.9947 25.014 32.9947 24.665C32.9947 24.316 32.9424 24.0334 32.8772 24.0334ZM29.2742 24.0193C29.3388 24.0193 29.3917 24.3019 29.3917 24.6509C29.3917 24.9999 29.3394 25.2825 29.2742 25.2825C29.2091 25.2825 29.1567 24.9999 29.1567 24.6509C29.1567 24.3019 29.2091 24.0193 29.2742 24.0193ZM28.8748 23.9111C28.9393 23.9111 28.9923 24.1938 28.9923 24.5428C28.9923 24.8917 28.9399 25.1744 28.8748 25.1744C28.8096 25.1744 28.7579 24.8917 28.7579 24.5428C28.7579 24.1938 28.8102 23.9111 28.8748 23.9111ZM30.841 22.6228C30.7862 22.6228 30.7417 22.8568 30.7417 23.145C30.7417 23.4331 30.7862 23.6672 30.841 23.6672C30.8958 23.6672 30.9402 23.4338 30.9402 23.145C30.9402 22.8562 30.8958 22.6228 30.841 22.6228ZM30.4975 22.6111C30.5523 22.6111 30.5968 22.8452 30.5968 23.1333C30.5968 23.4215 30.5523 23.6556 30.4975 23.6556C30.4427 23.6556 30.3983 23.4221 30.3983 23.1333C30.3983 22.8446 30.4427 22.6111 30.4975 22.6111ZM31.1789 22.5951C31.1241 22.5951 31.0797 22.8286 31.0797 23.1173C31.0797 23.4061 31.1241 23.6396 31.1789 23.6396C31.2337 23.6396 31.2782 23.4061 31.2782 23.1173C31.2782 22.8286 31.2337 22.5951 31.1789 22.5951ZM30.159 22.5834C30.2138 22.5834 30.2582 22.8169 30.2582 23.1057C30.2582 23.3944 30.2138 23.6279 30.159 23.6279C30.1042 23.6279 30.0597 23.3944 30.0597 23.1057C30.0597 22.8169 30.1042 22.5834 30.159 22.5834ZM31.5169 22.5232C31.4621 22.5232 31.4176 22.7567 31.4176 23.0455C31.4176 23.3342 31.4621 23.5677 31.5169 23.5677C31.5717 23.5677 31.6161 23.3336 31.6161 23.0455C31.6161 22.7573 31.5717 22.5232 31.5169 22.5232ZM29.821 22.5116C29.8758 22.5116 29.9203 22.745 29.9203 23.0338C29.9203 23.3226 29.8758 23.556 29.821 23.556C29.7662 23.556 29.7218 23.3226 29.7218 23.0338C29.7218 22.745 29.7662 22.5116 29.821 22.5116ZM31.8548 22.471C31.8 22.471 31.7556 22.7051 31.7556 22.9932C31.7556 23.2814 31.8 23.5155 31.8548 23.5155C31.9096 23.5155 31.9541 23.282 31.9541 22.9932C31.9541 22.7045 31.9096 22.471 31.8548 22.471ZM29.4831 22.4593C29.5379 22.4593 29.5823 22.6928 29.5823 22.9816C29.5823 23.2703 29.5379 23.5038 29.4831 23.5038C29.4283 23.5038 29.3838 23.2703 29.3838 22.9816C29.3838 22.6928 29.4283 22.4593 29.4831 22.4593ZM32.1928 22.4292C32.138 22.4292 32.0935 22.6627 32.0935 22.9515C32.0935 23.2402 32.138 23.4737 32.1928 23.4737C32.2476 23.4737 32.292 23.2402 32.292 22.9515C32.292 22.6627 32.2476 22.4292 32.1928 22.4292ZM29.1451 22.4176C29.1999 22.4176 29.2444 22.6516 29.2444 22.9398C29.2444 23.2279 29.1999 23.462 29.1451 23.462C29.0903 23.462 29.0459 23.2279 29.0459 22.9398C29.0459 22.6516 29.0903 22.4176 29.1451 22.4176ZM32.5313 22.3401C32.4765 22.3401 32.4321 22.5742 32.4321 22.8624C32.4321 23.1505 32.4765 23.3846 32.5313 23.3846C32.5861 23.3846 32.6306 23.1511 32.6306 22.8624C32.6306 22.5736 32.5861 22.3401 32.5313 22.3401ZM28.8072 22.3285C28.862 22.3285 28.9064 22.5625 28.9064 22.8507C28.9064 23.1389 28.862 23.3729 28.8072 23.3729C28.7524 23.3729 28.7079 23.1389 28.7079 22.8507C28.7079 22.5625 28.7524 22.3285 28.8072 22.3285ZM30.7776 20.9633C30.7271 20.9633 30.6869 21.1777 30.6869 21.4425C30.6869 21.7073 30.7277 21.9217 30.7776 21.9217C30.8276 21.9217 30.8684 21.7073 30.8684 21.4425C30.8684 21.1777 30.8276 20.9633 30.7776 20.9633ZM30.4622 20.9522C30.5128 20.9522 30.553 21.1666 30.553 21.4314C30.553 21.6962 30.5122 21.9107 30.4622 21.9107C30.4123 21.9107 30.3709 21.6962 30.3709 21.4314C30.3709 21.1666 30.4117 20.9522 30.4622 20.9522ZM31.0882 20.9381C31.0377 20.9381 30.9975 21.1525 30.9975 21.4173C30.9975 21.6821 31.0383 21.8965 31.0882 21.8965C31.1381 21.8965 31.1795 21.6821 31.1795 21.4173C31.1795 21.1525 31.1387 20.9381 31.0882 20.9381ZM30.1517 20.927C30.2022 20.927 30.2424 21.1414 30.2424 21.4063C30.2424 21.6711 30.2016 21.8855 30.1517 21.8855C30.1017 21.8855 30.0609 21.6711 30.0609 21.4063C30.0609 21.1414 30.1017 20.927 30.1517 20.927ZM31.3987 20.8717C31.3482 20.8717 31.3074 21.0862 31.3074 21.351C31.3074 21.6158 31.3482 21.8302 31.3987 21.8302C31.4493 21.8302 31.4895 21.6158 31.4895 21.351C31.4895 21.0862 31.4487 20.8717 31.3987 20.8717ZM29.8411 20.8607C29.8917 20.8607 29.9325 21.0751 29.9325 21.3399C29.9325 21.6047 29.8917 21.8191 29.8411 21.8191C29.7906 21.8191 29.7498 21.6041 29.7498 21.3399C29.7498 21.0757 29.7906 20.8607 29.8411 20.8607ZM31.7093 20.8232C31.6588 20.8232 31.6186 21.0376 31.6186 21.3024C31.6186 21.5672 31.6594 21.7816 31.7093 21.7816C31.7592 21.7816 31.8 21.5672 31.8 21.3024C31.8 21.0376 31.7592 20.8232 31.7093 20.8232ZM29.5306 20.8121C29.5811 20.8121 29.6219 21.0266 29.6219 21.2914C29.6219 21.5562 29.5811 21.7706 29.5306 21.7706C29.48 21.7706 29.4398 21.5562 29.4398 21.2914C29.4398 21.0266 29.4806 20.8121 29.5306 20.8121ZM32.0192 20.7851C31.9687 20.7851 31.9285 20.9995 31.9285 21.2643C31.9285 21.5291 31.9693 21.7436 32.0192 21.7436C32.0692 21.7436 32.11 21.5291 32.11 21.2643C32.11 20.9995 32.0692 20.7851 32.0192 20.7851ZM29.22 20.774C29.2706 20.774 29.3108 20.9885 29.3108 21.2539C29.3108 21.5193 29.27 21.7331 29.22 21.7331C29.1701 21.7331 29.1287 21.5187 29.1287 21.2539C29.1287 20.9891 29.1695 20.774 29.22 20.774ZM32.3298 20.7028C32.2792 20.7028 32.2391 20.9172 32.2391 21.182C32.2391 21.4468 32.2799 21.6612 32.3298 21.6612C32.3797 21.6612 32.4205 21.4468 32.4205 21.182C32.4205 20.9172 32.3797 20.7028 32.3298 20.7028ZM28.9095 20.6917C28.96 20.6917 29.0008 20.9061 29.0008 21.1709C29.0008 21.4357 28.96 21.6508 28.9095 21.6508C28.8589 21.6508 28.8187 21.4364 28.8187 21.1709C28.8187 20.9055 28.8595 20.6917 28.9095 20.6917ZM35.0766 15.6844C35.3129 15.6844 35.5041 15.8773 35.5041 16.1157C35.5041 16.3541 35.3129 16.547 35.0766 16.547C34.8404 16.547 34.6492 16.3541 34.6492 16.1157C34.6492 15.8773 34.8404 15.6844 35.0766 15.6844ZM34.6607 17.4065C34.6607 17.4065 34.6839 17.7954 33.2718 17.7125C31.8597 17.6302 29.0233 17.7715 29.1049 20.3151H31.976C31.976 20.3151 31.7775 19.0666 33.2249 18.6667C34.6723 18.2661 34.9293 18.0308 34.6607 17.4065ZM27.7373 16.257C27.7422 16.2988 27.6514 16.3436 27.5351 16.3571C27.4188 16.3707 27.3208 16.3485 27.3159 16.3074C27.3111 16.2662 27.4012 16.2214 27.5181 16.2072C27.6344 16.1937 27.7324 16.2158 27.7373 16.257ZM28.0077 16.5015C28.0253 16.5439 27.9437 16.6195 27.8244 16.6705C27.7056 16.7215 27.5942 16.7288 27.5765 16.6858C27.5589 16.6434 27.6405 16.5679 27.7598 16.5169C27.8786 16.4659 27.99 16.4585 28.0077 16.5009V16.5015ZM28.3529 16.7184C28.3213 16.6791 28.2068 16.7209 28.0978 16.8118C27.9882 16.9021 27.9255 17.0072 27.9571 17.0459C27.9888 17.0846 28.1033 17.0428 28.2123 16.9525C28.3219 16.8622 28.3846 16.7571 28.3529 16.7184ZM28.8498 16.9316C28.8882 16.9666 28.8394 17.0846 28.7402 17.1952C28.6409 17.3052 28.5295 17.366 28.4911 17.331C28.4528 17.2959 28.5015 17.178 28.6008 17.0674C28.7 16.9574 28.8114 16.8966 28.8498 16.9316ZM29.3308 17.0797C29.3741 17.1085 29.3424 17.2327 29.2608 17.3568C29.1786 17.4803 29.0769 17.5571 29.0337 17.5276C28.9905 17.4981 29.0221 17.3746 29.1037 17.2505C29.1859 17.127 29.287 17.0502 29.3308 17.0797ZM29.9349 17.1221C29.9873 17.1577 29.9495 17.3082 29.8496 17.4587C29.7498 17.6093 29.6268 17.7021 29.5738 17.667C29.5214 17.6314 29.5592 17.4809 29.6591 17.3303C29.7589 17.1798 29.8825 17.087 29.9349 17.1227V17.1221ZM30.6132 17.0158C30.679 17.0606 30.6315 17.2492 30.5061 17.4379C30.3812 17.6265 30.226 17.7432 30.1602 17.6984C30.0944 17.6541 30.1419 17.4649 30.2674 17.2763C30.3922 17.0877 30.5475 16.9709 30.6132 17.0158ZM31.4097 16.8302C31.4846 16.8812 31.4304 17.0956 31.2879 17.3095C31.146 17.5239 30.9701 17.656 30.8952 17.6056C30.8203 17.5552 30.8745 17.3408 31.0169 17.1264C31.1588 16.9119 31.3348 16.7798 31.4097 16.8302ZM32.2257 16.7479C32.3006 16.7983 32.2464 17.0133 32.1039 17.2271C31.962 17.4415 31.786 17.5736 31.7111 17.5233C31.6362 17.4729 31.6904 17.2585 31.8329 17.044C31.9748 16.8296 32.1508 16.6975 32.2257 16.7479ZM33.0416 16.6656C33.1165 16.7159 33.0623 16.931 32.9198 17.1448C32.7779 17.3592 32.602 17.4913 32.5271 17.4409C32.4522 17.3906 32.5064 17.1755 32.6489 16.9617C32.7907 16.7479 32.9667 16.6152 33.0416 16.6656ZM34.5761 17.2609L33.9404 17.0281C33.9404 17.0281 34.229 16.7368 34.2582 16.5617C34.2875 16.3866 33.4782 16.4886 33.3485 17.334L34.5761 17.2609ZM36.7426 17.6836C35.9626 16.4155 34.8215 17.1153 35.0961 17.2462C35.3707 17.377 35.3561 17.7125 35.3561 17.7125C36.0783 17.5085 36.7426 17.6836 36.7426 17.6836ZM34.0561 16.2846C33.6225 14.7689 32.0052 14.7106 30.6766 15.1185C29.3479 15.5265 27.2678 14.8125 27.2678 14.8125C27.4992 16.0807 28.9722 16.8382 30.9798 16.3135C32.9874 15.7888 34.0561 16.2846 34.0561 16.2846ZM38.5548 35.5153L37.9556 33.0307L38.5767 32.0679C38.5767 32.0679 39.7081 32.5158 40.5289 31.7767C41.3497 31.0382 41.6384 29.6275 41.6603 29.2472C41.6828 28.8663 41.7711 28.419 42.8142 27.5238C43.8566 26.6286 48.1666 23.0891 49.6043 18.1162C49.6043 18.1162 49.4867 21.8167 44.851 26.4941C43.4706 27.8869 42.6145 28.771 42.2296 29.5673C41.3217 31.4437 42.1511 32.4249 38.5542 35.5159L38.5548 35.5153ZM37.712 36.4553L37.7784 34.8886L37.3345 33.4337H35.4042L37.0014 37.1717L37.7114 36.4553H37.712ZM37.9751 37.2442C42.7837 34.6527 42.1608 30.8551 42.1608 30.8551C41.3041 34.7571 38.1511 36.3975 38.1511 36.3975C38.1913 36.725 37.9751 37.2442 37.9751 37.2442ZM44.8608 33.975C44.5545 33.7495 44.0552 34.1218 43.7958 34.1654C42.9847 34.3018 43.8999 34.9568 44.4461 34.668C44.8328 34.4634 45.1092 34.1581 44.8608 33.975ZM44.2433 33.0571L44.2056 33.0442C43.9638 33.4196 44.5484 33.3956 44.7798 33.3956C45.9891 33.3956 45.8563 32.5471 45.5799 32.4703C44.8127 32.2559 44.4485 33.0755 44.2439 33.0577L44.2433 33.0571ZM44.7298 31.5776C44.6976 31.5758 44.6927 31.5543 44.6696 31.5776C44.1361 32.1048 45.3759 32.0077 45.6152 31.9057C45.9343 31.7699 46.1937 31.5303 46.1468 31.1672C46.1304 31.04 45.4599 31.1825 45.3278 31.1795C44.7457 31.1672 45.0641 31.593 44.7292 31.5776H44.7298ZM44.9667 30.0717C44.9484 30.0815 44.904 30.1129 44.8979 30.1313C44.6415 30.8563 46.2089 30.7027 46.3843 29.9236C46.4908 29.4506 46.6559 28.9216 45.9477 29.2245C44.8936 29.676 45.3321 29.8806 44.9667 30.0717ZM45.0982 28.3532L45.0611 28.3668C44.8413 28.8515 44.7907 28.956 45.3254 28.9117C45.7321 28.8786 46.0975 28.7428 46.3642 28.4184C46.8897 27.7794 46.6534 27.7395 46.45 27.2805C46.3343 27.0188 45.6207 27.627 45.4965 27.7524C45.0544 28.1978 45.3607 28.0491 45.0989 28.3526L45.0982 28.3532ZM44.8943 27.0261C44.876 27.0378 44.6756 27.2068 44.7213 27.3819C44.9551 28.2789 46.3289 26.1691 46.3587 26.0658C46.528 25.4895 46.3228 25.6222 46.0555 25.7519C45.7522 25.8987 45.3528 26.7337 44.8949 27.0255L44.8943 27.0261ZM44.4796 35.7678C44.4248 35.7457 44.1623 35.758 44.1617 35.7586C43.9748 36.0492 44.0436 36.0277 44.1916 36.1942C44.5533 36.6015 45.2566 36.1352 45.2633 35.9595C45.2852 35.4096 44.7652 35.8851 44.479 35.7678H44.4796ZM45.2456 34.8652C45.1999 34.899 44.7043 34.872 44.8309 35.1829C44.9667 35.5159 45.6231 35.3598 45.846 35.1903C46.0293 35.0508 46.1748 34.7952 46.0835 34.5709C45.9245 34.1833 45.4283 34.7282 45.2462 34.8652H45.2456ZM46.1913 33.1941C46.0281 33.6942 45.6658 33.3213 45.6176 33.9135C45.6122 33.9811 46.4129 34.0868 46.7813 33.5799C47.0791 33.1701 47.2983 32.7192 46.567 32.8205C46.3782 32.8463 46.2491 33.0178 46.1919 33.1947L46.1913 33.1941ZM46.475 31.7269C46.243 31.7754 45.9105 32.4961 46.9274 32.1889C47.2776 32.0832 47.7909 31.4633 47.7556 31.0879C47.7422 30.9454 47.129 31.0984 47.02 31.1205C46.4707 31.2329 46.7673 31.6648 46.475 31.7263V31.7269ZM47.9614 29.3117C47.8731 29.2693 47.2441 29.6724 47.0036 29.7184C47.0401 29.9746 46.5365 30.5792 46.911 30.6363C47.8713 30.7844 48.2068 29.4297 47.9614 29.3117ZM47.2075 27.7173C47.1972 27.804 47.2222 28.4325 46.992 28.7274C46.732 29.0604 47.5753 28.8331 47.6094 28.8104C48.0527 28.5105 48.1556 28.0669 48.1556 27.517C48.1556 26.808 47.2331 27.5048 47.2075 27.718V27.7173ZM47.0565 26.1371C47.0431 26.1574 47.0681 26.4007 47.0523 26.5051C46.9969 26.8787 46.9914 26.695 46.9914 27.0151C47.3366 27.0151 47.579 26.8547 47.7726 26.5703C48.1179 26.0646 48.0375 25.0195 47.9133 25.1584C47.5443 25.5719 47.4127 25.5842 47.0559 26.1365L47.0565 26.1371ZM46.7234 25.0134C46.4707 25.2131 46.6035 25.5405 46.9183 25.4699C47.2861 25.3875 47.9693 24.5108 47.7878 24.1981C47.551 23.7907 46.9451 24.8383 46.7241 25.0134H46.7234ZM38.489 38.0601C38.5359 38.0558 38.5609 37.9206 38.545 37.7584C38.5292 37.5962 38.4787 37.4684 38.4324 37.4734C38.3855 37.4783 38.3605 37.6134 38.3764 37.7756C38.3922 37.9378 38.4427 38.0656 38.489 38.0607V38.0601ZM38.8525 37.8574C38.8988 37.8524 38.9238 37.7173 38.9073 37.5551C38.8909 37.3929 38.8404 37.2651 38.7935 37.27C38.7472 37.2749 38.7222 37.4101 38.7387 37.5723C38.7551 37.7345 38.8057 37.8623 38.8525 37.8574ZM39.2337 37.6921C39.1874 37.6982 39.1326 37.5723 39.1113 37.4107C39.09 37.2491 39.1107 37.1133 39.157 37.1072C39.2033 37.101 39.2581 37.227 39.2794 37.3886C39.3007 37.5502 39.2794 37.6859 39.2337 37.6921ZM39.6277 37.4998C39.582 37.5102 39.5163 37.3898 39.4809 37.2307C39.4456 37.0715 39.4535 36.9345 39.4992 36.9241C39.5449 36.9136 39.6106 37.0341 39.6466 37.1932C39.6819 37.3523 39.674 37.4893 39.6283 37.4998H39.6277ZM40.0095 37.2675C39.965 37.2823 39.8883 37.168 39.839 37.0132C39.7897 36.8583 39.7854 36.7207 39.8299 36.706C39.8743 36.6912 39.9504 36.8055 40.0004 36.9603C40.0503 37.1158 40.0539 37.2528 40.0095 37.2675ZM40.5106 36.8989C40.4735 36.9278 40.3639 36.8454 40.2658 36.7158C40.1678 36.5862 40.1191 36.4578 40.1562 36.4295C40.1934 36.4012 40.303 36.4829 40.401 36.6126C40.4991 36.7422 40.5478 36.8706 40.5106 36.8989ZM40.9308 36.5997C40.8955 36.6316 40.7773 36.5585 40.6671 36.4356C40.5569 36.3128 40.4966 36.1868 40.5313 36.1549C40.5667 36.1229 40.6848 36.196 40.795 36.3189C40.9052 36.4418 40.9655 36.5677 40.9302 36.5997H40.9308ZM41.3302 36.2962C41.2907 36.3392 41.1403 36.2618 40.9941 36.1241C40.848 35.9865 40.7615 35.8403 40.8011 35.7973C40.8407 35.7549 40.9911 35.8317 41.1372 35.9693C41.2834 36.1069 41.3698 36.2532 41.3302 36.2956V36.2962ZM41.7126 35.9644C41.7528 35.9134 41.6432 35.7586 41.4679 35.6197C41.2925 35.4809 41.1183 35.4096 41.0781 35.4606C41.038 35.5116 41.1476 35.6658 41.3229 35.8053C41.4983 35.9441 41.6725 36.0154 41.712 35.9644H41.7126ZM42.2071 35.4981C42.243 35.4299 42.0823 35.2732 41.8484 35.1491C41.6146 35.025 41.396 34.9795 41.3601 35.0477C41.3241 35.1159 41.4849 35.2726 41.7187 35.3967C41.9526 35.5208 42.1712 35.5663 42.2071 35.4981ZM42.7253 34.9427C42.7515 34.8573 42.5365 34.7135 42.2442 34.6213C41.9519 34.5292 41.6938 34.5243 41.6676 34.6097C41.6414 34.6951 41.8563 34.8388 42.1486 34.931C42.4409 35.0231 42.6991 35.0281 42.7253 34.9427ZM43.1491 34.2269C43.1613 34.1261 42.8915 34.01 42.5463 33.9676C42.201 33.9258 41.9118 33.9731 41.8996 34.0739C41.8874 34.1747 42.1578 34.2908 42.5024 34.3332C42.8477 34.375 43.1369 34.3276 43.1491 34.2263V34.2269ZM43.6332 33.3465C43.6247 33.2279 43.2897 33.156 42.8848 33.1855C42.4799 33.215 42.159 33.3348 42.1675 33.4534C42.176 33.5719 42.5109 33.6438 42.9159 33.6143C43.3208 33.5848 43.6417 33.465 43.6332 33.3465ZM43.9322 32.4451C43.9084 32.329 43.5674 32.3007 43.1698 32.3825C42.7722 32.4642 42.4689 32.6252 42.4927 32.7413C42.5164 32.8574 42.8574 32.8857 43.255 32.8039C43.6527 32.7222 43.9559 32.5613 43.9322 32.4451ZM44.2732 31.3208C44.2196 31.1893 43.8116 31.2348 43.3622 31.4222C42.9128 31.6096 42.5919 31.8676 42.6461 31.9991C42.6997 32.1306 43.1077 32.0851 43.5571 31.8977C44.0064 31.7103 44.3267 31.4523 44.2732 31.3208ZM44.3761 29.9826C44.2884 29.8481 43.8445 29.9869 43.3847 30.2923C42.925 30.5976 42.6236 30.9546 42.7113 31.0892C42.799 31.2237 43.2429 31.0849 43.7026 30.7795C44.1623 30.4741 44.4637 30.1178 44.3761 29.9832V29.9826ZM44.3742 28.3324C44.2354 28.1996 43.7562 28.4835 43.3031 28.9664C42.8501 29.4493 42.5956 29.9476 42.7344 30.0803C42.8732 30.213 43.3525 29.9292 43.8055 29.4463C44.2585 28.9633 44.5131 28.4651 44.3748 28.3324H44.3742ZM43.224 34.9795C43.1692 35.1313 43.3445 35.3482 43.6155 35.4643C43.8865 35.5804 44.1508 35.5515 44.205 35.4004C44.2598 35.2486 44.0844 35.0317 43.8134 34.9156C43.5424 34.7995 43.2782 34.8284 43.224 34.9795ZM42.7874 35.4944C42.7222 35.6369 42.8757 35.8618 43.129 35.9957C43.3829 36.1303 43.6411 36.1235 43.7062 35.981C43.7714 35.8384 43.618 35.6136 43.364 35.4796C43.1101 35.3451 42.8519 35.3518 42.7868 35.4944H42.7874ZM42.3861 35.954C42.4604 35.8212 42.7113 35.8354 42.9469 35.9859C43.1826 36.1364 43.3129 36.3668 43.2386 36.4995C43.1643 36.6322 42.9134 36.6181 42.6778 36.4676C42.4421 36.3171 42.3118 36.0867 42.3861 35.954ZM41.93 36.3668C42.0122 36.2439 42.2546 36.2777 42.4707 36.4424C42.6869 36.6071 42.7953 36.8405 42.7131 36.9634C42.6309 37.0863 42.3885 37.0525 42.1724 36.8878C41.9562 36.7232 41.8478 36.4897 41.93 36.3668ZM41.4764 36.7828C41.5659 36.6703 41.7973 36.7226 41.994 36.8995C42.19 37.0765 42.2771 37.3105 42.1876 37.423C42.0981 37.5354 41.8667 37.4832 41.67 37.3069C41.4739 37.1299 41.3869 36.8958 41.4764 36.7834V36.7828ZM41.0501 37.2159C41.1463 37.1219 41.3558 37.1975 41.5184 37.3849C41.681 37.5723 41.7346 37.8008 41.639 37.8948C41.5428 37.9888 41.3333 37.9139 41.1707 37.7259C41.0081 37.5385 40.9539 37.3099 41.0501 37.2159ZM40.5934 37.477C40.4936 37.5532 40.5179 37.7707 40.647 37.9636C40.7761 38.156 40.9618 38.2506 41.0617 38.1744C41.1616 38.0982 41.1372 37.8807 41.0081 37.6878C40.879 37.4955 40.6933 37.4009 40.5934 37.477ZM40.1313 37.7511C40.2317 37.6927 40.3925 37.8008 40.4893 37.9931C40.5867 38.1854 40.5843 38.3888 40.4832 38.4478C40.3828 38.5062 40.222 38.398 40.1252 38.2057C40.0278 38.0134 40.0302 37.81 40.1313 37.7511ZM39.6618 38.0368C39.5632 38.0792 39.5376 38.2653 39.6052 38.4527C39.6728 38.6401 39.8073 38.7581 39.906 38.7157C40.0046 38.6733 40.0302 38.4871 39.9626 38.2997C39.895 38.1123 39.7604 37.9944 39.6612 38.0368H39.6618ZM39.1844 38.3317C39.0894 38.3587 39.0456 38.5252 39.0864 38.704C39.1266 38.8822 39.2362 39.0051 39.3312 38.9774C39.4255 38.9504 39.4694 38.7839 39.4292 38.6051C39.389 38.4269 39.2794 38.304 39.1844 38.3317ZM39.266 39.3805C39.1607 39.4075 39.1113 39.574 39.1564 39.7528C39.2015 39.931 39.3238 40.0538 39.4292 40.0262C39.5345 39.9991 39.5839 39.8326 39.5388 39.6539C39.4937 39.4757 39.3713 39.3528 39.266 39.3805ZM39.8341 39.1396C39.7257 39.1746 39.6849 39.3522 39.7434 39.5359C39.8018 39.7196 39.937 39.8394 40.046 39.8044C40.1544 39.7694 40.1952 39.5918 40.1368 39.4087C40.0783 39.225 39.9431 39.1046 39.8341 39.1402V39.1396ZM40.3888 38.8601C40.2786 38.9055 40.25 39.0935 40.3261 39.2803C40.4016 39.4671 40.5526 39.5814 40.6629 39.5353C40.7731 39.4898 40.8017 39.3018 40.7262 39.115C40.6507 38.9283 40.4997 38.814 40.3895 38.8601H40.3888ZM40.971 38.5363C40.8547 38.5799 40.8187 38.7753 40.8918 38.9725C40.9649 39.1697 41.1183 39.2932 41.2346 39.2496C41.3516 39.206 41.3869 39.0106 41.3138 38.8134C41.2413 38.6161 41.0879 38.4926 40.971 38.5363ZM41.522 38.2143C41.639 38.1584 41.8095 38.2733 41.902 38.4718C41.9946 38.6696 41.9751 38.8754 41.8576 38.9313C41.7407 38.9872 41.5702 38.8723 41.4776 38.6739C41.385 38.4761 41.4045 38.2702 41.522 38.2143ZM42.103 37.7916C41.9867 37.8598 41.9836 38.0749 42.0975 38.2721C42.2107 38.4687 42.3971 38.5731 42.514 38.5049C42.6303 38.4367 42.6327 38.2217 42.5195 38.0245C42.4062 37.8279 42.2199 37.7234 42.103 37.7916ZM42.6467 37.3376C42.7612 37.2565 42.9634 37.348 43.0973 37.5416C43.2319 37.7351 43.2477 37.9575 43.1333 38.0386C43.0188 38.1197 42.8166 38.0282 42.6827 37.8346C42.5481 37.6411 42.5322 37.4187 42.6467 37.3376ZM43.154 36.851C43.0425 36.945 43.0784 37.1735 43.2343 37.3615C43.3902 37.5495 43.6064 37.6263 43.7178 37.5323C43.8293 37.4383 43.7933 37.2098 43.6374 37.0218C43.4816 36.8338 43.2654 36.7576 43.154 36.851ZM43.6612 36.3687C43.7677 36.2618 43.9979 36.3214 44.1751 36.502C44.3523 36.682 44.4089 36.9149 44.3024 37.0218C44.1958 37.1287 43.9656 37.0685 43.7884 36.8885C43.6113 36.7084 43.5546 36.4756 43.6612 36.3687ZM39.4024 40.4237C39.3025 40.4587 39.2684 40.624 39.3263 40.7923C39.3841 40.9613 39.512 41.0694 39.6125 41.0344C39.7123 40.9994 39.7464 40.8341 39.688 40.6658C39.6301 40.4974 39.5023 40.3887 39.4024 40.4237ZM39.9924 40.2222C39.8859 40.2676 39.8609 40.4513 39.937 40.6314C40.0131 40.8114 40.1611 40.9207 40.2677 40.8747C40.3742 40.8292 40.3992 40.6455 40.3231 40.4655C40.247 40.2855 40.099 40.1761 39.9924 40.2222ZM40.5947 39.9125C40.482 39.9703 40.4686 40.1712 40.5642 40.361C40.6598 40.5509 40.8285 40.6578 40.9411 40.6006C41.0538 40.5429 41.0672 40.342 40.9716 40.1521C40.876 39.9623 40.7073 39.8548 40.5947 39.9125ZM41.1932 39.5777C41.0763 39.6483 41.0763 39.8658 41.1932 40.0637C41.3101 40.2615 41.5001 40.3647 41.617 40.2941C41.734 40.2234 41.734 40.0059 41.617 39.8081C41.5001 39.6102 41.3101 39.507 41.1932 39.5777ZM42.4373 38.865C42.3167 38.9491 42.3325 39.1826 42.4726 39.386C42.6126 39.5893 42.8233 39.6858 42.9439 39.6016C43.0644 39.5175 43.0486 39.284 42.9086 39.0806C42.7685 38.8773 42.5578 38.7808 42.4373 38.865ZM41.7912 39.2066C41.9118 39.1224 42.1224 39.2189 42.2625 39.4222C42.4025 39.6256 42.4184 39.8591 42.2978 39.9432C42.1772 40.0274 41.966 39.9309 41.8265 39.7276C41.6865 39.5242 41.6706 39.2907 41.7912 39.2066ZM43.115 38.4564C43.2374 38.3575 43.47 38.4453 43.6338 38.6518C43.7976 38.8588 43.8317 39.1064 43.7087 39.2053C43.5863 39.3043 43.3543 39.2164 43.1899 39.01C43.0261 38.8029 42.992 38.5553 43.1144 38.4564H43.115ZM43.6983 37.928C43.5753 38.0423 43.6289 38.3028 43.8183 38.5105C44.0077 38.7181 44.2604 38.7943 44.3834 38.68C44.5064 38.5658 44.4528 38.3053 44.2634 38.097C44.074 37.8893 43.8213 37.8131 43.6983 37.9274V37.928ZM44.2805 37.4045C44.4022 37.2749 44.6757 37.337 44.8912 37.5428C45.1062 37.7492 45.1817 38.0214 45.0593 38.151C44.9375 38.2807 44.6641 38.2186 44.4485 38.0128C44.2336 37.8064 44.1581 37.5342 44.2799 37.4045H44.2805ZM44.9679 36.8362C45.2139 36.7699 45.5062 36.7545 45.7297 36.5935C46.0366 36.373 46.4884 36.9874 45.9398 37.3959C45.7851 37.5108 45.1914 37.6589 45.066 37.3658C45.0057 37.2251 44.8894 36.8577 44.9679 36.8362ZM45.7869 35.7911C45.6779 35.9251 46.081 36.2562 46.1675 36.2691C47.3993 36.4602 47.6904 35.4157 47.1302 35.2793C46.8988 35.2228 45.863 35.6978 45.7869 35.7905V35.7911ZM47.6106 33.9258C47.501 33.9996 46.6449 34.4352 46.6565 34.4487C46.9335 34.7688 46.967 34.9887 47.6539 34.9519C48.7487 34.8935 48.3931 33.3993 47.6106 33.9258ZM47.3579 32.9833L47.3433 33.0331C47.3275 33.4085 48.0862 33.5117 48.3578 33.4945C48.784 33.4675 49.5969 32.8304 48.6714 32.7308C47.5424 32.6086 48.1002 32.4894 47.3579 32.9833ZM48.3377 31.3779C48.2914 31.3878 48.1282 31.6833 48.0929 31.7466C47.9924 31.9272 47.3933 32.1023 48.1928 32.2657C48.7719 32.3837 49.3394 32.1822 49.5415 31.5825C49.642 31.2839 49.5902 30.895 49.3205 31.0842C48.8906 31.3853 48.7938 31.2802 48.3377 31.3779ZM48.658 29.7246C48.6379 30.339 47.3841 30.793 49.016 30.7371C50.0293 30.7021 50.6875 28.6948 49.6195 29.1286C49.5787 29.1452 48.9369 29.5642 48.7122 29.6656C48.6811 29.6797 48.6592 29.6939 48.658 29.7252V29.7246ZM48.8815 27.5183C48.8254 27.6111 48.7706 28.1898 48.4784 28.5634C48.1069 29.0395 49.5373 28.763 49.5415 28.76C50.9311 27.7677 50.5536 26.4978 50.2272 26.714C49.6877 27.0716 49.284 26.8517 48.8809 27.5183H48.8815ZM48.4991 26.4369C48.3614 27.0083 50.0007 26.5524 50.4452 25.4779C50.8471 24.5065 50.1273 24.2257 50.0628 24.3265C49.8521 24.654 49.5994 24.9759 49.2931 25.1621C49.1311 25.2604 48.6428 25.4613 48.644 25.5024C48.6726 26.1777 48.6738 25.7076 48.4985 26.4363L48.4991 26.4369ZM48.3261 24.5053C48.2384 24.555 48.2062 24.5434 48.2244 24.6417C48.328 25.194 49.2907 24.4647 49.5007 24.2988C50.4902 23.5198 50.0421 21.9537 49.7747 22.138C49.393 22.401 49.206 22.8802 48.9874 23.0147C47.9669 23.6445 48.6689 24.3111 48.3261 24.5053ZM49.5135 20.7194C49.4161 20.4343 49.1068 21.3368 48.6635 22.0962C48.2665 22.7757 47.7202 23.2955 47.7884 23.4805C47.9182 23.8331 48.6878 22.7837 48.9247 22.4157C49.1616 22.0483 49.6804 21.2053 49.5141 20.7194H49.5135ZM38.9762 44.0105L39.4054 44.7515C39.4054 44.7515 39.6721 45.3192 39.2721 45.1072C38.8714 44.8959 38.6236 44.0585 38.6236 44.0585L38.9762 44.0105ZM39.3957 43.2217L39.1284 43.5774C39.1284 43.5774 39.7099 44.9917 40.0631 45.0206C40.4156 45.0495 40.0631 44.5684 40.0631 44.5684L39.3957 43.2217ZM39.6533 42.5384C39.3007 42.2306 39.5199 43.0097 39.596 43.2217C39.6721 43.433 40.3974 44.8768 40.6068 44.7994C40.8163 44.7226 40.6927 44.5395 40.6068 44.3571C40.521 44.174 39.6533 42.5384 39.6533 42.5384ZM39.9206 41.7784C39.6533 41.5474 39.663 41.9038 39.6916 42.0863C39.7203 42.2687 40.7499 44.3761 40.9789 44.5684C41.2078 44.7607 41.4746 44.5205 41.1884 44.2409C40.9022 43.962 39.92 41.7778 39.92 41.7778L39.9206 41.7784ZM40.4735 41.615C40.4735 41.615 41.4654 43.6069 41.7419 43.9147C42.0183 44.2225 41.8277 44.5205 41.5318 44.2514C41.2365 43.9817 40.2543 42.125 40.1873 41.913C40.1203 41.7016 40.1398 41.2974 40.4735 41.615ZM41.0075 41.3938C41.0075 41.3938 42.1231 43.3857 42.3617 43.5878C42.5998 43.79 42.581 44.2612 42.1614 43.9632C41.7419 43.6653 40.8267 41.9621 40.7597 41.7502C40.6927 41.5388 40.5593 40.9902 41.0075 41.3938ZM41.5513 41.2304C41.5513 41.2304 42.8002 43.0681 43.0389 43.3568C43.277 43.6456 43.02 43.9245 42.7716 43.6837C42.5237 43.4428 41.3984 41.6248 41.3126 41.4608C41.2267 41.2974 41.217 40.9508 41.5507 41.2298L41.5513 41.2304ZM42.0756 41.0381C42.0756 41.0381 41.9708 40.8261 41.8082 40.8648C41.6463 40.9035 41.6938 41.0283 41.8271 41.317C41.9605 41.6058 43.2002 43.2991 43.4767 43.4533C43.7531 43.6075 43.8865 43.3089 43.6198 43.0976C43.3525 42.8856 42.075 41.0381 42.075 41.0381H42.0756ZM42.6382 40.769C42.5237 40.5957 42.4762 40.538 42.2948 40.5767C42.1133 40.6154 42.2375 40.8556 42.3423 41.0098C42.447 41.164 43.8585 42.982 44.1349 43.1172C44.4114 43.2518 44.5642 42.9538 44.3255 42.7418C44.0874 42.5305 42.6376 40.7696 42.6376 40.7696L42.6382 40.769ZM43.1533 40.3647C43.1533 40.3647 43.0389 40.2492 42.8483 40.2879C42.6577 40.3266 42.8483 40.7112 42.8483 40.7112C42.8483 40.7112 44.4029 42.5778 44.7457 42.7222C45.0891 42.8665 45.2986 42.4524 44.9076 42.2319C44.5167 42.0107 43.1527 40.3653 43.1527 40.3653L43.1533 40.3647ZM43.7446 40.1239C43.7446 40.1239 43.6113 39.8449 43.3537 39.9703C43.0961 40.095 43.3439 40.3168 43.5065 40.5478C43.6685 40.7788 45.08 42.0488 45.385 42.2509C45.6901 42.453 46.1766 42.1446 45.6712 41.8565C45.1658 41.5677 43.7452 40.1245 43.7452 40.1245L43.7446 40.1239ZM44.3219 39.8591C44.3219 39.8591 46.0969 41.3539 46.2875 41.4798C46.4781 41.6058 46.581 41.9978 46.1042 41.8866C45.6274 41.7754 43.948 40.0366 43.948 40.0366C43.948 40.0366 43.7428 39.6963 43.867 39.6446C43.9918 39.593 44.2117 39.6668 44.3219 39.8591ZM44.7475 39.378C44.7475 39.378 46.6619 41.0061 46.8818 41.1321C47.1016 41.258 47.146 41.5321 46.8818 41.5093C46.6175 41.4872 44.8425 39.9998 44.6811 39.8222C44.5198 39.6446 44.2117 39.5408 44.4022 39.3559C44.5928 39.1709 44.7469 39.378 44.7469 39.378H44.7475ZM45.3637 38.9786C45.3637 38.9786 46.9116 40.3033 47.3512 40.5331C47.7915 40.7622 47.7623 41.0885 47.3732 40.9994C46.9847 40.9103 45.4587 39.5562 45.2091 39.3786C44.96 39.201 44.7615 39.0087 44.9375 38.9197C45.1135 38.8306 45.1281 38.8011 45.3631 38.9786H45.3637ZM45.913 38.5197C45.913 38.5197 47.7428 39.8363 48.1331 39.9942C48.5234 40.1515 48.4564 40.6357 47.9437 40.4556C47.4304 40.2756 45.8911 39.0259 45.6792 38.8459C45.4672 38.6659 45.4453 38.5049 45.5257 38.438C45.6061 38.3716 45.8338 38.4158 45.9136 38.5191L45.913 38.5197ZM46.5042 38.0355C46.5042 38.0355 48.2445 39.2846 48.7128 39.4087C49.181 39.5328 49.1482 39.9266 48.8133 39.8701C48.4784 39.8136 46.3593 38.5307 46.1358 38.2942C45.913 38.0577 46.0469 37.8555 46.1584 37.8555C46.2698 37.8555 46.5042 38.0355 46.5042 38.0355ZM47.1625 37.4838C46.9615 37.3038 46.7387 37.27 46.6157 37.439C46.4927 37.6079 47.4858 38.2604 47.6758 38.3845C47.8652 38.508 49.2036 39.4198 49.5385 39.2397C49.8734 39.0597 49.7394 38.9135 49.2596 38.7108C48.7798 38.508 47.1625 37.4838 47.1625 37.4838ZM47.5973 36.8762C47.5973 36.8762 47.2958 36.7189 47.129 36.8424C46.9615 36.9665 47.196 37.1127 47.4633 37.3486C47.7312 37.5852 49.449 38.5529 49.9513 38.6653C50.4531 38.7777 50.3417 38.339 49.8283 38.159C49.315 37.979 47.5973 36.8755 47.5973 36.8755V36.8762ZM48.0545 36.3244C48.0545 36.3244 50.0622 37.3824 50.553 37.5176C51.0437 37.6528 50.9993 38.0239 50.5195 37.979C50.0396 37.9342 48.166 36.91 47.9535 36.7521C47.7416 36.5948 47.4962 36.4596 47.6301 36.3355C47.7641 36.212 48.0539 36.3244 48.0539 36.3244H48.0545ZM48.3669 35.7506C48.3669 35.7506 50.654 36.6513 51.0553 36.7521C51.4566 36.8534 51.6575 37.1913 51.2891 37.3038C50.9213 37.4162 48.7566 36.4037 48.3554 36.212C47.9535 36.0203 47.965 35.8292 47.965 35.8292C47.965 35.8292 48.0546 35.5589 48.3669 35.7506ZM48.7798 35.1767C48.7798 35.1767 48.4004 35.0754 48.3779 35.2892C48.356 35.503 48.9131 35.6382 49.2371 35.7733C49.5604 35.9085 51.3007 36.6286 51.814 36.4934C52.3273 36.3582 52.2269 36.0658 51.825 36.043C51.4237 36.0203 48.7798 35.1761 48.7798 35.1761V35.1767ZM49.2145 34.4788C49.2145 34.4788 48.9247 34.445 48.8242 34.6588C48.7238 34.8726 49.2815 34.9967 49.6049 35.0864C49.9282 35.1761 52.0479 35.8968 52.5496 35.6154C53.0514 35.334 52.5161 35.1761 52.1258 35.1202C51.7355 35.0637 49.2139 34.4788 49.2139 34.4788H49.2145ZM49.6274 33.6795C49.4045 33.6346 49.2815 33.6905 49.248 33.7808C49.2145 33.8705 49.1031 33.9719 49.6718 34.1525C50.2406 34.3326 52.795 34.625 53.0294 34.6029C53.2639 34.5802 54.022 33.9725 53.0739 34.0063C52.1258 34.0401 49.6268 33.6801 49.6268 33.6801L49.6274 33.6795ZM49.9623 32.7904C49.9623 32.7904 52.9966 33.038 53.8222 32.9366C54.6479 32.8353 54.1237 33.5222 53.7218 33.5443C53.3205 33.567 50.6766 33.4091 50.2302 33.3194C49.7839 33.2291 49.6164 33.1732 49.6499 33.0497C49.6834 32.9256 49.7504 32.7904 49.9623 32.7904ZM50.4866 31.9124C50.4866 31.9124 53.7553 31.8338 54.2345 31.7208C54.7143 31.6083 54.8818 31.9124 54.6248 32.1822C54.3684 32.4525 51.702 32.4187 51.0998 32.4187C50.4975 32.4187 50.0512 32.4525 50.0287 32.227C50.0061 32.0022 50.1182 31.9118 50.486 31.9118L50.4866 31.9124ZM50.7655 30.922C50.7655 30.922 53.6213 30.6069 54.7368 30.2579C55.8524 29.9089 55.551 30.6517 55.2502 30.7648C54.9487 30.8772 52.7183 31.3503 51.5023 31.3951C50.2862 31.44 50.3423 31.3951 50.3197 31.26C50.2972 31.1248 50.3307 30.9337 50.7661 30.9227L50.7655 30.922ZM51.3232 29.673C51.3232 29.673 54.9932 28.7839 55.4286 28.5363C55.8633 28.2887 56.2317 28.6377 55.9194 28.9977C55.607 29.3578 52.082 30.1006 51.3567 30.202C50.6315 30.3033 50.6875 30.1792 50.6875 30.0441C50.6875 29.9089 50.855 29.7289 51.3232 29.6724V29.673ZM51.2563 28.6033L55.9413 26.6673C55.9413 26.6673 56.5216 26.2956 56.4881 26.8246C56.4546 27.3536 56.1313 27.4771 55.0492 27.8826C53.9672 28.2875 51.3348 29.1544 51.3348 29.1544C51.3348 29.1544 50.9889 29.2896 50.922 29.0193C50.855 28.7489 51.2569 28.6027 51.2569 28.6027L51.2563 28.6033ZM51.305 27.4138C51.0687 27.5773 51.0249 27.6221 51.0541 27.9047C51.0833 28.1874 51.5997 27.9791 51.5997 27.9791C51.5997 27.9791 53.4587 27.2049 54.9926 26.5205C56.5265 25.8361 56.7335 25.5233 56.8364 24.9427C56.9399 24.3621 56.2165 24.8684 56.2165 24.8684L51.3038 27.4138H51.305ZM51.515 25.9577L56.3785 22.8286C56.3785 22.8286 56.9472 22.232 57.0252 22.93C57.1031 23.6279 54.7387 25.0349 52.3066 26.2618C52.3066 26.2618 51.2581 26.8474 51.0906 26.6108C50.9232 26.3743 51.146 26.1383 51.5144 25.9577H51.515ZM51.3592 24.6632L56.1891 20.8588C56.1891 20.8588 56.9588 19.9471 56.9698 20.9713C56.9813 21.9955 53.7681 23.6838 52.4631 24.708C51.1582 25.7322 51.1022 25.2032 51.1022 25.2032C51.1022 25.2032 50.9908 24.9108 51.3586 24.6632H51.3592ZM51.1917 23.2562C51.1917 23.2562 50.8124 23.5935 50.9463 23.8638C51.0803 24.1342 51.5041 23.7852 51.5041 23.7852C51.5041 23.7852 55.9663 20.4539 56.6464 19.3505C57.3272 18.2476 56.401 18.0676 55.7763 18.9456C55.1515 19.8236 51.1917 23.2562 51.1917 23.2562ZM50.9238 21.9826C50.9238 21.9826 50.595 22.3788 50.6711 22.643C50.7472 22.9072 51.0967 22.718 51.0967 22.718C51.0967 22.718 55.0474 18.945 56.0253 17.5128C57.0032 16.0807 55.9297 15.6745 55.4883 16.429C55.0468 17.1835 50.9238 21.9826 50.9238 21.9826ZM50.5566 20.9584C50.5566 20.9584 50.2327 21.3964 50.4366 21.5728C50.6406 21.7491 50.9159 21.4339 50.9159 21.4339C50.9159 21.4339 54.528 16.4087 55.2904 14.756C56.0533 13.1033 55.0212 12.6505 54.3928 14.122C53.7644 15.5934 50.5566 20.9584 50.5566 20.9584ZM50.1377 20.1824C50.1377 20.1824 49.9526 20.4951 50.1084 20.6303C50.2649 20.7654 50.4878 20.473 50.4878 20.473L51.403 18.9253C52.9564 16.3909 54.7009 11.3406 53.301 9.03843C51.9011 6.73567 51.9973 12.2892 51.7093 14.9784C51.4219 17.6676 50.1371 20.183 50.1371 20.183L50.1377 20.1824ZM50.4299 12.4803C50.4592 14.3493 50.0798 17.7942 49.7571 19.1318C49.6329 19.6448 49.7985 19.7664 49.8302 19.7849C49.9982 19.8838 50.1036 19.5803 50.1036 19.5803C51.2094 17.5515 52.5557 8.40868 50.1626 5.31211C47.7696 2.21555 47.1132 2.70891 48.4199 4.83841C49.7266 6.96853 50.394 10.1775 50.4306 12.4797L50.4299 12.4803ZM24.7335 35.5147L25.3327 33.03L24.7116 32.0673C24.7116 32.0673 23.5802 32.5152 22.7594 31.7761C21.9386 31.0375 21.6499 29.6269 21.628 29.2466C21.6055 28.8657 21.5172 28.4184 20.4741 27.5232C19.4316 26.628 15.1217 23.0885 13.684 18.1155C13.684 18.1155 13.8015 21.8161 18.4373 26.4935C19.8177 27.8863 20.6738 28.7704 21.0587 29.5667C21.9666 31.443 21.1372 32.4242 24.7341 35.5153L24.7335 35.5147ZM25.5762 36.4547L25.5099 34.888L25.9538 33.4331H27.8841L26.2869 37.1711L25.5769 36.4547H25.5762ZM25.3132 37.2436C20.5045 34.652 21.1275 30.8545 21.1275 30.8545C21.9842 34.7565 25.1372 36.3969 25.1372 36.3969C25.0964 36.7244 25.3132 37.2436 25.3132 37.2436ZM18.4281 33.9744C18.7344 33.7489 19.2337 34.1212 19.4931 34.1648C20.3042 34.3012 19.389 34.9562 18.8428 34.6674C18.4561 34.4628 18.1797 34.1575 18.4281 33.9744ZM19.0456 33.0565L19.0833 33.0436C19.3251 33.419 18.7399 33.395 18.5091 33.395C17.2998 33.395 17.4325 32.5465 17.709 32.4697C18.4762 32.2553 18.8398 33.0749 19.045 33.0571L19.0456 33.0565ZM18.559 31.577C18.5913 31.5751 18.5962 31.5536 18.6193 31.577C19.1527 32.1041 17.913 32.0071 17.6737 31.9051C17.3546 31.7693 17.0952 31.5297 17.1421 31.1666C17.1585 31.0394 17.8289 31.1819 17.9611 31.1789C18.5432 31.1666 18.2247 31.5923 18.5596 31.577H18.559ZM18.3222 30.0711C18.3404 30.0809 18.3849 30.1123 18.391 30.1307C18.6473 30.8557 17.08 30.7021 16.9046 29.923C16.798 29.4499 16.6324 28.9209 17.3412 29.2238C18.3952 29.6754 17.9568 29.88 18.3222 30.0711ZM18.1906 28.3526L18.2278 28.3661C18.4476 28.8509 18.4981 28.9554 17.9635 28.9111C17.5568 28.8779 17.1914 28.7422 16.9247 28.4178C16.3992 27.7788 16.6355 27.7388 16.8388 27.2799C16.9551 27.0182 17.6682 27.6264 17.7924 27.7517C18.2345 28.1972 17.9282 28.0485 18.19 28.352L18.1906 28.3526ZM18.3946 27.0255C18.4129 27.0372 18.6132 27.2062 18.5676 27.3813C18.3337 28.2783 16.9606 26.1684 16.9302 26.0652C16.7609 25.4889 16.9661 25.6216 17.234 25.7513C17.5373 25.8981 17.9367 26.7331 18.3946 27.0249V27.0255ZM18.8093 35.7672C18.8641 35.7451 19.1266 35.7573 19.1272 35.758C19.3141 36.0486 19.2453 36.0271 19.0973 36.1936C18.7356 36.6009 18.0323 36.1346 18.025 35.9589C18.0031 35.409 18.5231 35.8845 18.8093 35.7672ZM18.0433 34.8646C18.0883 34.8984 18.5846 34.8714 18.458 35.1823C18.3222 35.5153 17.6658 35.3592 17.4429 35.1896C17.2596 35.0502 17.1141 34.7946 17.2054 34.5703C17.3643 34.1826 17.8606 34.7276 18.0433 34.8646ZM17.0976 33.1935C17.2608 33.6936 17.6231 33.3206 17.6712 33.9129C17.6767 33.9805 16.876 34.0862 16.5076 33.5793C16.2098 33.1695 15.9906 32.7185 16.7219 32.8199C16.9107 32.8457 17.0398 33.0171 17.0976 33.1941V33.1935ZM16.8139 31.7263C17.0459 31.7748 17.3783 32.4955 16.3614 32.1883C16.0113 32.0826 15.498 31.4627 15.5333 31.0873C15.5467 30.9448 16.1599 31.0978 16.2689 31.1199C16.8181 31.2323 16.5216 31.6642 16.8139 31.7257V31.7263ZM15.3275 29.3111C15.4158 29.2687 16.0448 29.6717 16.2853 29.7178C16.2488 29.974 16.7518 30.5786 16.3779 30.6357C15.4176 30.7838 15.0821 29.4291 15.3275 29.3111ZM16.0813 27.7167C16.0917 27.8034 16.0667 28.4319 16.2969 28.7268C16.5569 29.0598 15.7136 28.8325 15.6795 28.8097C15.2362 28.5099 15.1333 28.0663 15.1333 27.5164C15.1333 26.8074 16.0558 27.5041 16.0813 27.7173V27.7167ZM16.2324 26.1365C16.2458 26.1568 16.2208 26.4001 16.2366 26.5045C16.292 26.8781 16.2969 26.6944 16.2969 27.0145C15.9516 27.0145 15.7099 26.8541 15.5157 26.5696C15.1704 26.064 15.2508 25.0189 15.375 25.1578C15.744 25.5713 15.8755 25.5835 16.233 26.1359L16.2324 26.1365ZM16.5654 25.0128C16.8181 25.2124 16.6854 25.5399 16.3706 25.4693C16.0028 25.3869 15.3196 24.5102 15.501 24.1975C15.7379 23.7901 16.3438 24.8377 16.5654 25.0128ZM24.7999 38.0595C24.753 38.0552 24.728 37.92 24.7438 37.7578C24.7597 37.5956 24.8102 37.4678 24.8565 37.4727C24.9034 37.4777 24.9284 37.6128 24.9125 37.775C24.8967 37.9372 24.8461 38.065 24.7999 38.0601V38.0595ZM24.4363 37.8567C24.3895 37.8518 24.3651 37.7167 24.3815 37.5545C24.398 37.3923 24.4485 37.2645 24.4954 37.2694C24.5423 37.2743 24.5667 37.4095 24.5502 37.5717C24.5338 37.7339 24.4832 37.8617 24.4363 37.8567ZM24.0552 37.6915C24.1014 37.6976 24.1562 37.5717 24.1776 37.4101C24.1989 37.2485 24.1782 37.1127 24.1319 37.1066C24.0856 37.1004 24.0308 37.2264 24.0095 37.388C23.9882 37.5495 24.0089 37.6853 24.0552 37.6915ZM23.6612 37.4992C23.7069 37.5096 23.7726 37.3892 23.8085 37.2301C23.8439 37.0709 23.8359 36.9339 23.7903 36.9235C23.7446 36.913 23.6788 37.0334 23.6429 37.1926C23.6076 37.3517 23.6155 37.4887 23.6612 37.4992ZM23.2794 37.2669C23.3238 37.2817 23.4 37.1674 23.4499 37.0126C23.4992 36.8577 23.5035 36.7201 23.459 36.7054C23.4146 36.6906 23.3379 36.8049 23.2885 36.9597C23.2386 37.1152 23.2349 37.2522 23.2794 37.2669ZM22.7783 36.8983C22.8154 36.9272 22.925 36.8448 23.023 36.7152C23.1211 36.5856 23.1698 36.4571 23.1326 36.4289C23.0955 36.4006 22.9859 36.4823 22.8879 36.612C22.7898 36.7416 22.7411 36.87 22.7783 36.8983ZM22.3587 36.5991C22.394 36.631 22.5122 36.5579 22.6218 36.435C22.732 36.3121 22.7923 36.1862 22.7569 36.1542C22.7216 36.1223 22.6035 36.1954 22.4939 36.3183C22.3837 36.4412 22.3234 36.5671 22.3587 36.5991ZM21.9593 36.2956C21.9988 36.3386 22.1492 36.2612 22.2954 36.1235C22.4415 35.9859 22.5274 35.8397 22.4884 35.7967C22.4488 35.7543 22.2984 35.8311 22.1523 35.9687C22.0061 36.1063 21.9203 36.2526 21.9593 36.2949V36.2956ZM21.5762 35.9638C21.5361 35.9128 21.6457 35.758 21.821 35.6191C21.9964 35.4803 22.1705 35.409 22.2101 35.46C22.2503 35.511 22.1407 35.6652 21.9653 35.8047C21.79 35.9435 21.6158 36.0148 21.5762 35.9638ZM21.0818 35.4975C21.0459 35.4293 21.2066 35.2726 21.4405 35.1485C21.6743 35.0244 21.8929 34.9789 21.9288 35.0471C21.9647 35.1153 21.804 35.272 21.5702 35.3961C21.3363 35.5202 21.1177 35.5657 21.0818 35.4975ZM20.5636 34.942C20.5374 34.8566 20.7524 34.7129 21.0447 34.6207C21.3369 34.5286 21.5951 34.5236 21.6213 34.609C21.6481 34.6944 21.4325 34.8382 21.1403 34.9304C20.848 35.0225 20.5898 35.0274 20.5636 34.942ZM20.1392 34.2263C20.127 34.1255 20.3974 34.0094 20.742 33.967C21.0873 33.9252 21.3765 33.9725 21.3887 34.0733C21.4009 34.174 21.1311 34.2902 20.7859 34.3326C20.4406 34.3743 20.1514 34.327 20.1392 34.2257V34.2263ZM19.6551 33.3458C19.6636 33.2273 19.9985 33.1554 20.4035 33.1849C20.8084 33.2144 21.1293 33.3342 21.1208 33.4527C21.1122 33.5713 20.7773 33.6432 20.3724 33.6137C19.9675 33.5842 19.6466 33.4644 19.6551 33.3458ZM19.3561 32.4445C19.3799 32.3284 19.7209 32.3001 20.1185 32.3818C20.5161 32.4636 20.8194 32.6245 20.7956 32.7407C20.7719 32.8568 20.4309 32.885 20.0332 32.8033C19.6356 32.7216 19.3324 32.5606 19.3561 32.4445ZM19.0151 31.3202C19.0687 31.1887 19.4767 31.2342 19.9261 31.4215C20.3755 31.6089 20.6957 31.867 20.6422 31.9985C20.5886 32.1299 20.1806 32.0845 19.7312 31.8971C19.2818 31.7097 18.9615 31.4516 19.0151 31.3202ZM18.9122 29.982C18.9999 29.8475 19.4438 29.9863 19.9035 30.2917C20.3633 30.597 20.6647 30.954 20.577 31.0885C20.4893 31.2231 20.0454 31.0842 19.5857 30.7789C19.1259 30.4735 18.8245 30.1172 18.9122 29.9826V29.982ZM18.914 28.3317C19.0529 28.199 19.5321 28.4829 19.9857 28.9658C20.4388 29.4487 20.6933 29.947 20.5545 30.0797C20.4156 30.2124 19.9364 29.9286 19.4834 29.4456C19.0303 28.9627 18.7758 28.4645 18.914 28.3317ZM20.0643 34.9789C20.1191 35.1307 19.9437 35.3475 19.6728 35.4637C19.4018 35.5798 19.1375 35.5509 19.0833 35.3998C19.0285 35.248 19.2039 35.0311 19.4749 34.915C19.7458 34.7989 20.0101 34.8278 20.0643 34.9789ZM20.5009 35.4938C20.566 35.6363 20.4126 35.8612 20.1593 35.9951C19.9054 36.1297 19.6472 36.1229 19.582 35.9804C19.5169 35.8378 19.6703 35.613 19.9236 35.479C20.1776 35.3445 20.4357 35.3512 20.5009 35.4938ZM20.9022 35.9533C20.8279 35.8206 20.577 35.8348 20.3414 35.9853C20.1057 36.1358 19.9754 36.3662 20.0497 36.4989C20.124 36.6316 20.3748 36.6175 20.6105 36.467C20.8461 36.3164 20.9765 36.086 20.9028 35.9533H20.9022ZM21.3582 36.3662C21.276 36.2433 21.0337 36.2771 20.8175 36.4418C20.6014 36.6064 20.4924 36.8399 20.5752 36.9628C20.6574 37.0857 20.8997 37.0519 21.1159 36.8872C21.3321 36.7226 21.4405 36.4891 21.3582 36.3662ZM21.8119 36.7822C21.7224 36.6697 21.491 36.722 21.2943 36.8989C21.0976 37.0758 21.0112 37.3099 21.1007 37.4224C21.1902 37.5348 21.4216 37.4826 21.6183 37.3062C21.8149 37.1293 21.9014 36.8952 21.8119 36.7828V36.7822ZM22.2387 37.2153C22.1425 37.1213 21.9331 37.1969 21.7705 37.3843C21.6079 37.5717 21.5543 37.8002 21.6499 37.8942C21.7461 37.9882 21.9556 37.9133 22.1182 37.7253C22.2808 37.5379 22.3343 37.3093 22.2387 37.2153ZM22.6954 37.4764C22.7953 37.5526 22.7709 37.7701 22.6419 37.963C22.5128 38.1553 22.327 38.25 22.2272 38.1738C22.1273 38.0976 22.1511 37.8801 22.2808 37.6872C22.4099 37.4949 22.5956 37.4002 22.6954 37.4764ZM23.1576 37.7505C23.0571 37.6921 22.8964 37.8002 22.7996 37.9925C22.7021 38.1848 22.7052 38.3882 22.8057 38.4472C22.9061 38.5055 23.0669 38.3974 23.1643 38.2051C23.2617 38.0128 23.2587 37.8094 23.1582 37.7505H23.1576ZM23.6277 38.0361C23.7263 38.0785 23.7519 38.2647 23.6843 38.4521C23.6167 38.6395 23.4822 38.7575 23.3835 38.7151C23.2849 38.6727 23.2593 38.4865 23.3269 38.2991C23.3945 38.1117 23.5291 37.9938 23.6277 38.0361ZM24.1051 38.3311C24.1995 38.3581 24.2433 38.5246 24.2031 38.7034C24.1629 38.8816 24.0533 39.0044 23.9583 38.9768C23.864 38.9498 23.8201 38.7833 23.8603 38.6045C23.9005 38.4263 24.0101 38.3034 24.1051 38.3311ZM24.0235 39.3798C24.1288 39.4069 24.1782 39.5734 24.1331 39.7522C24.088 39.9303 23.9656 40.0532 23.8603 40.0256C23.755 39.9985 23.7056 39.832 23.7507 39.6532C23.7958 39.4751 23.9182 39.3522 24.0235 39.3798ZM23.4554 39.139C23.5638 39.174 23.6046 39.3516 23.5461 39.5353C23.4876 39.719 23.3525 39.8388 23.2435 39.8038C23.1351 39.7687 23.0943 39.5912 23.1527 39.4081C23.2112 39.2244 23.3464 39.104 23.4554 39.1396V39.139ZM22.9006 38.8594C23.0109 38.9049 23.0395 39.0929 22.964 39.2797C22.8885 39.4665 22.7375 39.5807 22.6272 39.5347C22.517 39.4892 22.4884 39.3012 22.5639 39.1144C22.6394 38.9276 22.7904 38.8134 22.9006 38.8594ZM22.3185 38.5357C22.4348 38.5793 22.4707 38.7747 22.3977 38.9719C22.3246 39.1691 22.1712 39.2926 22.0549 39.249C21.9379 39.2053 21.9026 39.01 21.9757 38.8127C22.0488 38.6155 22.2022 38.492 22.3185 38.5357ZM21.7674 38.2137C21.6505 38.1578 21.48 38.2727 21.3875 38.4711C21.2949 38.669 21.3144 38.8748 21.4319 38.9307C21.5494 38.9866 21.7193 38.8717 21.8119 38.6733C21.9045 38.4754 21.885 38.2696 21.7674 38.2137ZM21.1865 37.791C21.3028 37.8592 21.3059 38.0742 21.192 38.2715C21.0788 38.4681 20.8924 38.5725 20.7755 38.5043C20.6592 38.4361 20.6568 38.2211 20.77 38.0239C20.8833 37.8273 21.0696 37.7228 21.1865 37.791ZM20.6428 37.337C20.5283 37.2559 20.3261 37.3474 20.1916 37.5409C20.057 37.7345 20.0412 37.9569 20.1556 38.038C20.2701 38.1191 20.4723 38.0275 20.6068 37.834C20.7414 37.6405 20.7572 37.4181 20.6428 37.337ZM20.1355 36.8504C20.247 36.9444 20.211 37.1729 20.0552 37.3609C19.8993 37.5489 19.6831 37.6257 19.5717 37.5317C19.4602 37.4377 19.4962 37.2092 19.6521 37.0212C19.8079 36.8332 20.0241 36.757 20.1355 36.8504ZM19.6283 36.3681C19.5217 36.2612 19.2916 36.3207 19.1144 36.5014C18.9372 36.6814 18.8806 36.9143 18.9871 37.0212C19.0937 37.1281 19.3238 37.0679 19.501 36.8878C19.6782 36.7078 19.7349 36.475 19.6283 36.3681ZM23.8871 40.4231C23.987 40.4581 24.0211 40.6234 23.9626 40.7917C23.9048 40.9607 23.7763 41.0688 23.677 41.0338C23.5772 40.9988 23.5431 40.8335 23.6015 40.6652C23.6594 40.4968 23.7872 40.3881 23.8877 40.4231H23.8871ZM23.2971 40.2216C23.4036 40.267 23.4286 40.4507 23.3525 40.6307C23.2763 40.8108 23.1284 40.9201 23.0218 40.8741C22.9153 40.8286 22.8903 40.6449 22.9664 40.4649C23.0425 40.2848 23.1905 40.1755 23.2971 40.2216ZM22.6948 39.9119C22.8075 39.9697 22.8209 40.1706 22.7253 40.3604C22.6297 40.5503 22.461 40.6572 22.3484 40.6C22.2357 40.5423 22.2223 40.3414 22.3179 40.1515C22.4135 39.9617 22.5828 39.8541 22.6948 39.9119ZM22.0963 39.5771C22.2132 39.6477 22.2132 39.8652 22.0963 40.063C21.9793 40.2609 21.7894 40.3641 21.6725 40.2934C21.5555 40.2228 21.5555 40.0053 21.6725 39.8075C21.7894 39.6096 21.9793 39.5064 22.0963 39.5771ZM20.8522 38.8644C20.9728 38.9485 20.957 39.182 20.8169 39.3854C20.6769 39.5887 20.4662 39.6852 20.3456 39.601C20.225 39.5168 20.2409 39.2834 20.3809 39.08C20.521 38.8766 20.7323 38.7802 20.8522 38.8644ZM21.4983 39.206C21.3777 39.1218 21.1664 39.2182 21.027 39.4216C20.8869 39.625 20.8711 39.8584 20.9917 39.9426C21.1122 40.0268 21.3229 39.9303 21.463 39.727C21.603 39.5236 21.6189 39.2901 21.4983 39.206ZM20.1745 38.4558C20.0521 38.3569 19.8195 38.4447 19.6557 38.6512C19.4919 38.8582 19.4578 39.1058 19.5808 39.2047C19.7032 39.3036 19.9358 39.2158 20.0996 39.0093C20.2634 38.8023 20.2969 38.5547 20.1751 38.4558H20.1745ZM19.5912 37.9274C19.7142 38.0417 19.6606 38.3022 19.4718 38.5098C19.2824 38.7175 19.0297 38.7937 18.9067 38.6794C18.7837 38.5651 18.8373 38.3046 19.0267 38.0964C19.2161 37.8887 19.4688 37.8125 19.5918 37.9268L19.5912 37.9274ZM19.009 37.4039C18.8872 37.2743 18.6138 37.3363 18.3983 37.5422C18.1833 37.7486 18.1078 38.0208 18.2296 38.1504C18.3514 38.2801 18.6254 38.218 18.8404 38.0122C19.0553 37.8057 19.1308 37.5336 19.009 37.4039ZM18.3216 36.8356C18.0756 36.7693 17.7833 36.7539 17.5598 36.5929C17.2529 36.3724 16.8011 36.9868 17.3497 37.3953C17.5044 37.5102 18.0981 37.6583 18.2235 37.3652C18.2838 37.2245 18.4001 36.8571 18.3216 36.8356ZM17.5026 35.7905C17.6116 35.9245 17.2085 36.2556 17.122 36.2685C15.8901 36.4596 15.5991 35.4151 16.1593 35.2787C16.3907 35.2222 17.4264 35.6971 17.502 35.7899L17.5026 35.7905ZM15.6788 33.9252C15.7885 33.9989 16.6446 34.4345 16.633 34.4481C16.356 34.7682 16.3225 34.9881 15.6356 34.9513C14.5408 34.8929 14.8964 33.3987 15.6788 33.9252ZM15.9315 32.9827L15.9462 33.0325C15.962 33.4079 15.2027 33.5111 14.9317 33.4939C14.5055 33.4669 13.6925 32.8297 14.6181 32.7302C15.747 32.6079 15.1893 32.4888 15.9315 32.9827ZM14.9518 31.3773C14.9981 31.3871 15.1613 31.6827 15.1966 31.7459C15.2971 31.9266 15.8956 32.1017 15.0967 32.2651C14.5176 32.3831 13.9501 32.1816 13.748 31.5819C13.6475 31.2833 13.6992 30.8944 13.969 31.0836C14.3989 31.3847 14.4957 31.2796 14.9518 31.3773ZM14.6315 29.724C14.6516 30.3384 15.9054 30.7924 14.2735 30.7365C13.2602 30.7015 12.602 28.6942 13.67 29.128C13.7108 29.1446 14.3532 29.5636 14.5773 29.665C14.6084 29.6791 14.6303 29.6932 14.6315 29.7246V29.724ZM14.408 27.5177C14.464 27.6104 14.5189 28.1892 14.8111 28.5628C15.1826 29.0389 13.7522 28.7624 13.748 28.7594C12.3584 27.7671 12.7359 26.4972 13.0623 26.7134C13.6018 27.071 14.0055 26.851 14.4086 27.5177H14.408ZM14.7904 26.4363C14.9274 27.0077 13.2888 26.5518 12.8443 25.4773C12.4424 24.5059 13.1622 24.2251 13.2267 24.3259C13.4374 24.6533 13.6901 24.9753 13.9964 25.1614C14.1584 25.2598 14.6467 25.4607 14.6449 25.5018C14.6163 26.177 14.6151 25.707 14.7904 26.4357V26.4363ZM14.9634 24.5047C15.051 24.5544 15.0833 24.5428 15.0651 24.6411C14.9615 25.1934 13.9988 24.4641 13.7888 24.2982C12.7993 23.5192 13.2474 21.9531 13.5147 22.1374C13.8965 22.4003 14.0835 22.8796 14.3021 23.0141C15.3226 23.6439 14.6205 24.3105 14.9634 24.5047ZM13.776 20.7187C13.8734 20.4337 14.1827 21.3362 14.626 22.0956C15.023 22.7751 15.5692 23.2949 15.501 23.4798C15.3719 23.8325 14.6017 22.7831 14.3648 22.4151C14.1279 22.0477 13.6091 21.2047 13.7754 20.7187H13.776ZM24.3133 44.0099L23.8841 44.7509C23.8841 44.7509 23.6167 45.3186 24.0174 45.1066C24.4181 44.8953 24.6659 44.0579 24.6659 44.0579L24.3133 44.0099ZM23.8938 43.221L24.1605 43.5768C24.1605 43.5768 23.579 44.9911 23.2258 45.02C22.8732 45.0489 23.2258 44.5678 23.2258 44.5678L23.8932 43.221H23.8938ZM23.6362 42.5378C23.9894 42.23 23.7696 43.0091 23.6935 43.221C23.6173 43.4324 22.8927 44.8762 22.6827 44.7988C22.4732 44.722 22.5968 44.5389 22.6827 44.3565C22.7685 44.1734 23.6362 42.5378 23.6362 42.5378ZM23.3695 41.7778C23.6362 41.5468 23.6271 41.9032 23.5985 42.0856C23.5698 42.2681 22.5402 44.3755 22.3112 44.5678C22.0823 44.7601 21.8155 44.5199 22.1011 44.2403C22.3873 43.9614 23.3695 41.7772 23.3695 41.7772V41.7778ZM22.8166 41.6144C22.8166 41.6144 21.8247 43.6063 21.5482 43.9141C21.2718 44.2219 21.4624 44.5199 21.7577 44.2508C22.0536 43.9811 23.0358 42.1243 23.1022 41.9124C23.1692 41.701 23.1497 41.2968 22.816 41.6144H22.8166ZM22.2826 41.3932C22.2826 41.3932 21.167 43.3851 20.9284 43.5872C20.6903 43.7894 20.7091 44.2606 21.1287 43.9626C21.5482 43.6646 22.4634 41.9615 22.5304 41.7496C22.5974 41.5382 22.7308 40.9896 22.2826 41.3932ZM21.7388 41.2298C21.7388 41.2298 20.4893 43.0674 20.2512 43.3562C20.0131 43.645 20.2701 43.9239 20.5185 43.6831C20.7664 43.4422 21.8917 41.6242 21.9775 41.4602C22.0634 41.2968 22.0731 40.9502 21.7394 41.2292L21.7388 41.2298ZM21.2145 41.0375C21.2145 41.0375 21.3193 40.8255 21.4819 40.8642C21.6438 40.9029 21.5963 41.0276 21.463 41.3164C21.3296 41.6052 20.0899 43.2985 19.8134 43.4527C19.537 43.6069 19.4036 43.3083 19.6703 43.0969C19.9376 42.885 21.2152 41.0375 21.2152 41.0375H21.2145ZM20.6519 40.7684C20.7664 40.5951 20.8139 40.5374 20.9953 40.5761C21.1768 40.6148 21.0526 40.855 20.9478 41.0092C20.8431 41.1634 19.4316 42.9814 19.1552 43.1166C18.8787 43.2512 18.7259 42.9532 18.9646 42.7412C19.2033 42.5298 20.6525 40.769 20.6525 40.769L20.6519 40.7684ZM20.1368 40.3641C20.1368 40.3641 20.2512 40.2486 20.4418 40.2873C20.6324 40.326 20.4418 40.7106 20.4418 40.7106C20.4418 40.7106 18.8872 42.5772 18.5444 42.7215C18.201 42.8659 17.9915 42.4518 18.3825 42.2313C18.7734 42.0101 20.1368 40.3647 20.1368 40.3647V40.3641ZM19.5455 40.1233C19.5455 40.1233 19.6788 39.8443 19.9364 39.9697C20.194 40.0944 19.9462 40.3162 19.7836 40.5472C19.6216 40.7782 18.2101 42.0482 17.9051 42.2503C17.6 42.4524 17.1135 42.144 17.6189 41.8559C18.1243 41.5671 19.5449 40.1239 19.5449 40.1239L19.5455 40.1233ZM18.9682 39.8584C18.9682 39.8584 17.1932 41.3533 17.0026 41.4792C16.812 41.6052 16.7091 41.9972 17.1859 41.886C17.6627 41.7748 19.3421 40.036 19.3421 40.036C19.3421 40.036 19.5473 39.6956 19.4225 39.644C19.2977 39.5924 19.0778 39.6661 18.9676 39.8584H18.9682ZM18.5426 39.3774C18.5426 39.3774 16.6282 41.0055 16.4083 41.1315C16.1879 41.2574 16.1441 41.5315 16.4083 41.5087C16.6726 41.4866 18.447 39.9991 18.609 39.8216C18.7703 39.644 19.0784 39.5402 18.8879 39.3553C18.6973 39.1703 18.5432 39.3774 18.5432 39.3774H18.5426ZM17.9264 38.978C17.9264 38.978 16.3785 40.3027 15.9389 40.5324C15.4986 40.7616 15.5284 41.0879 15.9169 40.9988C16.3054 40.9097 17.8314 39.5555 18.0804 39.378C18.3301 39.2004 18.528 39.0081 18.352 38.919C18.176 38.8299 18.1614 38.8005 17.9264 38.978ZM17.3771 38.5191C17.3771 38.5191 15.5479 39.8357 15.157 39.9936C14.7667 40.1509 14.8337 40.635 15.3464 40.455C15.8597 40.275 17.399 39.0253 17.611 38.8453C17.8229 38.6653 17.8448 38.5043 17.7644 38.4373C17.684 38.371 17.4563 38.4152 17.3765 38.5184L17.3771 38.5191ZM16.7859 38.0349C16.7859 38.0349 15.0456 39.284 14.5773 39.4081C14.109 39.5322 14.1419 39.926 14.4768 39.8695C14.8117 39.813 16.9314 38.5301 17.1543 38.2936C17.3771 38.057 17.2438 37.8549 17.1317 37.8549C17.0197 37.8549 16.7859 38.0349 16.7859 38.0349ZM16.1276 37.4832C16.3286 37.3032 16.5514 37.2694 16.6744 37.4383C16.7974 37.6073 15.8043 38.2598 15.6149 38.3839C15.4255 38.5074 14.0865 39.4192 13.7522 39.2391C13.4173 39.0591 13.5513 38.9129 14.0311 38.7101C14.5109 38.5074 16.1282 37.4832 16.1282 37.4832H16.1276ZM15.6922 36.8755C15.6922 36.8755 15.9937 36.7183 16.1605 36.8418C16.328 36.9659 16.0935 37.1121 15.8256 37.348C15.5577 37.5846 13.8399 38.5522 13.3382 38.6647C12.8364 38.7771 12.9478 38.3384 13.4612 38.1584C13.9739 37.9784 15.6922 36.8749 15.6922 36.8749V36.8755ZM15.2349 36.3238C15.2349 36.3238 13.2267 37.3818 12.7359 37.517C12.2451 37.6521 12.2896 38.0232 12.7694 37.9784C13.2493 37.9335 15.1235 36.9093 15.3354 36.7514C15.5473 36.5942 15.7927 36.459 15.6588 36.3349C15.5248 36.2114 15.2349 36.3238 15.2349 36.3238ZM14.9226 35.75C14.9226 35.75 12.6355 36.6507 12.2342 36.7514C11.8329 36.8528 11.632 37.1907 11.9997 37.3032C12.3681 37.4156 14.5322 36.4031 14.9335 36.2114C15.3348 36.0197 15.3238 35.8286 15.3238 35.8286C15.3238 35.8286 15.2349 35.5583 14.9226 35.75ZM14.5097 35.1761C14.5097 35.1761 14.8891 35.0748 14.911 35.2886C14.9335 35.5024 14.3758 35.6375 14.0518 35.7727C13.7285 35.9079 11.9882 36.6279 11.4749 36.4928C10.9615 36.3576 11.062 36.0652 11.4639 36.0424C11.8652 36.0197 14.5091 35.1755 14.5091 35.1755L14.5097 35.1761ZM14.0743 34.4782C14.0743 34.4782 14.3642 34.4444 14.4647 34.6582C14.5651 34.872 14.0074 34.9961 13.684 35.0858C13.3607 35.1755 11.241 35.8962 10.7393 35.6148C10.2375 35.3334 10.7728 35.1755 11.1631 35.1196C11.5534 35.0631 14.0743 34.4782 14.0743 34.4782ZM13.6615 33.6788C13.8844 33.634 14.0074 33.6899 14.0409 33.7802C14.0743 33.8699 14.1858 33.9713 13.617 34.1519C13.0483 34.3319 10.4939 34.6244 10.2595 34.6023C10.025 34.5795 9.2663 33.9719 10.215 34.0057C11.1631 34.0395 13.6621 33.6795 13.6621 33.6795L13.6615 33.6788ZM13.3266 32.7898C13.3266 32.7898 10.2923 33.0374 9.46664 32.936C8.64094 32.8347 9.16522 33.5216 9.56711 33.5437C9.969 33.5664 12.6123 33.4085 13.0587 33.3188C13.505 33.2285 13.6725 33.1726 13.6384 33.0491C13.6049 32.925 13.5379 32.7898 13.326 32.7898H13.3266ZM12.8023 31.9118C12.8023 31.9118 9.53362 31.8332 9.0544 31.7201C8.57457 31.6077 8.40711 31.9118 8.66408 32.1816C8.92104 32.4519 11.5869 32.4181 12.1891 32.4181C12.7913 32.4181 13.2377 32.4519 13.2602 32.2264C13.2827 32.0015 13.1713 31.9112 12.8029 31.9112L12.8023 31.9118ZM12.5234 30.9214C12.5234 30.9214 9.66758 30.6062 8.55204 30.2573C7.4365 29.9083 7.7373 30.6511 8.03872 30.7641C8.34013 30.8766 10.5712 31.3497 11.7866 31.3945C13.0026 31.4394 12.9466 31.3945 12.9691 31.2593C12.9917 31.1242 12.9582 30.9331 12.5228 30.922L12.5234 30.9214ZM11.9656 29.6724C11.9656 29.6724 8.29568 28.7833 7.86091 28.5357C7.42554 28.2881 7.05775 28.6371 7.37012 28.9971C7.6825 29.3572 11.2075 30.1 11.9328 30.2014C12.658 30.3027 12.602 30.1786 12.602 30.0435C12.602 29.9083 12.4345 29.7283 11.9663 29.6717L11.9656 29.6724ZM12.0326 28.6027L7.34759 26.6667C7.34759 26.6667 6.76729 26.295 6.80078 26.824C6.83427 27.353 7.15761 27.4765 8.23966 27.882C9.32171 28.2869 11.9547 29.1538 11.9547 29.1538C11.9547 29.1538 12.3006 29.289 12.3675 29.0186C12.4345 28.7483 12.0326 28.6021 12.0326 28.6021V28.6027ZM11.9839 27.4132C12.2202 27.5766 12.264 27.6215 12.2348 27.9041C12.205 28.1867 11.6892 27.9785 11.6892 27.9785C11.6892 27.9785 9.83016 27.2043 8.29629 26.5199C6.76181 25.8354 6.55539 25.5227 6.45248 24.9421C6.34957 24.3615 7.07236 24.8678 7.07236 24.8678L11.9851 27.4132H11.9839ZM11.7738 25.9571L6.91039 22.828C6.91039 22.828 6.34166 22.2314 6.26311 22.9293C6.18516 23.6273 8.55021 25.0343 10.9816 26.2612C10.9816 26.2612 12.0302 26.8467 12.1976 26.6102C12.3651 26.3737 12.1416 26.1377 11.7738 25.9571ZM11.9303 24.6626L7.10037 20.8582C7.10037 20.8582 6.33069 19.9464 6.31973 20.9706C6.30877 21.9948 9.52144 23.6832 10.8264 24.7074C12.1313 25.7316 12.1873 25.2026 12.1873 25.2026C12.1873 25.2026 12.2987 24.9102 11.9309 24.6626H11.9303ZM12.0978 23.2556C12.0978 23.2556 12.4771 23.5929 12.3432 23.8632C12.2092 24.1336 11.7854 23.7846 11.7854 23.7846C11.7854 23.7846 7.32324 20.4533 6.64307 19.3499C5.9623 18.247 6.88847 18.067 7.51322 18.945C8.13797 19.823 12.0978 23.2556 12.0978 23.2556ZM12.3663 21.9819C12.3663 21.9819 12.6951 22.3782 12.619 22.6424C12.5429 22.9066 12.1934 22.7174 12.1934 22.7174C12.1934 22.7174 8.24271 18.9444 7.26478 17.5122C6.28685 16.08 7.36099 15.6739 7.80185 16.4284C8.24271 17.1829 12.3663 21.9819 12.3663 21.9819ZM12.7335 20.9577C12.7335 20.9577 13.0574 21.3958 12.8535 21.5721C12.6501 21.7485 12.3748 21.4333 12.3748 21.4333C12.3748 21.4333 8.76272 16.4081 8.00036 14.7554C7.23738 13.1027 8.2695 12.6499 8.89791 14.1213C9.52631 15.5928 12.7341 20.9577 12.7341 20.9577H12.7335ZM13.153 20.1818C13.153 20.1818 13.3382 20.4945 13.1823 20.6297C13.0264 20.7648 12.8029 20.4724 12.8029 20.4724L11.8877 18.9247C10.3343 16.3903 8.58918 11.34 9.98909 9.03782C11.389 6.73506 11.2928 12.2886 11.5808 14.9778C11.8682 17.667 13.153 20.1824 13.153 20.1824V20.1818ZM12.8608 12.4797C12.8315 14.3487 13.2109 17.7936 13.5336 19.1311C13.6578 19.6442 13.4922 19.7658 13.4605 19.7842C13.2925 19.8832 13.1871 19.5796 13.1871 19.5796C12.0813 17.5509 10.735 8.40806 13.1281 5.3115C15.5211 2.21494 16.1776 2.7083 14.8702 4.8378C13.5635 6.96791 12.8955 10.1769 12.8595 12.4791L12.8608 12.4797Z" fill="white"/>
<path fill-rule="evenodd" clip-rule="evenodd" d="M38.7935 47.6262C38.8258 47.684 38.7247 47.8984 38.4903 47.8984C37.8777 47.8984 38.2656 48.0557 37.8868 48.0919C37.6201 48.1177 37.4648 47.7442 37.0362 48.1079C36.8809 48.2394 37.0051 48.5048 37.1847 48.5177C37.2517 48.5226 37.5781 48.6517 37.6999 48.4956C37.7309 48.4557 38.2905 48.3027 38.3819 48.3408C38.4945 48.3875 39.0706 48.1706 39.0797 47.9721C39.1047 47.3983 38.7917 47.6219 38.7941 47.6268L38.7935 47.6262ZM38.1998 48.7113C37.9934 48.7014 37.8229 48.6529 37.6268 48.8464C37.4149 49.0553 37.3084 48.7788 36.8772 48.7788C36.3779 48.7788 36.381 49.3988 36.9095 49.3988C37.6493 49.3988 37.0149 49.1665 37.7565 49.1395C37.8722 49.1352 38.0129 48.9472 38.1846 48.9042C38.2376 48.8907 38.2571 48.7143 38.1998 48.7113ZM39.1631 46.4152C39.1899 46.4423 39.2356 46.532 39.2709 46.5664C39.6156 46.9 39.4524 47.3239 39.0188 47.4487C38.8002 47.5113 38.5012 47.4179 38.3399 47.6004C37.9593 48.0323 37.4837 47.8191 37.5787 47.4653C37.6329 47.2631 37.6694 47.2109 37.8588 47.1445C37.9934 47.0972 38.3569 47.4241 38.4683 47.1593C38.5512 46.9633 38.8903 47.1286 38.9792 47.0192C39.288 46.6383 38.7625 46.5105 38.8574 46.3176C38.975 46.0798 39.0718 46.3243 39.1625 46.4159L39.1631 46.4152Z" fill="white"/>
<path fill-rule="evenodd" clip-rule="evenodd" d="M24.6124 47.6262C24.5801 47.684 24.6812 47.8984 24.9156 47.8984C25.5282 47.8984 25.1403 48.0557 25.5191 48.0919C25.7858 48.1177 25.9411 47.7442 26.3697 48.1079C26.525 48.2394 26.4008 48.5048 26.2212 48.5177C26.1542 48.5226 25.8278 48.6517 25.706 48.4956C25.675 48.4557 25.1154 48.3027 25.024 48.3408C24.9114 48.3875 24.3353 48.1706 24.3262 47.9721C24.3012 47.3983 24.6148 47.6219 24.6118 47.6268L24.6124 47.6262ZM25.2061 48.7113C25.4125 48.7014 25.583 48.6529 25.7791 48.8464C25.991 49.0553 26.0976 48.7788 26.5287 48.7788C27.0274 48.7788 27.0249 49.3988 26.4964 49.3988C25.7566 49.3988 26.391 49.1665 25.6494 49.1395C25.5337 49.1352 25.393 48.9472 25.2213 48.9042C25.1683 48.8907 25.1489 48.7143 25.2061 48.7113ZM24.2428 46.4152C24.216 46.4423 24.1703 46.532 24.135 46.5664C23.7903 46.9 23.9535 47.3239 24.3871 47.4487C24.6057 47.5113 24.9047 47.4179 25.066 47.6004C25.4466 48.0323 25.9222 47.8191 25.8272 47.4653C25.773 47.2631 25.7365 47.2109 25.5471 47.1445C25.4125 47.0972 25.049 47.4241 24.9376 47.1593C24.8547 46.9633 24.5156 47.1286 24.4267 47.0192C24.1179 46.6383 24.6434 46.5105 24.5485 46.3176C24.4309 46.0798 24.3341 46.3243 24.2434 46.4159L24.2428 46.4152Z" fill="white"/>
<path fill-rule="evenodd" clip-rule="evenodd" d="M16.1911 45.1287C16.1978 45.1115 16.2063 45.0943 16.216 45.0771C16.3177 44.8989 16.5302 44.8368 16.7147 44.9186C16.7866 44.9505 16.8475 45.0003 16.9029 45.0562C17.0131 45.1674 17.0904 45.1963 17.2439 45.2387C17.4046 45.2829 17.5733 45.3155 17.7377 45.3474C18.0263 45.4033 18.3162 45.4555 18.6054 45.509C19.2332 45.6251 19.8361 45.8696 20.3512 46.2524C20.3853 46.2776 20.4206 46.3046 20.4565 46.3335C20.5601 46.2899 20.6751 46.2973 20.7762 46.3562C21.351 46.6911 21.9277 47.0266 22.5068 47.354C22.6748 47.4486 22.8326 47.5949 22.9702 47.7626C23.0512 47.7423 23.1364 47.7522 23.2162 47.7915C24.0778 48.2216 24.7433 48.9576 25.2274 49.7834C25.4326 50.1342 25.6482 50.571 25.7803 50.971L26.8429 51.9589C26.9263 52.0363 26.9665 52.1383 26.9592 52.2526C26.9519 52.3669 26.8989 52.4627 26.8058 52.5285L26.505 52.7429C26.3582 52.8474 26.1615 52.8295 26.0355 52.6999L25.2061 51.8471C23.8074 51.8563 22.3564 51.637 21.0819 51.0404C20.641 50.834 20.037 50.4856 19.6942 50.1243C19.6114 50.0371 19.5779 49.921 19.5974 49.8092C19.5809 49.8049 19.5669 49.8018 19.5541 49.7987C19.1595 49.7041 18.7309 49.5179 18.3594 49.3527C17.8832 49.1407 17.4132 48.9103 16.9492 48.6731C16.557 48.4728 16.1661 48.2664 15.7806 48.0532C15.6649 47.9893 15.5486 47.9242 15.4354 47.856C15.4013 47.8357 15.3666 47.8148 15.3343 47.7921C15.3008 47.7687 15.271 47.7429 15.2448 47.711C15.1967 47.6514 15.1705 47.5857 15.1632 47.5211C14.645 47.3952 14.1085 47.2397 13.6178 47.029C13.0813 46.7986 12.5101 46.6057 11.956 46.4226C11.6333 46.3163 11.3081 46.2119 10.9823 46.1136C10.8027 46.0595 10.6937 45.8782 10.729 45.6927C10.7644 45.5065 10.9318 45.3794 11.1187 45.3959L11.3112 45.4131C11.3556 45.3259 11.4336 45.2595 11.5334 45.2301C12.4127 44.972 13.4004 44.8289 14.3089 45.0119C14.4349 45.0371 14.5823 45.0752 14.729 45.1244C14.7711 45.0703 14.8289 45.0273 14.8977 45.0033C15.0134 44.9634 15.1346 44.9837 15.2277 45.0513C15.2673 45.047 15.3081 45.042 15.3459 45.0396C15.5103 45.0298 15.6741 45.0377 15.8379 45.0574C15.9511 45.0709 16.0705 45.0943 16.1904 45.1274L16.1911 45.1287Z" fill="#432100"/>
<path fill-rule="evenodd" clip-rule="evenodd" d="M26.5962 52.2293L25.463 51.1756C25.463 51.1756 24.8078 48.9963 23.0554 48.1208C23.0554 48.1208 23.0907 48.4243 23.0554 48.6031C23.0554 48.6031 22.7722 47.9242 22.3295 47.6741C21.8869 47.4241 20.5947 46.6739 20.5947 46.6739L20.6477 47.0315C20.6477 47.0315 19.9925 46.1381 18.5408 45.8702C17.0892 45.6024 16.912 45.5846 16.6465 45.3167C16.381 45.0488 16.6112 45.6743 16.7884 45.8168C16.7884 45.8168 16.3987 45.4955 15.797 45.4236C15.1954 45.3523 15.1065 45.5127 15.0182 45.3523L15.0712 45.6915C15.0712 45.6915 14.0086 44.8878 11.6363 45.5846L12.2738 45.8702L11.0876 45.7633C11.0876 45.7633 12.8048 46.2813 13.7608 46.6923C14.7168 47.1033 16.0449 47.3356 16.0449 47.3356C16.0449 47.3356 15.6734 47.5144 15.5315 47.4781C15.3897 47.4425 18.5238 49.1751 19.6393 49.443C20.7549 49.7108 20.8608 49.8896 20.8608 49.8896C20.8608 49.8896 20.3828 49.9972 19.9578 49.8718C19.9578 49.8718 21.5513 51.551 25.3577 51.4797L26.2961 52.4443L26.5969 52.2299L26.5962 52.2293Z" fill="white"/>
<path fill-rule="evenodd" clip-rule="evenodd" d="M46.014 47.824C45.983 47.9598 45.9136 48.0845 45.7961 48.1761C45.6463 48.2928 45.466 48.3198 45.2907 48.2879L38.2808 52.7804C38.1772 52.8467 38.0591 52.8572 37.9458 52.8092L37.4575 52.6034C37.3327 52.5512 37.2517 52.4431 37.2358 52.3073C37.2358 52.3061 37.2358 52.3048 37.2358 52.3036L36.4875 52.9358C36.3846 53.0224 36.2537 53.0458 36.1282 52.9985L35.7416 52.8547C35.6186 52.8092 35.5351 52.7097 35.5102 52.5807C35.4852 52.4511 35.5254 52.3276 35.6222 52.2391L43.5832 44.9253C43.6161 44.8952 43.6484 44.8743 43.6892 44.8577L44.8699 44.3644C45.0136 44.3048 45.1713 44.3392 45.2766 44.4547C45.382 44.5702 45.4039 44.7312 45.3333 44.8706L44.8449 45.8364C44.8218 45.8825 44.7938 45.9176 44.7542 45.9507L39.3123 50.5489L44.264 46.908C44.2835 46.7408 44.3553 46.5848 44.496 46.4754C44.6464 46.3581 44.8279 46.3317 45.0038 46.3642L47.5863 44.4657C47.6271 44.2562 47.7531 44.0344 47.8865 43.879C48.2518 43.4532 48.8072 43.2818 49.3473 43.2394C49.4411 43.232 49.53 43.2603 49.5988 43.315C49.7254 43.2806 49.8545 43.256 49.9854 43.2406C50.1444 43.2222 50.626 43.1626 50.7868 43.0809C50.9152 42.9691 51.1083 42.9605 51.2471 43.0686C51.4042 43.1915 51.4347 43.4194 51.3159 43.5785C51.3092 43.5878 51.3013 43.5976 51.2934 43.6068C51.1521 43.7733 51.0145 43.9447 50.8818 44.118C50.7131 44.3373 50.4933 44.6249 50.3751 44.8737C50.243 45.1526 50.1139 45.4137 49.8929 45.6343C49.5957 45.9298 49.2218 46.057 48.812 46.0884C48.7834 46.0902 48.7548 46.0896 48.7274 46.0853L46.0147 47.8234L46.014 47.824Z" fill="#432100"/>
<path fill-rule="evenodd" clip-rule="evenodd" d="M35.866 52.5114L43.8276 45.1976L45.0083 44.7048L44.5193 45.6701L36.2532 52.6551L35.866 52.5114Z" fill="white"/>
<path fill-rule="evenodd" clip-rule="evenodd" d="M45.1855 46.685L47.8794 44.7042L48.6326 45.7106L45.7945 47.5292C45.7524 47.3664 45.6654 47.1882 45.5369 47.0205C45.4297 46.8804 45.3073 46.7661 45.1849 46.6844L45.1855 46.685ZM37.5972 52.2644L44.5139 47.1784C44.5602 47.3252 44.6412 47.4819 44.755 47.63C44.8634 47.7713 44.9864 47.8862 45.11 47.9685L38.0861 52.4696L37.5972 52.2644Z" fill="white"/>
<path fill-rule="evenodd" clip-rule="evenodd" d="M47.9385 44.5629C47.9385 44.5629 48.0511 43.7095 49.3749 43.6062C49.3749 43.6062 48.9268 43.8323 48.5809 44.3251C48.5809 44.3251 49.1307 43.7088 50.0265 43.6062C50.9222 43.5036 51.0239 43.3599 51.0239 43.3599C51.0239 43.3599 50.2706 44.2434 50.0466 44.7158C49.8225 45.1883 49.599 45.6608 48.7843 45.7222L47.9385 44.5629Z" fill="white"/>
<path fill-rule="evenodd" clip-rule="evenodd" d="M45.4483 47.0899C45.6846 47.3989 45.7412 47.7547 45.5738 47.8849C45.4069 48.0152 45.0793 47.8702 44.8431 47.5617C44.6068 47.2527 44.5508 46.8963 44.7176 46.7667C44.8845 46.6364 45.2121 46.7814 45.4483 47.0899Z" fill="white"/>
<path fill-rule="evenodd" clip-rule="evenodd" d="M37.7553 32.3215C37.7237 32.2097 37.5459 32.1882 37.4533 32.1796C37.1342 32.1483 36.9339 32.2736 36.8152 32.4819C36.9741 32.3467 37.1781 32.2798 37.3973 32.2755C37.51 32.273 37.6354 32.2884 37.7553 32.3215ZM25.5702 32.3215C25.6902 32.2884 25.8156 32.2736 25.9283 32.2755C26.1475 32.2798 26.3521 32.3461 26.511 32.4819C26.3923 32.2736 26.1919 32.1483 25.8729 32.1796C25.7773 32.1888 25.6037 32.2097 25.5708 32.3215H25.5702ZM29.3321 34.1844H28.6203L28.5692 34.5254C28.3975 35.6762 27.9207 36.7311 27.5218 37.813C27.0737 39.0302 26.7881 40.1527 26.8374 41.465C26.8928 42.9408 27.6503 44.0399 28.8767 44.7907C28.9266 44.8215 28.9765 44.851 29.0277 44.8798V34.6083C29.0277 34.4105 29.1556 34.2428 29.3321 34.1844ZM30.8508 33.1786H31.3775C31.2825 33.0969 31.2228 32.9753 31.2228 32.8395V30.9834C31.1766 31.0934 31.1035 31.1911 31.0103 31.266V32.8358C31.0103 32.9728 30.9482 33.0963 30.8508 33.178V33.1786ZM30.125 31.5947C30.0787 31.7047 30.0056 31.8024 29.9124 31.8773V32.8376C29.9124 32.974 29.8516 33.0969 29.7553 33.1786H30.2845C30.1871 33.0969 30.1256 32.9734 30.1256 32.8364V31.5947H30.125ZM33.0301 33.1786H33.5562C33.46 33.0969 33.3991 32.974 33.3991 32.8376V31.8773C33.3054 31.8024 33.2329 31.7047 33.1866 31.5947V32.8383C33.1866 32.9746 33.1257 33.0963 33.0301 33.1786ZM32.1076 31.0252V32.8395C32.1076 32.9747 32.0473 33.0963 31.9529 33.1786H32.4577C32.3621 33.0969 32.3012 32.9746 32.3012 32.8383V31.2666C32.2197 31.2009 32.1539 31.1186 32.1076 31.0252ZM30.4124 34.1844H29.6074C29.784 34.2428 29.9118 34.4111 29.9118 34.6083V45.2976C29.977 45.3222 30.0421 45.3462 30.1073 45.3689V34.6083C30.1073 34.4105 30.2352 34.2428 30.4118 34.1844H30.4124ZM33.3492 45.3216V34.6083C33.3492 34.4105 33.4771 34.2428 33.6537 34.1844H32.8487C33.0253 34.2428 33.1531 34.4111 33.1531 34.6083V45.391C33.2189 45.3689 33.284 45.3455 33.3486 45.3216H33.3492ZM34.234 44.9161C34.3064 44.8755 34.3777 44.8338 34.4483 44.7907C35.6747 44.0393 36.4322 42.9402 36.487 41.465C36.5363 40.1527 36.2507 39.0295 35.8025 37.813C35.4037 36.7311 34.9269 35.6762 34.7552 34.5254L34.704 34.1844H33.9289C34.1055 34.2428 34.234 34.4111 34.234 34.6083V44.9161ZM32.2684 45.6159V34.6083C32.2684 34.4105 32.3962 34.2428 32.5728 34.1844H31.7678C31.9444 34.2428 32.0723 34.4111 32.0723 34.6083V45.8125C32.0723 46.0589 31.8738 46.2592 31.6296 46.2592C31.3854 46.2592 31.1869 46.0589 31.1869 45.8125V34.6083C31.1869 34.4105 31.3148 34.2428 31.4914 34.1844H30.6864C30.863 34.2428 30.9908 34.4111 30.9908 34.6083V45.6042L31.0743 45.6196L31.0755 45.8328C31.081 46.5485 30.9111 47.4873 30.5616 48.1128C30.2614 48.6492 29.8102 49.0203 29.183 49.0688C28.3098 49.137 27.3678 48.5527 26.6998 48.0464C24.9455 46.7169 23.9584 44.921 23.9493 42.695C23.9426 41.1713 24.4072 39.5677 25.1129 38.2259C25.6628 37.1796 26.0884 36.0288 26.3746 34.8805L26.4112 34.7343L28.4498 34.1832H26.9147C26.7132 34.1832 26.5384 34.0615 26.4605 33.8864C26.1219 34.1309 25.6397 34.1076 25.2475 34.0173C23.889 33.7058 23.6734 31.9289 24.3591 30.9072C24.56 30.608 24.9163 30.4003 25.2487 30.2842C25.6573 30.1417 26.1085 30.1042 26.5335 30.1853C27.8056 30.428 28.3962 31.5726 28.5728 32.7688C28.582 32.8303 28.5899 32.8923 28.5972 32.9544L28.6228 33.1768H29.183C29.0868 33.0951 29.0259 32.9722 29.0259 32.8358V31.8755C28.8584 31.7416 28.7573 31.5357 28.7573 31.3133C28.7573 30.917 29.0758 30.5957 29.4685 30.5957C29.611 30.5957 29.7438 30.6381 29.8552 30.7112V30.7032C29.8552 30.3069 30.1737 29.9856 30.5664 29.9856C30.7223 29.9856 30.866 30.036 30.9835 30.122C31.0724 29.8277 31.3434 29.6133 31.6643 29.6133C31.9852 29.6133 32.2495 29.8222 32.3414 30.1109C32.4559 30.0317 32.5941 29.9856 32.7427 29.9856C33.1355 29.9856 33.4539 30.3069 33.4539 30.7032V30.7112C33.5654 30.6381 33.6981 30.5957 33.8406 30.5957C34.2333 30.5957 34.5518 30.917 34.5518 31.3133C34.5518 31.5357 34.4501 31.7409 34.2833 31.8755V32.8358C34.2833 32.9722 34.2218 33.0951 34.1262 33.1768H34.7004L34.726 32.9544C34.7333 32.8923 34.7412 32.8309 34.7503 32.7688C34.9269 31.5726 35.5176 30.428 36.7896 30.1853C37.2146 30.1042 37.6664 30.1417 38.0744 30.2842C38.4063 30.4003 38.7631 30.608 38.9641 30.9072C39.6497 31.9289 39.4341 33.7058 38.0756 34.0173C37.661 34.1125 37.1464 34.1328 36.8066 33.8422C36.7397 34.04 36.5533 34.1826 36.3347 34.1826H34.8727L36.9108 34.7337L36.9473 34.8799C37.2341 36.0282 37.6591 37.179 38.209 38.2253C38.9147 39.5671 39.3787 41.1707 39.3726 42.6944C39.3629 44.9198 38.3764 46.7156 36.6221 48.0458C35.9542 48.5521 35.0122 49.1364 34.139 49.0682C33.5124 49.019 33.0606 48.6485 32.761 48.1122C32.4109 47.4867 32.2416 46.5479 32.2471 45.8321L32.2489 45.6189L32.2684 45.6153V45.6159Z" fill="#432100"/>
<path fill-rule="evenodd" clip-rule="evenodd" d="M33.6536 31.7354V32.8377C33.6536 32.9421 33.7383 33.0269 33.8412 33.0269C33.9441 33.0269 34.0287 32.9415 34.0287 32.8377V31.7354C34.1871 31.6629 34.2973 31.502 34.2973 31.3152C34.2973 31.0608 34.0927 30.8544 33.8406 30.8544C33.5885 30.8544 33.3839 31.0608 33.3839 31.3152C33.3839 31.502 33.4941 31.6629 33.6524 31.7354H33.6536ZM30.7552 31.1247V32.8364C30.7552 32.9403 30.6705 33.0257 30.5676 33.0257C30.4647 33.0257 30.3801 32.9403 30.3801 32.8364V31.1247C30.2218 31.0528 30.1116 30.8919 30.1116 30.7045C30.1116 30.4501 30.3162 30.2437 30.5682 30.2437C30.8203 30.2437 31.0249 30.4501 31.0249 30.7045C31.0249 30.8912 30.9147 31.0522 30.7564 31.1247H30.7552ZM29.6573 31.7354V32.8377C29.6573 32.9421 29.5727 33.0269 29.4698 33.0269C29.3668 33.0269 29.2822 32.9415 29.2822 32.8377V31.7354C29.1239 31.6629 29.0137 31.502 29.0137 31.3152C29.0137 31.0608 29.2183 30.8544 29.4704 30.8544C29.7225 30.8544 29.9271 31.0608 29.9271 31.3152C29.9271 31.502 29.8168 31.6629 29.6585 31.7354H29.6573ZM32.5558 31.1247V32.8389C32.5558 32.9433 32.6404 33.0281 32.7433 33.0281C32.8462 33.0281 32.9309 32.9427 32.9309 32.8389V31.1247C33.0892 31.0528 33.1994 30.8919 33.1994 30.7045C33.1994 30.4501 32.9948 30.2437 32.7427 30.2437C32.4906 30.2437 32.286 30.4501 32.286 30.7045C32.286 30.8912 32.3962 31.0522 32.5545 31.1247H32.5558ZM31.8525 30.7518V32.8395C31.8525 32.9433 31.7678 33.0287 31.6649 33.0287C31.5614 33.0287 31.4774 32.9433 31.4774 32.8395V30.7518C31.319 30.6793 31.2088 30.5189 31.2088 30.3315C31.2088 30.0772 31.4134 29.8707 31.6655 29.8707C31.9176 29.8707 32.1222 30.0772 32.1222 30.3315C32.1222 30.5183 32.012 30.6793 31.8531 30.7518H31.8525Z" fill="white"/>
<path d="M26.9167 33.4355H36.3354C36.47 33.4355 36.579 33.5455 36.579 33.6813C36.579 33.8171 36.47 33.9277 36.3354 33.9277H26.9167C26.7821 33.9277 26.6731 33.8177 26.6731 33.6819C26.6731 33.5461 26.7821 33.4362 26.9167 33.4362V33.4355Z" fill="white"/>
<path fill-rule="evenodd" clip-rule="evenodd" d="M28.3458 32.9857C28.3391 32.9267 28.3318 32.8677 28.3226 32.8081C27.8605 29.6815 25.1429 30.2031 24.5717 31.0528C24.0011 31.9031 24.1095 33.4938 25.3054 33.7678C26.5014 34.0419 26.7187 33.2745 26.474 32.8352C26.2292 32.3965 25.6111 32.5163 25.3889 32.6822C25.3889 32.6822 25.0302 32.0021 25.848 31.9228C26.5196 31.8577 26.8521 32.3289 26.9057 32.9851H28.3458V32.9857ZM30.8235 45.8346C30.8235 45.8346 26.7194 45.0943 26.5836 41.4742C26.4733 38.5448 27.9829 36.7292 28.3184 34.4861L26.625 34.9438C26.3808 35.9219 25.9698 37.1519 25.3408 38.3469C24.3044 40.3179 22.8491 44.8036 26.8558 47.8406C30.8624 50.8782 30.8235 45.834 30.8235 45.834V45.8346Z" fill="white"/>
<path fill-rule="evenodd" clip-rule="evenodd" d="M34.9798 32.9857C34.9865 32.9267 34.9938 32.8677 35.0029 32.8081C35.4651 29.6815 38.1827 30.2031 38.7539 31.0528C39.3244 31.9031 39.216 33.4938 38.0201 33.7678C36.8242 34.0419 36.6068 33.2745 36.8516 32.8352C37.0964 32.3965 37.7144 32.5163 37.9367 32.6822C37.9367 32.6822 38.2954 32.0021 37.4782 31.9228C36.8065 31.8577 36.4741 32.3289 36.4205 32.9851H34.9804L34.9798 32.9857ZM32.5021 45.8346C32.5021 45.8346 36.6062 45.0943 36.742 41.4742C36.8516 38.5448 35.3427 36.7292 35.0072 34.4861L36.7006 34.9438C36.9448 35.9219 37.3558 37.1519 37.9842 38.3469C39.0206 40.3179 40.4759 44.8036 36.4692 47.8406C32.4625 50.8782 32.5015 45.834 32.5015 45.834L32.5021 45.8346Z" fill="white"/>
<path fill-rule="evenodd" clip-rule="evenodd" d="M31.6308 34.4192C31.7343 34.4192 31.8184 34.5046 31.8184 34.6084V45.8126C31.8184 45.917 31.7337 46.0018 31.6308 46.0018C31.5279 46.0018 31.4433 45.9164 31.4433 45.8126V34.6084C31.4433 34.504 31.5279 34.4192 31.6308 34.4192ZM32.7111 34.4192C32.8146 34.4192 32.8986 34.5046 32.8986 34.6084V45.7376C32.7074 45.7917 32.574 45.8206 32.5241 45.8304C32.5241 45.8242 32.5229 45.8187 32.5229 45.8126V34.6084C32.5229 34.504 32.6075 34.4192 32.7104 34.4192H32.7111ZM33.7913 34.4192C33.8948 34.4192 33.9788 34.5046 33.9788 34.6084V45.3309C33.8491 45.3923 33.7237 45.447 33.6031 45.4955V34.6084C33.6031 34.504 33.6878 34.4192 33.7907 34.4192H33.7913ZM30.55 34.4192C30.6535 34.4192 30.7375 34.5046 30.7375 34.6084V45.8175C30.659 45.8003 30.5287 45.769 30.3618 45.7198V34.609C30.3618 34.5046 30.4465 34.4198 30.5494 34.4198L30.55 34.4192ZM29.4692 34.4192C29.5727 34.4192 29.6567 34.5046 29.6567 34.6084V45.4697C29.5361 45.42 29.4101 45.3634 29.281 45.3008V34.609C29.281 34.5046 29.3656 34.4198 29.4686 34.4198L29.4692 34.4192Z" fill="white"/>
<path fill-rule="evenodd" clip-rule="evenodd" d="M31.8136 44.6692C30.5787 46.1186 28.4518 46.6095 26.65 46.1966C26.6213 49.4898 28.6716 52.9691 31.8136 54.1094C34.9489 52.8818 37.0071 49.5758 36.9779 46.1966C35.1681 46.6107 33.0564 46.1179 31.8136 44.6692Z" fill="#432100"/>
<path fill-rule="evenodd" clip-rule="evenodd" d="M32.2002 48.7875C32.2002 48.7875 33.1178 48.9466 33.6177 47.8819C33.6177 47.8819 32.4437 47.6373 32.2002 48.7875ZM34.2924 48.052C34.2924 48.052 35.2301 48.4625 35.0944 49.4971C35.0944 49.4971 33.9636 49.2452 34.2924 48.052ZM34.2303 50.85C34.2303 50.85 33.7091 49.835 32.3707 50.2866C32.2288 50.0169 33.8595 48.6597 34.2303 50.85ZM36.1106 47.1587C35.5103 49.6409 34.944 50.305 34.5171 50.9692C34.0896 51.6334 32.1843 52.6938 31.8378 50.1416C31.4914 47.5894 32.2537 46.0626 32.2537 46.0626C33.6512 47.531 36.1113 47.1581 36.1113 47.1581L36.1106 47.1587Z" fill="white"/>
<path fill-rule="evenodd" clip-rule="evenodd" d="M30.1322 48.6855C30.1322 48.6855 29.9477 47.7651 30.9871 47.2287C30.9871 47.2287 31.2642 48.4059 30.1322 48.6855ZM29.4496 48.9134C29.4496 48.9134 28.9423 47.9863 27.9145 48.103C27.9145 48.103 28.261 49.2218 29.4496 48.9134ZM30.9171 49.5481C30.9171 49.5481 30.3514 50.5385 29.0343 50.0261C29.1037 50.4224 30.8477 51.9725 30.9171 49.5481ZM27.2672 47.1593C27.8676 49.6415 28.4339 50.3056 28.8608 50.9698C29.2882 51.634 31.1935 52.6944 31.54 50.1422C31.8865 47.59 31.1241 46.0638 31.1241 46.0638C29.7266 47.5323 27.2666 47.1593 27.2666 47.1593H27.2672Z" fill="white"/>
<path d="M40.339 53.5128H23.4907V57.7522H40.339V53.5128Z" fill="#ED1C24"/>
<path fill-rule="evenodd" clip-rule="evenodd" d="M23.4907 54.3354C24.8029 52.6956 29.0843 54.5683 31.9133 54.5677C34.743 54.5677 38.8532 52.7521 40.3396 54.3354V52.6298C38.7959 51.0705 35.4603 52.6004 31.9133 52.6004C28.3664 52.6004 24.7646 51.1467 23.4907 52.6888V54.3354Z" fill="#015CF5"/>
<path fill-rule="evenodd" clip-rule="evenodd" d="M38.5653 57.7515H40.4688V60.539C40.1741 60.7878 39.7003 61.0121 39.2856 61.1282C38.5403 61.3365 38.5653 61.1276 38.5653 60.3829C38.7078 58.9065 38.6773 58.1969 38.5653 57.7515Z" fill="#017A34"/>
<path fill-rule="evenodd" clip-rule="evenodd" d="M25.2043 57.7515H23.3008V60.539C23.5955 60.7878 24.0692 61.0121 24.4839 61.1282C25.2292 61.3365 25.2043 61.1276 25.2043 60.3829C25.0618 58.9065 25.0922 58.1969 25.2043 57.7515Z" fill="#017A34"/>
<path fill-rule="evenodd" clip-rule="evenodd" d="M23.4907 56.6622C24.8029 55.0224 26.8033 57.0812 31.9133 57.0806C37.0234 57.08 38.8532 55.0783 40.3396 56.6622V54.6451C38.8532 53.0612 34.743 54.8768 31.9133 54.8774C29.0843 54.8774 24.8029 53.0059 23.4907 54.6451V56.6622Z" fill="white"/>
<path fill-rule="evenodd" clip-rule="evenodd" d="M23.4907 58.8279C24.8029 57.1881 26.8033 59.7133 31.9133 59.7127C37.0234 59.7127 38.8532 57.244 40.3396 58.8279V57.0099C38.8532 55.426 37.0234 57.4277 31.9133 57.4283C26.8033 57.4289 24.8029 55.3701 23.4907 57.0099V58.8279Z" fill="#03A724"/>
<path fill-rule="evenodd" clip-rule="evenodd" d="M40.3389 56.1147C43.35 54.2181 45.3478 54.3895 46.4476 55.6318V58.0593L40.3389 58.9459V56.1147Z" fill="#ED1C24"/>
<path fill-rule="evenodd" clip-rule="evenodd" d="M46.4476 55.6583C44.8613 54.8639 42.3751 56.1879 40.3389 56.4533V55.1305C42.3751 55.0279 45.2614 53.8661 46.4476 54.8233V55.6583Z" fill="#015CF5"/>
<path fill-rule="evenodd" clip-rule="evenodd" d="M46.4476 57.3478C46.1614 56.0655 42.2752 58.1072 40.3389 58.4224V56.6394C42.3751 56.3746 44.8613 55.0499 46.4476 55.8444V57.3472V57.3478Z" fill="white"/>
<path fill-rule="evenodd" clip-rule="evenodd" d="M46.4479 58.5847C45.9942 57.139 41.5655 60.7203 39.6292 61.0355C39.0732 61.1805 39.265 60.909 39.3899 60.7824C39.8118 60.3535 40.2984 59.7305 40.3392 58.6087C42.2755 58.2935 46.1617 56.2518 46.4479 57.5341V58.5841V58.5847Z" fill="#03A724"/>
<path fill-rule="evenodd" clip-rule="evenodd" d="M23.49 56.1147C20.4789 54.2181 18.4817 54.3895 17.3813 55.6318V58.0593L23.49 58.9459V56.1147Z" fill="#ED1C24"/>
<path fill-rule="evenodd" clip-rule="evenodd" d="M17.3821 58.5847C17.8357 57.139 22.2644 60.7203 24.2008 61.0355C24.7561 61.1805 24.5649 60.909 24.4401 60.7824C24.0181 60.3535 23.5316 59.7305 23.4908 58.6087C21.5544 58.2935 17.6683 56.2518 17.3821 57.5341V58.5841V58.5847Z" fill="#03A724"/>
<path fill-rule="evenodd" clip-rule="evenodd" d="M17.3821 55.6583C18.9683 54.8639 21.4545 56.1879 23.4908 56.4533V55.1305C21.4545 55.0279 18.5683 53.8661 17.3821 54.8233V55.6583Z" fill="#015CF5"/>
<path fill-rule="evenodd" clip-rule="evenodd" d="M17.3821 57.3478C17.6683 56.0655 21.5544 58.1072 23.4908 58.4224V56.6394C21.4545 56.3746 18.9683 55.0499 17.3821 55.8444V57.3472V57.3478Z" fill="white"/>
<path fill-rule="evenodd" clip-rule="evenodd" d="M46.4478 56.6837C47.7125 56.476 48.9778 56.2683 50.2425 56.0607V57.6298C48.6618 58.4568 47.366 58.7247 46.4478 58.2528V56.6837Z" fill="#ED1C24"/>
<path fill-rule="evenodd" clip-rule="evenodd" d="M46.4478 55.6582C47.38 56.0742 48.7294 56.0207 50.2425 55.7762V56.232C48.5077 57.0388 47.3471 57.0037 46.4478 56.7371V55.6582Z" fill="#015CF5"/>
<path fill-rule="evenodd" clip-rule="evenodd" d="M50.2425 56.3248V57.1371C48.2033 58.5367 47.3471 58.2817 46.4478 58.0157V56.8305C47.3471 57.0965 48.5071 57.1321 50.2425 56.3254V56.3248Z" fill="white"/>
<path fill-rule="evenodd" clip-rule="evenodd" d="M50.2425 57.2305V57.6599C48.6545 59.7483 47.1687 59.3342 46.4478 59.0048V58.1091C47.3471 58.3751 48.2033 58.6307 50.2425 57.2305Z" fill="#03A724"/>
<path fill-rule="evenodd" clip-rule="evenodd" d="M17.3827 56.6837C16.118 56.476 14.8526 56.2683 13.5879 56.0607V57.6298C15.1686 58.4568 16.4644 58.7247 17.3827 58.2528V56.6837Z" fill="#ED1C24"/>
<path fill-rule="evenodd" clip-rule="evenodd" d="M17.3827 55.6582C16.4504 56.0742 15.1011 56.0207 13.5879 55.7762V56.232C15.3227 57.0388 16.4833 57.0037 17.3827 56.7371V55.6582Z" fill="#015CF5"/>
<path fill-rule="evenodd" clip-rule="evenodd" d="M13.5879 56.3248V57.1371C15.6272 58.5367 16.4833 58.2817 17.3827 58.0157V56.8305C16.4839 57.0965 15.3233 57.1321 13.5879 56.3254V56.3248Z" fill="white"/>
<path fill-rule="evenodd" clip-rule="evenodd" d="M13.5879 57.2305V57.6599C15.176 59.7483 16.6617 59.3342 17.3827 59.0048V58.1091C16.4839 58.3751 15.6272 58.6307 13.5879 57.2305Z" fill="#03A724"/>
</g>
<defs>
<clipPath id="clip0_412_417">
<rect width="64" height="64" fill="white"/>
</clipPath>
</defs>
</svg>
