<svg width="559" height="363" viewBox="0 0 559 363" fill="none" xmlns="http://www.w3.org/2000/svg">
<path d="M540.014 192.1L540.161 192.29L540.401 192.294L557.607 192.611L558.313 193.88L547.117 201.033L546.931 201.152L546.893 201.37L546.227 205.273L544.363 204.934L543.945 204.858L543.803 205.258L542.908 207.762L535.133 204.429L534.837 204.303L534.599 204.519L533.419 205.593L533.122 205.863L533.322 206.211L536.544 211.824L535.901 214.075L530.093 211.516L530.085 211.512L530.076 211.509L505.543 201.758L508.704 197.16L509.607 196.257L510.63 195.541L511.104 195.256L511.988 194.962L512.446 194.87H512.706L519.349 195.192L519.387 195.193L519.425 195.189L522.537 194.867L522.561 194.865L522.584 194.86L523.12 194.753L523.165 194.744L523.208 194.727L523.744 194.512L523.8 194.49L523.849 194.455L524.601 193.918L524.625 193.901L524.647 193.881L525.827 192.808L525.882 192.758L525.92 192.695L526.241 192.158L526.251 192.142L526.26 192.125L526.904 190.837L526.942 190.76L526.953 190.675L527.06 189.817L527.064 189.786V189.755V189.746L533.438 186.658L536.007 187.851L536.381 189.44L536.466 189.801L536.837 189.824L538.328 189.917L540.014 192.1Z" fill="#37465A" stroke="#0B1D36"/>
<mask id="path-2-inside-1_412_246" fill="white">
<path fill-rule="evenodd" clip-rule="evenodd" d="M33.5967 157.339L35.3136 152.509L44.0074 145.639L49.5886 143.922L56.8869 144.351L61.2877 143.922H63.7562L63.4343 141.775L67.2982 136.193L66.0099 133.188L71.0545 130.182L78.8899 136.193L80.607 141.775L84.0415 140.916L79.319 130.611L73.2015 125.352L78.4604 122.346L87.5834 125.352L89.3005 120.2L98.7458 131.041L106.044 131.47L109.157 135.764L108.191 139.628L127.188 142.204L134.057 148.644L131.482 150.362L131.911 153.797L128.905 156.48L135.453 158.627L140.068 165.926H136.281C137.168 167.217 138.105 168.726 139.091 169.712C139.65 170.272 140.398 170.686 141.171 170.856C142.187 171.08 143.254 170.796 144.292 170.856C145.027 170.9 145.775 170.947 146.477 171.168C147.112 171.369 147.661 171.783 148.245 172.105C149.741 172.928 151.229 173.767 152.718 174.602C153.517 175.049 154.497 175.274 155.111 175.954C155.838 176.76 156.066 177.904 156.567 178.867C156.933 179.569 157.206 180.338 157.711 180.947C158.23 181.573 158.877 182.107 159.584 182.508C160.424 182.985 161.416 183.134 162.288 183.548C163.466 184.107 164.66 184.664 165.721 185.421C167.204 186.477 168.444 187.841 169.882 188.958L169.906 188.976L169.929 188.994L169.934 188.998L169.953 189.013L169.976 189.031L169.985 189.037L170 189.049L170.023 189.067L170.036 189.077L170.046 189.085L170.07 189.103L170.087 189.117L170.093 189.121L170.117 189.14L170.138 189.157L170.14 189.158L170.164 189.176L170.187 189.194L170.19 189.196L170.211 189.212L170.234 189.23L170.241 189.236L170.257 189.249L170.281 189.267L170.292 189.275L170.304 189.285L170.328 189.303L170.343 189.315L170.352 189.321L170.375 189.339L170.395 189.354L170.399 189.357L170.422 189.375L170.446 189.393L170.446 189.394L170.469 189.411L170.493 189.429L170.498 189.433L170.549 189.472L170.563 189.483L170.587 189.501L170.601 189.512L170.611 189.519L170.634 189.537L170.652 189.551L170.658 189.555L170.682 189.573L170.704 189.59L170.705 189.591L170.729 189.609L170.753 189.627L170.756 189.63L170.776 189.645L170.8 189.663L170.808 189.668L170.824 189.681L170.847 189.698L170.86 189.707L170.871 189.717L170.895 189.734L170.911 189.746L170.919 189.752L170.942 189.77L170.963 189.786L170.966 189.788L170.99 189.806L171.014 189.823L171.015 189.825L171.037 189.841L171.061 189.859L171.067 189.863L171.085 189.877L171.109 189.895L171.119 189.902L171.133 189.912L171.157 189.93L171.171 189.941L171.18 189.948L171.204 189.965L171.223 189.979L171.228 189.983L171.252 190L171.276 190.018L171.276 190.018L171.3 190.035L171.324 190.053L171.328 190.056L171.348 190.07L171.372 190.088L171.381 190.094L171.396 190.105L171.727 187.454L185.187 190.38L192.551 197.698L201.137 186.964L188.58 168.932L187.935 167.858L187.614 167L187.077 165.175L186.862 163.243V163.135H186.97V163.028L187.077 162.921L193.516 159.164L194.483 158.412L194.697 157.983L194.805 157.768V157.339L194.59 156.695L194.483 156.266L194.268 155.944L193.087 152.616L191.907 147.679L191.37 139.843L191.585 137.16L191.799 136.193L192.229 134.905L192.551 134.369L198.883 127.714L199.742 126.533L204.786 117.946L213.48 109.574L214.661 108.178L214.983 107.642L215.09 107.105V106.998L214.983 106.783L214.875 106.568L214.231 106.353L213.372 106.031L209.294 105.387L208.221 105.065L206.718 104.314L204.679 102.919L202.425 100.664L198.454 95.1901L181.326 71.6015L96.0457 0L15.1339 18.4433L0 174.942L33.165 181.383L37.8878 177.089L35.3117 174.942L33.5948 166.785V157.339L33.5967 157.339Z"/>
</mask>
<path fill-rule="evenodd" clip-rule="evenodd" d="M33.5967 157.339L35.3136 152.509L44.0074 145.639L49.5886 143.922L56.8869 144.351L61.2877 143.922H63.7562L63.4343 141.775L67.2982 136.193L66.0099 133.188L71.0545 130.182L78.8899 136.193L80.607 141.775L84.0415 140.916L79.319 130.611L73.2015 125.352L78.4604 122.346L87.5834 125.352L89.3005 120.2L98.7458 131.041L106.044 131.47L109.157 135.764L108.191 139.628L127.188 142.204L134.057 148.644L131.482 150.362L131.911 153.797L128.905 156.48L135.453 158.627L140.068 165.926H136.281C137.168 167.217 138.105 168.726 139.091 169.712C139.65 170.272 140.398 170.686 141.171 170.856C142.187 171.08 143.254 170.796 144.292 170.856C145.027 170.9 145.775 170.947 146.477 171.168C147.112 171.369 147.661 171.783 148.245 172.105C149.741 172.928 151.229 173.767 152.718 174.602C153.517 175.049 154.497 175.274 155.111 175.954C155.838 176.76 156.066 177.904 156.567 178.867C156.933 179.569 157.206 180.338 157.711 180.947C158.23 181.573 158.877 182.107 159.584 182.508C160.424 182.985 161.416 183.134 162.288 183.548C163.466 184.107 164.66 184.664 165.721 185.421C167.204 186.477 168.444 187.841 169.882 188.958L169.906 188.976L169.929 188.994L169.934 188.998L169.953 189.013L169.976 189.031L169.985 189.037L170 189.049L170.023 189.067L170.036 189.077L170.046 189.085L170.07 189.103L170.087 189.117L170.093 189.121L170.117 189.14L170.138 189.157L170.14 189.158L170.164 189.176L170.187 189.194L170.19 189.196L170.211 189.212L170.234 189.23L170.241 189.236L170.257 189.249L170.281 189.267L170.292 189.275L170.304 189.285L170.328 189.303L170.343 189.315L170.352 189.321L170.375 189.339L170.395 189.354L170.399 189.357L170.422 189.375L170.446 189.393L170.446 189.394L170.469 189.411L170.493 189.429L170.498 189.433L170.549 189.472L170.563 189.483L170.587 189.501L170.601 189.512L170.611 189.519L170.634 189.537L170.652 189.551L170.658 189.555L170.682 189.573L170.704 189.59L170.705 189.591L170.729 189.609L170.753 189.627L170.756 189.63L170.776 189.645L170.8 189.663L170.808 189.668L170.824 189.681L170.847 189.698L170.86 189.707L170.871 189.717L170.895 189.734L170.911 189.746L170.919 189.752L170.942 189.77L170.963 189.786L170.966 189.788L170.99 189.806L171.014 189.823L171.015 189.825L171.037 189.841L171.061 189.859L171.067 189.863L171.085 189.877L171.109 189.895L171.119 189.902L171.133 189.912L171.157 189.93L171.171 189.941L171.18 189.948L171.204 189.965L171.223 189.979L171.228 189.983L171.252 190L171.276 190.018L171.276 190.018L171.3 190.035L171.324 190.053L171.328 190.056L171.348 190.07L171.372 190.088L171.381 190.094L171.396 190.105L171.727 187.454L185.187 190.38L192.551 197.698L201.137 186.964L188.58 168.932L187.935 167.858L187.614 167L187.077 165.175L186.862 163.243V163.135H186.97V163.028L187.077 162.921L193.516 159.164L194.483 158.412L194.697 157.983L194.805 157.768V157.339L194.59 156.695L194.483 156.266L194.268 155.944L193.087 152.616L191.907 147.679L191.37 139.843L191.585 137.16L191.799 136.193L192.229 134.905L192.551 134.369L198.883 127.714L199.742 126.533L204.786 117.946L213.48 109.574L214.661 108.178L214.983 107.642L215.09 107.105V106.998L214.983 106.783L214.875 106.568L214.231 106.353L213.372 106.031L209.294 105.387L208.221 105.065L206.718 104.314L204.679 102.919L202.425 100.664L198.454 95.1901L181.326 71.6015L96.0457 0L15.1339 18.4433L0 174.942L33.165 181.383L37.8878 177.089L35.3117 174.942L33.5948 166.785V157.339L33.5967 157.339Z" fill="#37465A" stroke="#0B1D36" stroke-width="2" mask="url(#path-2-inside-1_412_246)"/>
<mask id="path-3-inside-2_412_246" fill="white">
<path fill-rule="evenodd" clip-rule="evenodd" d="M214.663 182.993L214.448 182.885L214.341 182.778L214.126 182.67H213.911L213.59 182.778L213.268 182.885L201.676 186.32L192.562 197.712L201.223 210.395L198.334 219.076L198.563 219.702L205.432 225.927L208.008 242.779L225.181 257.592L244.179 270.795L249.974 278.523L266.181 289.579L271.119 287.861L273.372 290.008L272.514 288.398L276.378 284.105L277.021 283.675L277.773 283.353L278.953 283.031H279.705H283.89L284.964 282.924L285.608 282.602L286.144 282.387L286.466 281.958L286.574 281.851L286.681 281.421L287.003 277.02L287.218 276.483L287.54 276.162L288.398 275.303L293.658 271.224L294.409 270.58L297.629 266.931L294.087 265.535L293.228 265.428L292.477 265.106L292.262 264.998L292.048 264.784L291.94 264.569L291.833 264.354V264.247L292.048 263.711L292.37 263.174L293.872 261.134L293.98 260.92L294.087 260.49L293.98 260.061L293.658 259.739L293.443 259.524L293.121 259.417L293.013 259.31L292.477 259.202L289.149 258.773L288.506 258.88L287.218 259.202L286.252 259.631L285.822 259.846H285.393L284.964 259.631L284.642 259.417L284.213 258.451L283.568 256.948L278.31 248.791V248.683L278.417 248.468L278.524 248.254L278.632 248.146L279.383 247.395L280.241 246.751L281.422 246.107L283.246 245.678L283.676 245.463L283.998 245.141L284.213 244.819L284.642 243.209L284.749 242.994L284.964 242.672L286.144 241.599V241.384L286.359 241.062L286.037 236.446L286.144 235.803V235.373L286.359 235.159L286.574 234.944L286.896 234.729L287.218 234.622L287.969 234.192L288.076 233.978V233.763L287.969 228.396L288.184 227.967L288.291 227.859V227.645L288.828 227.43H289.043L289.364 227.538L289.794 227.645L289.901 227.752L290.116 227.859L290.974 228.611L293.336 230.006L293.443 230.113H293.658H293.98L294.731 230.006H294.945L295.16 229.899L295.375 229.684L295.697 229.577L295.804 229.469L296.019 229.255L296.341 228.933V228.718L296.77 227.967L296.877 227.752L297.629 227.323L297.951 227.108L299.346 226.786L299.775 226.464L300.097 226.249L300.205 226.142L300.312 226.035L301.063 224.103L301.385 223.566L302.459 222.815L304.283 221.956L304.605 221.741L304.82 221.526L305.035 220.99L305.142 220.775L305.356 220.131L305.464 216.911L304.927 217.018L303.746 216.911L302.03 216.267L300.527 215.193L299.99 214.979H299.561H299.131H298.809L298.38 215.086L297.951 215.408V215.515L297.521 215.623L295.482 217.233L294.945 217.662L293.55 218.199L292.262 218.521H291.726H290.974L290.008 218.199L288.506 217.34L287.218 216.374L286.144 215.086L283.461 211.329L282.71 210.148L282.281 208.646L281.958 206.928L281.744 201.347L281.636 200.703L281.529 200.488L281.314 199.952L281.207 199.737L280.778 199.2L280.456 198.986L280.134 198.771H279.92H279.705L279.49 198.878L279.168 199.2L278.846 199.629L278.31 201.132V201.454L278.202 201.669L278.31 202.313L278.202 202.635L278.095 202.742V202.85L277.988 202.957L277.88 203.064L277.666 203.172L276.699 203.279L270.26 202.957L269.294 203.064L269.186 203.172H269.079L268.972 203.386L268.865 203.709L268.757 204.674L268.65 209.827L268.543 210.793L268.328 211.115L268.221 211.222L267.684 211.329L257.917 211.544H257.595L257.166 211.222L257.058 211.007L256.843 210.578V210.148L256.951 209.612L257.058 209.29L257.38 208.431L258.453 207.036L258.561 206.714V206.607V206.392L258.453 205.533L258.239 205.211L257.917 204.567H257.702L257.595 204.46L257.488 204.353H257.38H256.843H256.629L256.414 204.46L256.092 204.567L255.77 204.782L250.297 209.29L249.867 209.827L249.545 210.363V210.578L249.438 211.007V211.544L249.545 212.081L249.652 212.51L249.76 213.369L249.867 213.691L251.155 215.838V216.052L251.262 216.481V216.696V216.911L251.155 217.126L250.94 217.34L250.833 217.448L250.618 217.662L250.297 217.77L249.76 217.877L246.969 218.092L246.11 217.984L245.788 217.877L245.574 217.77L245.252 217.448L244.501 216.374L244.286 215.838L244.179 214.979V214.228L244.393 211.866V211.437V211.222L244.286 211.007L244.071 210.578L243.749 210.256L242.783 209.505L227.542 200.918H227.328H227.006L224.537 204.03L223.893 204.782L223.571 204.889L223.142 205.104L222.713 205.319H222.391H222.176L221.746 204.996L221.639 204.889L221.317 204.567L221.102 204.245V204.03L220.995 203.064L220.888 198.341L220.781 197.16L220.673 196.624L220.351 196.195L219.815 195.765L217.668 194.477L217.024 193.941L216.595 193.296L216.165 192.653L215.843 191.794L215.522 190.184L215.092 184.71L214.877 183.636L214.77 183.314L214.663 182.993Z"/>
</mask>
<path fill-rule="evenodd" clip-rule="evenodd" d="M214.663 182.993L214.448 182.885L214.341 182.778L214.126 182.67H213.911L213.59 182.778L213.268 182.885L201.676 186.32L192.562 197.712L201.223 210.395L198.334 219.076L198.563 219.702L205.432 225.927L208.008 242.779L225.181 257.592L244.179 270.795L249.974 278.523L266.181 289.579L271.119 287.861L273.372 290.008L272.514 288.398L276.378 284.105L277.021 283.675L277.773 283.353L278.953 283.031H279.705H283.89L284.964 282.924L285.608 282.602L286.144 282.387L286.466 281.958L286.574 281.851L286.681 281.421L287.003 277.02L287.218 276.483L287.54 276.162L288.398 275.303L293.658 271.224L294.409 270.58L297.629 266.931L294.087 265.535L293.228 265.428L292.477 265.106L292.262 264.998L292.048 264.784L291.94 264.569L291.833 264.354V264.247L292.048 263.711L292.37 263.174L293.872 261.134L293.98 260.92L294.087 260.49L293.98 260.061L293.658 259.739L293.443 259.524L293.121 259.417L293.013 259.31L292.477 259.202L289.149 258.773L288.506 258.88L287.218 259.202L286.252 259.631L285.822 259.846H285.393L284.964 259.631L284.642 259.417L284.213 258.451L283.568 256.948L278.31 248.791V248.683L278.417 248.468L278.524 248.254L278.632 248.146L279.383 247.395L280.241 246.751L281.422 246.107L283.246 245.678L283.676 245.463L283.998 245.141L284.213 244.819L284.642 243.209L284.749 242.994L284.964 242.672L286.144 241.599V241.384L286.359 241.062L286.037 236.446L286.144 235.803V235.373L286.359 235.159L286.574 234.944L286.896 234.729L287.218 234.622L287.969 234.192L288.076 233.978V233.763L287.969 228.396L288.184 227.967L288.291 227.859V227.645L288.828 227.43H289.043L289.364 227.538L289.794 227.645L289.901 227.752L290.116 227.859L290.974 228.611L293.336 230.006L293.443 230.113H293.658H293.98L294.731 230.006H294.945L295.16 229.899L295.375 229.684L295.697 229.577L295.804 229.469L296.019 229.255L296.341 228.933V228.718L296.77 227.967L296.877 227.752L297.629 227.323L297.951 227.108L299.346 226.786L299.775 226.464L300.097 226.249L300.205 226.142L300.312 226.035L301.063 224.103L301.385 223.566L302.459 222.815L304.283 221.956L304.605 221.741L304.82 221.526L305.035 220.99L305.142 220.775L305.356 220.131L305.464 216.911L304.927 217.018L303.746 216.911L302.03 216.267L300.527 215.193L299.99 214.979H299.561H299.131H298.809L298.38 215.086L297.951 215.408V215.515L297.521 215.623L295.482 217.233L294.945 217.662L293.55 218.199L292.262 218.521H291.726H290.974L290.008 218.199L288.506 217.34L287.218 216.374L286.144 215.086L283.461 211.329L282.71 210.148L282.281 208.646L281.958 206.928L281.744 201.347L281.636 200.703L281.529 200.488L281.314 199.952L281.207 199.737L280.778 199.2L280.456 198.986L280.134 198.771H279.92H279.705L279.49 198.878L279.168 199.2L278.846 199.629L278.31 201.132V201.454L278.202 201.669L278.31 202.313L278.202 202.635L278.095 202.742V202.85L277.988 202.957L277.88 203.064L277.666 203.172L276.699 203.279L270.26 202.957L269.294 203.064L269.186 203.172H269.079L268.972 203.386L268.865 203.709L268.757 204.674L268.65 209.827L268.543 210.793L268.328 211.115L268.221 211.222L267.684 211.329L257.917 211.544H257.595L257.166 211.222L257.058 211.007L256.843 210.578V210.148L256.951 209.612L257.058 209.29L257.38 208.431L258.453 207.036L258.561 206.714V206.607V206.392L258.453 205.533L258.239 205.211L257.917 204.567H257.702L257.595 204.46L257.488 204.353H257.38H256.843H256.629L256.414 204.46L256.092 204.567L255.77 204.782L250.297 209.29L249.867 209.827L249.545 210.363V210.578L249.438 211.007V211.544L249.545 212.081L249.652 212.51L249.76 213.369L249.867 213.691L251.155 215.838V216.052L251.262 216.481V216.696V216.911L251.155 217.126L250.94 217.34L250.833 217.448L250.618 217.662L250.297 217.77L249.76 217.877L246.969 218.092L246.11 217.984L245.788 217.877L245.574 217.77L245.252 217.448L244.501 216.374L244.286 215.838L244.179 214.979V214.228L244.393 211.866V211.437V211.222L244.286 211.007L244.071 210.578L243.749 210.256L242.783 209.505L227.542 200.918H227.328H227.006L224.537 204.03L223.893 204.782L223.571 204.889L223.142 205.104L222.713 205.319H222.391H222.176L221.746 204.996L221.639 204.889L221.317 204.567L221.102 204.245V204.03L220.995 203.064L220.888 198.341L220.781 197.16L220.673 196.624L220.351 196.195L219.815 195.765L217.668 194.477L217.024 193.941L216.595 193.296L216.165 192.653L215.843 191.794L215.522 190.184L215.092 184.71L214.877 183.636L214.77 183.314L214.663 182.993Z" fill="#37465A" stroke="#0B1D36" stroke-width="2" mask="url(#path-3-inside-2_412_246)"/>
<mask id="path-4-inside-3_412_246" fill="white">
<path fill-rule="evenodd" clip-rule="evenodd" d="M331.975 268.863L331.653 268.97L330.794 269.721L326.393 273.907L325.749 274.23L325.32 274.337H324.998L324.569 274.23L324.247 273.907L323.818 273.371L320.49 267.575L319.417 265.535L318.773 264.462L318.344 263.925L317.807 263.603L317.7 263.496H317.27H317.163H316.948L316.734 263.603L316.412 263.818L316.197 263.925L315.553 264.784L314.48 267.36L297.736 266.823L294.087 270.902L288.398 275.303L287.54 276.162L287.218 276.484L287.003 277.02L286.681 281.421L286.574 281.851L286.467 281.958L286.145 282.387L285.608 282.602L284.964 282.924L283.891 283.031H279.705H278.954L277.773 283.353L277.022 283.675L276.378 284.105L272.514 288.398L282.066 298.488L293.121 303.425L313.836 318.99L318.559 320.063L323.388 317.487L330.365 319.634L338.951 325.967L347.108 327.684L348.611 325.001L348.718 324.893L348.825 324.786L349.577 324.356L351.187 323.82L352.045 323.712L352.797 323.605L356.231 323.82L356.768 323.712H356.983L357.734 323.39L358.27 323.068L358.914 322.424L359.773 321.244L360.202 320.6L360.417 320.063V319.848L360.525 319.097L360.31 317.165V316.091L360.417 315.662L360.525 315.34L361.491 313.73L361.598 313.516L361.812 313.301L362.134 313.086L362.242 312.979H362.456H362.778L364.603 313.301H365.032H365.354H365.569H365.676L365.784 313.193V313.086L365.891 312.979L365.998 311.69L366.106 311.261L366.32 310.617L366.535 310.188L367.823 308.578L368.037 308.256L368.145 307.826V307.075L367.608 304.391V303.425V303.211L367.716 302.996L367.823 302.782L367.93 302.674L368.252 302.459L368.574 302.352L369.755 302.137L372.223 302.03L373.511 301.708L374.048 301.493L374.799 301.064L375.014 300.742V300.527L375.121 300.098V299.561L374.907 297.522L375.014 296.019L375.229 294.731L375.551 293.98L375.765 293.443L376.087 293.121H376.302L376.517 292.906H376.731H376.946L377.483 293.014L378.127 293.229L379.737 293.98L380.703 294.195L381.776 294.087L382.205 293.98L383.278 293.658L383.386 293.551L383.493 293.336L383.708 293.121V292.692V292.155L383.493 291.297L383.278 290.545L382.956 290.008L382.742 289.901L382.205 289.472L381.239 288.398L380.917 287.969V287.862L380.81 287.432L380.917 287.217L382.42 284.964L383.171 284.212L383.278 284.105H383.386L391.328 279.382L384.674 276.806L373.082 271.653L370.614 270.044L368.789 269.185L367.501 268.755L366.642 268.648L365.462 268.755L364.71 268.97L364.388 269.077L363.744 269.507L363.422 269.721L362.778 270.365L362.242 271.224L361.276 273.264L361.061 273.907L359.451 272.512L354.299 268.863L353.119 268.219L351.938 267.789L350.757 267.575L349.684 267.467L348.718 267.682L347.752 268.111L346.894 268.755L346.035 269.614L345.176 270.687L343.674 273.8L343.352 274.659L341.205 272.19L340.024 271.117L339.702 270.902L338.844 270.58L338.629 270.473H338.307H338.092H337.878L337.341 270.687L336.912 270.902L336.805 271.117L336.375 271.653L336.053 272.19L335.624 273.371L335.409 274.23L335.302 274.659L335.087 274.766L334.873 274.981L334.443 275.196H334.336L333.692 275.303H333.37L333.263 275.088L333.155 274.659L333.048 273.8V269.721L332.941 269.292L332.726 268.97L332.618 268.863L332.511 268.755H332.297H332.189L331.975 268.863Z"/>
</mask>
<path fill-rule="evenodd" clip-rule="evenodd" d="M331.975 268.863L331.653 268.97L330.794 269.721L326.393 273.907L325.749 274.23L325.32 274.337H324.998L324.569 274.23L324.247 273.907L323.818 273.371L320.49 267.575L319.417 265.535L318.773 264.462L318.344 263.925L317.807 263.603L317.7 263.496H317.27H317.163H316.948L316.734 263.603L316.412 263.818L316.197 263.925L315.553 264.784L314.48 267.36L297.736 266.823L294.087 270.902L288.398 275.303L287.54 276.162L287.218 276.484L287.003 277.02L286.681 281.421L286.574 281.851L286.467 281.958L286.145 282.387L285.608 282.602L284.964 282.924L283.891 283.031H279.705H278.954L277.773 283.353L277.022 283.675L276.378 284.105L272.514 288.398L282.066 298.488L293.121 303.425L313.836 318.99L318.559 320.063L323.388 317.487L330.365 319.634L338.951 325.967L347.108 327.684L348.611 325.001L348.718 324.893L348.825 324.786L349.577 324.356L351.187 323.82L352.045 323.712L352.797 323.605L356.231 323.82L356.768 323.712H356.983L357.734 323.39L358.27 323.068L358.914 322.424L359.773 321.244L360.202 320.6L360.417 320.063V319.848L360.525 319.097L360.31 317.165V316.091L360.417 315.662L360.525 315.34L361.491 313.73L361.598 313.516L361.812 313.301L362.134 313.086L362.242 312.979H362.456H362.778L364.603 313.301H365.032H365.354H365.569H365.676L365.784 313.193V313.086L365.891 312.979L365.998 311.69L366.106 311.261L366.32 310.617L366.535 310.188L367.823 308.578L368.037 308.256L368.145 307.826V307.075L367.608 304.391V303.425V303.211L367.716 302.996L367.823 302.782L367.93 302.674L368.252 302.459L368.574 302.352L369.755 302.137L372.223 302.03L373.511 301.708L374.048 301.493L374.799 301.064L375.014 300.742V300.527L375.121 300.098V299.561L374.907 297.522L375.014 296.019L375.229 294.731L375.551 293.98L375.765 293.443L376.087 293.121H376.302L376.517 292.906H376.731H376.946L377.483 293.014L378.127 293.229L379.737 293.98L380.703 294.195L381.776 294.087L382.205 293.98L383.278 293.658L383.386 293.551L383.493 293.336L383.708 293.121V292.692V292.155L383.493 291.297L383.278 290.545L382.956 290.008L382.742 289.901L382.205 289.472L381.239 288.398L380.917 287.969V287.862L380.81 287.432L380.917 287.217L382.42 284.964L383.171 284.212L383.278 284.105H383.386L391.328 279.382L384.674 276.806L373.082 271.653L370.614 270.044L368.789 269.185L367.501 268.755L366.642 268.648L365.462 268.755L364.71 268.97L364.388 269.077L363.744 269.507L363.422 269.721L362.778 270.365L362.242 271.224L361.276 273.264L361.061 273.907L359.451 272.512L354.299 268.863L353.119 268.219L351.938 267.789L350.757 267.575L349.684 267.467L348.718 267.682L347.752 268.111L346.894 268.755L346.035 269.614L345.176 270.687L343.674 273.8L343.352 274.659L341.205 272.19L340.024 271.117L339.702 270.902L338.844 270.58L338.629 270.473H338.307H338.092H337.878L337.341 270.687L336.912 270.902L336.805 271.117L336.375 271.653L336.053 272.19L335.624 273.371L335.409 274.23L335.302 274.659L335.087 274.766L334.873 274.981L334.443 275.196H334.336L333.692 275.303H333.37L333.263 275.088L333.155 274.659L333.048 273.8V269.721L332.941 269.292L332.726 268.97L332.618 268.863L332.511 268.755H332.297H332.189L331.975 268.863Z" fill="#37465A" stroke="#0B1D36" stroke-width="2" mask="url(#path-4-inside-3_412_246)"/>
<mask id="path-5-inside-4_412_246" fill="white">
<path fill-rule="evenodd" clip-rule="evenodd" d="M307.61 101.738L299.346 96.9073L288.72 83.9195L273.694 92.1846L234.948 88.4277L198.241 94.1166L198.027 94.5459L198.241 94.7605L198.456 95.1898L202.427 100.664L205.218 103.348L206.72 104.314L208.223 105.065L209.296 105.387L213.375 106.031L214.234 106.353L214.877 106.568L214.985 106.783L215.092 106.997V107.104L214.985 107.641L214.663 108.178L213.482 109.573L204.788 117.945L199.744 126.533L198.885 127.713L192.553 134.368L192.231 134.905L191.802 136.193L191.587 137.159L191.372 139.842L191.909 147.678L193.089 152.616L194.27 155.943L194.485 156.265L194.592 156.695L194.807 157.339V157.768L194.699 157.983L194.485 158.412L193.519 159.163L187.079 162.92L186.972 163.028V163.135H186.864V163.242L187.079 165.175L187.616 166.999L187.938 167.858L188.582 168.931L201.139 186.964L201.676 186.32L213.268 182.885L213.59 182.778L213.911 182.67H214.126L214.341 182.778L214.448 182.885L214.663 182.993L214.77 183.314L214.877 183.636L215.092 184.71L215.522 190.184L215.843 191.794L216.165 192.653L216.595 193.296L217.024 193.941L217.668 194.477L219.815 195.765L220.351 196.195L220.673 196.624L220.781 197.161L220.888 198.342L220.995 203.064L221.103 204.03V204.245L221.317 204.567L221.639 204.889L221.747 204.996L222.176 205.319H222.391H222.713L223.142 205.104L223.571 204.889L223.893 204.782L227.006 200.918H227.328H227.542L228.401 201.347L243.32 209.827L243.749 210.256L244.071 210.578L244.286 211.008L244.393 211.222V211.437V211.866L244.179 214.228V214.979L244.286 215.838L244.501 216.374L245.252 217.448L245.574 217.77L245.788 217.877L246.11 217.984L246.969 218.092L249.76 217.877L250.296 217.77L250.618 217.662L250.833 217.448L250.94 217.341L251.155 217.126L251.262 216.911V216.696V216.482L251.155 216.052V215.838L250.082 214.12L249.76 213.369V213.154L249.438 211.544V211.008L249.545 210.578V210.363L249.867 209.827L250.296 209.29L255.77 204.782L256.092 204.567L256.414 204.46L256.629 204.353H256.844H257.38H257.488L257.595 204.46L257.702 204.567H257.917L258.239 205.211L258.454 205.533L258.561 206.392V206.607V206.714L258.454 207.036L257.38 208.431L257.058 209.29L256.951 209.612L256.844 210.149V210.578L257.058 211.008L257.166 211.222L257.595 211.544H257.917L267.684 211.329L268.221 211.222L268.328 211.115L268.543 210.793L268.65 209.827L268.757 204.675L268.864 203.709L268.972 203.387L269.079 203.172H269.187L269.294 203.064L270.26 202.957L276.7 203.279L277.666 203.172L277.88 203.064L277.988 202.957L278.095 202.85V202.742L278.202 202.635L278.31 202.313L278.202 201.669L278.31 201.454V201.132L278.846 199.63L279.168 199.2L279.49 198.878L279.705 198.771H279.92H280.134L280.456 198.986L280.778 199.2L281.207 199.737L281.315 199.952L281.529 200.488L281.637 200.703L281.744 201.347L281.959 206.929L282.281 208.646L282.71 210.149L283.461 211.329L286.145 215.086L287.218 216.374L288.506 217.341L288.828 217.662L290.008 218.199L290.974 218.521H291.726H292.262L293.55 218.199L294.945 217.662L295.482 217.233L297.521 215.623L297.951 215.515V215.408L298.38 215.086L298.809 214.979H299.132H299.561H299.99L300.527 215.194L302.029 216.267L303.747 216.911L304.927 217.018L305.464 216.911L305.357 220.131L305.035 220.99L304.82 221.527L304.605 221.741L304.283 221.956L302.459 222.814L301.707 223.351L301.385 223.566L301.063 224.103L300.312 226.035L300.205 226.142L300.098 226.249L299.775 226.464L299.346 226.786L297.951 227.108L297.629 227.323L296.877 227.752L296.77 227.967L296.341 228.933L296.019 229.255L295.804 229.469L295.697 229.577L295.375 229.684L295.16 229.899L294.945 230.006H294.731L293.979 230.114H293.658H293.443L293.336 230.006L290.974 228.611L290.116 227.86L289.901 227.752L289.794 227.645L289.364 227.538L289.043 227.43H288.828L288.291 227.645V227.86L288.184 227.967L287.969 228.396L288.076 233.763V233.978L287.969 234.192L287.218 234.622L286.896 234.729L286.574 234.944L286.359 235.159L286.145 235.373V235.802L286.037 236.446L286.359 241.062L286.145 241.384V241.599L284.964 242.672L284.749 242.994L284.642 243.209L284.213 244.819L283.998 245.141L283.676 245.463L283.247 245.678L281.851 246L280.242 246.751L279.383 247.395L278.632 248.146L278.524 248.254L278.417 248.468L278.31 248.683V248.791L283.569 256.948L284.213 258.451L284.642 259.417L284.964 259.632L285.393 259.846H285.822L286.252 259.632L287.218 259.202L288.506 258.88L289.15 258.773L292.477 259.202L293.013 259.31L293.121 259.417L293.443 259.524L293.658 259.739L293.979 260.061L294.087 260.49L293.979 260.92L293.872 261.134L292.37 263.174L292.047 263.71L291.833 264.247V264.354L291.94 264.569L292.047 264.784L292.262 264.998L292.799 265.213L297.629 266.931L297.736 266.823L299.883 266.931L299.668 259.202L299.775 258.558V258.236L299.561 257.485L299.239 257.163L298.487 256.519L295.804 255.123L295.697 255.016L295.268 254.587L295.16 254.372L294.731 253.621L294.624 253.299V252.762V252.547L294.731 252.225L295.053 252.011L295.482 251.796H295.697H296.555L298.595 252.225H298.917L299.453 252.118H299.561L299.883 252.011L300.205 251.689L300.419 251.474L300.527 250.937L300.634 249.757V249.542L300.741 249.434L300.849 249.22H300.956L301.171 249.112L301.6 249.22L302.673 249.864L304.069 250.508L304.283 250.615H304.82H305.357H305.464L306.001 250.508L306.537 250.078L306.859 249.649L306.967 249.327L307.074 248.898L307.288 247.61L307.074 245.57V241.277V240.955V240.418L307.288 240.203L307.396 240.096L307.503 239.989L307.61 239.881H307.718H307.933L308.147 239.989L308.362 240.096L308.684 240.311L309.972 241.277L313.836 243.96L314.587 244.39L315.124 244.497H315.338H315.553L315.66 244.39L315.875 244.282L316.09 243.638V243.316L316.197 241.706V241.277L316.412 241.169L316.626 241.062H316.733H316.948L317.163 241.169L317.592 241.384L319.631 243.209L320.49 243.746L321.027 243.96H321.563H321.778L322.1 243.853L322.637 243.638L323.388 243.101L326.715 240.203L327.359 239.345L327.574 239.023L327.681 238.808V238.486V238.379L326.715 237.949L324.032 236.768L323.71 236.232L323.603 236.125V235.91V235.48V235.373L323.71 235.266L323.925 234.944L324.139 234.729L325.213 233.87L328.433 230.221L328.969 229.04L329.398 223.566L329.613 222.6L330.579 220.131L330.901 219.809L331.438 219.273L332.082 218.843L332.833 218.736H333.37H333.692H333.907L334.228 218.95L334.336 219.165V219.273L334.443 219.595L334.658 220.56L335.302 222.6L335.409 222.707L335.624 222.922L335.731 223.029H335.946L336.268 223.137L336.804 223.029L337.126 222.814L337.985 222.063L338.522 221.419L338.736 221.097L339.38 219.702L339.702 219.273L339.809 219.165L340.132 219.058H340.346L341.849 219.702L342.064 219.809L342.278 219.916L342.385 220.024L342.493 220.453V222.278V222.6L342.6 222.814L342.708 223.029L342.922 223.351H343.03L343.137 223.459H343.244H343.888L344.639 223.137L345.713 222.493L346.786 221.419L347.001 221.097L347.323 220.346V220.131L347.43 218.736L347.538 218.199L347.859 217.233L348.289 216.589L348.933 216.16L349.684 215.945L351.294 215.73H352.582L352.904 214.442L353.011 213.262L352.797 211.759L352.367 210.471L352.045 209.719L351.187 208.646L350.757 208.109L350.328 206.929L349.362 203.494L349.255 200.596L349.469 199.308L349.577 198.771L349.791 198.449L350.006 198.234H350.113L351.401 197.376L351.938 197.268V197.161L352.045 197.054L352.26 196.839V195.873L352.153 193.833L352.045 193.296V193.082L348.074 192.76L342.064 168.931L340.668 157.446L324.676 157.768L324.569 141.667L325.642 139.735L326.715 115.047L317.27 120.414L307.61 101.738Z"/>
</mask>
<path fill-rule="evenodd" clip-rule="evenodd" d="M307.61 101.738L299.346 96.9073L288.72 83.9195L273.694 92.1846L234.948 88.4277L198.241 94.1166L198.027 94.5459L198.241 94.7605L198.456 95.1898L202.427 100.664L205.218 103.348L206.72 104.314L208.223 105.065L209.296 105.387L213.375 106.031L214.234 106.353L214.877 106.568L214.985 106.783L215.092 106.997V107.104L214.985 107.641L214.663 108.178L213.482 109.573L204.788 117.945L199.744 126.533L198.885 127.713L192.553 134.368L192.231 134.905L191.802 136.193L191.587 137.159L191.372 139.842L191.909 147.678L193.089 152.616L194.27 155.943L194.485 156.265L194.592 156.695L194.807 157.339V157.768L194.699 157.983L194.485 158.412L193.519 159.163L187.079 162.92L186.972 163.028V163.135H186.864V163.242L187.079 165.175L187.616 166.999L187.938 167.858L188.582 168.931L201.139 186.964L201.676 186.32L213.268 182.885L213.59 182.778L213.911 182.67H214.126L214.341 182.778L214.448 182.885L214.663 182.993L214.77 183.314L214.877 183.636L215.092 184.71L215.522 190.184L215.843 191.794L216.165 192.653L216.595 193.296L217.024 193.941L217.668 194.477L219.815 195.765L220.351 196.195L220.673 196.624L220.781 197.161L220.888 198.342L220.995 203.064L221.103 204.03V204.245L221.317 204.567L221.639 204.889L221.747 204.996L222.176 205.319H222.391H222.713L223.142 205.104L223.571 204.889L223.893 204.782L227.006 200.918H227.328H227.542L228.401 201.347L243.32 209.827L243.749 210.256L244.071 210.578L244.286 211.008L244.393 211.222V211.437V211.866L244.179 214.228V214.979L244.286 215.838L244.501 216.374L245.252 217.448L245.574 217.77L245.788 217.877L246.11 217.984L246.969 218.092L249.76 217.877L250.296 217.77L250.618 217.662L250.833 217.448L250.94 217.341L251.155 217.126L251.262 216.911V216.696V216.482L251.155 216.052V215.838L250.082 214.12L249.76 213.369V213.154L249.438 211.544V211.008L249.545 210.578V210.363L249.867 209.827L250.296 209.29L255.77 204.782L256.092 204.567L256.414 204.46L256.629 204.353H256.844H257.38H257.488L257.595 204.46L257.702 204.567H257.917L258.239 205.211L258.454 205.533L258.561 206.392V206.607V206.714L258.454 207.036L257.38 208.431L257.058 209.29L256.951 209.612L256.844 210.149V210.578L257.058 211.008L257.166 211.222L257.595 211.544H257.917L267.684 211.329L268.221 211.222L268.328 211.115L268.543 210.793L268.65 209.827L268.757 204.675L268.864 203.709L268.972 203.387L269.079 203.172H269.187L269.294 203.064L270.26 202.957L276.7 203.279L277.666 203.172L277.88 203.064L277.988 202.957L278.095 202.85V202.742L278.202 202.635L278.31 202.313L278.202 201.669L278.31 201.454V201.132L278.846 199.63L279.168 199.2L279.49 198.878L279.705 198.771H279.92H280.134L280.456 198.986L280.778 199.2L281.207 199.737L281.315 199.952L281.529 200.488L281.637 200.703L281.744 201.347L281.959 206.929L282.281 208.646L282.71 210.149L283.461 211.329L286.145 215.086L287.218 216.374L288.506 217.341L288.828 217.662L290.008 218.199L290.974 218.521H291.726H292.262L293.55 218.199L294.945 217.662L295.482 217.233L297.521 215.623L297.951 215.515V215.408L298.38 215.086L298.809 214.979H299.132H299.561H299.99L300.527 215.194L302.029 216.267L303.747 216.911L304.927 217.018L305.464 216.911L305.357 220.131L305.035 220.99L304.82 221.527L304.605 221.741L304.283 221.956L302.459 222.814L301.707 223.351L301.385 223.566L301.063 224.103L300.312 226.035L300.205 226.142L300.098 226.249L299.775 226.464L299.346 226.786L297.951 227.108L297.629 227.323L296.877 227.752L296.77 227.967L296.341 228.933L296.019 229.255L295.804 229.469L295.697 229.577L295.375 229.684L295.16 229.899L294.945 230.006H294.731L293.979 230.114H293.658H293.443L293.336 230.006L290.974 228.611L290.116 227.86L289.901 227.752L289.794 227.645L289.364 227.538L289.043 227.43H288.828L288.291 227.645V227.86L288.184 227.967L287.969 228.396L288.076 233.763V233.978L287.969 234.192L287.218 234.622L286.896 234.729L286.574 234.944L286.359 235.159L286.145 235.373V235.802L286.037 236.446L286.359 241.062L286.145 241.384V241.599L284.964 242.672L284.749 242.994L284.642 243.209L284.213 244.819L283.998 245.141L283.676 245.463L283.247 245.678L281.851 246L280.242 246.751L279.383 247.395L278.632 248.146L278.524 248.254L278.417 248.468L278.31 248.683V248.791L283.569 256.948L284.213 258.451L284.642 259.417L284.964 259.632L285.393 259.846H285.822L286.252 259.632L287.218 259.202L288.506 258.88L289.15 258.773L292.477 259.202L293.013 259.31L293.121 259.417L293.443 259.524L293.658 259.739L293.979 260.061L294.087 260.49L293.979 260.92L293.872 261.134L292.37 263.174L292.047 263.71L291.833 264.247V264.354L291.94 264.569L292.047 264.784L292.262 264.998L292.799 265.213L297.629 266.931L297.736 266.823L299.883 266.931L299.668 259.202L299.775 258.558V258.236L299.561 257.485L299.239 257.163L298.487 256.519L295.804 255.123L295.697 255.016L295.268 254.587L295.16 254.372L294.731 253.621L294.624 253.299V252.762V252.547L294.731 252.225L295.053 252.011L295.482 251.796H295.697H296.555L298.595 252.225H298.917L299.453 252.118H299.561L299.883 252.011L300.205 251.689L300.419 251.474L300.527 250.937L300.634 249.757V249.542L300.741 249.434L300.849 249.22H300.956L301.171 249.112L301.6 249.22L302.673 249.864L304.069 250.508L304.283 250.615H304.82H305.357H305.464L306.001 250.508L306.537 250.078L306.859 249.649L306.967 249.327L307.074 248.898L307.288 247.61L307.074 245.57V241.277V240.955V240.418L307.288 240.203L307.396 240.096L307.503 239.989L307.61 239.881H307.718H307.933L308.147 239.989L308.362 240.096L308.684 240.311L309.972 241.277L313.836 243.96L314.587 244.39L315.124 244.497H315.338H315.553L315.66 244.39L315.875 244.282L316.09 243.638V243.316L316.197 241.706V241.277L316.412 241.169L316.626 241.062H316.733H316.948L317.163 241.169L317.592 241.384L319.631 243.209L320.49 243.746L321.027 243.96H321.563H321.778L322.1 243.853L322.637 243.638L323.388 243.101L326.715 240.203L327.359 239.345L327.574 239.023L327.681 238.808V238.486V238.379L326.715 237.949L324.032 236.768L323.71 236.232L323.603 236.125V235.91V235.48V235.373L323.71 235.266L323.925 234.944L324.139 234.729L325.213 233.87L328.433 230.221L328.969 229.04L329.398 223.566L329.613 222.6L330.579 220.131L330.901 219.809L331.438 219.273L332.082 218.843L332.833 218.736H333.37H333.692H333.907L334.228 218.95L334.336 219.165V219.273L334.443 219.595L334.658 220.56L335.302 222.6L335.409 222.707L335.624 222.922L335.731 223.029H335.946L336.268 223.137L336.804 223.029L337.126 222.814L337.985 222.063L338.522 221.419L338.736 221.097L339.38 219.702L339.702 219.273L339.809 219.165L340.132 219.058H340.346L341.849 219.702L342.064 219.809L342.278 219.916L342.385 220.024L342.493 220.453V222.278V222.6L342.6 222.814L342.708 223.029L342.922 223.351H343.03L343.137 223.459H343.244H343.888L344.639 223.137L345.713 222.493L346.786 221.419L347.001 221.097L347.323 220.346V220.131L347.43 218.736L347.538 218.199L347.859 217.233L348.289 216.589L348.933 216.16L349.684 215.945L351.294 215.73H352.582L352.904 214.442L353.011 213.262L352.797 211.759L352.367 210.471L352.045 209.719L351.187 208.646L350.757 208.109L350.328 206.929L349.362 203.494L349.255 200.596L349.469 199.308L349.577 198.771L349.791 198.449L350.006 198.234H350.113L351.401 197.376L351.938 197.268V197.161L352.045 197.054L352.26 196.839V195.873L352.153 193.833L352.045 193.296V193.082L348.074 192.76L342.064 168.931L340.668 157.446L324.676 157.768L324.569 141.667L325.642 139.735L326.715 115.047L317.27 120.414L307.61 101.738Z" fill="#37465A" stroke="#0B1D36" stroke-width="2" mask="url(#path-5-inside-4_412_246)"/>
<path d="M434.837 176.296L435.586 176.398L435.387 175.669L434.823 173.6L441.618 167.319L454.631 161.879L454.747 161.83L454.826 161.733L462.232 152.609L462.299 152.526L462.327 152.424L463.028 149.818L467.23 147.082L472.117 149.831L472.619 150.113L472.828 149.578L475.653 142.359L482.447 139.223L482.528 139.186L482.591 139.123L484.786 136.927L491.479 140.847L490.173 142.562L479.326 148.091L479.074 148.22L479.055 148.503L478.757 152.877L473.94 154.283L473.772 154.331L473.672 154.473L467.711 162.884L458.979 169.06L458.68 169.271L458.792 169.62L459.651 172.304L459.741 172.587L460.033 172.642L466.612 173.896L468.272 175.992L468.208 176.038L468.065 176.14L468.017 176.31L467.266 178.994L467.259 179.02L467.254 179.046L467.039 180.334L467.033 180.375V180.416V180.953V181.015L467.048 181.074L467.155 181.504L467.168 181.557L467.193 181.606L467.622 182.465L467.632 182.485L467.644 182.504L469.886 186.134L470.506 187.375L471.004 188.768V189.003V189.052L471.014 189.101L471.108 189.575L470.941 192.51L469.201 191.375L468.915 191.189L468.637 191.387L467.135 192.46L466.952 192.591L466.928 192.815L466.516 196.726L463.257 200.19L449.703 207.128L449.585 207.188L449.512 207.299L447.603 210.213L446.007 210.381L438.011 203.858L437.747 203.643L437.451 203.809L434.767 205.312L434.615 205.397L434.549 205.559L433.583 207.92L433.539 208.026L433.546 208.14L433.849 213.085L430.261 215.078L429.848 215.308L430.054 215.733L434.761 225.464L434.16 226.399L432.063 225.67L431.342 225.419L431.4 226.18L431.508 227.576L431.523 227.777L431.673 227.911L434.186 230.154L433.718 230.451L427.999 229.649V229.603L427.973 229.526L427.661 228.59L427.574 228.154L427.673 227.059L427.773 226.361L428.512 224.04L428.524 224L428.53 223.959L428.637 223.208L428.639 223.194L428.641 223.18L428.855 220.711L428.859 220.666L428.855 220.621L428.64 218.366L428.638 218.341L428.633 218.316L428.418 217.242L428.405 217.177L428.375 217.117L427.516 215.399L427.508 215.382L427.498 215.366L427.176 214.829L427.152 214.789L427.121 214.754L426.262 213.788L426.24 213.763L426.214 213.74L424.745 212.481L419.943 206.612L419.924 206.589L419.902 206.568L417.112 203.885L417.074 203.849L417.03 203.821L415.313 202.748L415.275 202.724L415.234 202.708L414.256 202.316L414.114 202.174L414.114 202.174L414.007 202.067L414.007 202.067L413.875 201.936L413.815 201.755L413.724 201.298V200.654L414.14 198.885L414.153 198.829V198.771V198.441L414.221 198.373L414.313 198.282L414.348 198.157L415.374 194.565L424.359 188.012L424.588 187.845L424.562 187.562L423.947 180.803L432.64 175.997L434.837 176.296Z" fill="white" stroke="#0B1D36"/>
<mask id="path-7-inside-5_412_246" fill="white">
<path fill-rule="evenodd" clip-rule="evenodd" d="M383.6 283.139L383.385 284.105L383.6 283.998V283.139Z"/>
</mask>
<path fill-rule="evenodd" clip-rule="evenodd" d="M383.6 283.139L383.385 284.105L383.6 283.998V283.139Z" fill="#37465A"/>
<path d="M383.6 283.139H384.6L382.624 282.921L383.6 283.139ZM383.385 284.105L382.409 283.887L381.954 285.934L383.831 285L383.385 284.105ZM383.6 283.998L384.046 284.893L384.6 284.617V283.998H383.6ZM382.624 282.921L382.409 283.887L384.362 284.322L384.577 283.356L382.624 282.921ZM383.831 285L384.046 284.893L383.155 283.102L382.94 283.209L383.831 285ZM384.6 283.998V283.139H382.6V283.998H384.6Z" fill="#0B1D36" mask="url(#path-7-inside-5_412_246)"/>
<mask id="path-9-inside-6_412_246" fill="white">
<path fill-rule="evenodd" clip-rule="evenodd" d="M347.859 217.233L347.538 218.199L347.43 218.736L347.323 220.131V220.346L347.001 221.097L346.786 221.419L345.713 222.493L344.639 223.137L343.888 223.459H343.244H343.137L343.03 223.351H342.922L342.708 223.029L342.6 222.814L342.493 222.6V222.278V220.453L342.385 220.024L342.278 219.916L342.064 219.809L341.849 219.702L340.346 219.058H340.132L339.809 219.165L339.702 219.273L339.38 219.702L338.736 221.097L338.522 221.419L337.985 222.063L337.126 222.814L336.804 223.029L336.268 223.137L335.946 223.029H335.731L335.624 222.922L335.409 222.707L335.302 222.6L334.658 220.561L334.443 219.595L334.336 219.273V219.165L334.228 218.95L333.907 218.736H333.692H333.37H332.833L332.082 218.843L331.438 219.273L330.901 219.809L330.579 220.131L329.613 222.6L329.398 223.566L328.969 229.04L328.433 230.221L325.213 233.87L324.139 234.729L323.925 234.944L323.71 235.266L323.603 235.373V235.481V235.91V236.125L323.71 236.232L324.032 236.768L326.715 237.949L327.681 238.379V238.486V238.808L327.574 239.023L327.359 239.345L326.715 240.203L323.388 243.101L322.637 243.638L322.1 243.853L321.778 243.96H321.563H321.027L320.49 243.746L319.631 243.209L317.592 241.384L317.163 241.169L316.948 241.062H316.733H316.626L316.412 241.169L316.197 241.277V241.706L316.09 243.316V243.638L315.875 244.282L315.66 244.39L315.553 244.497H315.338H315.124L314.587 244.39L313.836 243.96L309.972 241.277L309.113 240.633L308.684 240.311L308.362 240.096L308.147 239.989L307.933 239.881H307.718H307.61L307.503 239.989L307.396 240.096L307.288 240.203L307.074 240.418V240.955V241.277V245.57L307.288 247.61L307.074 248.898L306.967 249.327L306.859 249.649L306.537 250.078L306.001 250.508L305.464 250.615H305.357H304.82H304.283L304.069 250.508L302.673 249.864L301.6 249.22L301.171 249.113L300.956 249.22H300.849L300.741 249.434L300.634 249.542V249.757L300.527 250.937L300.419 251.474L300.205 251.689L299.883 252.011L299.561 252.118H299.453L298.917 252.225H298.595L296.555 251.796H295.697H295.482L295.053 252.011L294.731 252.225L294.624 252.547V252.762V253.299L294.731 253.621L295.16 254.372L295.268 254.587L295.697 255.016L295.804 255.123L298.487 256.519L299.239 257.163L299.561 257.485L299.775 258.236V258.558L299.668 259.202L299.883 266.931L314.48 267.36L315.553 264.784L316.197 263.925L316.412 263.818L316.733 263.603L316.948 263.496H317.163H317.27H317.7L317.807 263.603L318.344 263.925L318.773 264.462L319.417 265.535L320.49 267.575L323.817 273.371L324.247 273.907L324.569 274.23L324.998 274.337H325.32L325.749 274.23L326.393 273.907L330.794 269.721L331.652 268.97L331.975 268.863L332.189 268.755H332.296H332.511L332.618 268.863L332.726 268.97L332.941 269.292L333.048 269.721V273.8L333.155 274.659L333.262 275.088L333.37 275.303H333.692L334.336 275.196H334.443L334.872 274.981L335.087 274.766L335.302 274.659L335.409 274.23L335.624 273.371L336.053 272.19L336.375 271.653L336.804 271.117L336.912 270.902L337.341 270.687L337.878 270.473H338.092H338.307H338.629L338.844 270.58L339.702 270.902L340.024 271.117L341.205 272.19L343.351 274.659L343.674 273.8L345.176 270.687L346.035 269.614L346.893 268.755L347.752 268.111L348.718 267.682L349.684 267.467L350.757 267.575L351.938 267.789L353.119 268.219L354.299 268.863L359.451 272.512L361.061 273.907L361.276 273.264L362.242 271.224L362.778 270.365L363.422 269.721L363.744 269.507L364.388 269.077L364.71 268.97L365.461 268.755L366.642 268.648L367.501 268.755L368.789 269.185L370.613 270.043L373.082 271.653L373.619 271.868L374.37 264.354L376.731 263.818L375.229 256.733L375.121 254.694L375.229 254.157L375.443 253.621L375.658 253.406L376.087 252.977L376.302 252.762L377.59 252.225L378.126 251.903L378.663 251.474L378.985 250.937L379.092 250.723L379.2 250.508V250.078V249.864L379.092 249.757L378.985 249.542L378.663 249.22L378.448 249.113L378.019 248.791L376.946 248.468L374.37 248.146L374.048 248.039L373.833 247.932L373.297 247.502L372.975 247.18L372.545 246.859H372.438H372.223L372.116 246.966L371.901 247.073L371.257 247.61L370.291 248.146L370.077 248.254L369.003 248.468H368.467H368.252L367.823 248.254L366.75 247.717L365.891 246.966L365.14 246.107L365.032 245.892L364.925 245.785V245.463L364.818 243.746L365.032 242.994L365.354 242.35V241.921V241.706V241.492L365.247 241.169L365.032 240.847L364.925 240.74L364.71 240.526L364.174 240.311H362.563L362.134 240.203L361.92 240.096L361.812 239.989H361.597L361.49 239.774L361.383 239.559L361.276 239.345V237.413L361.061 236.554L360.954 236.232L360.739 235.802L360.524 235.588L360.31 235.481H360.095L359.773 235.373L356.017 235.266L355.372 235.051L355.051 234.729L354.836 234.3L354.406 233.119L354.299 232.69L354.192 231.938L354.299 231.187L354.406 230.436L354.943 229.362L355.587 227.43L355.802 226.249L355.909 225.82L355.802 225.069L355.587 224.639L355.158 224.103L354.836 223.673L354.299 223.351L353.87 223.244L353.44 223.137L353.011 223.029L352.367 222.6L352.045 222.278L351.723 221.634V221.205V220.99L351.831 220.882L352.153 220.239L352.367 219.38L352.797 217.126L353.119 216.16L353.226 215.301L353.119 213.906L353.011 213.047L352.904 214.335L352.582 215.73H350.65L349.684 215.945L348.933 216.16L348.289 216.589L347.859 217.233Z"/>
</mask>
<path fill-rule="evenodd" clip-rule="evenodd" d="M347.859 217.233L347.538 218.199L347.43 218.736L347.323 220.131V220.346L347.001 221.097L346.786 221.419L345.713 222.493L344.639 223.137L343.888 223.459H343.244H343.137L343.03 223.351H342.922L342.708 223.029L342.6 222.814L342.493 222.6V222.278V220.453L342.385 220.024L342.278 219.916L342.064 219.809L341.849 219.702L340.346 219.058H340.132L339.809 219.165L339.702 219.273L339.38 219.702L338.736 221.097L338.522 221.419L337.985 222.063L337.126 222.814L336.804 223.029L336.268 223.137L335.946 223.029H335.731L335.624 222.922L335.409 222.707L335.302 222.6L334.658 220.561L334.443 219.595L334.336 219.273V219.165L334.228 218.95L333.907 218.736H333.692H333.37H332.833L332.082 218.843L331.438 219.273L330.901 219.809L330.579 220.131L329.613 222.6L329.398 223.566L328.969 229.04L328.433 230.221L325.213 233.87L324.139 234.729L323.925 234.944L323.71 235.266L323.603 235.373V235.481V235.91V236.125L323.71 236.232L324.032 236.768L326.715 237.949L327.681 238.379V238.486V238.808L327.574 239.023L327.359 239.345L326.715 240.203L323.388 243.101L322.637 243.638L322.1 243.853L321.778 243.96H321.563H321.027L320.49 243.746L319.631 243.209L317.592 241.384L317.163 241.169L316.948 241.062H316.733H316.626L316.412 241.169L316.197 241.277V241.706L316.09 243.316V243.638L315.875 244.282L315.66 244.39L315.553 244.497H315.338H315.124L314.587 244.39L313.836 243.96L309.972 241.277L309.113 240.633L308.684 240.311L308.362 240.096L308.147 239.989L307.933 239.881H307.718H307.61L307.503 239.989L307.396 240.096L307.288 240.203L307.074 240.418V240.955V241.277V245.57L307.288 247.61L307.074 248.898L306.967 249.327L306.859 249.649L306.537 250.078L306.001 250.508L305.464 250.615H305.357H304.82H304.283L304.069 250.508L302.673 249.864L301.6 249.22L301.171 249.113L300.956 249.22H300.849L300.741 249.434L300.634 249.542V249.757L300.527 250.937L300.419 251.474L300.205 251.689L299.883 252.011L299.561 252.118H299.453L298.917 252.225H298.595L296.555 251.796H295.697H295.482L295.053 252.011L294.731 252.225L294.624 252.547V252.762V253.299L294.731 253.621L295.16 254.372L295.268 254.587L295.697 255.016L295.804 255.123L298.487 256.519L299.239 257.163L299.561 257.485L299.775 258.236V258.558L299.668 259.202L299.883 266.931L314.48 267.36L315.553 264.784L316.197 263.925L316.412 263.818L316.733 263.603L316.948 263.496H317.163H317.27H317.7L317.807 263.603L318.344 263.925L318.773 264.462L319.417 265.535L320.49 267.575L323.817 273.371L324.247 273.907L324.569 274.23L324.998 274.337H325.32L325.749 274.23L326.393 273.907L330.794 269.721L331.652 268.97L331.975 268.863L332.189 268.755H332.296H332.511L332.618 268.863L332.726 268.97L332.941 269.292L333.048 269.721V273.8L333.155 274.659L333.262 275.088L333.37 275.303H333.692L334.336 275.196H334.443L334.872 274.981L335.087 274.766L335.302 274.659L335.409 274.23L335.624 273.371L336.053 272.19L336.375 271.653L336.804 271.117L336.912 270.902L337.341 270.687L337.878 270.473H338.092H338.307H338.629L338.844 270.58L339.702 270.902L340.024 271.117L341.205 272.19L343.351 274.659L343.674 273.8L345.176 270.687L346.035 269.614L346.893 268.755L347.752 268.111L348.718 267.682L349.684 267.467L350.757 267.575L351.938 267.789L353.119 268.219L354.299 268.863L359.451 272.512L361.061 273.907L361.276 273.264L362.242 271.224L362.778 270.365L363.422 269.721L363.744 269.507L364.388 269.077L364.71 268.97L365.461 268.755L366.642 268.648L367.501 268.755L368.789 269.185L370.613 270.043L373.082 271.653L373.619 271.868L374.37 264.354L376.731 263.818L375.229 256.733L375.121 254.694L375.229 254.157L375.443 253.621L375.658 253.406L376.087 252.977L376.302 252.762L377.59 252.225L378.126 251.903L378.663 251.474L378.985 250.937L379.092 250.723L379.2 250.508V250.078V249.864L379.092 249.757L378.985 249.542L378.663 249.22L378.448 249.113L378.019 248.791L376.946 248.468L374.37 248.146L374.048 248.039L373.833 247.932L373.297 247.502L372.975 247.18L372.545 246.859H372.438H372.223L372.116 246.966L371.901 247.073L371.257 247.61L370.291 248.146L370.077 248.254L369.003 248.468H368.467H368.252L367.823 248.254L366.75 247.717L365.891 246.966L365.14 246.107L365.032 245.892L364.925 245.785V245.463L364.818 243.746L365.032 242.994L365.354 242.35V241.921V241.706V241.492L365.247 241.169L365.032 240.847L364.925 240.74L364.71 240.526L364.174 240.311H362.563L362.134 240.203L361.92 240.096L361.812 239.989H361.597L361.49 239.774L361.383 239.559L361.276 239.345V237.413L361.061 236.554L360.954 236.232L360.739 235.802L360.524 235.588L360.31 235.481H360.095L359.773 235.373L356.017 235.266L355.372 235.051L355.051 234.729L354.836 234.3L354.406 233.119L354.299 232.69L354.192 231.938L354.299 231.187L354.406 230.436L354.943 229.362L355.587 227.43L355.802 226.249L355.909 225.82L355.802 225.069L355.587 224.639L355.158 224.103L354.836 223.673L354.299 223.351L353.87 223.244L353.44 223.137L353.011 223.029L352.367 222.6L352.045 222.278L351.723 221.634V221.205V220.99L351.831 220.882L352.153 220.239L352.367 219.38L352.797 217.126L353.119 216.16L353.226 215.301L353.119 213.906L353.011 213.047L352.904 214.335L352.582 215.73H350.65L349.684 215.945L348.933 216.16L348.289 216.589L347.859 217.233Z" fill="#37465A" stroke="#0B1D36" stroke-width="2" mask="url(#path-9-inside-6_412_246)"/>
<mask id="path-10-inside-7_412_246" fill="white">
<path fill-rule="evenodd" clip-rule="evenodd" d="M428.143 218.414L427.928 217.341L427.069 215.623L426.747 215.086L425.889 214.12L424.386 212.832L419.556 206.929L416.766 204.245L415.048 203.172L413.975 202.742L413.76 202.528L413.653 202.421L413.438 202.206L413.331 201.884L413.224 201.347V200.595L413.653 198.771V198.234L409.467 201.132L409.789 209.29L411.184 209.612L411.935 213.906L410.648 214.872L408.287 213.906L406.676 215.516L401.847 212.725V213.047V217.877L401.739 218.306L401.525 218.521H401.417L400.988 218.414L399.7 217.77L398.627 217.555L398.305 217.447H398.09L397.768 217.555L397.232 217.662L397.017 217.77L396.802 217.877L396.48 218.306L396.373 218.628L396.158 219.487V219.594V219.809L396.266 219.916L397.339 221.204L397.768 221.848L397.875 222.277L397.983 222.492V222.707L397.875 223.029L397.661 223.351L397.553 223.566L397.124 223.78C397.124 223.888 397.017 223.888 396.909 223.888L395.085 224.639L394.548 224.961L394.334 225.39L394.226 225.82L394.119 226.356L393.905 227.108L393.153 228.503L393.046 228.61L392.938 229.254L393.046 230.113L393.153 230.435L393.26 230.757L393.475 231.079L394.119 231.616L394.548 231.831L395.514 232.152L396.695 232.367H399.378L400.881 232.152L406.676 230.006L406.891 229.898H407.106L407.75 230.006L408.93 230.542L409.467 230.864L409.574 231.079L409.896 231.616V231.831V232.152L409.789 232.367L408.179 235.158L407.964 235.587V235.802L407.857 236.338V236.446L407.964 237.519L408.072 237.949L408.179 238.056L408.501 238.271L408.823 238.485L410.003 238.593H411.506L412.043 238.7L412.365 238.915L412.472 239.022L412.901 239.666L413.116 239.988V240.31L413.009 240.417V240.632L412.901 240.739L412.687 240.847L412.365 241.168L410.003 242.349L409.574 242.779L409.252 243.101L409.038 243.423V243.637V243.852L409.145 243.959V244.174L409.359 244.603L409.467 244.711L409.896 245.032L410.433 245.355L410.755 245.462L411.399 245.569H412.043L412.687 245.462L413.009 245.355L413.653 245.032L414.189 244.496L414.726 243.423L415.477 241.383L415.584 241.168L415.692 240.954L415.906 240.739H416.014H416.228H416.443L416.657 240.846L416.872 241.383L418.375 241.597L419.77 245.032L421.058 245.677L422.239 244.71L417.624 237.519L418.268 236.553L419.555 238.378L421.058 236.875L424.493 236.982L424.171 233.547L420.199 234.084L415.048 235.372C413.937 234.631 415.575 234.403 415.752 233.853C416.537 231.422 425.686 230.304 427.498 230.112V229.683L427.176 228.717L427.069 228.18L427.176 227L427.283 226.248L428.035 223.887L428.142 223.136L428.356 220.667L428.142 218.413L428.143 218.414Z"/>
</mask>
<path fill-rule="evenodd" clip-rule="evenodd" d="M428.143 218.414L427.928 217.341L427.069 215.623L426.747 215.086L425.889 214.12L424.386 212.832L419.556 206.929L416.766 204.245L415.048 203.172L413.975 202.742L413.76 202.528L413.653 202.421L413.438 202.206L413.331 201.884L413.224 201.347V200.595L413.653 198.771V198.234L409.467 201.132L409.789 209.29L411.184 209.612L411.935 213.906L410.648 214.872L408.287 213.906L406.676 215.516L401.847 212.725V213.047V217.877L401.739 218.306L401.525 218.521H401.417L400.988 218.414L399.7 217.77L398.627 217.555L398.305 217.447H398.09L397.768 217.555L397.232 217.662L397.017 217.77L396.802 217.877L396.48 218.306L396.373 218.628L396.158 219.487V219.594V219.809L396.266 219.916L397.339 221.204L397.768 221.848L397.875 222.277L397.983 222.492V222.707L397.875 223.029L397.661 223.351L397.553 223.566L397.124 223.78C397.124 223.888 397.017 223.888 396.909 223.888L395.085 224.639L394.548 224.961L394.334 225.39L394.226 225.82L394.119 226.356L393.905 227.108L393.153 228.503L393.046 228.61L392.938 229.254L393.046 230.113L393.153 230.435L393.26 230.757L393.475 231.079L394.119 231.616L394.548 231.831L395.514 232.152L396.695 232.367H399.378L400.881 232.152L406.676 230.006L406.891 229.898H407.106L407.75 230.006L408.93 230.542L409.467 230.864L409.574 231.079L409.896 231.616V231.831V232.152L409.789 232.367L408.179 235.158L407.964 235.587V235.802L407.857 236.338V236.446L407.964 237.519L408.072 237.949L408.179 238.056L408.501 238.271L408.823 238.485L410.003 238.593H411.506L412.043 238.7L412.365 238.915L412.472 239.022L412.901 239.666L413.116 239.988V240.31L413.009 240.417V240.632L412.901 240.739L412.687 240.847L412.365 241.168L410.003 242.349L409.574 242.779L409.252 243.101L409.038 243.423V243.637V243.852L409.145 243.959V244.174L409.359 244.603L409.467 244.711L409.896 245.032L410.433 245.355L410.755 245.462L411.399 245.569H412.043L412.687 245.462L413.009 245.355L413.653 245.032L414.189 244.496L414.726 243.423L415.477 241.383L415.584 241.168L415.692 240.954L415.906 240.739H416.014H416.228H416.443L416.657 240.846L416.872 241.383L418.375 241.597L419.77 245.032L421.058 245.677L422.239 244.71L417.624 237.519L418.268 236.553L419.555 238.378L421.058 236.875L424.493 236.982L424.171 233.547L420.199 234.084L415.048 235.372C413.937 234.631 415.575 234.403 415.752 233.853C416.537 231.422 425.686 230.304 427.498 230.112V229.683L427.176 228.717L427.069 228.18L427.176 227L427.283 226.248L428.035 223.887L428.142 223.136L428.356 220.667L428.142 218.413L428.143 218.414Z" fill="#37465A" stroke="#0B1D36" stroke-width="2" mask="url(#path-10-inside-7_412_246)"/>
<path d="M505.356 202.759L528.621 212.007L525.712 213.344L525.42 213.478V213.798V215.906L521.654 218.654L521.264 218.939L521.535 219.338L523.02 221.526L518.319 221.349L518.011 221.337L517.862 221.607L515.699 225.521L513.646 226.26L512.002 222.198L511.718 221.498L511.185 222.032L508.738 224.479L500.031 220.85L499.861 220.779L499.685 220.836L480.887 226.925L478.14 226.735L474.945 221.066L474.771 220.759L474.423 220.819L472.178 221.21L468.922 218.587L481.89 205.514L482.384 205.267L484.016 205.063L484.07 205.056L484.122 205.038L485.625 204.501L485.664 204.488L485.7 204.468L486.608 203.963L486.954 203.876L488.165 203.674L493.153 203.993L493.169 203.994H493.184H493.416L494.136 204.264L494.69 204.634L495.621 205.565L495.656 205.6L495.698 205.627L496.02 205.842L496.058 205.867L496.1 205.885L496.851 206.207L496.871 206.216L496.89 206.222L497.212 206.33L497.289 206.355H497.37H498.658H499.302H499.377L499.449 206.333L500.845 205.904L500.864 205.898L500.883 205.89L501.42 205.675L501.468 205.656L501.512 205.627L503.122 204.554L503.154 204.532L503.182 204.506L504.47 203.325L504.508 203.29L504.539 203.248L504.849 202.813H504.991H505.098H505.168L505.235 202.794L505.356 202.759Z" fill="#37465A" stroke="#0B1D36"/>
<mask id="path-12-inside-8_412_246" fill="white">
<path fill-rule="evenodd" clip-rule="evenodd" d="M401.846 213.047V212.725L390.792 206.392L393.582 203.709L394.548 196.195L391.006 196.839L387.464 190.398L385.103 191.901L383.493 191.15L359.451 193.726L352.045 193.082V193.297L352.26 195.873V196.839L352.045 197.054L351.938 197.161V197.268L351.401 197.376L350.113 198.234H350.006L349.791 198.449L349.577 198.771L349.469 199.308L349.255 200.596L349.362 203.494L350.328 206.929L350.757 208.109L351.187 208.646L351.831 209.397L352.153 209.827L352.797 211.544L352.904 212.295L353.011 213.047L353.119 213.906L353.226 215.301L353.119 216.16L352.797 217.126L352.367 219.38L352.153 220.239L351.831 220.882L351.723 220.99V221.205V221.634L352.045 222.278L352.367 222.6L353.011 223.029L353.44 223.137L353.87 223.244L354.299 223.351L354.836 223.673L355.158 224.103L355.587 224.639L355.802 225.069L355.909 225.82L355.802 226.249L355.587 227.43L354.943 229.362L354.406 230.436L354.299 231.187L354.192 231.938L354.406 233.119L354.836 234.3L355.051 234.729L355.372 235.051L356.017 235.266L359.773 235.373L360.095 235.481H360.31L360.524 235.588L360.739 235.802L360.954 236.232L361.061 236.554L361.276 237.413V239.345L361.383 239.559L361.49 239.774L361.597 239.989H361.812L361.92 240.096L362.134 240.203L362.563 240.311H364.174L364.71 240.526L364.925 240.74L365.032 240.847L365.247 241.169L365.354 241.492V241.706V241.921V242.35L365.032 242.994L364.818 243.746L364.925 245.463V245.785L365.032 245.892L365.14 246.107L365.891 246.966L366.75 247.717L367.823 248.254L368.252 248.468H368.467H369.003L370.077 248.254L370.291 248.146L371.257 247.61L371.901 247.073L372.116 246.966L372.223 246.859H372.438H372.545L372.975 247.18L373.297 247.502L373.833 247.932L374.048 248.039L374.37 248.146L376.946 248.468L378.019 248.791L378.448 249.113L378.663 249.22L378.985 249.542L379.092 249.757L379.2 249.864V250.079V250.508L379.092 250.723L378.985 250.937L378.663 251.474L378.126 251.903L377.59 252.225L376.302 252.762L376.087 252.977L375.658 253.406L375.443 253.621L375.229 254.157L375.121 254.694L375.229 256.733L376.302 261.778L383.064 258.021L408.072 260.705L410.755 259.846L410.433 258.88L413.438 255.767L413.331 246.966L415.263 246.214L417.409 247.717L417.517 244.497L416.443 241.277L416.873 241.384L416.658 240.847L416.443 240.74H416.229H416.014H415.907L415.692 240.955L415.585 241.169L415.477 241.384L414.726 243.424L414.189 244.497L413.653 245.033L413.009 245.356L412.687 245.463L412.043 245.57H411.399L410.755 245.463L410.433 245.356L409.896 245.033L409.467 244.712L409.359 244.604L409.145 244.175V243.96L409.038 243.853V243.638V243.424L409.252 243.101L409.574 242.78L410.004 242.35L412.365 241.169L412.687 240.847L412.901 240.74L413.009 240.633V240.418L413.116 240.311V239.989L412.901 239.667L412.365 238.915L412.043 238.7L411.506 238.593H410.004L408.823 238.486L408.501 238.271L408.179 238.057L408.072 237.949L407.964 237.52L407.857 236.447V236.339L407.964 235.588L408.179 235.159L409.789 232.368L409.896 232.153V231.831V231.616L409.574 231.08L409.467 230.865L408.93 230.543L407.75 230.006L407.106 229.899H406.891L406.676 230.006L400.881 232.153L399.378 232.368H396.695L395.514 232.153L394.548 231.831L394.119 231.616L393.475 231.08L393.26 230.758L393.153 230.436L393.045 230.114L392.938 229.255L393.045 228.611L393.153 228.504L393.904 227.108L394.119 226.357L394.226 225.82L394.333 225.391L394.548 224.961L395.085 224.639L397.124 223.781L397.553 223.566L397.661 223.351L397.875 223.029L397.983 222.707V222.493L397.875 222.278L397.768 221.849L397.339 221.205L396.265 219.916L396.158 219.809V219.595V219.487L396.373 218.628L396.48 218.307L396.802 217.877L397.017 217.77L397.231 217.662L397.768 217.555L398.09 217.448H398.304L398.841 217.555L399.7 217.77L400.988 218.414L401.417 218.521H401.525L401.739 218.307L401.846 217.877V213.047Z"/>
</mask>
<path fill-rule="evenodd" clip-rule="evenodd" d="M401.846 213.047V212.725L390.792 206.392L393.582 203.709L394.548 196.195L391.006 196.839L387.464 190.398L385.103 191.901L383.493 191.15L359.451 193.726L352.045 193.082V193.297L352.26 195.873V196.839L352.045 197.054L351.938 197.161V197.268L351.401 197.376L350.113 198.234H350.006L349.791 198.449L349.577 198.771L349.469 199.308L349.255 200.596L349.362 203.494L350.328 206.929L350.757 208.109L351.187 208.646L351.831 209.397L352.153 209.827L352.797 211.544L352.904 212.295L353.011 213.047L353.119 213.906L353.226 215.301L353.119 216.16L352.797 217.126L352.367 219.38L352.153 220.239L351.831 220.882L351.723 220.99V221.205V221.634L352.045 222.278L352.367 222.6L353.011 223.029L353.44 223.137L353.87 223.244L354.299 223.351L354.836 223.673L355.158 224.103L355.587 224.639L355.802 225.069L355.909 225.82L355.802 226.249L355.587 227.43L354.943 229.362L354.406 230.436L354.299 231.187L354.192 231.938L354.406 233.119L354.836 234.3L355.051 234.729L355.372 235.051L356.017 235.266L359.773 235.373L360.095 235.481H360.31L360.524 235.588L360.739 235.802L360.954 236.232L361.061 236.554L361.276 237.413V239.345L361.383 239.559L361.49 239.774L361.597 239.989H361.812L361.92 240.096L362.134 240.203L362.563 240.311H364.174L364.71 240.526L364.925 240.74L365.032 240.847L365.247 241.169L365.354 241.492V241.706V241.921V242.35L365.032 242.994L364.818 243.746L364.925 245.463V245.785L365.032 245.892L365.14 246.107L365.891 246.966L366.75 247.717L367.823 248.254L368.252 248.468H368.467H369.003L370.077 248.254L370.291 248.146L371.257 247.61L371.901 247.073L372.116 246.966L372.223 246.859H372.438H372.545L372.975 247.18L373.297 247.502L373.833 247.932L374.048 248.039L374.37 248.146L376.946 248.468L378.019 248.791L378.448 249.113L378.663 249.22L378.985 249.542L379.092 249.757L379.2 249.864V250.079V250.508L379.092 250.723L378.985 250.937L378.663 251.474L378.126 251.903L377.59 252.225L376.302 252.762L376.087 252.977L375.658 253.406L375.443 253.621L375.229 254.157L375.121 254.694L375.229 256.733L376.302 261.778L383.064 258.021L408.072 260.705L410.755 259.846L410.433 258.88L413.438 255.767L413.331 246.966L415.263 246.214L417.409 247.717L417.517 244.497L416.443 241.277L416.873 241.384L416.658 240.847L416.443 240.74H416.229H416.014H415.907L415.692 240.955L415.585 241.169L415.477 241.384L414.726 243.424L414.189 244.497L413.653 245.033L413.009 245.356L412.687 245.463L412.043 245.57H411.399L410.755 245.463L410.433 245.356L409.896 245.033L409.467 244.712L409.359 244.604L409.145 244.175V243.96L409.038 243.853V243.638V243.424L409.252 243.101L409.574 242.78L410.004 242.35L412.365 241.169L412.687 240.847L412.901 240.74L413.009 240.633V240.418L413.116 240.311V239.989L412.901 239.667L412.365 238.915L412.043 238.7L411.506 238.593H410.004L408.823 238.486L408.501 238.271L408.179 238.057L408.072 237.949L407.964 237.52L407.857 236.447V236.339L407.964 235.588L408.179 235.159L409.789 232.368L409.896 232.153V231.831V231.616L409.574 231.08L409.467 230.865L408.93 230.543L407.75 230.006L407.106 229.899H406.891L406.676 230.006L400.881 232.153L399.378 232.368H396.695L395.514 232.153L394.548 231.831L394.119 231.616L393.475 231.08L393.26 230.758L393.153 230.436L393.045 230.114L392.938 229.255L393.045 228.611L393.153 228.504L393.904 227.108L394.119 226.357L394.226 225.82L394.333 225.391L394.548 224.961L395.085 224.639L397.124 223.781L397.553 223.566L397.661 223.351L397.875 223.029L397.983 222.707V222.493L397.875 222.278L397.768 221.849L397.339 221.205L396.265 219.916L396.158 219.809V219.595V219.487L396.373 218.628L396.48 218.307L396.802 217.877L397.017 217.77L397.231 217.662L397.768 217.555L398.09 217.448H398.304L398.841 217.555L399.7 217.77L400.988 218.414L401.417 218.521H401.525L401.739 218.307L401.846 217.877V213.047Z" fill="#37465A" stroke="#0B1D36" stroke-width="2" mask="url(#path-12-inside-8_412_246)"/>
<path d="M469.54 176.315L469.523 176.28L475.342 173.42L476.46 173.579L479.164 177.987L479.268 182.575L479.278 182.98L479.677 183.055L489.337 184.859L492.791 187.267L492.978 187.397L493.198 187.342L494.057 187.127L494.485 187.02L494.432 186.582L494.158 184.295L494.889 184.034L496.506 186.888L496.922 187.622L497.366 186.905L498.468 185.125L500.497 186.713L501.316 187.355L501.305 186.314L501.206 176.892L504.897 178.513L505.42 178.743L505.578 178.194L507.189 172.612L507.227 172.478L507.191 172.344L506.367 169.252L506.887 167.256L507.466 167.211L508.253 172.229L508.381 173.042L509.044 172.554L510.705 171.33L514.727 176.137L516.096 182.032L516.218 182.561L516.735 182.395L519.157 181.62L520.878 183.054L521.199 183.322L521.519 183.053L523.994 180.974L524.866 181.243L526.372 186.764L525.968 188.686L525.948 188.778L525.964 188.871L526.064 189.474V189.723L525.971 190.466L525.374 191.66L525.1 192.118L523.996 193.122L523.317 193.606L522.879 193.781L522.411 193.875L519.359 194.191L512.743 193.871L512.73 193.87H512.718H512.397H512.342L512.288 193.882L511.322 194.097L511.262 194.11L511.207 194.138L510.134 194.674L510.101 194.691L510.07 194.712L508.997 195.463L508.984 195.472L508.972 195.482L508.435 195.912L508.378 195.958L508.336 196.018L504.26 201.918L503.756 202.624L502.535 203.743L501 204.766L500.531 204.954L499.227 205.355H498.014H497.451L497.226 205.28L496.536 204.984L496.294 204.823L495.363 203.892L495.328 203.857L495.286 203.829L494.642 203.4L494.594 203.368L494.541 203.348L493.682 203.026L493.597 202.994H493.506H493.2L488.172 202.673L488.114 202.669L488.058 202.679L486.77 202.893L486.75 202.897L486.731 202.901L486.302 203.009L486.248 203.022L486.199 203.047L484.937 203.678L483.836 204.078L482.175 204.286L482.09 204.296L482.07 204.307L482.067 204.306L477.275 202.776L476.96 201.706L477.743 201.51L478.463 201.33L478.025 200.73L473.088 193.968L473.036 193.896L472.962 193.847L471.9 193.139L472.004 189.016L472.004 189.016V189.003V188.681V188.595L471.975 188.513L471.438 187.01L471.428 186.982L471.414 186.955L470.77 185.667L470.76 185.647L470.748 185.628L468.506 181.997L468.112 181.208L468.032 180.891V180.458L468.236 179.237L468.933 176.749L469.54 176.315Z" fill="#37465A" stroke="#0B1D36"/>
<mask id="path-14-inside-9_412_246" fill="white">
<path fill-rule="evenodd" clip-rule="evenodd" d="M407.427 316.306L401.846 312.227L397.124 303.855V292.906L399.914 292.048L400.666 290.438L396.909 284.212L388.859 285.607L383.6 284.319V283.998L383.278 284.105L383.171 284.212L382.419 284.964L380.917 287.218L380.81 287.432L380.917 287.862V287.969L381.239 288.398L382.205 289.472L382.742 289.901L382.956 290.008L383.278 290.545L383.493 291.297L383.708 292.155V292.692V293.121L383.493 293.336L383.385 293.551L383.278 293.658L382.205 293.98L381.776 294.087L380.702 294.195L379.736 293.98L378.126 293.229L377.482 293.014L376.946 292.906H376.731H376.517L376.302 293.121H376.087L375.765 293.443L375.55 293.98L375.228 294.731L375.014 296.019L374.906 297.522L375.121 299.561V300.098L375.014 300.527V300.742L374.799 301.064L374.048 301.493L373.511 301.708L372.223 302.03L369.755 302.138L368.574 302.352L368.252 302.459L367.93 302.674L367.823 302.782L367.715 302.996L367.608 303.211V303.425V304.391L368.145 307.075V307.826L368.037 308.256L367.823 308.578L366.535 310.188L366.32 310.617L366.105 311.261L365.998 311.69L365.891 312.979L365.783 313.086V313.193L365.676 313.301H365.569H365.354H365.032H364.603L362.778 312.979H362.456H362.241L362.134 313.086L361.812 313.301L361.597 313.516L361.49 313.73L360.524 315.34L360.417 315.662L360.309 316.091V317.165L360.524 319.097L360.417 319.848V320.063L360.202 320.6L359.773 321.244L358.914 322.424L358.27 323.068L357.733 323.39L356.982 323.712H356.768L356.231 323.82L352.797 323.605L352.045 323.712L351.187 323.82L349.576 324.356L348.825 324.786L348.718 324.893L348.61 325.001L347.108 327.684L347.001 327.899L348.825 328.435L350.435 331.763L346.357 338.203L345.927 349.903L347.752 352.372L345.927 354.948L346.679 356.343L355.587 357.309L361.597 355.699L365.032 356.773L367.393 359.456L370.935 362.998L379.2 359.671L381.668 361.71L386.713 361.281L389.933 362.247L391.435 359.563L391.113 348.829L398.627 337.344L400.988 330.26L405.173 328.972L408.394 318.453L407.427 316.306Z"/>
</mask>
<path fill-rule="evenodd" clip-rule="evenodd" d="M407.427 316.306L401.846 312.227L397.124 303.855V292.906L399.914 292.048L400.666 290.438L396.909 284.212L388.859 285.607L383.6 284.319V283.998L383.278 284.105L383.171 284.212L382.419 284.964L380.917 287.218L380.81 287.432L380.917 287.862V287.969L381.239 288.398L382.205 289.472L382.742 289.901L382.956 290.008L383.278 290.545L383.493 291.297L383.708 292.155V292.692V293.121L383.493 293.336L383.385 293.551L383.278 293.658L382.205 293.98L381.776 294.087L380.702 294.195L379.736 293.98L378.126 293.229L377.482 293.014L376.946 292.906H376.731H376.517L376.302 293.121H376.087L375.765 293.443L375.55 293.98L375.228 294.731L375.014 296.019L374.906 297.522L375.121 299.561V300.098L375.014 300.527V300.742L374.799 301.064L374.048 301.493L373.511 301.708L372.223 302.03L369.755 302.138L368.574 302.352L368.252 302.459L367.93 302.674L367.823 302.782L367.715 302.996L367.608 303.211V303.425V304.391L368.145 307.075V307.826L368.037 308.256L367.823 308.578L366.535 310.188L366.32 310.617L366.105 311.261L365.998 311.69L365.891 312.979L365.783 313.086V313.193L365.676 313.301H365.569H365.354H365.032H364.603L362.778 312.979H362.456H362.241L362.134 313.086L361.812 313.301L361.597 313.516L361.49 313.73L360.524 315.34L360.417 315.662L360.309 316.091V317.165L360.524 319.097L360.417 319.848V320.063L360.202 320.6L359.773 321.244L358.914 322.424L358.27 323.068L357.733 323.39L356.982 323.712H356.768L356.231 323.82L352.797 323.605L352.045 323.712L351.187 323.82L349.576 324.356L348.825 324.786L348.718 324.893L348.61 325.001L347.108 327.684L347.001 327.899L348.825 328.435L350.435 331.763L346.357 338.203L345.927 349.903L347.752 352.372L345.927 354.948L346.679 356.343L355.587 357.309L361.597 355.699L365.032 356.773L367.393 359.456L370.935 362.998L379.2 359.671L381.668 361.71L386.713 361.281L389.933 362.247L391.435 359.563L391.113 348.829L398.627 337.344L400.988 330.26L405.173 328.972L408.394 318.453L407.427 316.306Z" fill="#37465A" stroke="#0B1D36" stroke-width="2" mask="url(#path-14-inside-9_412_246)"/>
<path d="M136.017 166.426H135.68L133.815 168.556L133.883 168.668L133.682 168.898L136.547 173.641L136.725 173.936L136.513 174.208L134.092 177.307L134.063 177.435L134.039 177.546L133.969 177.635L133.958 177.65L133.193 181.093L145.777 190.765L163.726 189.49L163.856 189.481L163.974 189.537L170.985 192.836L171.37 192.514L171.456 192.443L171.564 192.415L176.285 191.183L176.589 191.104L176.792 191.344L186.507 202.815L186.638 202.97L186.624 203.172L186.282 208.189L188.922 213.597L198.045 218.361L200.671 210.472L192.166 198.019L184.94 190.837L172.157 188.058L171.894 190.167L171.789 191.007L171.104 190.51C170.585 190.132 170.076 189.742 169.576 189.353C168.917 188.841 168.298 188.278 167.697 187.732C167.625 187.666 167.554 187.601 167.483 187.537C166.808 186.924 166.146 186.337 165.431 185.828L165.431 185.828C164.443 185.124 163.331 184.596 162.182 184.051C162.146 184.034 162.11 184.017 162.074 184C161.717 183.83 161.337 183.709 160.92 183.575C160.871 183.56 160.821 183.544 160.771 183.528C160.309 183.379 159.806 183.209 159.337 182.943L159.337 182.943C158.581 182.513 157.886 181.941 157.326 181.266L157.326 181.266C157.038 180.918 156.823 180.533 156.639 180.164C156.551 179.987 156.477 179.829 156.406 179.676C156.315 179.483 156.229 179.299 156.124 179.097C155.934 178.733 155.775 178.331 155.629 177.959C155.572 177.814 155.517 177.674 155.462 177.543C155.257 177.049 155.044 176.626 154.74 176.289C154.501 176.025 154.177 175.833 153.772 175.643C153.654 175.588 153.521 175.53 153.381 175.469C153.084 175.339 152.758 175.197 152.474 175.038L152.474 175.038C152.184 174.875 151.895 174.713 151.606 174.551C150.406 173.877 149.208 173.205 148.004 172.543L148.004 172.543C147.824 172.443 147.628 172.325 147.445 172.213C147.333 172.145 147.225 172.08 147.128 172.023C146.85 171.861 146.592 171.729 146.326 171.645L146.326 171.645C145.693 171.445 145.007 171.399 144.263 171.355C143.879 171.333 143.495 171.362 143.074 171.393C142.971 171.401 142.865 171.409 142.757 171.416C142.228 171.452 141.647 171.473 141.064 171.345L141.064 171.345C140.196 171.154 139.363 170.691 138.738 170.065L136.017 166.426ZM136.017 166.426C136.134 166.598 136.253 166.776 136.374 166.956C137.106 168.044 137.905 169.233 138.737 170.065L136.017 166.426ZM136.281 166.426H136.281V165.926C136.453 166.177 136.628 166.435 136.803 166.697L136.281 166.426ZM147.725 171.798C147.323 171.554 146.922 171.309 146.477 171.168L153.547 174.995C153.264 174.872 152.981 174.749 152.718 174.601C152.429 174.439 152.14 174.277 151.851 174.115C150.651 173.442 149.451 172.768 148.245 172.105C148.07 172.008 147.897 171.903 147.725 171.798ZM159.584 182.508C158.878 182.107 158.23 181.573 157.711 180.947L162.289 183.548C161.899 183.363 161.486 183.231 161.074 183.1C160.561 182.936 160.049 182.772 159.584 182.508Z" fill="#37465A" stroke="#0B1D36"/>
<rect x="374.5" y="303.5" width="21" height="21" rx="10.5" stroke="white" stroke-opacity="0.45"/>
<circle cx="385" cy="314" r="7" fill="#D9D9D9"/>
<rect x="363.5" y="333.5" width="21" height="21" rx="10.5" stroke="white" stroke-opacity="0.45"/>
<circle cx="374" cy="344" r="7" fill="#D9D9D9"/>
<rect x="311.5" y="275.5" width="21" height="21" rx="10.5" stroke="white" stroke-opacity="0.45"/>
<circle cx="322" cy="286" r="7" fill="#D9D9D9"/>
<rect x="269.5" y="148.5" width="21" height="21" rx="10.5" stroke="white" stroke-opacity="0.45"/>
<circle cx="280" cy="159" r="7" fill="#D9D9D9"/>
<rect x="216.5" y="108.5" width="21" height="21" rx="10.5" stroke="white" stroke-opacity="0.45"/>
<circle cx="227" cy="119" r="7" fill="#D9D9D9"/>
<rect x="148.5" y="101.5" width="21" height="21" rx="10.5" stroke="white" stroke-opacity="0.45"/>
<circle cx="159" cy="112" r="7" fill="#D9D9D9"/>
<rect x="112.5" y="39.5" width="21" height="21" rx="10.5" stroke="white" stroke-opacity="0.45"/>
<circle cx="123" cy="50" r="7" fill="#D9D9D9"/>
<rect x="97.5" y="83.5" width="21" height="21" rx="10.5" stroke="white" stroke-opacity="0.45"/>
<circle cx="108" cy="94" r="7" fill="#D9D9D9"/>
<rect x="38.5" y="34.5" width="21" height="21" rx="10.5" stroke="white" stroke-opacity="0.45"/>
<circle cx="49" cy="45" r="7" fill="#D9D9D9"/>
<rect x="226.5" y="226.5" width="21" height="21" rx="10.5" stroke="white" stroke-opacity="0.45"/>
<circle cx="237" cy="237" r="7" fill="#D9D9D9"/>
<rect x="336.5" y="238.5" width="21" height="21" rx="10.5" stroke="white" stroke-opacity="0.45"/>
<circle cx="347" cy="249" r="7" fill="#D9D9D9"/>
<rect x="368.5" y="208.5" width="21" height="21" rx="10.5" stroke="white" stroke-opacity="0.45"/>
<circle cx="379" cy="219" r="7" fill="#D9D9D9"/>
<rect x="407.5" y="211.5" width="21" height="21" rx="10.5" stroke="white" stroke-opacity="0.45"/>
<circle cx="418" cy="222" r="7" fill="#D9D9D9"/>
<rect x="435.5" y="170.5" width="21" height="21" rx="10.5" stroke="#906DCA"/>
<circle cx="446" cy="181" r="7" fill="#906DCA"/>
<rect x="479.5" y="183.5" width="21" height="21" rx="10.5" stroke="white" stroke-opacity="0.45"/>
<circle cx="490" cy="194" r="7" fill="#D9D9D9"/>
<rect x="506.5" y="206.5" width="21" height="21" rx="10.5" stroke="white" stroke-opacity="0.45"/>
<circle cx="517" cy="217" r="7" fill="#D9D9D9"/>
</svg>
