<svg width="442" height="503" viewBox="0 0 442 503" fill="none" xmlns="http://www.w3.org/2000/svg">
<g opacity="0.2" clip-path="url(#clip0_412_492)">
<path fill-rule="evenodd" clip-rule="evenodd" d="M322.496 284.388C325.531 284.892 329.403 287.706 333.708 289.089C337.941 290.443 342.901 290.425 345.63 286.116C346.667 284.478 346.709 282.313 346.078 280.946C345.772 280.266 345.359 279.686 344.882 279.199C343.871 278.169 342.539 277.523 341.173 277.227C340.842 277.158 340.516 277.111 340.181 277.061C339.221 276.923 338.768 276.752 338.623 276.514C338.536 276.241 338.701 275.776 339.208 274.924C339.386 274.632 339.557 274.329 339.716 274.032C340.369 272.75 340.73 271.29 340.606 269.819C340.543 269.124 340.373 268.419 340.064 267.748C339.436 266.372 337.8 265.035 335.914 264.819C330.962 264.251 327.792 268.192 326.108 272.432C324.395 276.743 324.098 281.644 322.493 284.398L322.496 284.388Z" fill="#5C3B92"/>
<path fill-rule="evenodd" clip-rule="evenodd" d="M353.76 102.003C357.34 104.01 361.023 112.512 361.602 117.867C361.97 121.219 358.955 124.732 355.32 124.866C351.655 125.002 345.915 124.212 344.45 123.391C342.509 122.302 340.799 120.756 339.512 118.864C337.224 115.496 336.193 110.19 339.828 109.238C347.801 107.163 350.169 99.703 353.751 102L353.76 102.003Z" fill="#5C3B92"/>
<path fill-rule="evenodd" clip-rule="evenodd" d="M375.365 113.381C371.594 123.997 366.538 121.804 363.424 117.726C362.65 116.71 361.229 111.928 358.931 107.819C357.564 105.367 355.791 103.166 354.988 101.773C354.563 101.05 354.411 100.54 354.7 100.318C356.152 100.628 356.897 99.3001 357.318 99.3632C359.118 99.6058 368.089 99.3849 369.897 99.1507C372.833 98.7597 376.474 99.2362 378.031 104.065C379.173 107.615 376.568 110.01 375.363 113.39L375.365 113.381Z" fill="#5C3B92"/>
<path fill-rule="evenodd" clip-rule="evenodd" d="M368.357 74.4261C377.366 80.0936 385.348 93.091 373.413 98.456C373.058 98.7003 370.955 98.7754 368.284 98.8083C364.464 98.8526 359.477 98.8237 356.767 99.0758C354.977 99.2449 356.053 97.3874 356.105 96.2636C356.199 94.1631 356.564 93.6219 355.697 94.0682C354.174 94.838 352.933 92.9983 353.295 92.8359C361.4 89.229 361.313 81.1816 362.063 77.6001C362.634 74.8387 365.008 72.6006 368.357 74.4261Z" fill="#5C3B92"/>
<path fill-rule="evenodd" clip-rule="evenodd" d="M356.34 90.4382C363.047 84.5704 363.789 70.2678 354.113 67.9049C352.185 67.4381 347.639 67.9964 343.168 70.3214C340.259 71.8375 337.514 74.156 337.494 76.8751C337.471 80.2325 337.378 83.2216 337.249 84.4844C337.121 85.8175 338.391 86.1775 339.603 86.712C341.368 87.4942 343.49 88.2425 345.1 89.4523C349.685 92.8767 349.237 94.1039 352.334 92.0694C353.182 91.5083 354.894 91.7073 356.338 90.4475L356.34 90.4382Z" fill="#5C3B92"/>
<path fill-rule="evenodd" clip-rule="evenodd" d="M335.269 87.2973C332.061 87.7749 328.042 88.8938 326.712 91.811C326.033 93.3056 327.048 96.2522 327.173 97.7929C328.063 109.129 339.032 112.098 346.76 105.467C348.961 103.581 350.514 101.951 350.673 101.135C350.944 99.751 347.996 98.5119 347.989 97.5321C347.669 96.1987 350.687 95.6501 349.292 93.4898C346.793 89.6066 340.199 86.5722 335.276 87.3091L335.269 87.2973Z" fill="#5C3B92"/>
<path fill-rule="evenodd" clip-rule="evenodd" d="M97.0955 134.978C100.675 136.985 104.356 145.497 104.938 150.842C105.305 154.195 102.29 157.708 98.6556 157.842C94.9903 157.978 89.2502 157.188 87.7855 156.367C85.8442 155.278 84.1349 153.732 82.8474 151.84C80.5595 148.472 79.5288 143.166 83.1636 142.214C91.1369 140.138 93.5045 132.679 97.0862 134.976L97.0955 134.978Z" fill="#5C3B92"/>
<path fill-rule="evenodd" clip-rule="evenodd" d="M118.71 146.359C114.938 156.975 109.883 154.783 106.769 150.704C105.994 149.689 104.574 144.907 102.276 140.798C100.909 138.346 99.1359 136.144 98.3328 134.751C97.9083 134.029 97.7558 133.519 98.0446 133.297C99.497 133.606 100.241 132.278 100.663 132.341C102.463 132.584 111.434 132.363 113.244 132.12C116.18 131.729 119.821 132.205 121.378 137.034C122.521 140.584 119.915 142.979 118.71 146.359Z" fill="#5C3B92"/>
<path fill-rule="evenodd" clip-rule="evenodd" d="M111.692 107.402C120.701 113.069 128.684 126.067 116.746 131.441C116.391 131.685 114.288 131.76 111.617 131.793C107.797 131.838 102.81 131.809 100.1 132.061C98.3104 132.23 99.6987 130.546 99.7413 129.42C99.8356 127.319 99.8968 126.607 99.0203 127.051C97.498 127.821 96.2563 125.981 96.6188 125.819C104.723 122.212 104.637 114.164 105.387 110.583C105.957 107.821 108.332 105.583 111.681 107.409L111.692 107.402Z" fill="#5C3B92"/>
<path fill-rule="evenodd" clip-rule="evenodd" d="M99.6851 123.416C106.392 117.549 107.133 103.246 97.4489 100.881C95.5203 100.414 90.9649 100.97 86.5031 103.297C83.5945 104.813 80.8498 107.132 80.829 109.851C80.8067 113.208 80.7137 116.197 80.5846 117.46C80.4567 118.793 81.7261 119.153 82.9387 119.688C84.703 120.47 86.8254 121.218 88.4353 122.428C93.0208 125.852 92.5724 127.08 95.6696 125.045C96.5179 124.484 98.2291 124.683 99.6733 123.423L99.6851 123.416Z" fill="#5C3B92"/>
<path fill-rule="evenodd" clip-rule="evenodd" d="M78.6046 120.273C75.3961 120.751 71.3777 121.87 70.0478 124.787C69.3681 126.281 70.383 129.228 70.5086 130.769C71.4014 142.096 82.3672 145.074 90.0959 138.442C92.296 136.557 93.8492 134.927 94.008 134.111C94.2793 132.727 91.3313 131.488 91.3247 130.508C91.0041 129.174 94.0223 128.626 92.6272 126.466C90.1285 122.582 83.5344 119.548 78.6114 120.285L78.6046 120.273Z" fill="#5C3B92"/>
<path fill-rule="evenodd" clip-rule="evenodd" d="M193.621 302.063C196.317 303.574 199.102 309.999 199.537 314.028C199.816 316.558 197.54 319.211 194.794 319.304C192.026 319.401 187.698 318.81 186.599 318.186C185.135 317.364 183.842 316.2 182.878 314.774C181.146 312.234 180.373 308.234 183.119 307.513C189.13 305.95 190.918 300.321 193.624 302.054L193.621 302.063Z" fill="#5C3B92"/>
<path fill-rule="evenodd" clip-rule="evenodd" d="M209.916 310.641C207.071 318.651 203.259 316.991 200.913 313.917C200.33 313.152 199.254 309.541 197.522 306.442C196.493 304.589 195.153 302.933 194.547 301.882C194.225 301.337 194.11 300.947 194.332 300.787C195.426 301.02 195.983 300.021 196.311 300.059C197.668 300.243 204.431 300.079 205.796 299.896C208.009 299.601 210.755 299.957 211.93 303.606C212.798 306.283 210.828 308.091 209.925 310.643L209.916 310.641Z" fill="#5C3B92"/>
<path fill-rule="evenodd" clip-rule="evenodd" d="M204.629 281.26C211.428 285.537 217.447 295.333 208.445 299.388C208.178 299.566 206.595 299.631 204.576 299.649C201.695 299.686 197.935 299.656 195.887 299.856C194.537 299.983 195.926 298.299 195.964 297.451C196.03 295.862 195.736 295.733 195.078 296.066C193.926 296.646 192.992 295.258 193.275 295.134C199.388 292.41 199.319 286.344 199.883 283.641C200.321 281.562 202.102 279.864 204.631 281.25L204.629 281.26Z" fill="#5C3B92"/>
<path fill-rule="evenodd" clip-rule="evenodd" d="M195.569 293.343C200.623 288.919 201.19 278.132 193.883 276.344C192.424 275.983 188.999 276.413 185.627 278.174C183.437 279.314 181.363 281.064 181.351 283.116C181.341 285.649 181.265 287.904 181.169 288.856C181.068 289.867 182.035 290.126 182.944 290.529C184.273 291.115 185.875 291.684 187.097 292.59C190.553 295.173 190.214 296.1 192.548 294.57C193.189 294.153 194.476 294.298 195.569 293.343Z" fill="#5C3B92"/>
<path fill-rule="evenodd" clip-rule="evenodd" d="M179.675 290.971C177.256 291.331 174.228 292.176 173.221 294.371C172.709 295.502 173.479 297.724 173.569 298.876C174.241 307.419 182.512 309.666 188.349 304.662C190.006 303.24 191.181 302.018 191.299 301.391C191.499 300.347 189.277 299.412 189.276 298.673C189.038 297.661 191.311 297.252 190.262 295.624C188.376 292.693 183.404 290.413 179.687 290.964L179.675 290.971Z" fill="#5C3B92"/>
<path fill-rule="evenodd" clip-rule="evenodd" d="M145.158 113.285C147.854 114.796 150.639 121.221 151.074 125.25C151.354 127.78 149.077 130.433 146.331 130.526C143.563 130.623 139.236 130.032 138.137 129.408C136.672 128.586 135.379 127.422 134.415 125.996C132.683 123.456 131.91 119.456 134.656 118.735C140.668 117.172 142.455 111.543 145.161 113.276L145.158 113.285Z" fill="#5C3B92"/>
<path fill-rule="evenodd" clip-rule="evenodd" d="M161.45 121.872C158.606 129.883 154.794 128.223 152.447 125.149C151.865 124.384 150.789 120.772 149.057 117.673C148.028 115.821 146.687 114.164 146.082 113.113C145.759 112.568 145.644 112.178 145.867 112.018C146.961 112.251 147.517 111.253 147.846 111.291C149.203 111.474 155.966 111.311 157.331 111.127C159.543 110.832 162.289 111.189 163.465 114.837C164.333 117.515 162.363 119.322 161.45 121.872Z" fill="#5C3B92"/>
<path fill-rule="evenodd" clip-rule="evenodd" d="M156.163 92.4909C162.954 96.7655 168.981 106.564 159.979 110.62C159.712 110.798 158.13 110.862 156.111 110.88C153.23 110.917 149.47 110.887 147.422 111.087C146.072 111.215 147.35 109.721 147.388 108.872C147.454 107.283 147.268 106.974 146.613 107.298C145.461 107.877 144.527 106.489 144.809 106.365C150.922 103.642 150.853 97.5752 151.418 94.8722C151.855 92.7937 153.636 91.0952 156.166 92.4816L156.163 92.4909Z" fill="#5C3B92"/>
<path fill-rule="evenodd" clip-rule="evenodd" d="M147.106 104.565C152.16 100.141 152.727 89.3545 145.42 87.5663C143.959 87.2147 140.537 87.635 137.164 89.396C134.974 90.5359 132.9 92.2856 132.888 94.3384C132.878 96.8706 132.802 99.1257 132.706 100.078C132.605 101.089 133.57 101.357 134.481 101.751C135.81 102.337 137.412 102.906 138.634 103.812C142.09 106.395 141.751 107.322 144.088 105.783C144.728 105.365 146.015 105.511 147.109 104.556L147.106 104.565Z" fill="#5C3B92"/>
<path fill-rule="evenodd" clip-rule="evenodd" d="M131.212 102.193C128.793 102.553 125.765 103.398 124.758 105.593C124.246 106.724 125.016 108.946 125.106 110.098C125.778 118.641 134.049 120.888 139.886 115.884C141.543 114.462 142.718 113.24 142.836 112.613C143.036 111.569 140.814 110.634 140.813 109.895C140.575 108.883 142.848 108.474 141.799 106.846C139.913 103.915 134.941 101.635 131.224 102.186L131.212 102.193Z" fill="#5C3B92"/>
<path fill-rule="evenodd" clip-rule="evenodd" d="M94.9133 240.863C96.7852 241.914 98.7135 246.363 99.0208 249.16C99.2081 250.916 97.6303 252.749 95.7369 252.821C93.8156 252.885 90.8137 252.48 90.0525 252.046C89.0391 251.475 88.1396 250.665 87.4673 249.677C86.2639 247.917 85.732 245.14 87.6304 244.64C91.8001 243.552 93.0348 239.651 94.9158 240.854L94.9133 240.863Z" fill="#5C3B92"/>
<path fill-rule="evenodd" clip-rule="evenodd" d="M106.218 246.817C104.25 252.377 101.599 251.218 99.9773 249.087C99.5705 248.558 98.826 246.053 97.6269 243.906C96.9129 242.627 95.9866 241.47 95.5621 240.748C95.3443 240.37 95.2578 240.097 95.4162 239.99C96.1703 240.152 96.5652 239.46 96.7866 239.489C97.7306 239.612 102.426 239.503 103.367 239.376C104.907 239.17 106.805 239.419 107.624 241.944C108.223 243.801 106.86 245.052 106.227 246.819L106.218 246.817Z" fill="#5C3B92"/>
<path fill-rule="evenodd" clip-rule="evenodd" d="M102.548 226.432C107.266 229.402 111.436 236.198 105.191 239.006C105.006 239.136 103.91 239.172 102.51 239.186C100.51 239.209 97.9038 239.189 96.4811 239.327C95.5406 239.414 96.3754 238.271 96.3948 237.677C96.4393 236.581 96.3687 236.473 95.9186 236.701C95.1221 237.107 94.4728 236.144 94.6658 236.056C98.9099 234.169 98.8628 229.955 99.2545 228.084C99.5525 226.637 100.794 225.463 102.551 226.422L102.548 226.432Z" fill="#5C3B92"/>
<path fill-rule="evenodd" clip-rule="evenodd" d="M96.2663 234.808C99.7714 231.736 100.161 224.255 95.0987 223.018C94.0892 222.768 91.706 223.067 89.3748 224.289C87.8569 225.08 86.4134 226.3 86.4033 227.714C86.392 229.468 86.3394 231.041 86.2746 231.692C86.2066 232.392 86.8763 232.572 87.5092 232.851C88.4367 233.259 89.5465 233.657 90.3862 234.281C92.7874 236.072 92.5544 236.718 94.1751 235.655C94.6215 235.366 95.5122 235.465 96.2663 234.808Z" fill="#5C3B92"/>
<path fill-rule="evenodd" clip-rule="evenodd" d="M85.2402 233.171C83.5586 233.419 81.4579 234.004 80.759 235.534C80.3999 236.316 80.9343 237.856 80.9976 238.661C81.4616 244.594 87.2075 246.144 91.2473 242.675C92.3995 241.687 93.2059 240.835 93.2903 240.408C93.4359 239.679 91.8935 239.036 91.8812 238.524C91.711 237.819 93.2902 237.544 92.5574 236.409C91.2464 234.382 87.7953 232.788 85.2191 233.176L85.2402 233.171Z" fill="#5C3B92"/>
<path fill-rule="evenodd" clip-rule="evenodd" d="M226.466 318.708C228.01 319.571 229.599 323.24 229.849 325.543C230.009 326.993 228.708 328.501 227.137 328.559C225.557 328.615 223.084 328.281 222.452 327.923C221.612 327.448 220.874 326.781 220.322 325.975C219.336 324.523 218.891 322.238 220.456 321.829C223.896 320.934 224.918 317.715 226.457 318.706L226.466 318.708Z" fill="#5C3B92"/>
<path fill-rule="evenodd" clip-rule="evenodd" d="M235.79 323.612C234.165 328.187 231.986 327.243 230.642 325.486C230.311 325.048 229.697 322.987 228.706 321.215C228.112 320.157 227.348 319.214 227.001 318.612C226.817 318.293 226.755 318.077 226.878 317.99C227.5 318.127 227.822 317.555 228.007 317.574C228.787 317.674 232.651 317.581 233.425 317.479C234.688 317.308 236.256 317.519 236.935 319.597C237.433 321.128 236.308 322.164 235.787 323.621L235.79 323.612Z" fill="#5C3B92"/>
<path fill-rule="evenodd" clip-rule="evenodd" d="M232.762 306.822C236.642 309.269 240.088 314.863 234.94 317.186C234.791 317.296 233.877 317.321 232.727 317.332C231.078 317.349 228.929 317.332 227.761 317.449C226.994 317.522 227.728 316.681 227.747 316.197C227.791 315.291 227.673 315.1 227.293 315.287C226.636 315.62 226.101 314.828 226.261 314.751C229.759 313.193 229.72 309.73 230.033 308.187C230.283 306.996 231.299 306.031 232.753 306.82L232.762 306.822Z" fill="#5C3B92"/>
<path fill-rule="evenodd" clip-rule="evenodd" d="M227.582 313.728C230.472 311.199 230.79 305.026 226.617 304.008C225.784 303.805 223.825 304.048 221.901 305.05C220.65 305.703 219.465 306.702 219.459 307.878C219.45 309.323 219.402 310.618 219.358 311.155C219.304 311.729 219.85 311.886 220.377 312.117C221.135 312.45 222.054 312.776 222.751 313.302C224.728 314.779 224.536 315.307 225.869 314.427C226.233 314.185 226.967 314.272 227.593 313.721L227.582 313.728Z" fill="#5C3B92"/>
<path fill-rule="evenodd" clip-rule="evenodd" d="M218.504 312.373C217.122 312.582 215.387 313.065 214.812 314.318C214.521 314.959 214.957 316.233 215.009 316.896C215.395 321.78 220.124 323.067 223.453 320.207C224.399 319.392 225.065 318.692 225.139 318.343C225.259 317.746 223.985 317.215 223.979 316.794C223.844 316.219 225.142 315.988 224.536 315.048C223.46 313.372 220.618 312.071 218.492 312.38L218.504 312.373Z" fill="#5C3B92"/>
<path fill-rule="evenodd" clip-rule="evenodd" d="M116.207 96.3559C117.751 97.2186 119.34 100.888 119.59 103.191C119.75 104.641 118.449 106.148 116.878 106.206C115.298 106.262 112.825 105.929 112.193 105.57C111.353 105.095 110.615 104.428 110.063 103.622C109.077 102.17 108.632 99.8851 110.197 99.4761C113.637 98.5815 114.659 95.3622 116.198 96.3534L116.207 96.3559Z" fill="#5C3B92"/>
<path fill-rule="evenodd" clip-rule="evenodd" d="M125.522 101.257C123.897 105.832 121.717 104.888 120.374 103.131C120.042 102.693 119.428 100.632 118.438 98.8598C117.844 97.8024 117.082 96.8498 116.732 96.2571C116.549 95.9384 116.487 95.7222 116.61 95.6354C117.231 95.772 117.554 95.1998 117.738 95.2192C118.519 95.3186 122.382 95.226 123.157 95.1242C124.419 94.9534 125.988 95.1641 126.667 97.2424C127.164 98.7728 126.039 99.8087 125.519 101.266L125.522 101.257Z" fill="#5C3B92"/>
<path fill-rule="evenodd" clip-rule="evenodd" d="M122.503 84.4696C126.383 86.9166 129.829 92.5107 124.681 94.8338C124.531 94.9435 123.627 94.9706 122.468 94.9795C120.819 94.9966 118.67 94.9797 117.502 95.096C116.735 95.1698 117.408 94.4421 117.428 93.9584C117.472 93.0519 117.414 92.7469 117.034 92.9347C116.377 93.2675 115.842 92.4754 116.002 92.3985C119.49 90.8382 119.461 87.3771 119.774 85.8344C120.024 84.6436 121.04 83.6784 122.494 84.4671L122.503 84.4696Z" fill="#5C3B92"/>
<path fill-rule="evenodd" clip-rule="evenodd" d="M117.323 91.3752C120.213 88.8463 120.531 82.6739 116.358 81.6554C115.525 81.4522 113.566 81.6957 111.642 82.6973C110.391 83.35 109.206 84.3499 109.2 85.5259C109.191 86.9708 109.143 88.2654 109.097 88.8118C109.043 89.3861 109.589 89.5425 110.115 89.7733C110.873 90.1062 111.793 90.4324 112.492 90.9491C114.469 92.4269 114.277 92.9545 115.61 92.074C115.974 91.8322 116.708 91.9192 117.334 91.3684L117.323 91.3752Z" fill="#5C3B92"/>
<path fill-rule="evenodd" clip-rule="evenodd" d="M108.235 90.0181C106.854 90.2267 105.119 90.7101 104.544 91.9632C104.253 92.6038 104.689 93.8783 104.741 94.5409C105.127 99.4249 109.847 100.71 113.185 97.8515C114.131 97.0371 114.797 96.3373 114.871 95.9877C114.991 95.3911 113.717 94.8603 113.71 94.4393C113.575 93.8642 114.873 93.6332 114.277 92.695C113.201 91.0193 110.359 89.7189 108.233 90.0274L108.235 90.0181Z" fill="#5C3B92"/>
<path fill-rule="evenodd" clip-rule="evenodd" d="M137.917 288.614C137.922 288.745 138.168 288.981 138.465 289.1C138.796 289.239 139.165 289.278 139.424 289.018C139.64 288.807 139.778 288.404 139.773 287.714C141.395 269.645 139.774 243.881 126.568 226.121C124.122 222.861 115.919 215.004 111.147 218.526C108.824 220.239 107.813 222.523 109.584 224.804C112.903 229.086 115.548 225.653 118.368 225.321C121.077 224.999 123.475 226.689 125.577 229.708C131.063 237.585 135.635 251.106 137.386 263.881C138.648 273.051 138.421 281.823 137.905 288.621L137.917 288.614Z" fill="#5C3B92"/>
<path fill-rule="evenodd" clip-rule="evenodd" d="M139.679 327.95C150.641 307.653 172.672 276.07 193.227 266.068C196.334 264.556 203.657 261.298 207.482 262.762C218.113 266.838 222.302 249.048 211.649 249.887C206.669 250.279 199.791 254.853 192.266 258.156C171.796 267.133 146.765 303.44 138.272 323.601C135.952 329.097 133.51 336.946 135.774 334.339C136.513 333.479 137.762 331.498 139.682 327.94L139.679 327.95Z" fill="#5C3B92"/>
<path fill-rule="evenodd" clip-rule="evenodd" d="M412.707 266.014C420.143 279.005 429.992 301.964 428.457 316.733C428.227 318.967 427.513 324.125 425.397 325.733C419.514 330.205 427.88 338.604 431.067 332.442C432.557 329.558 432.39 324.194 433.148 318.908C435.216 304.531 423.78 278.303 415.578 266.724C413.342 263.57 409.858 259.532 410.52 261.676C410.742 262.374 411.403 263.739 412.707 266.014Z" fill="#5C3B92"/>
<path fill-rule="evenodd" clip-rule="evenodd" d="M199.79 234.692C201.606 234.051 204.611 236.753 201.402 239.017C198.08 241.37 191.279 235.127 196.632 230.254C200.907 226.688 207.242 230.172 209.779 234.954C213.854 242.663 204.822 246.271 205.597 247.137C208.751 249.17 218.657 239.099 209.75 229.627C205.47 225.735 200.408 225.167 196.632 226.98C192.296 229.062 190.857 234.694 193.336 238.612C197.387 244.997 206.031 242.912 205.804 236.504C205.699 233.362 200.583 230.614 198.494 233.537C197.853 234.443 197.386 235.515 199.783 234.681L199.79 234.692Z" fill="#5C3B92"/>
<path fill-rule="evenodd" clip-rule="evenodd" d="M97.6717 409.121C97.3906 409.575 93.1371 403.944 92.672 403.819C92.1725 403.935 110.651 375.752 119.945 347.203C125.763 329.321 125.025 309.791 122.954 301.671C120.225 290.98 114.916 280.026 110.241 274.851C108.742 273.192 104.744 271.183 104.579 270.16C108.039 269.041 114.647 272.808 118.006 277.87C119.336 279.863 120.637 279.583 119.589 276.018C116.122 264.251 105.856 259.145 102.617 257.468C101.417 256.848 97.7554 255.817 99.3559 255.387C103.371 254.317 112.462 255.735 117.03 261.31C121.778 267.104 120.974 262.996 119.046 257.469C117.334 251.432 111.7 244.962 112.591 244.612C115.359 243.547 123.459 250.857 128.011 261.329C130.283 266.468 131.177 273.065 132.114 280.542C133.636 292.647 133.999 304.092 133.085 315.354C130.681 345.05 119.467 373.433 97.6692 409.13L97.6717 409.121Z" fill="#5C3B92"/>
<path fill-rule="evenodd" clip-rule="evenodd" d="M397.953 221.511C398.976 222.943 400.068 224.334 401.223 225.681C407.569 233.14 415.695 239.309 424.429 243.067C450.3 249.76 463.175 234.267 465.114 218.808C466.36 208.912 461.546 201.464 454.39 197.401C439.229 188.798 417.997 208.768 432.519 221.132C435.393 223.579 439.43 225.439 444.908 221.627C447.369 219.922 448.006 216.948 449.143 218.77C453.541 225.797 441.726 231.234 434.465 228.231C424.537 224.133 417.12 208.692 429.994 195.435C432.688 192.674 436.083 190.42 439.981 188.969C451.946 185.279 464.757 191.676 471.652 202.146C488.008 226.978 464.813 268.818 422.513 247.873C412.968 243.758 404.174 235.913 397.248 227.829C392.163 221.876 396.58 220.535 397.94 221.488L397.953 221.511Z" fill="#5C3B92"/>
<path fill-rule="evenodd" clip-rule="evenodd" d="M148.094 161.598C157.171 161.245 152.682 146.15 141.083 151.116C133.762 154.254 133.34 163.233 141.431 167.936C155.49 175.705 164.875 157.831 157.128 148.05C148.367 136.99 134.977 139.041 128.201 147.625C123.297 153.836 124.109 163.455 125.943 169.744C126.485 171.626 127.905 175.071 129.576 177.355C131.436 179.899 133.493 181.229 132.6 181.958C129.459 185.457 102.247 142.467 139.272 132.277C145.632 130.528 152.233 131.678 157.703 135C167.241 141.299 170.838 151.983 168.176 160.172C163.501 174.568 141.483 179.278 133.713 163.703C130.908 158.171 133.553 151.314 140.894 148.471C145.033 147.015 148.843 147.826 151.044 149.174C154.771 151.45 156.259 156.091 154.473 159.335C152.617 162.65 148.864 163.86 146.129 163.686C143.023 163.483 141.393 160.75 143.961 159.053C146.271 157.536 146.542 161.661 148.103 161.6L148.094 161.598Z" fill="#5C3B92"/>
<path fill-rule="evenodd" clip-rule="evenodd" d="M404.906 289.064C399.501 303.654 385.01 298.205 387.938 289.847C389.134 286.425 391.687 284.894 395.179 284.402C396.631 284.192 397.938 282.626 398.956 280.424C401.845 274.182 401.761 264.898 400.806 259.123C400.548 257.557 401.448 258.067 402.61 260.016C405.195 264.321 409.172 277.533 404.906 289.064Z" fill="#5C3B92"/>
<path fill-rule="evenodd" clip-rule="evenodd" d="M413.743 307.65C408.12 319.966 396.823 314.953 399.9 307.893C401.162 305.008 403.472 303.83 406.535 303.633C407.805 303.544 409.044 302.269 410.068 300.418C412.975 295.189 413.5 287.126 413.029 282.039C412.898 280.667 413.651 281.168 414.544 282.934C416.519 286.837 418.187 297.913 413.743 307.65Z" fill="#5C3B92"/>
<path fill-rule="evenodd" clip-rule="evenodd" d="M417.813 324.719C411.536 332.668 403.652 326.374 407.143 321.79C408.572 319.918 410.465 319.477 412.721 319.872C413.665 320.035 414.791 319.329 415.86 318.168C418.904 314.881 420.717 309.12 421.281 305.339C421.437 304.312 421.891 304.813 422.221 306.259C422.961 309.451 422.768 318.432 417.804 324.717L417.813 324.719Z" fill="#5C3B92"/>
<path fill-rule="evenodd" clip-rule="evenodd" d="M398.348 152.584C384.14 170.673 372.401 185.612 349.911 186.762C346.556 186.931 345.342 187.853 348.495 188.957C357.221 192.034 385.151 191.084 399.398 185.5C424.705 175.584 430.469 160.102 432.6 145.154C433.898 136.031 432.547 129.391 432.305 121.811C432.118 116.072 430.966 117.73 429.846 120.344C422.327 137.95 409.579 138.277 398.351 152.574L398.348 152.584Z" fill="#5C3B92"/>
<path fill-rule="evenodd" clip-rule="evenodd" d="M215.664 140.96C220.177 159.275 223.897 174.414 213.289 189.556C211.707 191.817 211.681 193.067 213.993 191.581C220.387 187.476 233.881 168.925 237.465 156.891C243.833 135.503 236.747 123.964 228.169 115.048C222.936 109.614 217.961 107.123 212.938 103.472C209.135 100.697 209.62 102.274 210.746 104.322C218.327 118.07 212.094 126.49 215.661 140.969L215.664 140.96Z" fill="#5C3B92"/>
<path fill-rule="evenodd" clip-rule="evenodd" d="M367.842 136.994C360.858 156.92 355.078 173.395 335.875 181.065C333.017 182.205 332.227 183.37 335.3 183.396C343.793 183.476 367.788 174.366 378.516 165.284C397.57 149.162 397.995 133.996 395.413 120.379C393.84 112.073 390.703 106.702 388.24 100.193C386.372 95.2615 385.865 97.0419 385.675 99.6459C384.357 117.177 373.369 121.239 367.851 136.997L367.842 136.994Z" fill="#5C3B92"/>
<path fill-rule="evenodd" clip-rule="evenodd" d="M185.15 157.245C190.845 173.941 195.867 188.201 191.094 202.891C187.524 213.87 186.52 215.049 188.038 213.849C189.216 212.987 190.578 211.625 192.039 209.891C199.132 201.502 208.605 184.379 210.959 172.953C216.005 148.466 207.072 136.302 196.66 127.165C190.307 121.59 184.532 119.294 178.59 115.686C174.089 112.953 174.786 114.667 176.227 116.84C185.969 131.456 179.776 141.473 185.15 157.245Z" fill="#5C3B92"/>
<path fill-rule="evenodd" clip-rule="evenodd" d="M420.818 190.092C414.026 213.692 387.3 216.401 370.495 199.533C369.252 198.292 367.388 195.277 370.806 197.48C379.49 203.131 387.051 198.839 395.021 194.877C403.821 190.498 405.622 191.739 414.441 190.04C416.68 189.612 421.337 185.031 421.345 187.159C421.355 187.901 421.138 189.01 420.806 190.099L420.818 190.092Z" fill="#5C3B92"/>
<path fill-rule="evenodd" clip-rule="evenodd" d="M370.782 290.51C396.841 285.007 403.396 255.745 387.367 235.721C386.157 234.209 383.108 231.785 385.081 235.807C390.164 246.042 384.521 253.781 379.183 262.022C373.286 271.121 374.41 273.248 371.439 282.702C370.685 285.105 365.177 290.445 367.501 290.739C368.312 290.836 369.552 290.749 370.78 290.519L370.782 290.51Z" fill="#5C3B92"/>
<path fill-rule="evenodd" clip-rule="evenodd" d="M308.428 219.28C316.009 197.947 297.898 185.21 279.983 186.698C276.036 187.027 266.618 189.434 272.319 188.995C282.429 188.171 284.682 195.093 289.7 202.226C294.003 208.339 303.865 213.616 305.303 217.734C306.132 220.112 306.922 223.228 307.514 222.059C307.838 221.408 308.204 220.378 308.419 219.278L308.428 219.28Z" fill="#5C3B92"/>
<path fill-rule="evenodd" clip-rule="evenodd" d="M355.265 278.658C384.61 258.476 378.266 218.901 349.095 205.545C346.946 204.56 342.171 203.63 346.438 206.939C351.266 210.987 350.252 214.139 350.108 216.945C349.885 221.496 347.889 225.412 346.236 232.734C343.204 246.134 351.985 254.365 352.882 266.532C352.994 268.049 353.56 272.482 352.872 275.571C351.901 279.902 350.067 282.654 355.265 278.658Z" fill="#5C3B92"/>
<path fill-rule="evenodd" clip-rule="evenodd" d="M329.634 240.112C343.139 226.545 343.818 208.792 330.94 199.892C325.018 195.801 319.557 194.377 313.592 188.996C310.912 186.572 312.178 189.995 313.348 192.175C319.393 200.721 318.59 208.889 319.915 217.039C321.131 224.52 326.006 229.729 327.187 235.405C327.99 239.253 325.486 244.171 329.622 240.119L329.634 240.112Z" fill="#5C3B92"/>
<path fill-rule="evenodd" clip-rule="evenodd" d="M261.331 117.976C279.89 141.133 263.654 169.318 237.819 176.887C235.882 177.456 231.468 176.592 235.95 175.009C247.387 171.017 247.886 157.139 249.141 146.427C250.525 134.602 252.966 133.829 257.071 124.05C258.116 121.565 256.556 113.583 258.715 115.199C259.469 115.77 260.444 116.82 261.331 117.976Z" fill="#5C3B92"/>
<path fill-rule="evenodd" clip-rule="evenodd" d="M169.91 176.955C191.69 185.745 189.428 214.69 173.927 229.379C172.752 230.492 169.456 231.704 171.946 228.849C178.352 221.573 175.016 208.982 171.949 201.194C168.561 192.592 169.96 191.09 169.203 182.793C169.01 180.685 165.018 175.863 167.086 176.108C167.811 176.193 168.871 176.516 169.898 176.961L169.91 176.955Z" fill="#5C3B92"/>
<path fill-rule="evenodd" clip-rule="evenodd" d="M106.677 328.558C118.181 331.052 119.506 345.529 113.092 354.1C112.609 354.749 111.078 355.626 112.071 354.006C114.615 349.867 111.906 343.942 109.727 340.354C107.328 336.397 107.89 335.53 106.816 331.5C106.542 330.478 104.159 328.432 105.208 328.384C105.573 328.362 106.121 328.439 106.675 328.567L106.677 328.558Z" fill="#5C3B92"/>
<path fill-rule="evenodd" clip-rule="evenodd" d="M94.071 347.626C108.592 350.768 110.272 369.053 102.171 379.867C101.552 380.689 99.6312 381.791 100.879 379.74C104.091 374.523 100.666 367.028 97.9214 362.5C94.8952 357.498 95.6052 356.41 94.2461 351.326C93.9037 350.036 90.8969 347.454 92.2109 347.387C92.6762 347.362 93.3709 347.448 94.0549 347.612L94.071 347.626Z" fill="#5C3B92"/>
<path fill-rule="evenodd" clip-rule="evenodd" d="M79.9501 358.543C96.9869 362.23 98.9634 383.688 89.4609 396.382C88.7343 397.345 86.4812 398.647 87.945 396.235C91.7195 390.111 87.6952 381.318 84.4828 376.006C80.9318 370.134 81.7619 368.859 80.1701 362.894C79.7592 361.376 76.232 358.355 77.7892 358.274C78.3339 358.25 79.1452 358.347 79.9594 358.546L79.9501 358.543Z" fill="#5C3B92"/>
<path fill-rule="evenodd" clip-rule="evenodd" d="M142.208 206.818C146.039 207.815 128.891 171.203 95.9159 171.899C77.999 172.278 64.0257 184.542 59.7444 195.311C51.3983 216.339 76.9765 219.29 77.1274 218.802C77.1662 218.582 71.8081 215.251 71.7215 211.704C71.6288 207.697 73.7204 201.491 77.4693 196.727C86.6484 185.055 105.59 180.369 117.192 184.207C136.066 190.451 140.485 206.366 142.208 206.818Z" fill="#5C3B92"/>
<path fill-rule="evenodd" clip-rule="evenodd" d="M429.3 258.185C427.33 257.537 425.492 257.144 425.239 257.157C425.129 257.157 425.29 257.45 425.868 257.784C466.121 286.894 509.197 228.893 476.145 188.949C474.541 187.012 473.598 185.691 472.948 185.886C472.288 186.079 477.415 194.219 479.745 200.143C495.308 239.803 467.565 270.753 429.31 258.187L429.3 258.185Z" fill="#5C3B92"/>
<path fill-rule="evenodd" clip-rule="evenodd" d="M447.083 332.532C455.391 312.093 425.603 266.106 413.577 249.56C389.126 214.645 351.279 188.725 314.087 179.558C249.191 162.908 194.239 199.711 161.562 258.372L165.318 260.207C170.356 249.032 180.313 236.131 189.114 227.431C224.293 192.654 255.526 171.561 314.958 184.382C351.168 193.306 386.455 217.732 410.274 251.729C417.538 261.081 433.189 285.754 440.05 304.459C441.048 307.172 442.759 313.808 443.677 319.274C444.078 321.647 443.429 323.958 442.538 326.055C441.845 327.675 440.087 329.25 439.437 330.523C437.796 333.706 438.698 335.774 440.422 336.446C442.471 337.244 445.636 336.146 447.114 332.53L447.083 332.532Z" fill="#5C3B92"/>
<path fill-rule="evenodd" clip-rule="evenodd" d="M140.438 254.499C144.275 225.596 113.675 196.997 86.7589 201.013C88.5474 199.695 90.4827 198.537 92.571 197.59C113.418 188.026 131.412 195.692 141.372 218.311C143.238 222.544 144.361 226.986 144.797 231.425C145.586 239.53 144.05 247.642 140.445 254.511L140.438 254.499Z" fill="#5C3B92"/>
<path fill-rule="evenodd" clip-rule="evenodd" d="M268.627 272.719C276.068 273.525 288.318 285.181 293.091 293.745C296.087 299.119 293.532 307.167 287.525 309.979C281.461 312.815 271.257 315.59 268.226 315.257C264.187 314.813 260.209 313.438 256.715 311.185C250.465 307.165 244.959 298.992 250.398 294.801C262.308 285.627 260.969 271.425 268.627 272.719Z" fill="#5C3B92"/>
<path fill-rule="evenodd" clip-rule="evenodd" d="M313.019 276.41C314.253 296.92 304.195 296.84 296.063 292.216C294.029 291.062 288.241 284.052 281.456 278.791C277.412 275.652 272.877 273.229 270.529 271.462C269.808 270.919 271.095 270.206 271.167 269.268C271.242 268.319 270.103 267.136 270.412 266.73C270.517 266.598 272.607 265.791 272.718 265.751C275.914 264.871 290.817 258.105 293.684 256.408C298.34 253.654 304.781 251.866 310.843 258.86C315.296 264.006 312.614 269.884 313.01 276.407L313.019 276.41Z" fill="#5C3B92"/>
<path fill-rule="evenodd" clip-rule="evenodd" d="M273.499 216.029C292.663 219.108 315.32 235.229 299.108 252.762C298.693 253.419 295.208 255.04 290.742 257.007C284.369 259.81 275.974 263.31 271.6 265.681C268.719 267.244 269.528 264.447 269.339 262.4C268.807 256.719 264.494 262.659 261.512 257.938C261.148 257.361 263.474 255.08 263.992 254.301C271.097 243.56 266.348 231.778 265.186 225.847C264.195 220.801 266.561 215.357 273.499 216.029Z" fill="#5C3B92"/>
<path fill-rule="evenodd" clip-rule="evenodd" d="M264.739 251.477C271.819 236.847 262.882 212.306 244.945 215.254C241.368 215.843 234.134 220.032 228.294 227.13C224.497 231.742 221.53 237.604 223.438 242.167C225.792 247.818 227.758 252.905 228.442 255.115C229.171 257.456 231.559 257.138 233.983 257.168C237.501 257.213 241.605 256.965 245.169 257.84C255.302 260.316 255.432 262.696 259.182 257.074C260.212 255.534 263.225 254.634 264.746 251.489L264.739 251.477Z" fill="#5C3B92"/>
<path fill-rule="evenodd" clip-rule="evenodd" d="M227.109 261.245C222.055 264.332 216.108 269.076 215.947 274.921C215.864 277.913 219.679 282.129 220.972 284.631C230.542 303.014 251.073 300.172 259.337 283.543C261.691 278.814 263.13 274.968 262.821 273.478C262.292 270.951 256.458 270.995 255.753 269.349C254.269 267.334 258.949 264.267 255.06 261.628C248.093 256.897 234.866 256.517 227.118 261.247L227.109 261.245Z" fill="#5C3B92"/>
<path fill-rule="evenodd" clip-rule="evenodd" d="M263.307 263.219C264.312 263.488 265.164 265.294 265.215 267.223C265.266 269.153 264.486 270.501 263.484 270.223C262.48 269.954 261.628 268.148 261.576 266.219C261.525 264.289 262.305 262.941 263.307 263.219Z" fill="#5C3B92"/>
<path fill-rule="evenodd" clip-rule="evenodd" d="M315.838 144.338C316.759 143.616 317.929 142.373 318.92 141.431C321.676 138.846 328.092 135.884 331.214 139.116C332.628 140.573 333.042 143.009 330.452 143.672C328.814 144.092 321.082 144.895 326.141 148.376C330.191 151.158 337.265 150.538 340.492 145.455C343.872 140.133 336.207 128.667 325.607 133.292C320.911 135.338 316.85 141.046 315.107 143.753C314.044 145.414 313.939 145.805 315.829 144.335L315.838 144.338Z" fill="#5C3B92"/>
<path fill-rule="evenodd" clip-rule="evenodd" d="M293.797 148.202C295.756 141.262 288.832 139.347 287.651 143.272C287.17 144.88 287.707 146.151 288.876 147.293C289.368 147.764 289.422 148.717 289.207 149.817C288.588 152.945 286.027 156.4 284.082 158.304C283.554 158.822 284.03 158.869 285.006 158.462C287.155 157.551 292.248 153.686 293.799 148.193L293.797 148.202Z" fill="#5C3B92"/>
<path fill-rule="evenodd" clip-rule="evenodd" d="M301.719 145.165C303.427 139.126 297.918 137.51 296.892 140.928C296.467 142.331 296.938 143.435 297.959 144.427C298.386 144.841 298.435 145.663 298.246 146.63C297.706 149.35 295.473 152.364 293.784 154.017C293.325 154.464 293.74 154.515 294.585 154.152C296.451 153.365 300.369 149.943 301.709 145.163L301.719 145.165Z" fill="#5C3B92"/>
<path fill-rule="evenodd" clip-rule="evenodd" d="M308.423 136.552C307.879 131.885 303.242 132.449 303.495 135.112C303.603 136.199 304.239 136.838 305.232 137.224C305.648 137.386 305.916 137.946 306.053 138.662C306.455 140.696 305.766 143.416 305.071 145.045C304.883 145.484 305.184 145.405 305.664 144.915C306.731 143.834 308.839 140.247 308.414 136.55L308.423 136.552Z" fill="#5C3B92"/>
<path fill-rule="evenodd" clip-rule="evenodd" d="M309.093 163.409C313.201 165.677 310.918 169.767 308.562 168.516C307.592 168.007 307.258 167.169 307.264 166.103C307.274 165.656 306.859 165.196 306.25 164.793C304.522 163.651 301.746 163.257 299.975 163.281C299.494 163.292 299.689 163.045 300.327 162.787C301.729 162.204 305.846 161.611 309.102 163.411L309.093 163.409Z" fill="#5C3B92"/>
<path fill-rule="evenodd" clip-rule="evenodd" d="M298.568 125.409C301.907 122.101 298.637 118.79 296.7 120.626C295.909 121.382 295.8 122.272 296.093 123.298C296.865 126 293.795 126.964 291.428 127.128C289.162 127.289 287.242 126.456 285.133 126.14C284.367 126.024 284.483 126.185 285.01 126.486C286.81 127.508 293.372 130.553 298.568 125.409Z" fill="#5C3B92"/>
<path fill-rule="evenodd" clip-rule="evenodd" d="M312.991 129.103C312.015 126.496 309.426 127.489 309.954 128.978C310.17 129.585 310.635 129.859 311.25 129.944C311.509 129.984 311.745 130.257 311.927 130.655C312.446 131.772 312.441 133.427 312.271 134.47C312.227 134.747 312.389 134.661 312.594 134.307C313.051 133.531 313.755 131.164 312.982 129.101L312.991 129.103Z" fill="#5C3B92"/>
<path fill-rule="evenodd" clip-rule="evenodd" d="M296.325 99.7371C296.034 99.2599 294.83 98.618 293.002 98.5971C290.477 98.5693 286.808 99.7221 282.903 104.065C278.707 108.749 278.426 115.381 280.104 119.164C283.369 126.546 290.241 120.732 290.152 120.579C290.109 120.517 287.99 121.057 287.085 120.196C286.06 119.222 285.004 117.133 284.712 114.989C283.986 109.735 287.355 103.711 291.091 101.708C295.132 99.5373 296.661 100.306 296.329 99.7582L296.325 99.7371Z" fill="#5C3B92"/>
<path fill-rule="evenodd" clip-rule="evenodd" d="M281.955 164.381C290.057 164.466 303.732 159.528 306.775 153.566C307.179 152.766 309.467 154.198 309.314 154.845C307.928 160.612 291.138 165.455 282.503 165.087C281.537 165.048 281.406 164.384 281.952 164.39L281.955 164.381Z" fill="#5C3B92"/>
<path fill-rule="evenodd" clip-rule="evenodd" d="M314.987 124.928C315.691 125.056 316.364 124.588 316.493 123.884C316.622 123.18 316.155 122.506 315.451 122.377C314.748 122.249 314.074 122.717 313.945 123.421C313.817 124.125 314.284 124.799 314.987 124.928Z" fill="#5C3B92"/>
<path fill-rule="evenodd" clip-rule="evenodd" d="M315.143 119.101C315.951 119.248 316.724 118.706 316.871 117.897C317.018 117.088 316.478 116.315 315.67 116.168C314.862 116.022 314.088 116.563 313.941 117.372C313.794 118.181 314.335 118.954 315.143 119.101Z" fill="#5C3B92"/>
<path fill-rule="evenodd" clip-rule="evenodd" d="M315.924 162.285C318.036 162.662 320.057 161.257 320.435 159.142C320.812 157.028 319.41 155.005 317.297 154.629C315.185 154.253 313.164 155.657 312.787 157.772C312.409 159.886 313.811 161.909 315.924 162.285Z" fill="#5C3B92"/>
<path fill-rule="evenodd" clip-rule="evenodd" d="M314.669 114.283C315.477 114.43 316.26 113.891 316.397 113.08C316.544 112.271 316.004 111.497 315.196 111.35C314.388 111.204 313.615 111.745 313.468 112.554C313.321 113.363 313.861 114.137 314.669 114.283Z" fill="#5C3B92"/>
<path fill-rule="evenodd" clip-rule="evenodd" d="M312.306 110.157C313.218 110.322 314.088 109.716 314.254 108.803C314.419 107.889 313.814 107.018 312.902 106.853C311.989 106.689 311.119 107.294 310.954 108.208C310.788 109.122 311.393 109.992 312.306 110.157Z" fill="#5C3B92"/>
<path fill-rule="evenodd" clip-rule="evenodd" d="M308.577 106.473C309.49 106.638 310.36 106.033 310.525 105.119C310.69 104.205 310.086 103.334 309.173 103.17C308.26 103.005 307.39 103.61 307.225 104.524C307.06 105.438 307.664 106.308 308.577 106.473Z" fill="#5C3B92"/>
<path fill-rule="evenodd" clip-rule="evenodd" d="M304.588 103.947C305.501 104.112 306.371 103.507 306.536 102.593C306.701 101.679 306.097 100.809 305.184 100.644C304.271 100.479 303.401 101.084 303.236 101.998C303.071 102.912 303.675 103.782 304.588 103.947Z" fill="#5C3B92"/>
<path fill-rule="evenodd" clip-rule="evenodd" d="M299.872 102.274C300.785 102.439 301.655 101.834 301.82 100.92C301.985 100.006 301.381 99.1358 300.468 98.971C299.555 98.8062 298.685 99.4114 298.52 100.325C298.355 101.239 298.959 102.11 299.872 102.274Z" fill="#5C3B92"/>
<path fill-rule="evenodd" clip-rule="evenodd" d="M282.664 163.743C303.274 155.582 322.109 139.87 326.864 117.401C330.602 99.7297 317.346 83.6824 302.326 81.9932C284.121 79.9496 267.666 97.1976 270.693 115.255C272.567 126.456 286.664 136.91 296.631 133.682C300.201 132.523 303.374 129.91 305.48 125.434C307.349 121.474 306.161 117.014 305.931 116.942C305.088 118.153 305.228 124.179 302.03 126.965C291.543 136.111 275.928 125.41 276.001 113.863C276.066 102.682 290.188 93.881 299.567 94.8571C307.325 95.6683 317.746 102.393 320.348 115.116C321.885 122.624 316.897 132.236 311.269 140.329C304.808 149.636 300.146 152.968 292.425 157.376C289.835 158.858 283.181 161.925 281.303 163.428C279.972 164.489 279.952 164.823 282.685 163.738L282.664 163.743Z" fill="#5C3B92"/>
<path fill-rule="evenodd" clip-rule="evenodd" d="M68.6731 327.816C70.8475 348.499 48.5023 341.035 39.4875 338.03C37.2808 337.299 36.0621 337.941 37.4556 339.103C41.3163 342.293 54.545 349.141 68.6713 345.571C73.1078 344.454 75.9684 342.596 78.185 339.607C94.8464 317.124 67.0151 312.052 68.6731 327.816Z" fill="#5C3B92"/>
<path fill-rule="evenodd" clip-rule="evenodd" d="M56.6727 272.294C3.42862 296.581 32.1333 358.296 61.106 322.795C63.5934 318.311 28.2111 331.077 40.8998 296.781C44.3066 287.564 52.5467 281.219 59.1226 275.615C61.5928 273.503 57.2401 272.037 56.682 272.297L56.6727 272.294Z" fill="#5C3B92"/>
<path fill-rule="evenodd" clip-rule="evenodd" d="M117.804 322.078C119.562 321.771 120.737 320.1 120.44 318.343C120.134 316.585 118.465 315.409 116.71 315.707C114.953 316.015 113.777 317.686 114.074 319.442C114.381 321.201 116.05 322.377 117.804 322.078Z" fill="#5C3B92"/>
<path fill-rule="evenodd" clip-rule="evenodd" d="M116.38 310.429C118.418 310.077 119.788 308.128 119.437 306.088C119.087 304.048 117.141 302.679 115.102 303.031C113.064 303.383 111.694 305.331 112.045 307.371C112.396 309.411 114.342 310.781 116.38 310.429Z" fill="#5C3B92"/>
<path fill-rule="evenodd" clip-rule="evenodd" d="M104.964 290.453C107.757 289.964 109.633 287.313 109.146 284.518C108.659 281.723 106.012 279.846 103.219 280.335C100.426 280.824 98.549 283.475 99.0337 286.28C99.5209 289.075 102.168 290.952 104.97 290.465L104.964 290.453Z" fill="#5C3B92"/>
<path fill-rule="evenodd" clip-rule="evenodd" d="M112.247 299.361C114.611 298.947 116.201 296.698 115.788 294.332C115.375 291.966 113.13 290.376 110.765 290.79C108.401 291.205 106.812 293.454 107.225 295.82C107.637 298.186 109.883 299.776 112.247 299.361Z" fill="#5C3B92"/>
<path fill-rule="evenodd" clip-rule="evenodd" d="M94.1702 282.591C96.9631 282.102 98.8399 279.451 98.3527 276.656C97.8654 273.86 95.2181 271.983 92.4252 272.473C89.6323 272.962 87.7556 275.613 88.2428 278.408C88.73 281.203 91.3773 283.08 94.1702 282.591Z" fill="#5C3B92"/>
<path fill-rule="evenodd" clip-rule="evenodd" d="M81.9716 277.516C84.2513 277.119 85.7787 274.953 85.3832 272.672C84.9876 270.39 82.8249 268.862 80.5451 269.259C78.2654 269.657 76.738 271.822 77.1336 274.104C77.5291 276.386 79.6919 277.913 81.9716 277.516Z" fill="#5C3B92"/>
<path fill-rule="evenodd" clip-rule="evenodd" d="M69.7486 275.658C71.6089 275.338 72.8516 273.565 72.533 271.704C72.2143 269.842 70.4438 268.599 68.5836 268.919C66.7233 269.239 65.4806 271.011 65.7992 272.873C66.1178 274.735 67.8883 275.978 69.7486 275.658Z" fill="#5C3B92"/>
</g>
<defs>
<clipPath id="clip0_412_492">
<rect width="460" height="396" fill="white" transform="translate(103.269 0.691406) rotate(15)"/>
</clipPath>
</defs>
</svg>
