<svg width="532" height="597" viewBox="0 0 532 597" fill="none" xmlns="http://www.w3.org/2000/svg">
<g opacity="0.2" clip-path="url(#clip0_412_608)">
<path fill-rule="evenodd" clip-rule="evenodd" d="M234.587 240.751C232.797 238.249 232.049 233.521 229.983 229.499C227.947 225.548 224.427 222.054 219.45 223.171C217.558 223.596 215.998 225.097 215.478 226.509C215.213 227.207 215.095 227.909 215.088 228.591C215.075 230.033 215.56 231.433 216.316 232.608C216.502 232.89 216.699 233.155 216.901 233.427C217.482 234.203 217.681 234.644 217.615 234.916C217.484 235.17 217.039 235.382 216.077 235.626C215.745 235.706 215.41 235.8 215.088 235.897C213.719 236.342 212.431 237.119 211.48 238.247C211.032 238.783 210.655 239.402 210.398 240.095C209.869 241.512 210.081 243.614 211.262 245.1C214.362 249.004 219.39 248.458 223.578 246.651C227.839 244.814 231.513 241.558 234.596 240.746L234.587 240.751Z" fill="#5C3B92"/>
<path fill-rule="evenodd" clip-rule="evenodd" d="M83.514 347.61C82.4021 343.66 85.8094 335.043 89.1864 330.847C91.2966 328.217 95.9131 327.864 98.5779 330.34C101.266 332.836 104.766 337.453 105.221 339.069C105.824 341.212 105.939 343.514 105.512 345.762C104.748 349.761 101.725 354.242 98.4815 352.345C91.3761 348.175 84.4272 351.775 83.5189 347.618L83.514 347.61Z" fill="#5C3B92"/>
<path fill-rule="evenodd" clip-rule="evenodd" d="M76.2822 324.287C86.4562 319.447 88.4801 324.572 87.7986 329.658C87.6279 330.924 85.251 335.31 83.9709 339.841C83.2034 342.541 82.9002 345.351 82.4832 346.904C82.2724 347.715 82.0197 348.184 81.6585 348.137C80.8502 346.891 79.3851 347.303 79.1315 346.96C78.0308 345.516 71.5306 339.329 70.0869 338.216C67.7343 336.417 65.4969 333.505 67.81 328.99C69.5121 325.672 73.0488 325.82 76.2906 324.282L76.2822 324.287Z" fill="#5C3B92"/>
<path fill-rule="evenodd" clip-rule="evenodd" d="M53.6931 356.788C51.3303 346.41 54.8766 331.575 67.1097 336.221C67.5332 336.299 69.0738 337.734 70.9855 339.599C73.7181 342.269 77.224 345.815 79.3181 347.553C80.7034 348.699 78.6292 349.252 77.7978 350.01C76.2458 351.428 75.6056 351.553 76.5344 351.851C78.1551 352.383 77.7322 354.562 77.3611 354.421C69.0798 351.24 63.4508 356.992 60.3878 358.994C58.0318 360.543 54.7704 360.447 53.6931 356.788Z" fill="#5C3B92"/>
<path fill-rule="evenodd" clip-rule="evenodd" d="M73.5125 353.963C64.6211 353.37 53.9831 362.959 59.1537 371.471C60.1873 373.165 63.7967 375.984 68.6023 377.502C71.731 378.487 75.3112 378.788 77.2486 376.88C79.6383 374.522 81.8178 372.474 82.802 371.672C83.835 370.82 83.1921 369.668 82.7126 368.433C82.0181 366.632 81.0465 364.602 80.7636 362.608C79.9425 356.944 81.1274 356.394 77.4987 355.642C76.5021 355.439 75.4328 354.088 73.5208 353.958L73.5125 353.963Z" fill="#5C3B92"/>
<path fill-rule="evenodd" clip-rule="evenodd" d="M86.1909 371.083C88.7974 373.014 92.43 375.065 95.4332 373.942C96.9706 373.366 98.3365 370.565 99.3372 369.387C106.724 360.741 101.067 350.886 90.9129 350.11C88.0239 349.888 85.7732 349.942 85.0841 350.406C83.9133 351.194 85.1217 354.154 84.4335 354.852C83.7174 356.021 81.1953 354.275 80.6542 356.789C79.6752 361.302 82.1923 368.11 86.1944 371.07L86.1909 371.083Z" fill="#5C3B92"/>
<path fill-rule="evenodd" clip-rule="evenodd" d="M288.321 505.782C287.209 501.832 290.624 493.21 293.993 489.019C296.103 486.389 300.72 486.036 303.385 488.512C306.072 491.007 309.573 495.625 310.028 497.241C310.63 499.384 310.746 501.686 310.318 503.934C309.555 507.933 306.532 512.414 303.288 510.517C296.183 506.347 289.234 509.947 288.326 505.79L288.321 505.782Z" fill="#5C3B92"/>
<path fill-rule="evenodd" clip-rule="evenodd" d="M281.084 482.451C291.258 477.611 293.282 482.736 292.6 487.822C292.43 489.088 290.053 493.473 288.773 498.004C288.005 500.705 287.702 503.515 287.285 505.068C287.074 505.879 286.822 506.347 286.46 506.3C285.652 505.054 284.187 505.467 283.933 505.124C282.833 503.68 276.332 497.492 274.88 496.384C272.528 494.585 270.29 491.673 272.603 487.158C274.306 483.84 277.842 483.989 281.084 482.451Z" fill="#5C3B92"/>
<path fill-rule="evenodd" clip-rule="evenodd" d="M258.5 514.96C256.137 504.582 259.683 489.747 271.925 494.388C272.348 494.466 273.889 495.901 275.8 497.766C278.533 500.436 282.039 503.982 284.133 505.72C285.518 506.866 283.346 507.075 282.519 507.842C280.967 509.26 280.42 509.72 281.354 510.026C282.975 510.559 282.552 512.737 282.181 512.596C273.899 509.416 268.27 515.167 265.207 517.169C262.851 518.719 259.59 518.622 258.513 514.963L258.5 514.96Z" fill="#5C3B92"/>
<path fill-rule="evenodd" clip-rule="evenodd" d="M278.314 512.126C269.423 511.533 258.785 521.122 263.96 529.643C264.994 531.337 268.608 534.165 273.409 535.674C276.537 536.659 280.118 536.96 282.055 535.052C284.445 532.694 286.624 530.646 287.608 529.844C288.641 528.992 287.998 527.84 287.519 526.604C286.824 524.804 285.853 522.774 285.57 520.78C284.749 515.116 285.934 514.566 282.305 513.814C281.309 513.611 280.239 512.26 278.327 512.13L278.314 512.126Z" fill="#5C3B92"/>
<path fill-rule="evenodd" clip-rule="evenodd" d="M290.997 529.255C293.604 531.186 297.236 533.236 300.24 532.114C301.777 531.538 303.143 528.737 304.144 527.558C311.522 518.917 305.874 509.058 295.719 508.282C292.83 508.06 290.58 508.114 289.89 508.578C288.72 509.365 289.928 512.326 289.24 513.024C288.524 514.193 286.002 512.447 285.461 514.961C284.482 519.474 286.999 526.282 291.001 529.242L290.997 529.255Z" fill="#5C3B92"/>
<path fill-rule="evenodd" clip-rule="evenodd" d="M338.213 319.381C337.375 316.407 339.95 309.895 342.49 306.738C344.082 304.751 347.568 304.484 349.575 306.361C351.601 308.249 354.243 311.728 354.579 312.946C355.034 314.562 355.124 316.3 354.798 317.99C354.226 321.011 351.945 324.385 349.493 322.954C344.137 319.808 338.893 322.525 338.205 319.386L338.213 319.381Z" fill="#5C3B92"/>
<path fill-rule="evenodd" clip-rule="evenodd" d="M332.757 301.794C340.432 298.141 341.954 302.01 341.44 305.843C341.311 306.796 339.518 310.111 338.551 313.526C337.969 315.564 337.745 317.683 337.431 318.855C337.273 319.468 337.078 319.825 336.808 319.781C336.199 318.843 335.1 319.155 334.894 318.896C334.065 317.807 329.167 313.14 328.072 312.304C326.299 310.949 324.609 308.755 326.358 305.344C327.637 302.837 330.308 302.952 332.752 301.785L332.757 301.794Z" fill="#5C3B92"/>
<path fill-rule="evenodd" clip-rule="evenodd" d="M315.719 326.308C313.936 318.476 316.607 307.293 325.84 310.791C326.155 310.854 327.32 311.927 328.76 313.342C330.823 315.353 333.461 318.033 335.05 319.339C336.095 320.204 333.922 320.413 333.296 320.986C332.125 322.062 332.242 322.362 332.942 322.591C334.167 322.996 333.846 324.638 333.559 324.526C327.31 322.129 323.069 326.468 320.759 327.98C318.98 329.14 316.519 329.082 315.711 326.313L315.719 326.308Z" fill="#5C3B92"/>
<path fill-rule="evenodd" clip-rule="evenodd" d="M330.67 324.17C323.968 323.725 315.94 330.951 319.842 337.382C320.619 338.669 323.344 340.787 326.974 341.926C329.329 342.669 332.032 342.898 333.492 341.455C335.29 339.672 336.939 338.131 337.68 337.525C338.466 336.882 337.965 336.014 337.608 335.087C337.082 333.733 336.352 332.198 336.128 330.693C335.511 326.423 336.406 326.007 333.673 325.438C332.926 325.281 332.118 324.268 330.67 324.17Z" fill="#5C3B92"/>
<path fill-rule="evenodd" clip-rule="evenodd" d="M340.231 337.086C342.196 338.542 344.935 340.085 347.199 339.245C348.361 338.808 349.388 336.692 350.138 335.814C355.705 329.297 351.444 321.861 343.78 321.271C341.602 321.105 339.907 321.139 339.38 321.498C338.5 322.095 339.411 324.327 338.889 324.851C338.342 325.734 336.445 324.416 336.035 326.309C335.297 329.716 337.2 334.844 340.218 337.082L340.231 337.086Z" fill="#5C3B92"/>
<path fill-rule="evenodd" clip-rule="evenodd" d="M238.996 487.136C238.158 484.161 240.732 477.649 243.273 474.492C244.864 472.506 248.35 472.239 250.357 474.116C252.383 476.004 255.025 479.482 255.361 480.7C255.816 482.317 255.907 484.055 255.58 485.745C255.009 488.765 252.727 492.14 250.275 490.709C244.919 487.563 239.675 490.279 238.987 487.141L238.996 487.136Z" fill="#5C3B92"/>
<path fill-rule="evenodd" clip-rule="evenodd" d="M233.547 469.544C241.223 465.89 242.744 469.76 242.23 473.593C242.101 474.546 240.308 477.86 239.342 481.276C238.759 483.314 238.536 485.433 238.221 486.604C238.063 487.218 237.869 487.575 237.598 487.531C236.99 486.592 235.89 486.905 235.685 486.645C234.856 485.556 229.957 480.89 228.863 480.054C227.089 478.698 225.4 476.505 227.148 473.094C228.428 470.587 231.099 470.701 233.547 469.544Z" fill="#5C3B92"/>
<path fill-rule="evenodd" clip-rule="evenodd" d="M216.51 494.058C214.731 486.234 217.398 475.042 226.631 478.541C226.945 478.604 228.11 479.677 229.55 481.091C231.613 483.103 234.251 485.783 235.841 487.089C236.885 487.954 234.925 488.107 234.299 488.68C233.128 489.756 233.041 490.107 233.733 490.341C234.957 490.746 234.636 492.388 234.349 492.276C228.101 489.879 223.86 494.217 221.549 495.729C219.77 496.89 217.31 496.832 216.502 494.063L216.51 494.058Z" fill="#5C3B92"/>
<path fill-rule="evenodd" clip-rule="evenodd" d="M231.453 491.924C224.751 491.479 216.722 498.705 220.625 505.137C221.409 506.418 224.126 508.541 227.757 509.681C230.111 510.423 232.815 510.653 234.274 509.209C236.072 507.426 237.721 505.885 238.462 505.279C239.248 504.636 238.756 503.764 238.39 502.841C237.865 501.488 237.134 499.953 236.91 498.447C236.293 494.178 237.188 493.761 234.447 493.198C233.7 493.04 232.892 492.027 231.444 491.929L231.453 491.924Z" fill="#5C3B92"/>
<path fill-rule="evenodd" clip-rule="evenodd" d="M241.013 504.84C242.979 506.297 245.717 507.84 247.982 507C249.143 506.563 250.17 504.446 250.921 503.568C256.487 497.052 252.227 489.615 244.562 489.026C242.384 488.86 240.689 488.893 240.162 489.253C239.283 489.85 240.193 492.082 239.671 492.606C239.124 493.489 237.227 492.171 236.818 494.064C236.079 497.47 237.983 502.598 241 504.837L241.013 504.84Z" fill="#5C3B92"/>
<path fill-rule="evenodd" clip-rule="evenodd" d="M364.736 432.453C364.155 430.387 365.937 425.877 367.698 423.682C368.807 422.308 371.219 422.127 372.608 423.415C374.012 424.729 375.848 427.138 376.08 427.983C376.393 429.103 376.456 430.312 376.233 431.486C375.839 433.581 374.252 435.921 372.556 434.932C368.838 432.753 365.207 434.638 364.727 432.458L364.736 432.453Z" fill="#5C3B92"/>
<path fill-rule="evenodd" clip-rule="evenodd" d="M360.951 420.249C366.275 417.709 367.33 420.403 366.97 423.057C366.884 423.718 365.639 426.016 364.968 428.383C364.569 429.792 364.406 431.265 364.195 432.076C364.082 432.497 363.95 432.751 363.762 432.715C363.344 432.067 362.575 432.277 362.439 432.1C361.859 431.345 358.462 428.103 357.706 427.527C356.471 426.583 355.306 425.066 356.512 422.701C357.402 420.965 359.25 421.043 360.947 420.241L360.951 420.249Z" fill="#5C3B92"/>
<path fill-rule="evenodd" clip-rule="evenodd" d="M349.132 437.259C347.897 431.823 349.754 424.068 356.155 426.499C356.378 426.537 357.178 427.287 358.178 428.267C359.608 429.665 361.437 431.522 362.541 432.43C363.267 433.034 361.868 433.252 361.435 433.658C360.629 434.402 360.602 434.528 361.082 434.685C361.931 434.962 361.71 436.101 361.511 436.027C357.176 434.36 354.23 437.373 352.629 438.42C351.395 439.232 349.687 439.184 349.123 437.264L349.132 437.259Z" fill="#5C3B92"/>
<path fill-rule="evenodd" clip-rule="evenodd" d="M359.497 435.778C354.846 435.472 349.281 440.486 351.986 444.94C352.523 445.831 354.42 447.304 356.932 448.089C358.565 448.603 360.448 448.761 361.455 447.768C362.703 446.536 363.853 445.461 364.359 445.046C364.902 444.599 364.556 443.999 364.306 443.354C363.939 442.409 363.435 441.344 363.282 440.309C362.851 437.344 363.472 437.052 361.575 436.657C361.055 436.547 360.495 435.847 359.497 435.778Z" fill="#5C3B92"/>
<path fill-rule="evenodd" clip-rule="evenodd" d="M366.136 444.732C367.501 445.745 369.4 446.817 370.975 446.23C371.782 445.931 372.494 444.464 373.019 443.85C376.886 439.326 373.918 434.168 368.609 433.764C367.095 433.648 365.923 433.68 365.561 433.922C364.943 434.335 365.579 435.88 365.225 436.251C364.848 436.87 363.536 435.948 363.252 437.268C362.745 439.629 364.059 443.196 366.154 444.744L366.136 444.732Z" fill="#5C3B92"/>
<path fill-rule="evenodd" clip-rule="evenodd" d="M326.758 284.386C326.277 282.685 327.748 278.967 329.199 277.161C330.112 276.023 332.098 275.877 333.25 276.947C334.406 278.025 335.919 280.009 336.112 280.709C336.371 281.639 336.421 282.632 336.241 283.593C335.912 285.317 334.611 287.247 333.215 286.429C330.15 284.63 327.151 286.183 326.763 284.394L326.758 284.386Z" fill="#5C3B92"/>
<path fill-rule="evenodd" clip-rule="evenodd" d="M323.633 274.326C328.017 272.24 328.891 274.448 328.598 276.641C328.523 277.185 327.5 279.076 326.947 281.03C326.62 282.198 326.493 283.405 326.313 284.076C326.217 284.432 326.108 284.628 325.96 284.603C325.617 284.067 324.984 284.243 324.867 284.099C324.386 283.477 321.589 280.81 320.969 280.334C319.955 279.563 318.995 278.305 319.984 276.355C320.715 274.921 322.243 274.984 323.641 274.321L323.633 274.326Z" fill="#5C3B92"/>
<path fill-rule="evenodd" clip-rule="evenodd" d="M313.902 288.339C312.888 283.865 314.407 277.473 319.691 279.471C319.874 279.499 320.537 280.127 321.358 280.932C322.537 282.087 324.044 283.618 324.952 284.361C325.547 284.852 324.433 284.928 324.077 285.256C323.405 285.866 323.354 286.085 323.755 286.22C324.455 286.45 324.273 287.389 324.106 287.33C320.531 285.958 318.109 288.435 316.796 289.304C315.778 289.969 314.377 289.933 313.907 288.348L313.902 288.339Z" fill="#5C3B92"/>
<path fill-rule="evenodd" clip-rule="evenodd" d="M322.448 287.119C318.616 286.863 314.026 291.003 316.257 294.674C316.702 295.407 318.26 296.62 320.328 297.272C321.675 297.695 323.22 297.826 324.056 296.999C325.083 295.983 326.032 295.102 326.443 294.753C326.888 294.385 326.612 293.889 326.403 293.353C326.102 292.582 325.683 291.701 325.562 290.836C325.21 288.394 325.718 288.156 324.153 287.836C323.725 287.75 323.267 287.169 322.435 287.116L322.448 287.119Z" fill="#5C3B92"/>
<path fill-rule="evenodd" clip-rule="evenodd" d="M327.909 294.496C329.034 295.326 330.602 296.211 331.895 295.731C332.554 295.484 333.147 294.275 333.579 293.769C336.759 290.043 334.325 285.788 329.949 285.458C328.704 285.364 327.738 285.388 327.439 285.583C326.932 285.92 327.457 287.196 327.164 287.499C326.853 288.001 325.772 287.246 325.535 288.339C325.111 290.285 326.201 293.214 327.922 294.5L327.909 294.496Z" fill="#5C3B92"/>
<path fill-rule="evenodd" clip-rule="evenodd" d="M247.496 519.578C247.015 517.877 248.486 514.158 249.937 512.353C250.85 511.215 252.836 511.069 253.988 512.139C255.144 513.216 256.657 515.201 256.85 515.901C257.108 516.83 257.159 517.824 256.979 518.785C256.65 520.509 255.348 522.439 253.952 521.621C250.887 519.822 247.888 521.375 247.501 519.586L247.496 519.578Z" fill="#5C3B92"/>
<path fill-rule="evenodd" clip-rule="evenodd" d="M244.376 509.526C248.759 507.44 249.633 509.649 249.341 511.841C249.265 512.385 248.242 514.277 247.69 516.23C247.362 517.398 247.227 518.61 247.055 519.277C246.96 519.632 246.85 519.828 246.702 519.803C246.359 519.267 245.726 519.443 245.61 519.299C245.128 518.677 242.331 516.011 241.711 515.535C240.698 514.763 239.738 513.505 240.727 511.555C241.458 510.121 242.986 510.184 244.384 509.522L244.376 509.526Z" fill="#5C3B92"/>
<path fill-rule="evenodd" clip-rule="evenodd" d="M234.64 523.531C233.626 519.057 235.145 512.665 240.429 514.663C240.612 514.691 241.27 515.311 242.096 516.124C243.274 517.279 244.782 518.81 245.69 519.553C246.285 520.044 245.294 520.082 244.938 520.41C244.266 521.02 244.091 521.277 244.492 521.412C245.193 521.642 245.011 522.581 244.843 522.522C241.273 521.158 238.847 523.627 237.534 524.496C236.516 525.161 235.115 525.125 234.645 523.54L234.64 523.531Z" fill="#5C3B92"/>
<path fill-rule="evenodd" clip-rule="evenodd" d="M243.186 522.311C239.353 522.055 234.764 526.195 236.995 529.866C237.44 530.599 238.998 531.812 241.066 532.464C242.412 532.887 243.957 533.018 244.793 532.191C245.821 531.175 246.77 530.294 247.19 529.94C247.634 529.573 247.358 529.076 247.149 528.54C246.849 527.769 246.429 526.888 246.3 526.028C245.947 523.586 246.456 523.348 244.891 523.028C244.462 522.942 244.005 522.361 243.172 522.308L243.186 522.311Z" fill="#5C3B92"/>
<path fill-rule="evenodd" clip-rule="evenodd" d="M248.652 529.697C249.776 530.526 251.345 531.411 252.637 530.931C253.296 530.684 253.889 529.475 254.321 528.97C257.502 525.243 255.072 520.997 250.691 520.658C249.446 520.565 248.48 520.589 248.181 520.784C247.674 521.121 248.2 522.396 247.907 522.699C247.595 523.201 246.514 522.447 246.272 523.531C245.848 525.477 246.938 528.406 248.66 529.692L248.652 529.697Z" fill="#5C3B92"/>
<path fill-rule="evenodd" clip-rule="evenodd" d="M368.092 368.28C368.182 368.184 368.174 367.843 368.049 367.549C367.912 367.216 367.679 366.928 367.312 366.929C367.01 366.925 366.628 367.112 366.144 367.604C352.22 379.234 335.148 398.597 331.928 420.494C331.352 424.529 331.597 435.885 337.462 436.769C340.315 437.201 342.645 436.3 343.006 433.435C343.687 428.06 339.39 428.617 337.16 426.858C335.017 425.17 334.517 422.279 335.165 418.658C336.856 409.209 343.183 396.416 350.978 386.144C356.571 378.768 362.934 372.726 368.106 368.283L368.092 368.28Z" fill="#5C3B92"/>
<path fill-rule="evenodd" clip-rule="evenodd" d="M394.661 339.219C372.558 345.82 334.647 352.575 313.04 345.112C309.774 343.985 302.292 341.11 300.623 337.37C295.987 326.97 280.446 336.588 288.571 343.528C292.37 346.772 300.468 348.401 308.125 351.386C328.946 359.513 372.32 351.54 392.58 343.289C398.107 341.043 405.384 337.22 401.94 337.463C400.809 337.549 398.526 338.066 394.652 339.224L394.661 339.219Z" fill="#5C3B92"/>
<path fill-rule="evenodd" clip-rule="evenodd" d="M157.806 189.954C161.734 175.511 171.004 152.312 182.532 142.954C184.274 141.537 188.427 138.395 191.06 138.753C198.382 139.752 198.406 127.896 191.795 130.001C188.702 130.986 185.027 134.898 180.753 138.099C169.125 146.803 158.665 173.435 156.278 187.423C155.628 191.234 155.237 196.552 156.285 194.569C156.621 193.918 157.119 192.486 157.806 189.954Z" fill="#5C3B92"/>
<path fill-rule="evenodd" clip-rule="evenodd" d="M286.213 362.658C284.476 361.826 284.261 357.792 288.131 358.459C292.144 359.145 292.538 368.369 285.307 368.029C279.763 367.527 277.748 360.585 279.335 355.41C281.904 347.077 290.842 350.912 290.907 349.752C290.114 346.084 275.988 346.2 275.588 359.196C275.863 364.975 279.041 368.956 282.993 370.344C287.531 371.938 292.531 368.973 293.548 364.45C295.199 357.07 287.612 352.432 283.241 357.124C281.094 359.42 282.768 364.981 286.312 364.391C287.407 364.204 288.495 363.775 286.21 362.671L286.213 362.658Z" fill="#5C3B92"/>
<path fill-rule="evenodd" clip-rule="evenodd" d="M144.776 111.357C140.885 111.269 136.893 113.841 139.334 118.358C140.868 121.208 149.816 133.177 138.308 130.559C129.107 128.466 120.757 117.686 123.731 106.506C126.461 96.2348 147.006 91.8122 156.892 105.118C168.308 120.477 162.379 135.754 160.21 133.403C157.601 130.562 162.444 111.765 144.768 111.362L144.776 111.357Z" fill="#5C3B92"/>
<path fill-rule="evenodd" clip-rule="evenodd" d="M481.761 311.526C482.281 311.404 481.307 318.394 481.548 318.811C481.983 319.082 448.988 325.945 422.229 339.559C405.47 348.09 392.183 362.422 387.906 369.628C382.275 379.117 378.284 390.617 377.93 397.582C377.817 399.815 379.223 404.063 378.617 404.902C375.379 403.246 373.37 395.911 374.574 389.956C375.043 387.606 373.925 386.884 372.146 390.146C366.276 400.918 369.925 411.788 371.03 415.264C371.439 416.551 373.3 419.87 371.864 419.042C368.269 416.959 362.843 409.528 363.555 402.356C364.294 394.902 361.958 398.375 359.414 403.646C356.355 409.126 355.764 417.685 354.886 417.302C352.176 416.098 351.617 405.201 355.803 394.578C357.831 389.338 361.864 384.04 366.488 378.091C373.971 368.455 381.807 360.106 390.417 352.789C413.115 333.49 441.115 321.35 481.77 311.521L481.761 311.526Z" fill="#5C3B92"/>
<path fill-rule="evenodd" clip-rule="evenodd" d="M136.77 231.855C137.059 230.12 137.27 228.364 137.406 226.595C138.194 216.834 136.81 206.724 133.291 197.892C119.73 174.866 99.6708 176.717 87.3687 186.277C79.4902 192.394 77.6276 201.064 79.8145 208.997C84.4515 225.801 113.586 226.693 112.06 207.681C111.758 203.919 110.219 199.749 103.65 198.571C100.704 198.037 98.1509 199.689 98.635 197.597C100.494 189.518 112.693 194.028 115.703 201.286C119.826 211.204 114.153 227.367 95.6753 227.638C91.8179 227.686 87.8232 226.879 84.0412 225.148C72.9712 219.297 68.4355 205.715 70.9639 193.436C76.9577 164.312 122.944 151.127 138.044 195.849C141.884 205.507 142.555 217.273 141.737 227.887C141.122 235.691 137.05 233.517 136.763 231.881L136.77 231.855Z" fill="#5C3B92"/>
<path fill-rule="evenodd" clip-rule="evenodd" d="M271.082 450.898C264.414 444.728 256.915 458.577 268.628 463.267C276.024 466.225 282.671 460.174 280.275 451.127C275.828 435.692 256.552 441.695 255.114 454.09C253.488 468.105 264.407 476.123 275.268 474.845C283.128 473.921 289.355 466.545 292.506 460.8C293.453 459.086 294.885 455.647 295.318 452.85C295.802 449.735 295.288 447.341 296.435 447.457C301.13 447.204 289.973 496.844 256.587 477.869C250.853 474.608 246.999 469.127 245.48 462.91C243.189 451.712 248.201 441.613 255.874 437.706C269.359 430.832 288.259 443.071 282.739 459.579C280.811 465.473 274.092 468.452 266.891 465.271C262.935 463.374 260.814 460.106 260.211 457.596C259.185 453.352 261.414 449.018 264.971 447.987C268.627 446.955 272.137 448.754 273.948 450.811C276 453.151 275.221 456.236 272.205 455.62C269.499 455.058 272.224 451.95 271.077 450.889L271.082 450.898Z" fill="#5C3B92"/>
<path fill-rule="evenodd" clip-rule="evenodd" d="M179.621 179.172C193.76 172.677 200.153 186.777 192.173 190.617C188.907 192.191 186.019 191.468 183.202 189.347C182.027 188.468 179.996 188.652 177.718 189.488C171.262 191.859 164.756 198.484 161.348 203.243C160.423 204.533 160.148 203.536 160.703 201.336C161.92 196.463 168.45 184.309 179.621 179.172Z" fill="#5C3B92"/>
<path fill-rule="evenodd" clip-rule="evenodd" d="M186.514 159.781C199.199 155.048 203.643 166.582 196.474 169.397C193.542 170.545 191.076 169.745 188.77 167.718C187.81 166.883 186.032 166.908 183.999 167.493C178.246 169.136 172.173 174.465 168.909 178.395C168.031 179.458 167.853 178.572 168.471 176.692C169.834 172.535 176.486 163.524 186.514 159.781Z" fill="#5C3B92"/>
<path fill-rule="evenodd" clip-rule="evenodd" d="M195.706 144.833C205.765 143.651 206.889 153.677 201.18 154.449C198.845 154.763 197.195 153.736 195.879 151.861C195.327 151.079 194.031 150.782 192.454 150.847C187.978 151.018 182.622 153.811 179.549 156.085C178.714 156.701 178.747 156.026 179.536 154.77C181.27 151.989 187.757 145.776 195.711 144.842L195.706 144.833Z" fill="#5C3B92"/>
<path fill-rule="evenodd" clip-rule="evenodd" d="M87.7516 280.315C110.59 277.571 129.454 275.308 146.169 290.398C148.661 292.651 150.172 292.858 148.723 289.847C144.728 281.501 124.308 262.423 110.285 256.297C85.3784 245.414 70.3556 252.286 58.2786 261.349C50.9094 266.882 47.17 272.533 41.9812 278.064C38.0555 282.254 40.042 281.897 42.6821 280.839C60.4485 273.707 69.6941 282.49 87.7433 280.32L87.7516 280.315Z" fill="#5C3B92"/>
<path fill-rule="evenodd" clip-rule="evenodd" d="M208.71 417.712C218.469 401.57 226.544 388.235 244.751 385.028C247.469 384.549 248.372 383.683 245.686 383.099C238.262 381.48 215.603 385.056 204.559 391.031C184.933 401.651 181.784 414.822 181.545 427.191C181.403 434.734 183.159 440.014 184.129 446.148C184.856 450.799 185.628 449.341 186.28 447.096C190.641 432.014 201.002 430.468 208.718 417.707L208.71 417.712Z" fill="#5C3B92"/>
<path fill-rule="evenodd" clip-rule="evenodd" d="M98.2994 312.91C117.327 303.759 133.065 296.196 152.066 304.351C154.893 305.566 156.276 305.301 154.121 303.109C148.172 297.048 124.763 286.523 110.756 285.359C85.8819 283.285 74.8575 293.709 67.0553 305.163C62.2943 312.148 60.714 318.164 57.8536 324.508C55.6875 329.317 57.3049 328.416 59.2801 326.709C72.6086 315.244 83.2505 320.142 98.2946 312.902L98.2994 312.91Z" fill="#5C3B92"/>
<path fill-rule="evenodd" clip-rule="evenodd" d="M241.802 427.773C249.58 411.94 256.113 398.305 269.875 391.294C280.163 386.054 281.706 385.931 279.784 385.706C278.342 385.483 276.416 385.483 274.156 385.675C263.209 386.592 244.403 392.001 234.659 398.416C213.776 412.163 211.492 427.081 212.393 440.904C212.943 449.338 215.403 455.045 217.054 461.798C218.304 466.914 219.023 465.209 219.54 462.653C222.987 445.429 234.45 442.725 241.802 427.773Z" fill="#5C3B92"/>
<path fill-rule="evenodd" clip-rule="evenodd" d="M98.3856 237.904C119.876 226.019 140.69 243.002 140.645 266.812C140.646 268.569 139.832 272.018 138.974 268.044C136.828 257.907 128.448 255.596 120.01 252.762C110.691 249.636 110.295 247.485 102.858 242.45C100.972 241.17 94.4404 241.116 95.9394 239.606C96.4561 239.074 97.3944 238.443 98.3988 237.908L98.3856 237.904Z" fill="#5C3B92"/>
<path fill-rule="evenodd" clip-rule="evenodd" d="M204.772 202.279C182.455 187.743 157.128 203.8 154.304 229.293C154.09 231.218 154.532 235.088 155.981 230.849C159.623 220.017 169.086 218.535 178.688 216.483C189.292 214.219 190.001 211.919 198.787 207.336C201.019 206.169 208.69 206.288 207.254 204.437C206.75 203.795 205.812 202.98 204.781 202.274L204.772 202.279Z" fill="#5C3B92"/>
<path fill-rule="evenodd" clip-rule="evenodd" d="M198.496 296.737C178.052 306.461 181.851 328.274 195.571 339.89C198.595 342.447 206.956 347.405 202.615 343.684C194.883 337.118 198.184 330.631 199.68 322.039C200.96 314.673 197.718 303.969 199.613 300.039C200.708 297.772 202.353 295.01 201.108 295.418C200.418 295.65 199.431 296.119 198.501 296.745L198.496 296.737Z" fill="#5C3B92"/>
<path fill-rule="evenodd" clip-rule="evenodd" d="M207.364 221.632C172.343 215.153 148.845 247.622 160.029 277.693C160.852 279.909 163.57 283.943 162.893 278.586C162.342 272.31 165.287 270.798 167.373 268.916C170.749 265.855 174.929 264.498 181.275 260.489C192.894 253.158 192.506 241.129 200.475 231.891C201.468 230.74 204.202 227.204 206.873 225.506C210.622 223.131 213.865 222.481 207.364 221.632Z" fill="#5C3B92"/>
<path fill-rule="evenodd" clip-rule="evenodd" d="M198.232 267.011C179.089 267.055 166.056 279.128 168.869 294.528C170.163 301.609 173.018 306.476 173.431 314.499C173.612 318.109 175.137 314.793 175.851 312.424C177.619 302.107 183.963 296.899 188.788 290.199C193.219 284.049 193.455 276.919 196.633 272.071C198.786 268.782 204.035 267.075 198.245 267.015L198.232 267.011Z" fill="#5C3B92"/>
<path fill-rule="evenodd" clip-rule="evenodd" d="M160.166 401.673C163.417 372.175 194.828 363.725 218.448 376.641C220.219 377.609 222.73 381.341 218.441 379.291C207.532 374.026 197.365 383.487 188.903 390.174C179.563 397.557 177.291 396.378 167.473 400.389C164.978 401.408 160.436 408.155 160.052 405.486C159.923 404.548 159.976 403.117 160.166 401.673Z" fill="#5C3B92"/>
<path fill-rule="evenodd" clip-rule="evenodd" d="M266.515 424.613C257.329 402.996 279.397 384.129 300.744 384.702C302.362 384.747 305.55 386.22 301.77 386.478C292.095 387.094 285.551 398.355 282.213 406.031C278.525 414.509 276.474 414.582 271.143 420.984C269.789 422.611 269.202 428.843 267.913 427.208C267.46 426.636 266.94 425.657 266.528 424.616L266.515 424.613Z" fill="#5C3B92"/>
<path fill-rule="evenodd" clip-rule="evenodd" d="M418.427 362.125C412.055 352.227 421.355 341.053 431.951 339.528C432.752 339.41 434.455 339.873 432.607 340.317C427.882 341.444 425.607 347.55 424.611 351.627C423.51 356.122 422.499 356.338 420.409 359.947C419.88 360.863 420.119 363.995 419.342 363.287C419.069 363.044 418.736 362.603 418.435 362.12L418.427 362.125Z" fill="#5C3B92"/>
<path fill-rule="evenodd" clip-rule="evenodd" d="M440.824 357.556C432.778 345.066 444.519 330.949 457.894 329.031C458.913 328.887 461.051 329.466 458.718 330.034C452.758 331.452 449.88 339.173 448.619 344.316C447.221 349.993 445.951 350.26 443.316 354.816C442.647 355.97 442.947 359.922 441.97 359.04C441.623 358.729 441.193 358.177 440.825 357.578L440.824 357.556Z" fill="#5C3B92"/>
<path fill-rule="evenodd" clip-rule="evenodd" d="M458.528 359.821C449.089 345.168 462.864 328.597 478.559 326.34C479.754 326.173 482.268 326.845 479.527 327.516C472.528 329.178 469.156 338.241 467.671 344.268C466.03 350.931 464.542 351.246 461.449 356.589C460.667 357.953 461.025 362.583 459.866 361.54C459.464 361.172 458.959 360.529 458.524 359.813L458.528 359.821Z" fill="#5C3B92"/>
<path fill-rule="evenodd" clip-rule="evenodd" d="M307.219 423.084C305.215 419.671 291.452 457.684 315.261 480.509C328.198 492.91 346.751 494.119 357.393 489.531C378.164 480.564 362.164 460.391 361.712 460.629C361.53 460.757 362.962 466.902 360.516 469.47C357.748 472.369 351.881 475.279 345.861 475.997C331.117 477.76 314.41 467.68 308.92 456.761C299.99 439 308.119 424.622 307.219 423.084Z" fill="#5C3B92"/>
<path fill-rule="evenodd" clip-rule="evenodd" d="M140.536 183.757C141.471 185.608 142.494 187.186 142.681 187.356C142.759 187.433 142.852 187.113 142.68 186.467C134.8 137.421 63.3283 147.974 58.4545 199.59C58.2194 202.095 57.9521 203.695 58.5498 204.017C59.1525 204.347 61.2836 194.966 63.8245 189.129C80.8637 150.081 122.366 147.813 140.531 183.749L140.536 183.757Z" fill="#5C3B92"/>
<path fill-rule="evenodd" clip-rule="evenodd" d="M180.534 118.612C160.206 127.19 148.753 180.771 145.556 200.974C138.157 242.952 146.59 288.042 166.407 320.823C200.522 378.485 265.403 391.318 329.988 372.944L328.63 368.991C317.166 373.331 301.002 375.413 288.627 375.341C239.161 375.057 202.161 367.886 169.203 316.796C149.908 284.881 142.228 242.659 149.425 201.776C150.902 190.027 157.282 161.514 165.656 143.435C166.869 140.812 170.351 134.909 173.567 130.395C174.961 128.433 177.055 127.258 179.167 126.406C180.803 125.75 183.16 125.879 184.52 125.439C187.931 124.348 188.756 122.248 188.011 120.554C187.127 118.541 184.112 117.079 180.511 118.591L180.534 118.612Z" fill="#5C3B92"/>
<path fill-rule="evenodd" clip-rule="evenodd" d="M342.186 390.62C319.036 408.345 320.451 450.204 342.323 466.398C340.127 466.064 337.939 465.515 335.793 464.708C314.289 456.73 306.986 438.586 315.937 415.549C317.611 411.236 319.958 407.301 322.788 403.854C327.962 397.565 334.784 392.915 342.19 390.607L342.186 390.62Z" fill="#5C3B92"/>
<path fill-rule="evenodd" clip-rule="evenodd" d="M46.8664 235.336C46.9613 233.669 48.3919 232.387 50.0599 232.48C51.7278 232.574 53.009 234.002 52.9141 235.669C52.8191 237.336 51.3885 238.618 49.7205 238.525C48.0526 238.432 46.7714 237.003 46.8664 235.336Z" fill="#5C3B92"/>
<path fill-rule="evenodd" clip-rule="evenodd" d="M36.9866 210.762C37.1025 208.649 38.9059 207.03 41.0199 207.143C43.1338 207.257 44.7524 209.058 44.6365 211.171C44.5206 213.284 42.7172 214.903 40.6032 214.79C38.4893 214.676 36.8707 212.875 36.9866 210.762Z" fill="#5C3B92"/>
<path fill-rule="evenodd" clip-rule="evenodd" d="M264.426 287.093C259.735 281.262 259.315 264.358 261.996 254.927C263.677 249.008 271.175 245.124 277.411 247.384C283.704 249.666 292.882 254.919 294.789 257.298C297.331 260.467 299.172 264.253 300.049 268.317C301.626 275.579 299.741 285.251 292.931 284.368C278.022 282.435 268.927 293.423 264.426 287.093Z" fill="#5C3B92"/>
<path fill-rule="evenodd" clip-rule="evenodd" d="M235.647 253.094C249.278 237.718 256.333 244.887 258.813 253.907C259.435 256.161 258.571 265.21 259.649 273.728C260.288 278.808 261.782 283.727 262.193 286.637C262.319 287.531 260.905 287.125 260.19 287.738C259.467 288.355 259.435 289.997 258.93 290.066C258.762 290.085 256.714 289.178 256.607 289.128C253.724 287.49 238.403 281.736 235.175 280.909C229.935 279.564 224.117 276.274 224.776 267.042C225.266 260.255 231.318 257.994 235.651 253.102L235.647 253.094Z" fill="#5C3B92"/>
<path fill-rule="evenodd" clip-rule="evenodd" d="M220.896 323.734C209.522 308.006 204.9 280.586 228.762 279.652C229.52 279.481 233.131 280.799 237.679 282.565C244.168 285.09 252.579 288.552 257.348 289.968C260.491 290.9 257.941 292.305 256.627 293.887C252.985 298.28 260.236 297.129 259.006 302.576C258.856 303.241 255.598 303.21 254.681 303.394C242.061 305.966 237.088 317.654 233.717 322.67C230.849 326.938 225.327 329.115 220.896 323.734Z" fill="#5C3B92"/>
<path fill-rule="evenodd" clip-rule="evenodd" d="M252.156 304.863C236.804 310.202 225.77 333.874 240.539 344.473C243.484 346.586 251.562 348.739 260.71 347.849C266.656 347.274 272.899 345.226 274.777 340.651C277.108 334.99 279.315 330.002 280.394 327.956C281.534 325.786 279.62 324.322 277.928 322.586C275.472 320.068 272.395 317.341 270.493 314.202C265.079 305.286 266.67 303.511 260.043 304.835C258.225 305.195 255.459 303.701 252.159 304.85L252.156 304.863Z" fill="#5C3B92"/>
<path fill-rule="evenodd" clip-rule="evenodd" d="M285.671 324.565C291.427 325.956 298.987 326.806 303.234 322.786C305.408 320.73 305.692 315.051 306.547 312.367C312.778 292.602 296.251 280.094 278.65 286.009C273.642 287.688 269.904 289.39 269.069 290.662C267.656 292.823 271.812 296.917 271.147 298.58C270.772 301.054 265.294 299.913 266.178 304.529C267.759 312.801 276.843 322.423 285.666 324.556L285.671 324.565Z" fill="#5C3B92"/>
<path fill-rule="evenodd" clip-rule="evenodd" d="M261.471 297.572C260.951 296.672 261.625 294.793 262.954 293.392C264.282 291.991 265.787 291.589 266.298 292.495C266.818 293.396 266.144 295.275 264.816 296.675C263.487 298.076 261.983 298.478 261.471 297.572Z" fill="#5C3B92"/>
<path fill-rule="evenodd" clip-rule="evenodd" d="M38.8133 184.388C38.9653 181.721 41.2439 179.671 43.921 179.816C46.5898 179.965 48.6382 182.241 48.4911 184.917C48.3439 187.592 46.0604 189.633 43.3834 189.489C40.7146 189.34 38.6662 187.064 38.8133 184.388Z" fill="#5C3B92"/>
<path fill-rule="evenodd" clip-rule="evenodd" d="M49.0098 163.624C49.1972 160.246 52.087 157.655 55.4659 157.839C58.8449 158.023 61.4348 160.909 61.2475 164.286C61.0601 167.664 58.1703 170.255 54.7914 170.071C51.4124 169.887 48.8225 167.001 49.0098 163.624Z" fill="#5C3B92"/>
<path fill-rule="evenodd" clip-rule="evenodd" d="M70.898 149.574C71.05 146.907 73.3286 144.857 76.0057 145.002C78.6745 145.151 80.7229 147.427 80.5758 150.103C80.4238 152.77 78.1452 154.819 75.4681 154.675C72.7993 154.526 70.7509 152.25 70.898 149.574Z" fill="#5C3B92"/>
<path fill-rule="evenodd" clip-rule="evenodd" d="M93.8929 142.069C94.0449 139.402 96.3235 137.352 99.0006 137.497C101.669 137.646 103.718 139.922 103.571 142.597C103.419 145.265 101.14 147.314 98.4629 147.17C95.7942 147.02 93.7458 144.745 93.8929 142.069Z" fill="#5C3B92"/>
<path fill-rule="evenodd" clip-rule="evenodd" d="M118.96 145.788C119.076 143.675 120.879 142.056 122.993 142.17C125.107 142.284 126.726 144.084 126.61 146.197C126.494 148.31 124.69 149.93 122.576 149.816C120.462 149.702 118.844 147.901 118.96 145.788Z" fill="#5C3B92"/>
<path fill-rule="evenodd" clip-rule="evenodd" d="M136.562 158.865C136.657 157.198 138.087 155.916 139.755 156.01C141.423 156.103 142.704 157.532 142.609 159.199C142.514 160.866 141.084 162.148 139.416 162.054C137.748 161.961 136.467 160.532 136.562 158.865Z" fill="#5C3B92"/>
<path fill-rule="evenodd" clip-rule="evenodd" d="M140.264 344.49C139.103 344.348 137.396 344.4 136.03 344.366C132.253 344.245 125.622 341.802 125.7 337.309C125.73 335.279 127.16 333.264 129.46 334.626C130.915 335.488 136.95 340.388 135.834 334.349C134.938 329.518 129.497 324.953 123.621 326.267C117.468 327.64 114.78 341.167 125.546 345.392C130.313 347.266 137.221 346.102 140.367 345.42C142.294 344.997 142.644 344.794 140.269 344.498L140.264 344.49Z" fill="#5C3B92"/>
<path fill-rule="evenodd" clip-rule="evenodd" d="M158.582 357.342C152.289 360.864 155.831 367.114 159.442 365.174C160.919 364.377 161.438 363.099 161.419 361.464C161.404 360.783 162.04 360.072 162.97 359.446C165.619 357.672 169.873 357.039 172.595 357.069C173.334 357.076 173.031 356.706 172.053 356.303C169.889 355.429 163.555 354.56 158.574 357.347L158.582 357.342Z" fill="#5C3B92"/>
<path fill-rule="evenodd" clip-rule="evenodd" d="M150.833 353.888C145.355 356.951 148.108 361.989 151.25 360.297C152.543 359.606 152.99 358.492 152.97 357.069C152.961 356.474 153.507 355.858 154.325 355.308C156.629 353.766 160.34 353.214 162.704 353.239C163.343 353.248 163.086 352.919 162.232 352.577C160.356 351.815 155.167 351.464 150.838 353.896L150.833 353.888Z" fill="#5C3B92"/>
<path fill-rule="evenodd" clip-rule="evenodd" d="M140.002 355.238C137.087 358.922 140.765 361.803 142.468 359.74C143.161 358.896 143.163 357.994 142.734 357.019C142.554 356.611 142.761 356.025 143.17 355.422C144.324 353.699 146.734 352.263 148.378 351.603C148.821 351.425 148.553 351.268 147.867 351.275C146.347 351.285 142.321 352.331 140.007 355.246L140.002 355.238Z" fill="#5C3B92"/>
<path fill-rule="evenodd" clip-rule="evenodd" d="M158.519 335.774C157.219 331.265 161.724 329.987 162.506 332.538C162.832 333.584 162.475 334.412 161.717 335.162C161.394 335.47 161.362 336.089 161.508 336.806C161.923 338.835 163.607 341.076 164.876 342.311C165.224 342.644 164.911 342.68 164.278 342.412C162.874 341.832 159.544 339.341 158.514 335.765L158.519 335.774Z" fill="#5C3B92"/>
<path fill-rule="evenodd" clip-rule="evenodd" d="M139.091 370.086C134.391 370.063 134.362 374.717 137.031 374.789C138.125 374.813 138.83 374.261 139.349 373.328C140.714 370.872 143.566 372.361 145.356 373.919C147.072 375.407 147.84 377.355 149.108 379.069C149.568 379.692 149.6 379.496 149.44 378.911C148.889 376.916 146.403 370.123 139.091 370.086Z" fill="#5C3B92"/>
<path fill-rule="evenodd" clip-rule="evenodd" d="M131.505 357.275C130.352 359.808 132.885 360.937 133.564 359.511C133.84 358.929 133.706 358.406 133.331 357.911C133.176 357.7 133.202 357.34 133.354 356.93C133.778 355.774 134.952 354.607 135.809 353.989C136.036 353.825 135.86 353.771 135.465 353.876C134.593 354.102 132.422 355.277 131.51 357.283L131.505 357.275Z" fill="#5C3B92"/>
<path fill-rule="evenodd" clip-rule="evenodd" d="M122.525 389.824C122.393 390.368 122.79 391.673 124.068 392.981C125.834 394.786 129.243 396.564 135.076 396.255C141.355 395.91 146.243 391.42 147.731 387.558C150.642 380.029 141.672 379.281 141.626 379.452C141.614 379.526 143.494 380.642 143.525 381.892C143.562 383.305 142.831 385.529 141.521 387.252C138.319 391.48 131.677 393.358 127.619 392.132C123.227 390.809 122.689 389.184 122.536 389.806L122.525 389.824Z" fill="#5C3B92"/>
<path fill-rule="evenodd" clip-rule="evenodd" d="M178.396 354.276C172.727 348.486 159.565 342.309 153.198 344.372C152.347 344.652 151.741 342.022 152.308 341.673C157.365 338.575 172.662 347.023 178.507 353.389C179.163 354.1 178.786 354.662 178.404 354.271L178.396 354.276Z" fill="#5C3B92"/>
<path fill-rule="evenodd" clip-rule="evenodd" d="M127.141 358.816C126.734 358.228 125.927 358.082 125.338 358.489C124.749 358.896 124.603 359.703 125.009 360.291C125.416 360.879 126.223 361.025 126.812 360.618C127.401 360.211 127.547 359.404 127.141 358.816Z" fill="#5C3B92"/>
<path fill-rule="evenodd" clip-rule="evenodd" d="M122.911 362.826C122.443 362.151 121.514 361.987 120.838 362.455C120.162 362.923 119.997 363.852 120.465 364.527C120.932 365.203 121.862 365.366 122.538 364.898C123.214 364.43 123.378 363.501 122.911 362.826Z" fill="#5C3B92"/>
<path fill-rule="evenodd" clip-rule="evenodd" d="M152.894 331.738C151.667 329.978 149.244 329.542 147.483 330.771C145.721 331.999 145.282 334.421 146.51 336.18C147.737 337.94 150.159 338.376 151.921 337.148C153.683 335.919 154.122 333.498 152.894 331.738Z" fill="#5C3B92"/>
<path fill-rule="evenodd" clip-rule="evenodd" d="M119.839 366.568C119.371 365.892 118.437 365.72 117.766 366.197C117.09 366.665 116.925 367.594 117.393 368.269C117.861 368.944 118.79 369.108 119.466 368.64C120.142 368.172 120.307 367.243 119.839 366.568Z" fill="#5C3B92"/>
<path fill-rule="evenodd" clip-rule="evenodd" d="M118.593 371.157C118.064 370.395 117.02 370.207 116.257 370.737C115.495 371.266 115.306 372.309 115.835 373.071C116.364 373.833 117.407 374.02 118.17 373.491C118.933 372.962 119.122 371.919 118.593 371.157Z" fill="#5C3B92"/>
<path fill-rule="evenodd" clip-rule="evenodd" d="M118.624 376.398C118.095 375.636 117.052 375.449 116.289 375.978C115.526 376.508 115.338 377.55 115.867 378.312C116.396 379.074 117.439 379.262 118.202 378.732C118.965 378.203 119.153 377.16 118.624 376.398Z" fill="#5C3B92"/>
<path fill-rule="evenodd" clip-rule="evenodd" d="M119.659 381.005C119.13 380.243 118.087 380.055 117.324 380.585C116.561 381.114 116.372 382.157 116.901 382.919C117.43 383.681 118.474 383.868 119.237 383.339C119.999 382.809 120.188 381.767 119.659 381.005Z" fill="#5C3B92"/>
<path fill-rule="evenodd" clip-rule="evenodd" d="M121.81 385.522C121.281 384.76 120.238 384.573 119.475 385.102C118.712 385.632 118.524 386.675 119.053 387.437C119.582 388.199 120.625 388.386 121.388 387.856C122.151 387.327 122.339 386.284 121.81 385.522Z" fill="#5C3B92"/>
<path fill-rule="evenodd" clip-rule="evenodd" d="M177.443 354.225C157.099 345.422 132.671 343.214 113.421 355.74C98.282 365.592 96.3084 386.313 105.735 398.128C117.162 412.446 140.994 411.885 151.622 396.976C158.217 387.731 155.641 370.371 146.311 365.606C142.967 363.901 138.876 363.505 134.221 365.18C130.1 366.659 127.786 370.653 127.898 370.866C129.35 370.606 133.512 366.246 137.744 366.538C151.626 367.485 155.101 386.094 146.884 394.208C138.932 402.068 122.723 398.305 116.782 390.983C111.869 384.924 109.256 372.8 116.413 361.963C120.634 355.567 130.958 352.298 140.66 350.555C151.81 348.543 157.462 349.483 166.039 351.825C168.918 352.609 175.792 355.145 178.183 355.411C179.874 355.602 180.124 355.379 177.425 354.214L177.443 354.225Z" fill="#5C3B92"/>
<path fill-rule="evenodd" clip-rule="evenodd" d="M444.775 389.522C457.863 373.36 468.385 394.438 472.635 402.937C473.679 405.015 474.994 405.423 474.83 403.616C474.356 398.63 469.844 384.434 457.331 376.969C453.404 374.622 450.067 373.913 446.387 374.459C418.708 378.575 434.801 401.842 444.775 389.522Z" fill="#5C3B92"/>
<path fill-rule="evenodd" clip-rule="evenodd" d="M414.001 437.268C468.824 457.744 492.165 393.808 446.575 398.424C441.646 399.835 475.692 415.828 442.469 431.106C433.542 435.215 423.229 433.875 414.617 433.187C411.376 432.934 413.418 437.049 413.996 437.26L414.001 437.268Z" fill="#5C3B92"/>
<path fill-rule="evenodd" clip-rule="evenodd" d="M405.977 358.839C404.517 357.814 402.504 358.164 401.472 359.616C400.445 361.076 400.794 363.088 402.245 364.118C403.706 365.143 405.718 364.792 406.75 363.34C407.777 361.88 407.429 359.869 405.977 358.839Z" fill="#5C3B92"/>
<path fill-rule="evenodd" clip-rule="evenodd" d="M398.747 368.083C397.056 366.891 394.71 367.3 393.516 368.991C392.321 370.681 392.728 373.026 394.419 374.218C396.109 375.411 398.455 375.001 399.65 373.311C400.844 371.62 400.437 369.276 398.747 368.083Z" fill="#5C3B92"/>
<path fill-rule="evenodd" clip-rule="evenodd" d="M392.694 390.281C390.374 388.652 387.172 389.199 385.54 391.52C383.908 393.841 384.453 397.04 386.773 398.669C389.094 400.298 392.296 399.751 393.936 397.425C395.568 395.104 395.024 391.905 392.698 390.267L392.694 390.281Z" fill="#5C3B92"/>
<path fill-rule="evenodd" clip-rule="evenodd" d="M393.843 378.832C391.878 377.453 389.164 377.919 387.783 379.884C386.402 381.849 386.865 384.561 388.83 385.94C390.795 387.319 393.509 386.852 394.89 384.887C396.272 382.922 395.808 380.21 393.843 378.832Z" fill="#5C3B92"/>
<path fill-rule="evenodd" clip-rule="evenodd" d="M394.767 403.472C392.446 401.843 389.245 402.391 387.613 404.712C385.981 407.033 386.525 410.232 388.846 411.861C391.167 413.49 394.369 412.943 396.001 410.622C397.633 408.301 397.088 405.101 394.767 403.472Z" fill="#5C3B92"/>
<path fill-rule="evenodd" clip-rule="evenodd" d="M399.804 415.687C397.911 414.355 395.3 414.807 393.966 416.7C392.633 418.593 393.082 421.202 394.974 422.534C396.867 423.865 399.479 423.413 400.812 421.52C402.146 419.627 401.697 417.018 399.804 415.687Z" fill="#5C3B92"/>
<path fill-rule="evenodd" clip-rule="evenodd" d="M407.133 425.643C405.592 424.554 403.459 424.929 402.368 426.471C401.277 428.013 401.65 430.144 403.192 431.233C404.733 432.322 406.866 431.947 407.957 430.405C409.048 428.863 408.675 426.733 407.133 425.643Z" fill="#5C3B92"/>
</g>
<defs>
<clipPath id="clip0_412_608">
<rect width="460" height="396" fill="white" transform="translate(189 596.372) rotate(-120)"/>
</clipPath>
</defs>
</svg>
