<svg width="398" height="545" viewBox="0 0 398 545" fill="none" xmlns="http://www.w3.org/2000/svg">
<g opacity="0.2" clip-path="url(#clip0_412_211)">
<path fill-rule="evenodd" clip-rule="evenodd" d="M154.635 243.11C154.635 243.11 111.491 239.804 106.58 206.455C101.669 173.105 133.718 148.438 109.636 119.266C85.5177 90.0583 57.0706 110.257 62.1634 118.83C67.2562 127.404 74.3498 124.57 74.3498 124.57C74.3498 124.57 60.0535 136.341 51.9413 119.775C31.7518 78.6512 152.343 18.9271 188.611 130.528C200.943 78.3969 284.321 63.1389 332.011 22.4873C298.799 76.4351 316.697 160.39 260.821 188.036C377.883 198.099 346.853 328.918 302.182 318.565C284.175 314.387 292.433 297.857 292.433 297.857C292.433 297.857 291.269 305.377 300.8 308.429C310.294 311.48 323.572 279.221 289.632 262.364C255.692 245.508 238.885 282.272 205.236 285.033C171.587 287.794 158.636 246.561 158.636 246.561C181.663 258.296 196.323 229.087 240.849 222.403C285.376 215.719 317.315 253.028 317.315 253.028C317.315 253.028 298.69 208.671 253.582 206.527C208.474 204.384 174.643 230.795 174.643 230.795C174.643 230.795 226.771 171.035 254.673 123.807C258.02 118.14 261.657 112.582 265.441 107.242C260.93 112.255 256.201 117.159 251.29 121.809C211.529 159.627 166.421 224.074 166.421 224.074C166.421 224.074 184.537 185.203 172.242 141.79C159.946 98.3775 112.473 90.2763 112.473 90.2763C112.473 90.2763 156.054 112.909 159.619 157.738C163.147 202.568 137.974 223.457 154.635 243.183V243.11Z" fill="#5C3B92"/>
<path fill-rule="evenodd" clip-rule="evenodd" d="M378.865 201.042C378.793 174.05 311.24 171.943 278.827 184.876C278.827 184.876 333.248 154.396 376.21 177.174C399.71 189.635 401.419 205.801 394.399 214.956C379.775 234.101 358.894 224.256 355.584 212.958C351.291 198.281 365.042 188.363 378.865 201.006V201.042Z" fill="#5C3B92"/>
<path fill-rule="evenodd" clip-rule="evenodd" d="M156.636 18.6002C183.3 14.3134 196.287 80.5766 188.72 114.616C188.72 114.616 210.074 56.0548 180.645 17.4013C164.529 -3.74185 148.269 -2.83363 140.375 5.55825C123.787 23.0686 136.883 42.0684 148.596 43.5215C163.766 45.3743 171.405 30.2253 156.672 18.6365L156.636 18.6002Z" fill="#5C3B92"/>
<path fill-rule="evenodd" clip-rule="evenodd" d="M-176 209.034C-108.52 415.235 97.7768 325.721 182.718 335.857C239.503 342.65 289.668 410.73 257.547 476.666C225.389 542.602 184.101 528.071 163.729 507.981C143.358 487.855 145.104 464.823 148.487 457.63C151.87 450.437 162.347 447.64 162.347 447.64C162.347 447.64 141.866 470.962 167.403 494.249C192.977 517.499 231.318 484.658 219.532 455.959C207.782 427.259 176.971 418.032 149.396 441.536C121.786 465.041 131.244 521.75 182.245 539.442C259.511 565.816 319.025 493.014 313.422 421.628C305.892 325.721 226.553 277.005 141.866 296.186C-62.7933 342.614 -108.593 316.239 -176 209.034Z" fill="#5C3B92"/>
<path fill-rule="evenodd" clip-rule="evenodd" d="M-91.095 251.212C-44.8956 309.955 13.1265 314.823 52.6688 295.46C119.64 262.655 100.505 171.652 48.8855 160.136C11.5622 151.817 -24.3787 188.254 -1.67917 218.371C13.1628 238.061 32.552 230.686 41.1007 218.189C51.4319 203.113 42.8105 189.526 31.5699 185.057C17.5282 179.463 -4.04369 190.216 6.54215 213.285C6.54215 213.285 -8.51813 195.302 8.47015 180.153C25.4584 165.004 80.0246 169.981 70.13 227.416C60.2353 284.852 -27.7618 309.773 -91.1313 251.212H-91.095Z" fill="#5C3B92"/>
<path fill-rule="evenodd" clip-rule="evenodd" d="M152.889 247.542C148.996 285.542 95.2668 303.743 62.3088 302.58C119.385 280.856 113.674 239.877 152.889 247.542Z" fill="#5C3B92"/>
<path fill-rule="evenodd" clip-rule="evenodd" d="M238.376 417.087C229.972 379.814 193.304 328.192 123.314 345.484C220.733 348.136 180.681 438.884 238.376 417.087Z" fill="#5C3B92"/>
<path fill-rule="evenodd" clip-rule="evenodd" d="M22.9484 500.316C22.9484 500.316 37.8995 526 66.2376 509.507C94.5392 493.014 76.0231 450.001 47.576 451.708C19.1288 453.416 -8.48172 484.259 15.0545 514.702C67.0015 581.946 194.141 469.4 87.0455 382.285C24.258 331.207 -87.3481 377.671 -69.1957 461.444C-69.1957 461.444 -54.0991 406.843 -0.951591 401.103C52.1595 395.327 97.4858 427.841 102.142 467.875C108.981 526.799 28.3687 545.363 22.9848 500.352L22.9484 500.316Z" fill="#5C3B92"/>
</g>
<defs>
<clipPath id="clip0_412_211">
<rect width="574" height="545" fill="white" transform="translate(-176)"/>
</clipPath>
</defs>
</svg>
