<svg width="490" height="620" viewBox="0 0 490 620" fill="none" xmlns="http://www.w3.org/2000/svg">
<g opacity="0.2" clip-path="url(#clip0_412_196)">
<path fill-rule="evenodd" clip-rule="evenodd" d="M231.814 448.548C231.814 448.548 257.143 474.143 242.072 497.833C227.002 521.547 193.386 519.62 192.634 551.161C191.883 582.701 220.804 585.498 222.26 577.296C223.715 569.117 217.729 567.025 217.729 567.025C217.729 567.025 233.129 567.378 229.208 582.278C219.49 619.201 111.083 591.162 149.089 501.03C112.914 527.165 52.161 491.393 0.0233992 491.017C50.33 475.106 84.8146 412.425 135.027 425.422C66.9033 355.29 157.704 289.717 180.146 320.576C189.207 333.033 174.981 338.955 174.981 338.955C174.981 338.955 179.817 334.842 175.498 327.745C171.178 320.647 145.239 333.761 157.399 362.881C169.559 392.001 200.17 377.97 222.823 394.563C245.476 411.155 231.157 444.224 231.157 444.224C223.081 424.27 197.916 434.705 166.296 414.657C134.652 394.61 134.91 353.691 134.91 353.691C134.91 353.691 122.445 391.813 149.652 417.76C176.859 443.707 212.518 445.493 212.518 445.493C212.518 445.493 147.164 454.753 103.876 469.325C98.6647 471.087 93.3594 472.591 88.0775 473.908C93.6411 473.202 99.2985 472.685 104.909 472.403C150.544 470.218 214.02 454.142 214.02 454.142C214.02 454.142 181.437 468.784 165.521 502.839C149.605 536.918 175.052 567.895 175.052 567.895C175.052 567.895 159.957 529.867 182.165 499.666C204.348 469.466 231.579 470.03 231.861 448.501L231.814 448.548Z" fill="#5C3B92"/>
<path fill-rule="evenodd" clip-rule="evenodd" d="M67.8658 352.916C53.194 369.955 94.5332 408.124 121.999 417.619C121.999 417.619 71.1523 407.183 56.5509 369.415C48.5695 348.756 56.3162 337.639 65.7061 335.665C85.3311 331.552 93.1247 349.155 89.0401 358.086C83.7582 369.673 69.6734 368.451 67.8658 352.939L67.8658 352.916Z" fill="#5C3B92"/>
<path fill-rule="evenodd" clip-rule="evenodd" d="M108.195 589.024C89.0869 577.202 117.022 528.34 140.356 511.018C140.356 511.018 95.0026 536.307 92.4673 576.732C91.0823 598.848 101.81 607.121 111.341 606.157C131.295 604.159 133.431 585.028 126.834 577.742C118.313 568.294 105.261 573.7 108.195 589.047L108.195 589.024Z" fill="#5C3B92"/>
<path fill-rule="evenodd" clip-rule="evenodd" d="M439.613 620C470.624 479.995 308.976 423.471 264.702 374.773C232.683 339.566 238.246 269.27 294.398 245.227C350.55 221.183 368.602 252.818 370.456 276.603C372.311 300.387 358.672 313.972 352.616 316.651C346.583 319.331 338.46 315.406 338.46 315.406C338.46 315.406 364.071 311.857 360.667 283.254C357.264 254.651 315.244 254.487 307.004 278.977C298.764 303.466 313.107 326.052 343.273 326.287C373.438 326.499 398.415 285.604 375.973 246.637C341.747 187.904 264.655 201.371 229.279 249.434C181.766 314.019 205.1 387.958 268.81 421.99C337.24 458.537 397.523 498.397 398.814 557.53C399.448 586.955 396.396 606.815 392.64 619.953L439.59 619.953L439.613 620Z" fill="#5C3B92"/>
<path fill-rule="evenodd" clip-rule="evenodd" d="M390.786 577.343C393.72 515.131 359.916 480.441 324.493 471.111C264.491 455.293 226.931 523.122 253.129 558.494C272.073 584.065 314.539 580.68 316.675 549.328C318.06 528.833 301.863 522.911 289.679 526.13C274.961 530.008 272.989 543.287 277.613 552.242C283.388 563.406 302.825 568.388 308.717 548.082C308.717 548.082 308.412 567.613 289.445 567.918C270.5 568.224 238.88 535.343 276.416 504.508C313.952 473.673 382.875 505.895 390.786 577.366L390.786 577.343Z" fill="#5C3B92"/>
<path fill-rule="evenodd" clip-rule="evenodd" d="M235.312 446.715C258.458 424.858 302.191 442.673 322.262 461.357C274.515 443.942 255.805 472.92 235.312 446.715Z" fill="#5C3B92"/>
<path fill-rule="evenodd" clip-rule="evenodd" d="M366.724 164.237C366.724 164.237 352.428 187.739 332.122 180.9C311.793 174.061 307.051 148.772 283.552 154.013C260.054 159.254 263.317 181.205 269.632 180.782C275.97 180.359 276.393 175.518 276.393 175.518C276.393 175.518 278.951 187.011 267.214 186.846C238.105 186.423 238.95 100.826 312.661 112.46C286.675 90.4147 302.004 38.7559 292.684 -7.10645e-06C313.694 34.4079 366.442 48.486 366.043 88.1349C405.457 24.7013 470.67 80.05 451.961 102.378C444.402 111.379 437.407 101.931 437.407 101.931C437.407 101.931 441.35 104.775 445.811 100.239C450.271 95.7263 435.81 78.8984 416.467 93.2585C397.147 107.619 413.134 127.76 405.011 147.62C396.889 167.48 369.776 162.92 369.776 162.92C383.062 153.261 370.715 136.503 379.752 109.358C388.79 82.1888 419.12 74.8559 419.12 74.8559C419.12 74.8559 388.602 72.5997 374.4 97.5595C360.174 122.519 365.409 149.312 365.409 149.312C365.409 149.312 346.559 102.519 327.803 73.0697C325.549 69.5208 323.46 65.8779 321.511 62.188C323.061 66.1835 324.469 70.2729 325.713 74.4094C335.714 107.877 359.259 152.039 359.259 152.039C359.259 152.039 342.451 130.557 314.281 124.987C286.135 119.417 267.871 144.001 267.871 144.001C267.871 144.001 293.248 125.833 319.68 136.738C346.113 147.667 350.714 167.973 366.677 164.213L366.724 164.237Z" fill="#5C3B92"/>
<path fill-rule="evenodd" clip-rule="evenodd" d="M407.429 24.9833C392.124 17.2274 371.466 54.9022 369.47 77.0417C369.47 77.0417 367.874 37.3927 393.157 19.6247C406.983 9.89459 416.655 13.608 419.824 20.2123C426.467 34.0318 414.871 43.0333 407.5 41.6467C397.945 39.837 396.279 29.1668 407.429 25.0068L407.429 24.9833Z" fill="#5C3B92"/>
<path fill-rule="evenodd" clip-rule="evenodd" d="M240.03 98.2881C245.288 81.9302 286.581 93.6816 303.694 107.83C303.694 107.83 276.651 78.8279 246.251 84.351C229.631 87.3829 225.476 96.8544 227.941 103.764C233.082 118.218 247.636 116.268 251.814 110.039C257.237 101.978 250.852 93.282 240.03 98.2881Z" fill="#5C3B92"/>
<path fill-rule="evenodd" clip-rule="evenodd" d="M368.743 166.493C389.166 179.654 384.001 215.378 373.86 233.71C377.992 195.072 353.108 186.494 368.743 166.493Z" fill="#5C3B92"/>
<path fill-rule="evenodd" clip-rule="evenodd" d="M273.928 293.243C258.904 321.328 253.833 373.857 307.262 401.096C247.425 346.335 322.075 310.94 273.928 293.243Z" fill="#5C3B92"/>
<path fill-rule="evenodd" clip-rule="evenodd" d="M454.825 358.133C454.825 358.133 459.403 333.785 432.618 328.779C405.809 323.749 394.025 360.977 412.852 375.384C431.679 389.792 465.835 385.397 467.642 353.386C471.609 282.69 330.314 284.382 350.221 397.665C360.808 457.996 449.144 495.553 501.047 476.822L501.047 437.713C416.209 463.919 349.141 391.695 387.382 335.5C415.199 294.629 475.999 326.828 454.872 358.157L454.825 358.133Z" fill="#5C3B92"/>
<path fill-rule="evenodd" clip-rule="evenodd" d="M475.06 257.66C475.06 257.66 476.938 277.707 454.872 279.752C432.806 281.797 426.045 250.773 442.383 240.526C458.698 230.279 486.023 236.413 485.084 262.478C482.971 319.989 368.719 307.979 393.368 217.776C406.209 170.723 462.759 145.575 501.023 162.286L501.023 194.038C489.756 188.256 469.825 181.887 449.191 193.497C417.688 211.218 405.551 246.989 418.768 270.915C438.205 306.099 489.849 284.617 475.107 257.66L475.06 257.66Z" fill="#5C3B92"/>
</g>
<defs>
<clipPath id="clip0_412_196">
<rect width="620" height="501" fill="white" transform="translate(501) rotate(90)"/>
</clipPath>
</defs>
</svg>
